# Blender v2.83.5 OBJ File: 'bedpillow01.blend'
# www.blender.org
mtllib bedpillow01.mtl
o Sphere
v -0.000000 0.000141 -0.129951
v 0.081536 0.086777 -0.081535
v 0.150658 0.075353 -0.150658
v 0.196844 0.058255 -0.196844
v 0.208969 0.048368 -0.208968
v 0.213063 0.038087 -0.213062
v 0.208969 0.027805 -0.208968
v 0.196844 0.017918 -0.196844
v 0.126264 0.004534 -0.126264
v 0.083916 0.091928 0.000000
v 0.155057 0.079295 0.000000
v 0.202592 0.060388 0.000000
v 0.215070 0.049456 0.000000
v 0.219284 0.038087 0.000000
v 0.215070 0.026717 0.000000
v 0.202592 0.015785 0.000000
v 0.129951 0.000141 0.000000
v 0.081536 0.086777 0.081536
v 0.150658 0.075353 0.150658
v 0.196844 0.058255 0.196845
v 0.208969 0.048368 0.208969
v 0.213063 0.038087 0.213063
v 0.208969 0.027805 0.208969
v 0.196844 0.017918 0.196845
v 0.126264 0.004534 0.126265
v -0.000000 0.091928 0.083917
v -0.000000 0.079295 0.155057
v -0.000000 0.060388 0.202592
v -0.000000 0.049456 0.215071
v -0.000000 0.038087 0.219284
v -0.000000 0.026717 0.215071
v -0.000000 0.015785 0.202592
v 0.000000 0.000141 0.129952
v -0.000000 -0.001493 0.000000
v -0.000000 0.096364 0.000000
v -0.081536 0.086777 0.081536
v -0.150658 0.075353 0.150658
v -0.196844 0.058255 0.196845
v -0.208969 0.048368 0.208969
v -0.213063 0.038087 0.213063
v -0.208969 0.027805 0.208969
v -0.196844 0.017918 0.196845
v -0.126264 0.004534 0.126265
v -0.083916 0.091928 0.000000
v -0.155057 0.079295 0.000000
v -0.202592 0.060388 0.000000
v -0.215070 0.049456 0.000000
v -0.219284 0.038087 0.000000
v -0.215070 0.026717 0.000000
v -0.202592 0.015785 0.000000
v -0.129951 0.000141 0.000000
v -0.081536 0.086777 -0.081535
v -0.150658 0.075353 -0.150658
v -0.196844 0.058255 -0.196844
v -0.208969 0.048368 -0.208968
v -0.213063 0.038087 -0.213062
v -0.208969 0.027805 -0.208968
v -0.196844 0.017918 -0.196844
v -0.126264 0.004534 -0.126264
v -0.000000 0.091928 -0.083916
v -0.000000 0.079295 -0.155057
v -0.000000 0.060388 -0.202591
v -0.000000 0.049456 -0.215070
v -0.000000 0.038087 -0.219283
v -0.000000 0.026717 -0.215070
v -0.000000 0.015785 -0.202591
vt 0.737273 0.976198
vt 0.741220 0.976198
vt 0.741220 0.980145
vt 0.737273 0.980145
vt 0.737273 0.974225
vt 0.733326 0.976198
vt 0.733326 0.974225
vt 0.737273 0.972252
vt 0.733326 0.972252
vt 0.719512 0.988039
vt 0.717539 0.984092
vt 0.721486 0.984092
vt 0.735300 0.956465
vt 0.737273 0.958438
vt 0.733326 0.958438
vt 0.737273 0.970278
vt 0.733326 0.970278
vt 0.725433 0.984092
vt 0.729379 0.984092
vt 0.727406 0.988039
vt 0.737273 0.968305
vt 0.733326 0.968305
vt 0.741220 0.984092
vt 0.737273 0.984092
vt 0.733326 0.984092
vt 0.733326 0.980145
vt 0.721486 0.980145
vt 0.725433 0.980145
vt 0.729379 0.980145
vt 0.729379 0.976198
vt 0.729379 0.974225
vt 0.729379 0.972252
vt 0.731353 0.956465
vt 0.729379 0.958438
vt 0.729379 0.970278
vt 0.729379 0.968305
vt 0.725433 0.976198
vt 0.725433 0.974225
vt 0.725433 0.972252
vt 0.727406 0.956465
vt 0.725433 0.958438
vt 0.725433 0.970278
vt 0.725433 0.968305
vt 0.721486 0.976198
vt 0.721486 0.974225
vt 0.721486 0.972252
vt 0.723459 0.956465
vt 0.721486 0.958438
vt 0.721486 0.970278
vt 0.721486 0.968305
vt 0.717539 0.974225
vt 0.717539 0.972252
vt 0.719512 0.956465
vt 0.717539 0.958438
vt 0.717539 0.970278
vt 0.717539 0.968305
vt 0.717539 0.976198
vt 0.745167 0.980145
vt 0.713592 0.976198
vt 0.717539 0.980145
vt 0.713592 0.974225
vt 0.713592 0.972252
vt 0.743193 0.988039
vt 0.713592 0.984092
vt 0.715566 0.956465
vt 0.713592 0.958438
vt 0.713592 0.970278
vt 0.713592 0.968305
vt 0.743193 0.956465
vt 0.745167 0.958438
vt 0.741220 0.958438
vt 0.745167 0.970278
vt 0.745167 0.972252
vt 0.741220 0.972252
vt 0.741220 0.970278
vt 0.745167 0.968305
vt 0.741220 0.968305
vt 0.745167 0.974225
vt 0.745167 0.976198
vt 0.741220 0.974225
vt 0.735300 0.988039
vt 0.739246 0.956465
vt 0.745167 0.984092
vt 0.713592 0.980145
vn -0.0265 0.9375 -0.3471
vn 0.0248 0.7691 -0.6386
vn 0.0281 0.3627 -0.9315
vn -0.0645 0.9965 0.0527
vn 0.0351 -0.9993 -0.0126
vn 0.0281 -0.3627 -0.9315
vn 0.0527 0.9965 0.0645
vn 0.0248 -0.7691 -0.6386
vn -0.0000 0.9889 -0.1484
vn 0.0430 0.9880 0.1483
vn 0.1483 0.9880 -0.0430
vn 0.3471 0.9375 -0.0265
vn 0.6386 0.7691 -0.0248
vn 0.9315 0.3627 -0.0281
vn 0.0527 0.9965 -0.0645
vn 0.0126 -0.9993 -0.0351
vn 0.9315 -0.3627 -0.0281
vn 0.6386 -0.7691 -0.0248
vn 0.6386 0.7691 0.0248
vn 0.9315 0.3627 0.0281
vn 0.0126 -0.9993 0.0351
vn 0.9315 -0.3627 0.0281
vn 0.6386 -0.7691 0.0248
vn 0.0265 0.9375 0.3471
vn 0.0248 0.7691 0.6386
vn 0.0281 0.3627 0.9315
vn 0.0645 0.9965 0.0527
vn 0.0351 -0.9993 0.0126
vn 0.0281 -0.3627 0.9315
vn 0.0248 -0.7691 0.6386
vn -0.0281 0.3627 0.9315
vn -0.0351 -0.9993 0.0126
vn -0.0281 -0.3627 0.9315
vn -0.0248 -0.7691 0.6386
vn -0.0248 0.7691 0.6386
vn -0.3471 0.9375 0.0265
vn -0.6386 0.7691 0.0248
vn -0.9315 0.3627 0.0281
vn -0.0527 0.9965 0.0645
vn -0.0126 -0.9993 0.0351
vn -0.9315 -0.3627 0.0281
vn -0.6386 -0.7691 0.0248
vn -0.0527 0.9965 -0.0645
vn -0.0126 -0.9993 -0.0351
vn -0.9315 -0.3627 -0.0281
vn -0.6386 -0.7691 -0.0248
vn -0.1866 -0.9821 -0.0253
vn 0.0253 -0.9821 -0.1866
vn -0.6386 0.7691 -0.0248
vn -0.0253 -0.9821 0.1866
vn -0.9315 0.3627 -0.0281
vn -0.3471 0.9375 -0.0265
vn 0.1866 -0.9821 0.0253
vn -0.0253 -0.9821 -0.1866
vn -0.0248 0.7691 -0.6386
vn 0.1866 -0.9821 -0.0253
vn -0.0281 0.3627 -0.9315
vn 0.0645 0.9965 -0.0527
vn -0.0351 -0.9993 -0.0126
vn -0.0281 -0.3627 -0.9315
vn -0.0248 -0.7691 -0.6386
vn 0.0253 -0.9821 0.1866
vn -0.1483 0.9880 -0.0430
vn -0.1866 -0.9821 0.0253
vn -0.0645 0.9965 -0.0527
vn -0.0430 0.9880 0.1483
vn 0.1483 0.9880 0.0430
vn -0.1483 0.9880 0.0430
vn 0.0265 0.9375 -0.3471
vn 0.3471 0.9375 0.0265
vn -0.0265 0.9375 0.3471
usemtl Material
s off
f 62/1/1 54/2/1 53/3/1 61/4/1
f 63/5/2 62/1/2 4/6/2 5/7/2
f 64/8/3 63/5/3 5/7/3 6/9/3
f 35/10/4 36/11/4 26/12/4
f 34/13/5 1/14/5 9/15/5
f 65/16/6 64/8/6 6/9/6 7/17/6
f 18/18/7 10/19/7 35/20/7
f 66/21/8 65/16/8 7/17/8 8/22/8
f 52/23/9 60/24/9 2/25/9 3/26/9 61/4/9 53/3/9
f 26/12/10 27/27/10 19/28/10 18/18/10
f 10/19/11 11/29/11 3/26/11 2/25/11
f 11/29/12 12/30/12 4/6/12 3/26/12
f 5/7/13 4/6/13 12/30/13 13/31/13
f 6/9/14 5/7/14 13/31/14 14/32/14
f 35/20/15 10/19/15 2/25/15
f 34/33/16 9/15/16 17/34/16
f 7/17/17 6/9/17 14/32/17 15/35/17
f 8/22/18 7/17/18 15/35/18 16/36/18
f 13/31/19 12/30/19 20/37/19 21/38/19
f 14/32/20 13/31/20 21/38/20 22/39/20
f 34/40/21 17/34/21 25/41/21
f 15/35/22 14/32/22 22/39/22 23/42/22
f 16/36/23 15/35/23 23/42/23 24/43/23
f 27/27/24 28/44/24 20/37/24 19/28/24
f 21/38/25 20/37/25 28/44/25 29/45/25
f 22/39/26 21/38/26 29/45/26 30/46/26
f 35/10/27 26/12/27 18/18/27
f 34/47/28 25/41/28 33/48/28
f 23/42/29 22/39/29 30/46/29 31/49/29
f 24/43/30 23/42/30 31/49/30 32/50/30
f 30/46/31 29/45/31 39/51/31 40/52/31
f 34/53/32 33/48/32 43/54/32
f 31/49/33 30/46/33 40/52/33 41/55/33
f 32/50/34 31/49/34 41/55/34 42/56/34
f 29/45/35 28/44/35 38/57/35 39/51/35
f 45/58/36 46/59/36 38/57/36 37/60/36
f 39/51/37 38/57/37 46/59/37 47/61/37
f 40/52/38 39/51/38 47/61/38 48/62/38
f 35/63/39 44/64/39 36/11/39
f 34/65/40 43/54/40 51/66/40
f 41/55/41 40/52/41 48/62/41 49/67/41
f 42/56/42 41/55/42 49/67/42 50/68/42
f 52/23/43 44/64/43 35/63/43
f 34/69/44 51/70/44 59/71/44
f 49/72/45 48/73/45 56/74/45 57/75/45
f 50/76/46 49/72/46 57/75/46 58/77/46
f 59/71/47 51/66/47 50/76/47 58/77/47
f 9/15/48 1/14/48 66/21/48 8/22/48
f 47/78/49 46/79/49 54/2/49 55/80/49
f 43/54/50 33/48/50 32/50/50 42/56/50
f 48/73/51 47/78/51 55/80/51 56/74/51
f 54/2/52 46/59/52 45/58/52 53/3/52
f 25/41/53 17/34/53 16/36/53 24/43/53
f 58/77/54 66/21/54 1/14/54 59/71/54
f 55/80/55 54/2/55 62/1/55 63/5/55
f 17/34/56 9/15/56 8/22/56 16/36/56
f 56/74/57 55/80/57 63/5/57 64/8/57
f 60/24/58 35/81/58 2/25/58
f 34/82/59 59/71/59 1/14/59
f 57/75/60 56/74/60 64/8/60 65/16/60
f 58/77/61 57/75/61 65/16/61 66/21/61
f 33/48/62 25/41/62 24/43/62 32/50/62
f 44/83/63 52/23/63 53/3/63 45/84/63
f 51/66/64 43/54/64 42/56/64 50/76/64
f 52/23/65 35/81/65 60/24/65
f 36/11/66 37/60/66 27/27/66 26/12/66
f 18/18/67 19/28/67 11/29/67 10/19/67
f 36/11/68 44/83/68 45/84/68 37/60/68
f 4/6/69 62/1/69 61/4/69 3/26/69
f 19/28/70 20/37/70 12/30/70 11/29/70
f 37/60/71 38/57/71 28/44/71 27/27/71
