# Blender v2.83.5 OBJ File: 'bookcasewood01.blend'
# www.blender.org
mtllib bookcasewood01.mtl
o Cube.001
v -0.292453 0.089398 0.436831
v -0.202057 2.185916 0.436831
v -0.292453 0.089398 -0.436831
v -0.202057 2.185916 -0.436831
v 0.202057 0.089398 0.436831
v 0.202057 2.185916 0.436831
v 0.202057 0.089398 -0.436831
v 0.202057 2.185916 -0.436831
v -0.202057 1.137657 0.436831
v -0.202057 1.137657 -0.436831
v -0.292453 0.613527 -0.436831
v -0.202057 1.661787 -0.436831
v -0.202057 1.684194 0.417073
v 0.198161 2.163509 -0.417073
v 0.198161 1.684194 0.417073
v 0.198161 2.163509 0.417073
v -0.202057 1.661787 0.436831
v -0.292453 0.613527 0.436831
v 0.198161 1.684194 -0.417073
v -0.202057 2.163509 -0.417073
v -0.202057 2.163509 0.417073
v -0.202057 1.684194 -0.417073
v -0.202057 1.157985 0.417582
v -0.202057 1.157985 -0.417582
v -0.202057 1.641459 -0.417582
v -0.202057 1.641459 0.417582
v 0.195903 1.157985 0.417582
v 0.195903 1.157985 -0.417582
v 0.195903 1.641459 -0.417582
v 0.195903 1.641459 0.417582
v -0.292453 0.089398 0.382227
v -0.267196 0.089398 -0.436831
v 0.202057 0.089398 -0.382227
v 0.176800 0.089398 0.436831
v -0.292453 0.089398 -0.382227
v 0.176800 0.089398 -0.436831
v 0.202057 0.089398 0.382227
v -0.267196 0.089398 0.436831
v 0.176800 0.089398 -0.382227
v -0.267196 0.089398 -0.382227
v -0.267196 0.089398 0.382227
v 0.176800 0.089398 0.382227
v -0.292453 0.034828 0.436831
v -0.292453 0.034828 -0.436831
v 0.202057 0.034828 0.436831
v 0.202057 0.034828 -0.436831
v -0.292453 0.034828 0.382227
v -0.267196 0.034828 -0.436831
v 0.202057 0.034828 -0.382227
v 0.176800 0.034828 0.436831
v -0.292453 0.034828 -0.382227
v 0.176800 0.034828 -0.436831
v 0.202057 0.034828 0.382227
v -0.267196 0.034828 0.436831
v 0.176800 0.034828 -0.382227
v -0.267196 0.034828 -0.382227
v -0.267196 0.034828 0.382227
v 0.176800 0.034828 0.382227
v -0.295353 -0.000899 0.443102
v -0.295353 -0.000899 -0.443102
v 0.204958 -0.000899 0.443102
v 0.204958 -0.000899 -0.443102
v -0.295353 -0.000899 0.387714
v -0.269734 -0.000899 -0.443102
v 0.204958 -0.000899 -0.387714
v 0.179338 -0.000899 0.443102
v -0.295353 -0.000899 -0.387714
v 0.179338 -0.000899 -0.443102
v 0.204958 -0.000899 0.387714
v -0.269734 -0.000899 0.443102
v 0.179338 -0.000899 -0.387714
v -0.269734 -0.000899 -0.387714
v -0.269734 -0.000899 0.387714
v 0.179338 -0.000899 0.387714
v -0.202057 1.122202 0.419432
v -0.202057 1.122202 -0.419432
v -0.202057 0.628983 -0.419432
v -0.202057 0.628983 0.419432
v -0.202057 0.875592 -0.419432
v -0.202057 0.875592 0.419432
v 0.195418 0.628983 -0.419432
v 0.195418 0.628983 0.419432
v 0.195418 0.875592 -0.419432
v 0.195418 0.875592 0.419432
v -0.183757 0.875592 -0.419432
v -0.183757 0.875592 0.419432
v 0.195418 1.134615 -0.419432
v 0.195418 1.134615 0.419432
v -0.183757 1.134615 -0.419432
v -0.183757 1.134615 0.419432
v -0.207078 2.207015 0.447687
v -0.207078 2.207015 -0.447687
v 0.207078 2.207015 0.447687
v 0.207078 2.207015 -0.447687
vt 0.665487 0.764700
vt 0.665487 0.767859
vt 0.665487 0.767859
vt 0.665487 0.764700
vt 0.671806 0.771019
vt 0.671016 0.771019
vt 0.669831 0.771019
vt 0.669041 0.771019
vt 0.668646 0.771019
vt 0.668646 0.767859
vt 0.671806 0.767859
vt 0.671806 0.768057
vt 0.671806 0.770821
vt 0.668646 0.764700
vt 0.671806 0.764700
vt 0.671806 0.764897
vt 0.671806 0.767662
vt 0.668646 0.761540
vt 0.669831 0.761540
vt 0.670621 0.761540
vt 0.671411 0.761540
vt 0.671806 0.761540
vt 0.671806 0.761738
vt 0.671806 0.764502
vt 0.672003 0.767662
vt 0.672003 0.767662
vt 0.671806 0.767662
vt 0.668646 0.767859
vt 0.668646 0.764700
vt 0.670500 0.762799
vt 0.670496 0.762799
vt 0.670498 0.762782
vt 0.670500 0.762782
vt 0.670500 0.762783
vt 0.670500 0.762798
vt 0.670621 0.761540
vt 0.671016 0.761540
vt 0.671411 0.761540
vt 0.670621 0.771019
vt 0.670226 0.774178
vt 0.670226 0.774178
vt 0.670621 0.771019
vt 0.665487 0.767859
vt 0.665487 0.764700
vt 0.669041 0.771019
vt 0.668646 0.771019
vt 0.668646 0.761540
vt 0.669831 0.761540
vt 0.669436 0.771019
vt 0.669436 0.774178
vt 0.669436 0.774178
vt 0.669436 0.771019
vt 0.669436 0.771019
vt 0.669041 0.774178
vt 0.668646 0.774178
vt 0.668646 0.771019
vt 0.669041 0.771019
vt 0.669436 0.774178
vt 0.668646 0.761540
vt 0.669831 0.761540
vt 0.669436 0.774178
vt 0.669436 0.771019
vt 0.669436 0.771019
vt 0.669436 0.774178
vt 0.669831 0.761540
vt 0.670621 0.761540
vt 0.669831 0.771019
vt 0.669041 0.771019
vt 0.670226 0.771019
vt 0.670226 0.774178
vt 0.669831 0.761540
vt 0.670621 0.761540
vt 0.670621 0.771019
vt 0.669831 0.771019
vt 0.669041 0.771019
vt 0.672003 0.764897
vt 0.672003 0.764700
vt 0.674768 0.764700
vt 0.674768 0.764897
vt 0.674965 0.764897
vt 0.674965 0.767662
vt 0.674768 0.767662
vt 0.674768 0.767859
vt 0.672003 0.767859
vt 0.670500 0.762782
vt 0.670500 0.762783
vt 0.672003 0.764897
vt 0.672003 0.764700
vt 0.670500 0.762780
vt 0.670500 0.762780
vt 0.670500 0.762782
vt 0.670500 0.762783
vt 0.670516 0.762763
vt 0.670516 0.762763
vt 0.671806 0.764700
vt 0.671806 0.764502
vt 0.671806 0.764502
vt 0.671806 0.764700
vt 0.670516 0.762764
vt 0.671806 0.767859
vt 0.671806 0.768057
vt 0.670516 0.762747
vt 0.670516 0.762746
vt 0.670516 0.762746
vt 0.670516 0.762747
vt 0.671806 0.764897
vt 0.670500 0.762798
vt 0.670500 0.762799
vt 0.670500 0.762729
vt 0.670500 0.762729
vt 0.670518 0.762747
vt 0.670518 0.762747
vt 0.670516 0.762763
vt 0.672003 0.767859
vt 0.672003 0.764897
vt 0.671806 0.764897
vt 0.672003 0.764700
vt 0.672003 0.767859
vt 0.671806 0.767859
vt 0.671806 0.767662
vt 0.672003 0.767662
vt 0.670518 0.762747
vt 0.670516 0.762747
vt 0.670516 0.762746
vt 0.670518 0.762746
vt 0.671806 0.768057
vt 0.670500 0.762798
vt 0.670500 0.762799
vt 0.670818 0.771019
vt 0.670621 0.774178
vt 0.670226 0.774178
vt 0.670621 0.771019
vt 0.671016 0.771019
vt 0.670424 0.771019
vt 0.669831 0.771019
vt 0.671411 0.771019
vt 0.671016 0.774178
vt 0.671016 0.774178
vt 0.671411 0.771019
vt 0.671016 0.774178
vt 0.671411 0.771019
vt 0.671016 0.771019
vt 0.670621 0.774178
vt 0.670818 0.771019
vt 0.670424 0.771019
vt 0.670424 0.771019
vt 0.671016 0.761540
vt 0.671016 0.761540
vt 0.671411 0.761540
vt 0.676545 0.774178
vt 0.670621 0.774178
vt 0.670621 0.774178
vt 0.670621 0.774178
vt 0.676545 0.774178
vt 0.676545 0.774178
vt 0.676545 0.774178
vt 0.676545 0.774178
vt 0.670818 0.771019
vt 0.676545 0.774178
vt 0.670818 0.771019
vt 0.670818 0.771019
vt 0.665487 0.767859
vt 0.665487 0.764700
vt 0.668646 0.761540
vt 0.668646 0.771019
vn -1.0000 -0.0000 0.0000
vn 0.0000 0.0000 -1.0000
vn 1.0000 0.0000 0.0000
vn 0.0000 0.0000 1.0000
vn 0.9728 -0.2315 0.0000
vn -0.3591 0.0319 -0.9328
vn 0.0000 -1.0000 0.0000
vn 0.0000 1.0000 0.0000
vn -0.9967 0.0809 0.0000
vn 0.0000 -0.1518 0.9884
vn 0.0000 0.1729 0.9849
vn 0.9975 -0.0709 0.0000
vn 0.0000 0.1729 -0.9849
vn 0.0000 -0.1518 -0.9884
vn 0.9967 0.0809 0.0000
vn -0.9975 -0.0709 0.0000
vn -0.3591 0.0319 0.9328
vn -0.1685 0.9857 0.0000
vn -0.9728 -0.2315 0.0000
vn 0.0000 -0.4575 0.8892
vn 0.0000 -0.4575 -0.8892
usemtl Material.001
s off
f 2/1/1 4/2/1 20/3/1 21/4/1
f 3/5/2 11/6/2 10/7/2 12/8/2 4/9/2 8/10/2 7/11/2 36/12/2 32/13/2
f 7/11/3 8/10/3 6/14/3 5/15/3 37/16/3 33/17/3
f 5/15/4 6/14/4 2/18/4 17/19/4 9/20/4 18/21/4 1/22/4 38/23/4 34/24/4
f 33/17/4 39/25/4 55/26/4 49/27/4
f 6/14/5 8/10/5 94/28/5 93/29/5
f 1/30/1 18/31/1 11/32/1 3/33/1 35/34/1 31/35/1
f 18/21/6 9/20/6 75/36/6 80/37/6 78/38/6
f 10/39/1 9/40/1 23/41/1 24/42/1
f 21/4/7 20/3/7 14/43/7 16/44/7
f 4/9/1 12/8/1 22/45/1 20/46/1
f 17/19/1 2/18/1 21/47/1 13/48/1
f 12/49/1 17/50/1 13/51/1 22/52/1
f 19/53/1 15/54/1 16/55/1 14/56/1
f 20/46/4 22/45/4 19/57/4 14/56/4
f 22/52/8 13/51/8 15/58/8 19/53/8
f 13/48/2 21/47/2 16/59/2 15/60/2
f 26/61/7 25/62/7 29/63/7 30/64/7
f 9/20/1 17/19/1 26/65/1 23/66/1
f 12/8/1 10/7/1 24/67/1 25/68/1
f 17/50/1 12/49/1 25/62/1 26/61/1
f 28/69/1 27/70/1 30/64/1 29/63/1
f 23/66/2 26/65/2 30/71/2 27/72/2
f 24/42/8 23/41/8 27/70/8 28/73/8
f 25/68/4 24/67/4 28/74/4 29/75/4
f 37/16/7 42/76/7 34/77/7 38/78/7 41/79/7 31/80/7 35/81/7 40/82/7 32/83/7 36/84/7 39/25/7 33/17/7
f 35/34/1 3/33/1 44/85/1 51/86/1
f 34/77/1 42/76/1 58/87/1 50/88/1
f 3/33/2 32/89/2 48/90/2 44/85/2
f 51/86/9 44/85/9 60/91/9 67/92/9
f 56/93/10 51/86/10 67/92/10 72/94/10
f 45/95/11 50/96/11 66/97/11 61/98/11
f 48/90/12 56/93/12 72/94/12 64/99/12
f 36/12/2 7/11/2 46/100/2 52/101/2
f 41/102/3 38/103/3 54/104/3 57/105/3
f 37/16/3 5/15/3 45/95/3 53/106/3
f 7/11/3 33/17/3 49/27/3 46/100/3
f 42/76/2 37/16/2 53/106/2 58/87/2
f 1/30/1 31/35/1 47/107/1 43/108/1
f 38/103/4 1/109/4 43/110/4 54/104/4
f 31/111/2 41/102/2 57/105/2 47/112/2
f 32/89/3 40/113/3 56/93/3 48/90/3
f 40/113/4 35/34/4 51/86/4 56/93/4
f 5/15/4 34/24/4 50/96/4 45/95/4
f 39/25/1 36/84/1 52/114/1 55/26/1
f 74/115/7 69/116/7 61/98/7 66/117/7
f 68/118/7 62/119/7 65/120/7 71/121/7
f 60/91/7 64/99/7 72/94/7 67/92/7
f 63/122/7 73/123/7 70/124/7 59/125/7
f 57/105/12 54/104/12 70/124/12 73/123/12
f 52/101/13 46/100/13 62/119/13 68/126/13
f 47/112/14 57/105/14 73/123/14 63/122/14
f 53/106/15 45/95/15 61/98/15 69/116/15
f 50/88/16 58/87/16 74/115/16 66/117/16
f 54/104/11 43/110/11 59/125/11 70/124/11
f 43/108/9 47/107/9 63/127/9 59/128/9
f 58/87/14 53/106/14 69/116/14 74/115/14
f 55/26/16 52/114/16 68/118/16 71/121/16
f 44/85/13 48/90/13 64/99/13 60/91/13
f 49/27/10 55/26/10 71/121/10 65/120/10
f 46/100/15 49/27/15 65/120/15 62/119/15
f 79/129/1 80/130/1 75/131/1 76/132/1
f 10/7/17 11/6/17 77/133/17 79/134/17 76/135/17
f 11/136/18 18/137/18 78/138/18 77/139/18
f 9/40/1 10/39/1 76/132/1 75/131/1
f 77/139/8 78/138/8 82/140/8 81/141/8
f 81/142/1 82/140/1 84/143/1 83/144/1
f 79/134/4 77/133/4 81/142/4 83/145/4 85/146/4
f 78/38/2 80/37/2 86/147/2 84/148/2 82/149/2
f 79/134/7 85/146/7 86/150/7 80/37/7
f 86/151/2 90/152/2 88/153/2 84/143/2
f 90/154/7 89/155/7 87/156/7 88/157/7
f 84/143/1 88/153/1 87/158/1 83/144/1
f 85/159/3 89/155/3 90/154/3 86/150/3
f 83/144/4 87/158/4 89/160/4 85/161/4
f 94/28/8 92/162/8 91/163/8 93/29/8
f 4/2/19 2/1/19 91/163/19 92/162/19
f 2/18/20 6/14/20 93/29/20 91/164/20
f 8/10/21 4/9/21 92/165/21 94/28/21
