# Blender v2.83.5 OBJ File: 'bookcasewood02.blend'
# www.blender.org
mtllib bookcasewood02.mtl
o Cube.001
v -0.202057 0.043664 0.700000
v -0.202057 2.140183 0.700000
v -0.202057 0.043664 -0.700000
v -0.202057 2.140183 -0.700000
v 0.202057 0.043664 0.700000
v 0.202057 2.140183 0.700000
v 0.202057 0.043664 -0.700000
v 0.202057 2.140183 -0.700000
v -0.202057 1.091924 0.700000
v -0.202057 1.091924 -0.700000
v -0.202057 0.567794 -0.700000
v -0.202057 1.616053 -0.700000
v -0.202057 1.638461 0.668339
v 0.198161 2.117776 -0.668339
v 0.198161 1.638461 0.668339
v 0.198161 2.117776 0.668339
v -0.202057 1.616053 0.700000
v -0.202057 0.567794 0.700000
v 0.198161 1.638461 -0.668339
v -0.202057 2.117776 -0.668339
v -0.202057 2.117776 0.668339
v -0.202057 1.638461 -0.668339
v -0.202057 1.112251 0.669154
v -0.202057 1.112251 -0.669154
v -0.202057 1.595726 -0.669154
v -0.202057 1.595726 0.669154
v 0.195903 1.112251 0.669154
v 0.195903 1.112251 -0.669154
v 0.195903 1.595726 -0.669154
v 0.195903 1.595726 0.669154
v -0.202057 1.073132 0.672290
v -0.202057 1.073132 -0.672290
v -0.202057 0.586586 -0.672290
v -0.202057 0.586586 0.672290
v 0.195043 1.073132 0.672290
v 0.195043 1.073132 -0.672290
v 0.195043 0.586586 -0.672290
v 0.195043 0.586586 0.672290
v -0.202057 0.060939 0.673177
v -0.202057 0.060939 -0.673177
v -0.202057 0.550519 -0.673177
v -0.202057 0.550519 0.673177
v 0.195074 0.060939 0.673177
v 0.195074 0.060939 -0.673177
v 0.195074 0.550519 -0.673177
v 0.195074 0.550519 0.673177
v -0.206824 0.000000 0.716515
v -0.206824 0.000000 -0.716515
v 0.206824 0.000000 0.716515
v 0.206824 0.000000 -0.716515
v -0.210651 2.156581 0.729772
v -0.210651 2.156581 -0.729772
v 0.210651 2.156581 0.729772
v 0.210651 2.156581 -0.729772
vt 0.689603 0.766402
vt 0.689603 0.760000
vt 0.689603 0.760000
vt 0.689603 0.766402
vt 0.676799 0.753598
vt 0.678400 0.753598
vt 0.680800 0.753598
vt 0.682401 0.753598
vt 0.683201 0.753598
vt 0.683201 0.760000
vt 0.676799 0.760000
vt 0.683201 0.766402
vt 0.676799 0.766402
vt 0.683201 0.772804
vt 0.680800 0.772804
vt 0.679200 0.772804
vt 0.677599 0.772804
vt 0.676799 0.772804
vt 0.676799 0.766402
vt 0.676799 0.760000
vt 0.683201 0.753598
vt 0.683201 0.760000
vt 0.678400 0.747196
vt 0.677599 0.753598
vt 0.677599 0.753598
vt 0.678400 0.747196
vt 0.678400 0.753598
vt 0.680800 0.753598
vt 0.679200 0.753598
vt 0.680000 0.747196
vt 0.680000 0.747196
vt 0.679200 0.753598
vt 0.689603 0.760000
vt 0.689603 0.766402
vt 0.682401 0.753598
vt 0.683201 0.753598
vt 0.683201 0.772804
vt 0.680800 0.772804
vt 0.681600 0.753598
vt 0.681600 0.747196
vt 0.681600 0.747196
vt 0.681600 0.753598
vt 0.681600 0.753598
vt 0.682401 0.747196
vt 0.683201 0.747196
vt 0.683201 0.753598
vt 0.682401 0.753598
vt 0.681600 0.747196
vt 0.683201 0.772804
vt 0.680800 0.772804
vt 0.681600 0.747196
vt 0.681600 0.753598
vt 0.681600 0.753598
vt 0.681600 0.747196
vt 0.680800 0.772804
vt 0.679200 0.772804
vt 0.680800 0.753598
vt 0.682401 0.753598
vt 0.680000 0.753598
vt 0.680000 0.747196
vt 0.680800 0.772804
vt 0.679200 0.772804
vt 0.679200 0.753598
vt 0.680800 0.753598
vt 0.682401 0.753598
vt 0.677599 0.753598
vt 0.678400 0.747196
vt 0.678400 0.747196
vt 0.677599 0.753598
vt 0.679200 0.753598
vt 0.680000 0.747196
vt 0.679200 0.772804
vt 0.677599 0.772804
vt 0.678400 0.753598
vt 0.680000 0.747196
vt 0.679200 0.753598
vt 0.680800 0.753598
vt 0.679200 0.772804
vt 0.677599 0.772804
vt 0.677599 0.753598
vt 0.678400 0.747196
vt 0.670397 0.760000
vt 0.670397 0.766402
vt 0.670397 0.766402
vt 0.670397 0.760000
vt 0.676799 0.753598
vt 0.678400 0.753598
vt 0.677599 0.772804
vt 0.676799 0.772804
vt 0.676799 0.747196
vt 0.676799 0.753598
vt 0.677599 0.772804
vt 0.676799 0.772804
vt 0.678400 0.753598
vt 0.670397 0.766402
vt 0.670397 0.760000
vt 0.670397 0.760000
vt 0.670397 0.766402
vt 0.676799 0.772804
vt 0.676799 0.753598
vt 0.689603 0.760000
vt 0.689603 0.766402
vt 0.683201 0.766402
vt 0.683201 0.772804
vn -1.0000 0.0000 0.0000
vn 0.0000 0.0000 -1.0000
vn 1.0000 0.0000 0.0000
vn 0.0000 0.0000 1.0000
vn 0.9941 0.1085 0.0000
vn 0.0000 -0.8759 -0.4825
vn 0.0000 -1.0000 0.0000
vn 0.0000 1.0000 0.0000
vn 0.0000 0.3538 0.9353
vn 0.0000 0.3538 -0.9353
vn -0.9941 0.1085 0.0000
vn 0.8857 -0.4642 0.0000
vn -0.8857 -0.4642 0.0000
vn 0.0000 -0.8759 0.4825
usemtl Material.001
s off
f 2/1/1 4/2/1 20/3/1 21/4/1
f 3/5/2 11/6/2 10/7/2 12/8/2 4/9/2 8/10/2 7/11/2
f 7/11/3 8/10/3 6/12/3 5/13/3
f 5/13/4 6/12/4 2/14/4 17/15/4 9/16/4 18/17/4 1/18/4
f 7/11/5 5/13/5 49/19/5 50/20/5
f 8/10/6 4/9/6 52/21/6 54/22/6
f 18/23/1 11/24/1 41/25/1 42/26/1
f 10/7/1 11/6/1 33/27/1 32/28/1
f 10/29/1 9/30/1 23/31/1 24/32/1
f 21/4/7 20/3/7 14/33/7 16/34/7
f 4/9/1 12/8/1 22/35/1 20/36/1
f 17/15/1 2/14/1 21/37/1 13/38/1
f 12/39/1 17/40/1 13/41/1 22/42/1
f 19/43/1 15/44/1 16/45/1 14/46/1
f 20/36/4 22/35/4 19/47/4 14/46/4
f 22/42/8 13/41/8 15/48/8 19/43/8
f 13/38/2 21/37/2 16/49/2 15/50/2
f 26/51/7 25/52/7 29/53/7 30/54/7
f 9/16/1 17/15/1 26/55/1 23/56/1
f 12/8/1 10/7/1 24/57/1 25/58/1
f 17/40/1 12/39/1 25/52/1 26/51/1
f 28/59/1 27/60/1 30/54/1 29/53/1
f 23/56/2 26/55/2 30/61/2 27/62/2
f 24/32/8 23/31/8 27/60/8 28/63/8
f 25/58/4 24/57/4 28/64/4 29/65/4
f 33/66/8 34/67/8 38/68/8 37/69/8
f 11/24/1 18/23/1 34/67/1 33/66/1
f 9/30/1 10/29/1 32/70/1 31/71/1
f 18/17/1 9/16/1 31/72/1 34/73/1
f 37/74/1 38/68/1 35/75/1 36/76/1
f 32/28/4 33/27/4 37/74/4 36/77/4
f 31/71/7 32/70/7 36/76/7 35/75/7
f 34/73/2 31/72/2 35/78/2 38/79/2
f 42/26/7 41/25/7 45/80/7 46/81/7
f 3/82/1 1/83/1 39/84/1 40/85/1
f 11/6/1 3/5/1 40/86/1 41/87/1
f 1/18/1 18/17/1 42/88/1 39/89/1
f 43/90/1 46/81/1 45/80/1 44/91/1
f 39/89/2 42/88/2 46/92/2 43/93/2
f 41/87/4 40/86/4 44/91/4 45/94/4
f 40/85/8 39/84/8 43/95/8 44/96/8
f 48/97/7 50/20/7 49/19/7 47/98/7
f 5/13/9 1/18/9 47/99/9 49/19/9
f 3/5/10 7/11/10 50/20/10 48/100/10
f 1/83/11 3/82/11 48/97/11 47/98/11
f 54/22/8 52/101/8 51/102/8 53/103/8
f 6/12/12 8/10/12 54/22/12 53/103/12
f 4/2/13 2/1/13 51/102/13 52/101/13
f 2/14/14 6/12/14 53/103/14 51/104/14
