# Blender v2.83.5 OBJ File: 'chairwoodbarstool01.blend'
# www.blender.org
mtllib chairwoodbarstool01.mtl
o Cube_Cube.001
v -0.112678 0.615666 -0.108854
v 0.111452 0.615758 0.100214
v -0.124443 -0.015754 0.118484
v -0.109098 0.616420 0.103653
v -0.111712 -0.015754 0.093730
v -0.109098 0.616420 0.065407
v -0.094287 -0.015754 0.116417
v -0.070851 0.616420 0.103653
v -0.094238 -0.015754 0.096542
v -0.070851 0.616420 0.065407
v 0.104319 -0.015754 0.107767
v 0.072627 0.620781 0.102066
v 0.106018 -0.015754 0.085354
v 0.072627 0.616420 0.063819
v 0.123168 -0.015754 0.115463
v 0.123099 -0.015754 0.088530
v 0.110874 0.616420 0.063819
v 0.101153 -0.016189 -0.089064
v 0.072695 0.615985 -0.063420
v 0.093726 -0.016189 -0.113749
v 0.072695 0.615985 -0.101666
v 0.120707 -0.016189 -0.089666
v 0.107838 0.615985 -0.063420
v 0.123092 -0.016189 -0.112266
v 0.107838 0.615985 -0.101666
v -0.119509 -0.016189 -0.084915
v -0.112276 0.615985 -0.070844
v -0.124350 -0.016189 -0.122359
v -0.099511 -0.016189 -0.090760
v -0.074030 0.615985 -0.070844
v -0.094670 -0.016189 -0.110004
v -0.074030 0.615985 -0.109090
v -0.000884 0.634821 -0.176007
v -0.000884 0.610719 -0.176007
v 0.066617 0.634821 -0.162580
v 0.066617 0.610719 -0.162580
v 0.123843 0.634821 -0.124344
v 0.123843 0.610719 -0.124344
v 0.162079 0.634821 -0.067119
v 0.162079 0.610719 -0.067119
v 0.175506 0.634821 0.000383
v 0.175506 0.610719 0.000383
v 0.162079 0.634821 0.067885
v 0.162079 0.610719 0.067885
v 0.123843 0.634821 0.125110
v 0.123843 0.610719 0.125110
v 0.066617 0.634821 0.163347
v 0.066617 0.610719 0.163347
v -0.000884 0.634821 0.172506
v -0.000884 0.610719 0.172506
v -0.068386 0.634821 0.163347
v -0.068386 0.610719 0.163347
v -0.125611 0.634821 0.125110
v -0.125611 0.610719 0.125110
v -0.163848 0.634821 0.067885
v -0.163848 0.610719 0.067885
v -0.173457 0.634821 0.000383
v -0.173457 0.610719 0.000383
v -0.163848 0.634821 -0.067119
v -0.163848 0.610719 -0.067119
v -0.125611 0.634821 -0.124344
v -0.125611 0.610719 -0.124344
v -0.068386 0.634821 -0.162580
v -0.068386 0.610719 -0.162580
v 0.032178 0.634821 -0.165748
v 0.032178 0.610719 -0.165748
vt 0.604536 0.750594
vt 0.613091 0.750594
vt 0.613091 0.759149
vt 0.604536 0.759149
vt 0.613091 0.767703
vt 0.604536 0.767703
vt 0.613091 0.776258
vt 0.604536 0.776258
vt 0.613091 0.784813
vt 0.604536 0.784813
vt 0.595982 0.767703
vt 0.595982 0.776258
vt 0.630729 0.763729
vt 0.625271 0.763729
vt 0.625271 0.758271
vt 0.630729 0.758271
vt 0.604536 0.750594
vt 0.613091 0.750594
vt 0.613091 0.759149
vt 0.604536 0.759149
vt 0.613091 0.767703
vt 0.604536 0.767703
vt 0.613091 0.776258
vt 0.604536 0.776258
vt 0.613091 0.784813
vt 0.604536 0.784813
vt 0.595982 0.767703
vt 0.595982 0.776258
vt 0.630729 0.763729
vt 0.625271 0.763729
vt 0.625271 0.758271
vt 0.630729 0.758271
vt 0.604536 0.750594
vt 0.613091 0.750594
vt 0.613091 0.759149
vt 0.604536 0.759149
vt 0.613091 0.767703
vt 0.604536 0.767703
vt 0.613091 0.776258
vt 0.604536 0.776258
vt 0.613091 0.784813
vt 0.604536 0.784813
vt 0.595982 0.767703
vt 0.595982 0.776258
vt 0.630729 0.763729
vt 0.625271 0.763729
vt 0.625271 0.758271
vt 0.630729 0.758271
vt 0.604536 0.750594
vt 0.613091 0.750594
vt 0.613091 0.759149
vt 0.604536 0.759149
vt 0.613091 0.767703
vt 0.604536 0.767703
vt 0.613091 0.776258
vt 0.604536 0.776258
vt 0.613091 0.784813
vt 0.604536 0.784813
vt 0.595982 0.767703
vt 0.595982 0.776258
vt 0.630729 0.763729
vt 0.625271 0.763729
vt 0.625271 0.758271
vt 0.630729 0.758271
vt 0.621665 0.771969
vt 0.620627 0.771969
vt 0.620627 0.788570
vt 0.621665 0.788570
vt 0.618552 0.771969
vt 0.618552 0.788570
vt 0.616477 0.771969
vt 0.616477 0.788570
vt 0.614402 0.771969
vt 0.614402 0.788570
vt 0.612327 0.771969
vt 0.612327 0.788570
vt 0.610251 0.771969
vt 0.610251 0.788570
vt 0.608176 0.771969
vt 0.608176 0.788570
vt 0.606101 0.771969
vt 0.606101 0.788570
vt 0.604026 0.771969
vt 0.604026 0.788570
vt 0.601951 0.771969
vt 0.601951 0.788570
vt 0.599876 0.771969
vt 0.599876 0.788570
vt 0.597801 0.771969
vt 0.597801 0.788570
vt 0.595725 0.771969
vt 0.595725 0.788570
vt 0.593650 0.771969
vt 0.593650 0.788570
vt 0.600850 0.771030
vt 0.603435 0.769303
vt 0.605163 0.766718
vt 0.605769 0.763668
vt 0.605163 0.760619
vt 0.603435 0.758034
vt 0.600850 0.756306
vt 0.597801 0.755700
vt 0.594751 0.756306
vt 0.592166 0.758034
vt 0.590439 0.760619
vt 0.589832 0.763668
vt 0.590439 0.766718
vt 0.592166 0.769303
vt 0.594751 0.771030
vt 0.597801 0.771637
vt 0.599325 0.771334
vt 0.591575 0.771969
vt 0.591575 0.788570
vt 0.589500 0.771969
vt 0.589500 0.788570
vt 0.614402 0.771637
vt 0.611352 0.771030
vt 0.608767 0.769303
vt 0.607040 0.766718
vt 0.606433 0.763668
vt 0.607040 0.760619
vt 0.608767 0.758034
vt 0.611352 0.756306
vt 0.614402 0.755700
vt 0.617451 0.756306
vt 0.620036 0.758034
vt 0.621764 0.760619
vt 0.622370 0.763668
vt 0.621764 0.766718
vt 0.620036 0.769303
vt 0.617451 0.771030
vt 0.615927 0.771334
vt 0.622702 0.771969
vt 0.622702 0.788570
vn -0.9802 0.0072 -0.1981
vn 0.0503 -0.0479 -0.9976
vn 0.9993 -0.0370 0.0008
vn 0.0302 0.0209 0.9993
vn 0.0000 -1.0000 0.0000
vn 0.0000 1.0000 0.0000
vn -0.9984 -0.0517 -0.0242
vn 0.0573 -0.0344 -0.9978
vn 0.9998 0.0186 -0.0100
vn -0.0997 0.0130 0.9949
vn 0.0638 0.9967 -0.0499
vn -0.9922 -0.0423 0.1171
vn 0.0230 0.0186 -0.9996
vn 0.9990 0.0211 0.0392
vn 0.0110 -0.0406 0.9991
vn -0.9975 0.0134 0.0693
vn 0.1746 0.0068 -0.9846
vn 0.9958 -0.0377 0.0839
vn 0.0998 -0.0293 0.9946
vn -0.0042 1.0000 -0.0042
vn 0.0916 0.0000 -0.9958
vn 0.5556 0.0000 -0.8315
vn 0.8315 0.0000 -0.5556
vn 0.9808 0.0000 -0.1951
vn 0.9808 0.0000 0.1951
vn 0.8315 0.0000 0.5556
vn 0.5556 0.0000 0.8315
vn 0.1345 0.0000 0.9909
vn -0.1345 0.0000 0.9909
vn -0.5556 0.0000 0.8315
vn -0.8315 0.0000 0.5556
vn -0.9900 0.0000 0.1409
vn -0.9900 0.0000 -0.1409
vn -0.8315 0.0000 -0.5556
vn -0.5556 0.0000 -0.8315
vn -0.1951 0.0000 -0.9808
vn 0.2964 0.0000 -0.9551
usemtl Material.001
s off
f 3/1/1 4/2/1 6/3/1 5/4/1
f 5/4/2 6/3/2 10/5/2 9/6/2
f 9/6/3 10/5/3 8/7/3 7/8/3
f 7/8/4 8/7/4 4/9/4 3/10/4
f 5/11/5 9/6/5 7/8/5 3/12/5
f 10/13/6 6/14/6 4/15/6 8/16/6
f 11/17/7 12/18/7 14/19/7 13/20/7
f 13/20/8 14/19/8 17/21/8 16/22/8
f 16/22/9 17/21/9 2/23/9 15/24/9
f 15/24/10 2/23/10 12/25/10 11/26/10
f 13/27/5 16/22/5 15/24/5 11/28/5
f 17/29/11 14/30/11 12/31/11 2/32/11
f 18/33/12 19/34/12 21/35/12 20/36/12
f 20/36/13 21/35/13 25/37/13 24/38/13
f 24/38/14 25/37/14 23/39/14 22/40/14
f 22/40/15 23/39/15 19/41/15 18/42/15
f 20/43/5 24/38/5 22/40/5 18/44/5
f 25/45/6 21/46/6 19/47/6 23/48/6
f 26/49/16 27/50/16 1/51/16 28/52/16
f 28/52/17 1/51/17 32/53/17 31/54/17
f 31/54/18 32/53/18 30/55/18 29/56/18
f 29/56/19 30/55/19 27/57/19 26/58/19
f 28/59/5 31/54/5 29/56/5 26/60/5
f 32/61/20 1/62/20 27/63/20 30/64/20
f 65/65/21 35/66/21 36/67/21 66/68/21
f 35/66/22 37/69/22 38/70/22 36/67/22
f 37/69/23 39/71/23 40/72/23 38/70/23
f 39/71/24 41/73/24 42/74/24 40/72/24
f 41/73/25 43/75/25 44/76/25 42/74/25
f 43/75/26 45/77/26 46/78/26 44/76/26
f 45/77/27 47/79/27 48/80/27 46/78/27
f 47/79/28 49/81/28 50/82/28 48/80/28
f 49/81/29 51/83/29 52/84/29 50/82/29
f 51/83/30 53/85/30 54/86/30 52/84/30
f 53/85/31 55/87/31 56/88/31 54/86/31
f 55/87/32 57/89/32 58/90/32 56/88/32
f 57/89/33 59/91/33 60/92/33 58/90/33
f 59/91/34 61/93/34 62/94/34 60/92/34
f 36/95/5 38/96/5 40/97/5 42/98/5 44/99/5 46/100/5 48/101/5 50/102/5 52/103/5 54/104/5 56/105/5 58/106/5 60/107/5 62/108/5 64/109/5 34/110/5 66/111/5
f 61/93/35 63/112/35 64/113/35 62/94/35
f 63/112/36 33/114/36 34/115/36 64/113/36
f 33/116/6 63/117/6 61/118/6 59/119/6 57/120/6 55/121/6 53/122/6 51/123/6 49/124/6 47/125/6 45/126/6 43/127/6 41/128/6 39/129/6 37/130/6 35/131/6 65/132/6
f 33/133/37 65/65/37 66/68/37 34/134/37
