# Blender v2.83.5 OBJ File: 'chairwooddetailed01.blend'
# www.blender.org
mtllib chairwooddetailed01.mtl
o Cube.001_Cube.005
v -0.227394 0.448586 0.237971
v -0.227394 0.448586 -0.237930
v 0.211890 0.448586 0.237971
v 0.211890 0.507313 0.237971
v 0.211890 0.448586 -0.237930
v 0.211890 0.507313 -0.237930
v -0.222035 -0.000551 -0.190824
v -0.227363 0.449331 -0.185052
v -0.222035 -0.000551 -0.232157
v -0.227363 0.449331 -0.237930
v -0.183882 -0.000551 -0.190824
v -0.178554 0.449331 -0.185052
v -0.183882 -0.000551 -0.232157
v -0.178554 0.449331 -0.237930
v 0.283718 -0.000551 -0.192450
v 0.203333 0.203972 -0.185052
v 0.283718 -0.000551 -0.230532
v 0.203333 0.203972 -0.237930
v 0.318870 -0.000551 -0.192450
v 0.252143 0.203972 -0.185052
v 0.318870 -0.000551 -0.230532
v 0.252143 0.203972 -0.237930
v 0.283363 -0.000551 0.230958
v 0.203333 0.203972 0.237971
v 0.283363 -0.000551 0.192106
v 0.203333 0.203972 0.185093
v 0.319226 -0.000551 0.230958
v 0.252143 0.203972 0.237971
v 0.319226 -0.000551 0.192106
v 0.252143 0.203972 0.185093
v -0.221775 -0.000551 0.231916
v -0.227363 0.450892 0.237971
v -0.221775 -0.000551 0.191147
v -0.227363 0.450892 0.185093
v -0.184143 -0.000551 0.231916
v -0.178554 0.450892 0.237971
v -0.184143 -0.000551 0.191147
v -0.178554 0.450892 0.185093
v 0.175609 0.325740 -0.185052
v 0.175609 0.325740 -0.237930
v 0.224418 0.325740 -0.185052
v 0.224418 0.325740 -0.237930
v 0.175609 0.325740 0.237971
v 0.175609 0.325740 0.185093
v 0.224418 0.325740 0.237971
v 0.224418 0.325740 0.185093
v 0.159805 0.455949 -0.185052
v 0.159805 0.455949 -0.237930
v 0.208614 0.455949 -0.185052
v 0.208614 0.455949 -0.237930
v 0.159805 0.455949 0.237971
v 0.159805 0.455949 0.185093
v 0.208614 0.455949 0.237971
v 0.208614 0.455949 0.185093
v -0.033829 0.546481 -0.163707
v -0.033829 0.528158 -0.213900
v -0.033829 0.517563 -0.227076
v -0.033829 0.506545 -0.231525
v 0.047722 0.558724 -0.092802
v 0.123749 0.546481 -0.183910
v 0.153465 0.528158 -0.219401
v 0.161266 0.517563 -0.228718
v 0.163900 0.506545 -0.231864
v 0.045244 0.558724 0.000021
v 0.108139 0.546481 0.000021
v 0.150164 0.528158 0.000021
v 0.161197 0.517563 0.000021
v 0.164922 0.506545 0.000021
v 0.047923 0.558724 0.095291
v 0.124030 0.546481 0.186431
v 0.153747 0.528158 0.221922
v 0.161547 0.517563 0.231239
v 0.164181 0.506545 0.234385
v -0.033829 0.558724 0.088629
v -0.033829 0.546481 0.163748
v -0.033829 0.528158 0.213941
v -0.033829 0.517563 0.227117
v -0.033829 0.506545 0.231566
v -0.109731 0.558724 0.094391
v -0.186283 0.546481 0.185167
v -0.215999 0.528158 0.220659
v -0.223800 0.517563 0.229976
v -0.226434 0.506545 0.233122
v -0.108019 0.558724 0.000021
v -0.170914 0.546481 0.000021
v -0.033829 0.558724 0.000021
v -0.212939 0.528158 0.000021
v -0.223971 0.517563 0.000021
v -0.227696 0.506545 0.000021
v -0.107336 0.558724 -0.092061
v -0.182919 0.546481 -0.182869
v -0.212635 0.528158 -0.218361
v -0.220436 0.517563 -0.227678
v -0.223070 0.506545 -0.230824
v -0.033829 0.558724 -0.088588
v 0.165232 0.508658 -0.184523
v 0.165232 0.576500 -0.146154
v 0.165232 0.508658 -0.234119
v 0.165232 0.576500 -0.195750
v 0.211012 0.508658 -0.184523
v 0.211012 0.576500 -0.146154
v 0.211012 0.508658 -0.234119
v 0.211012 0.576500 -0.195750
v 0.160482 0.621180 -0.136931
v 0.160482 0.621180 -0.194091
v 0.213244 0.621180 -0.136931
v 0.213244 0.621180 -0.194091
v 0.160482 0.715006 -0.136931
v 0.160482 0.715006 -0.194091
v 0.213244 0.715006 -0.136931
v 0.213244 0.715006 -0.194091
v 0.160482 0.832156 -0.184573
v 0.160482 0.832156 -0.241733
v 0.213244 0.832156 -0.184573
v 0.213244 0.832156 -0.241733
v 0.168879 1.005918 -0.191481
v 0.168879 1.005918 -0.248641
v 0.221641 1.005918 -0.191481
v 0.221641 1.005918 -0.248641
v 0.178706 1.154094 -0.159169
v 0.178706 1.154094 -0.216329
v 0.231468 1.154094 -0.159169
v 0.231468 1.154094 -0.216329
v 0.187779 1.201226 -0.159169
v 0.187779 1.180640 -0.199545
v 0.240541 1.201226 -0.159169
v 0.240541 1.180640 -0.199545
v 0.211012 0.508658 0.186108
v 0.211012 0.576500 0.147739
v 0.211012 0.508658 0.235704
v 0.211012 0.576500 0.197336
v 0.165232 0.508658 0.186108
v 0.165232 0.576500 0.147739
v 0.165232 0.508658 0.235704
v 0.165232 0.576500 0.197336
v 0.213244 0.621180 0.138516
v 0.213244 0.621180 0.195676
v 0.160482 0.621180 0.138516
v 0.160482 0.621180 0.195676
v 0.213244 0.715006 0.138516
v 0.213244 0.715006 0.195676
v 0.160482 0.715006 0.138516
v 0.160482 0.715006 0.195676
v 0.213244 0.832156 0.186158
v 0.213244 0.832156 0.243318
v 0.160482 0.832156 0.186158
v 0.160482 0.832156 0.243318
v 0.221641 1.005918 0.193067
v 0.221641 1.005918 0.250227
v 0.168879 1.005918 0.193067
v 0.168879 1.005918 0.250227
v 0.231468 1.154094 0.160754
v 0.231468 1.154094 0.217914
v 0.178706 1.154094 0.160754
v 0.178706 1.154094 0.217914
v 0.240541 1.201226 0.160754
v 0.240541 1.180640 0.201131
v 0.187779 1.201226 0.160754
v 0.187779 1.180640 0.201131
v 0.187779 1.226787 0.000793
v 0.187779 1.179654 0.000793
v 0.240541 1.226787 0.000793
v 0.231468 1.179654 0.000793
v 0.169817 0.740797 -0.122123
v 0.203774 0.740797 -0.122123
v 0.169817 0.845352 -0.164643
v 0.203774 0.845352 -0.164643
v 0.177311 1.000431 -0.170809
v 0.211268 1.000431 -0.170809
v 0.186082 1.132676 -0.141970
v 0.220038 1.132676 -0.141970
v 0.203774 0.740797 0.123709
v 0.169817 0.740797 0.123709
v 0.203774 0.845352 0.166228
v 0.169817 0.845352 0.166228
v 0.211268 1.000431 0.172394
v 0.177311 1.000431 0.172394
v 0.220038 1.132676 0.143556
v 0.186082 1.132676 0.143556
v 0.194179 1.155488 0.000793
v 0.220038 1.155488 0.000793
v -0.218653 0.507313 -0.237930
v -0.227394 0.497464 -0.237930
v -0.227394 0.507313 -0.228460
v -0.227394 0.501583 0.237971
v -0.222309 0.507313 0.237971
v -0.227394 0.507313 0.232462
v 0.144242 0.769130 -0.109429
v 0.144242 0.860520 -0.147557
v 0.150243 0.996071 -0.153086
v 0.157266 1.111664 -0.127226
v 0.144242 0.860520 0.149143
v 0.144242 0.769130 0.111014
v 0.150243 0.996071 0.154672
v 0.157266 1.111664 0.128812
v 0.163751 1.131603 0.000793
v 0.139482 0.996071 0.000793
v 0.133481 0.860520 0.000793
vt 0.666212 0.771757
vt 0.668837 0.771757
vt 0.669366 0.771820
vt 0.669366 0.774911
vt 0.666212 0.774911
vt 0.669366 0.778065
vt 0.666212 0.778065
vt 0.672458 0.774911
vt 0.672521 0.774974
vt 0.672521 0.778029
vt 0.672484 0.778065
vt 0.663058 0.774911
vt 0.663058 0.778065
vt 0.669366 0.781183
vt 0.669059 0.781219
vt 0.666212 0.781219
vt 0.666212 0.768603
vt 0.669366 0.768603
vt 0.669366 0.771757
vt 0.666212 0.771757
vt 0.669366 0.774911
vt 0.666212 0.774911
vt 0.597100 0.962813
vt 0.605194 0.962813
vt 0.605194 0.970908
vt 0.597100 0.970908
vt 0.666212 0.778065
vt 0.669366 0.778065
vt 0.669366 0.781219
vt 0.666212 0.781219
vt 0.663058 0.774911
vt 0.663058 0.778065
vt 0.672521 0.774911
vt 0.672521 0.778065
vt 0.666212 0.768603
vt 0.669366 0.768603
vt 0.669366 0.771757
vt 0.666212 0.771757
vt 0.669366 0.774911
vt 0.666212 0.774911
vt 0.669366 0.778065
vt 0.666212 0.778065
vt 0.669366 0.781219
vt 0.666212 0.781219
vt 0.663058 0.774911
vt 0.663058 0.778065
vt 0.669366 0.774911
vt 0.669366 0.778065
vt 0.666212 0.768603
vt 0.669366 0.768603
vt 0.669366 0.771757
vt 0.666212 0.771757
vt 0.669366 0.774911
vt 0.666212 0.774911
vt 0.669366 0.778065
vt 0.666212 0.778065
vt 0.669366 0.781219
vt 0.666212 0.781219
vt 0.663058 0.774911
vt 0.663058 0.778065
vt 0.669366 0.778065
vt 0.669366 0.781219
vt 0.666212 0.768603
vt 0.669366 0.768603
vt 0.669366 0.771757
vt 0.666212 0.771757
vt 0.669366 0.774911
vt 0.666212 0.774911
vt 0.669366 0.778065
vt 0.666212 0.778065
vt 0.669366 0.781219
vt 0.666212 0.781219
vt 0.663058 0.774911
vt 0.663058 0.778065
vt 0.672521 0.774911
vt 0.672521 0.778065
vt 0.669366 0.774911
vt 0.669366 0.771757
vt 0.669366 0.771757
vt 0.669366 0.774911
vt 0.669366 0.778065
vt 0.669366 0.781219
vt 0.669366 0.768603
vt 0.669366 0.771757
vt 0.669366 0.781219
vt 0.669366 0.768603
vt 0.669366 0.774911
vt 0.672521 0.774911
vt 0.672521 0.778065
vt 0.669366 0.778065
vt 0.672521 0.774911
vt 0.672521 0.778065
vt 0.669366 0.781219
vt 0.669366 0.771757
vt 0.669366 0.768603
vt 0.669366 0.768603
vt 0.603171 0.974955
vt 0.607218 0.970908
vt 0.609242 0.970908
vt 0.609242 0.974955
vt 0.609242 0.964837
vt 0.609242 0.966861
vt 0.607218 0.966861
vt 0.607218 0.964837
vt 0.609242 0.962813
vt 0.607218 0.962813
vt 0.603171 0.964837
vt 0.603171 0.966861
vt 0.601147 0.966861
vt 0.601147 0.964837
vt 0.603171 0.962813
vt 0.601147 0.962813
vt 0.599123 0.966861
vt 0.599123 0.964837
vt 0.599123 0.962813
vt 0.593052 0.970908
vt 0.593052 0.974955
vt 0.586981 0.974955
vt 0.591028 0.970908
vt 0.595076 0.970908
vt 0.593052 0.966861
vt 0.586981 0.970908
vt 0.591028 0.966861
vt 0.615313 0.970908
vt 0.584957 0.966861
vt 0.595076 0.964837
vt 0.595076 0.966861
vt 0.593052 0.964837
vt 0.595076 0.962813
vt 0.593052 0.962813
vt 0.591028 0.964837
vt 0.591028 0.962813
vt 0.615313 0.974955
vt 0.584957 0.970908
vt 0.601147 0.974955
vt 0.584957 0.974955
vt 0.591028 0.974955
vt 0.599123 0.974955
vt 0.601147 0.974955
vt 0.613289 0.966861
vt 0.611265 0.970908
vt 0.586981 0.964837
vt 0.586981 0.966861
vt 0.584957 0.964837
vt 0.586981 0.962813
vt 0.584957 0.962813
vt 0.603171 0.970908
vt 0.615313 0.964837
vt 0.615313 0.966861
vt 0.613289 0.964837
vt 0.615313 0.962813
vt 0.613289 0.962813
vt 0.611265 0.974955
vt 0.613289 0.970908
vt 0.599123 0.970908
vt 0.601147 0.970908
vt 0.595076 0.974955
vt 0.613289 0.974955
vt 0.607218 0.974955
vt 0.611265 0.964837
vt 0.611265 0.966861
vt 0.611265 0.962813
vt 0.666212 0.768603
vt 0.669366 0.768603
vt 0.669366 0.771757
vt 0.666212 0.771757
vt 0.669366 0.774911
vt 0.666212 0.774911
vt 0.669366 0.778065
vt 0.666212 0.778065
vt 0.669366 0.781219
vt 0.666212 0.781219
vt 0.663058 0.774911
vt 0.663058 0.778065
vt 0.669366 0.768603
vt 0.669366 0.771757
vt 0.669366 0.781219
vt 0.669366 0.778065
vt 0.669366 0.778065
vt 0.669366 0.781219
vt 0.669366 0.774911
vt 0.669366 0.774911
vt 0.669366 0.774911
vt 0.669366 0.778065
vt 0.669366 0.771757
vt 0.669366 0.768603
vt 0.669366 0.771757
vt 0.669366 0.768603
vt 0.669366 0.768603
vt 0.669366 0.771757
vt 0.669366 0.778065
vt 0.669366 0.778065
vt 0.669366 0.768603
vt 0.669366 0.768603
vt 0.669366 0.773334
vt 0.669366 0.768603
vt 0.669366 0.768603
vt 0.669366 0.773334
vt 0.669366 0.774911
vt 0.669366 0.778065
vt 0.669366 0.778065
vt 0.669366 0.774911
vt 0.669366 0.774911
vt 0.669366 0.778065
vt 0.669366 0.771757
vt 0.669366 0.768603
vt 0.672521 0.774911
vt 0.672521 0.778065
vt 0.669366 0.768603
vt 0.669366 0.771757
vt 0.669366 0.781219
vt 0.669366 0.781219
vt 0.666212 0.768603
vt 0.669366 0.768603
vt 0.669366 0.771757
vt 0.666212 0.771757
vt 0.669366 0.774911
vt 0.666212 0.774911
vt 0.669366 0.778065
vt 0.666212 0.778065
vt 0.669366 0.781219
vt 0.666212 0.781219
vt 0.663058 0.774911
vt 0.663058 0.778065
vt 0.669366 0.768603
vt 0.669366 0.771757
vt 0.669366 0.781219
vt 0.669366 0.778065
vt 0.669366 0.778065
vt 0.669366 0.781219
vt 0.669366 0.774911
vt 0.669366 0.774911
vt 0.669366 0.774911
vt 0.669366 0.778065
vt 0.669366 0.771757
vt 0.669366 0.768603
vt 0.669366 0.771757
vt 0.669366 0.768603
vt 0.669366 0.768603
vt 0.669366 0.771757
vt 0.669366 0.778065
vt 0.669366 0.781219
vt 0.669366 0.778065
vt 0.661481 0.768603
vt 0.661481 0.768603
vt 0.661481 0.768603
vt 0.661481 0.768603
vt 0.669366 0.774911
vt 0.669366 0.778065
vt 0.669366 0.778065
vt 0.669366 0.774911
vt 0.669366 0.774911
vt 0.669366 0.778065
vt 0.669366 0.771757
vt 0.672521 0.774911
vt 0.672521 0.778065
vt 0.669366 0.768603
vt 0.669366 0.771757
vt 0.669366 0.781219
vt 0.669366 0.781219
vt 0.669366 0.773334
vt 0.661481 0.768603
vt 0.661481 0.768603
vt 0.661481 0.768603
vt 0.661481 0.768603
vt 0.661481 0.768603
vt 0.661481 0.768603
vt 0.661481 0.768603
vt 0.669366 0.778065
vt 0.669366 0.778065
vt 0.669366 0.768603
vt 0.661481 0.768603
vt 0.661481 0.768603
vt 0.661481 0.768603
vt 0.661481 0.768603
vt 0.661481 0.768603
vt 0.661481 0.768603
vt 0.669366 0.781219
vt 0.669366 0.781219
vt 0.669366 0.778065
vt 0.669366 0.781219
vt 0.669366 0.781219
vt 0.669366 0.781219
vt 0.669366 0.781219
vt 0.669366 0.778065
vt 0.669366 0.781219
vt 0.661481 0.768603
vt 0.661481 0.768603
vt 0.661481 0.768603
vt 0.661481 0.768603
vt 0.661481 0.768603
vt 0.661481 0.768603
vt 0.661481 0.768603
vt 0.661481 0.768603
vt 0.669366 0.768603
vt 0.669366 0.768603
vt 0.669366 0.768603
vt 0.669366 0.768603
vt 0.668191 0.959149
vt 0.668191 0.959149
vt 0.668191 0.959149
vt 0.668191 0.959149
vt 0.670278 0.977699
vt 0.670278 0.977699
vt 0.670278 0.977699
vt 0.670278 0.977699
vt 0.670278 0.977699
vt 0.670278 0.977699
vt 0.670278 0.977699
vt 0.670278 0.977699
vt 0.670278 0.977699
vt 0.672521 0.774911
vt 0.669059 0.768603
vt 0.669366 0.768603
vt 0.669366 0.768640
vt 0.666212 0.768603
vt 0.669366 0.771695
vt 0.670278 0.977699
vt 0.670278 0.977699
vt 0.670278 0.977699
vt 0.676076 0.971765
vt 0.676076 0.971765
vt 0.676076 0.971765
vt 0.676076 0.971765
vt 0.676076 0.968611
vt 0.676076 0.968611
vt 0.676076 0.968611
vt 0.676076 0.968611
vt 0.676076 0.959149
vt 0.676076 0.959149
vt 0.676076 0.959149
vt 0.676076 0.959149
vt 0.676076 0.968611
vt 0.676076 0.968611
vt 0.676076 0.959149
vt 0.676076 0.959149
vt 0.676076 0.959149
vt 0.676076 0.959149
vt 0.668191 0.959149
vt 0.668191 0.959149
vt 0.668191 0.959149
vt 0.668191 0.959149
vt 0.668191 0.959149
vt 0.668191 0.959149
vt 0.676076 0.968611
vt 0.676076 0.968611
vt 0.670278 0.977699
vt 0.670278 0.977699
vt 0.670278 0.977699
vt 0.670278 0.977699
vt 0.670278 0.977699
vt 0.670278 0.977699
vt 0.670278 0.977699
vt 0.670278 0.977699
vn 0.0000 0.0000 -1.0000
vn 1.0000 0.0000 0.0000
vn 0.0000 1.0000 0.0000
vn 0.0000 -1.0000 0.0000
vn -0.0000 0.0000 1.0000
vn -0.9999 -0.0118 0.0000
vn 0.0000 -0.0128 -0.9999
vn 0.9999 -0.0118 0.0000
vn 0.0000 -0.0128 0.9999
vn -0.9307 -0.3658 0.0000
vn 0.0000 -0.0361 -0.9993
vn 0.9507 0.3102 0.0000
vn 0.0000 -0.0361 0.9993
vn 0.9750 0.2220 0.0000
vn -0.9312 -0.3644 0.0000
vn 0.0000 -0.0343 -0.9994
vn 0.9502 0.3117 0.0000
vn 0.0000 -0.0343 0.9994
vn -0.9999 -0.0124 0.0000
vn 0.0000 -0.0134 -0.9999
vn 0.9999 -0.0124 0.0000
vn 0.0000 -0.0134 0.9999
vn -0.9750 -0.2220 0.0000
vn 0.9927 0.1205 0.0000
vn -0.9927 -0.1205 0.0000
vn -0.0156 0.9882 -0.1527
vn -0.0129 0.7256 -0.6880
vn -0.0048 0.3253 -0.9456
vn 0.7487 0.6629 0.0056
vn 0.9607 0.2775 -0.0020
vn 0.7489 0.6627 -0.0065
vn 0.9608 0.2774 0.0008
vn 0.0184 0.9879 0.1543
vn -0.0358 0.9143 0.4035
vn 0.0339 0.9146 0.4029
vn -0.4630 0.8861 -0.0210
vn -0.0218 0.7239 0.6895
vn -0.0167 0.3240 0.9459
vn 0.0109 0.3247 0.9458
vn -0.1799 0.9836 -0.0110
vn 0.0177 0.7247 0.6888
vn 0.0289 0.9154 -0.4015
vn -0.7485 0.6631 -0.0048
vn -0.9607 0.2777 0.0030
vn -0.4601 0.8878 0.0134
vn -0.0299 0.9152 -0.4018
vn -0.7460 0.6659 -0.0064
vn -0.9600 0.2795 -0.0171
vn -0.1788 0.9839 0.0074
vn 0.1811 0.9834 -0.0119
vn 0.4634 0.8859 -0.0221
vn 0.1811 0.9834 0.0118
vn 0.0095 0.7262 -0.6874
vn -0.0003 0.3259 -0.9454
vn 0.4633 0.8859 0.0217
vn 0.0155 0.9881 -0.1529
vn -0.0189 0.9879 0.1541
vn -1.0000 0.0000 0.0000
vn 0.0000 0.4923 -0.8704
vn 0.0000 -0.4923 0.8704
vn -0.9944 -0.1057 0.0000
vn 0.0000 -0.2022 0.9794
vn 0.0000 0.0371 -0.9993
vn 0.9988 -0.0499 0.0000
vn -0.9988 0.0483 0.0000
vn 0.9271 0.1412 0.3471
vn 0.0000 -0.3767 -0.9263
vn -0.9186 0.0599 0.3906
vn 0.9019 -0.4266 -0.0682
vn 0.0000 -0.0397 -0.9992
vn 0.9988 -0.0483 0.0000
vn 0.9668 -0.2501 0.0528
vn 0.0000 0.2131 -0.9770
vn 0.9978 -0.0662 0.0000
vn -0.9978 0.0662 0.0000
vn 0.0000 0.8909 -0.4542
vn -0.9668 0.2501 -0.0528
vn 0.0000 0.5344 -0.8452
vn 0.0000 0.4923 0.8704
vn 0.0000 -0.4923 -0.8704
vn 0.0000 -0.2022 -0.9794
vn 0.0000 0.0371 0.9993
vn -0.9403 0.3403 0.0000
vn 0.0000 -0.3767 0.9263
vn 0.9019 -0.4266 0.0682
vn -0.9623 -0.2549 0.0953
vn 0.0000 -0.0397 0.9992
vn -0.9668 0.2501 0.0528
vn 0.0000 0.2131 0.9770
vn 0.0000 0.8909 0.4542
vn 0.9668 -0.2501 -0.0528
vn 0.0000 0.5344 0.8452
vn 0.9820 -0.1890 0.0000
vn -0.9954 0.0958 -0.0000
vn -0.9186 0.0599 -0.3906
vn 0.8991 -0.1494 -0.4115
vn 0.0000 0.3767 0.9263
vn 0.0000 -0.2131 0.9770
vn 0.0000 0.0397 0.9992
vn 0.0000 0.3767 -0.9263
vn 0.0000 -0.2131 -0.9770
vn 0.0000 0.0397 -0.9992
vn 0.8991 -0.1494 0.4115
vn 0.8962 -0.0257 -0.4429
vn 0.9387 0.3447 0.0000
vn -0.9290 0.1394 -0.3428
vn -0.9276 -0.0198 -0.3731
vn -0.9290 0.1394 0.3428
vn -0.9623 -0.2549 -0.0953
vn -0.9276 -0.0198 0.3731
vn 0.8962 -0.0257 0.4429
vn 0.9271 0.1412 -0.3471
vn -0.6157 0.7828 -0.0904
vn 0.9991 -0.0415 0.0000
vn -0.6155 0.5462 -0.5681
vn -0.6155 0.5462 0.5681
vn -0.9947 0.0760 0.0696
vn -0.5527 -0.0079 -0.8334
vn -0.6529 -0.2883 0.7004
vn -0.5612 0.2123 -0.8000
vn -0.5527 -0.0079 0.8334
vn -0.6529 -0.2883 -0.7004
vn -0.7423 -0.6701 -0.0000
vn -0.6157 0.7828 0.0904
vn -0.5612 0.2123 0.8000
vn -0.9966 0.0427 0.0710
vn -0.9841 0.1762 -0.0224
vn -0.9841 0.1762 0.0224
vn -0.9947 0.0760 -0.0696
vn -0.9969 -0.0302 0.0723
vn -0.9966 0.0427 -0.0710
vn -0.9969 -0.0302 -0.0723
vn -0.9931 -0.1169 -0.0000
usemtl Material.002
s off
f 2/1/1 183/2/1 182/3/1 6/4/1 5/5/1
f 5/5/2 6/4/2 4/6/2 3/7/2
f 6/4/3 182/8/3 184/9/3 187/10/3 186/11/3 4/6/3
f 2/12/4 5/5/4 3/7/4 1/13/4
f 3/7/5 4/6/5 186/14/5 185/15/5 1/16/5
f 7/17/6 8/18/6 10/19/6 9/20/6
f 9/20/7 10/19/7 14/21/7 13/22/7
f 13/23/8 14/24/8 12/25/8 11/26/8
f 11/27/9 12/28/9 8/29/9 7/30/9
f 9/31/4 13/22/4 11/27/4 7/32/4
f 14/21/3 10/33/3 8/34/3 12/28/3
f 15/35/10 16/36/10 18/37/10 17/38/10
f 17/38/11 18/37/11 22/39/11 21/40/11
f 21/40/12 22/39/12 20/41/12 19/42/12
f 19/42/13 20/41/13 16/43/13 15/44/13
f 17/45/4 21/40/4 19/42/4 15/46/4
f 20/41/14 22/39/14 42/47/14 41/48/14
f 23/49/15 24/50/15 26/51/15 25/52/15
f 25/52/16 26/51/16 30/53/16 29/54/16
f 29/54/17 30/53/17 28/55/17 27/56/17
f 27/56/18 28/55/18 24/57/18 23/58/18
f 25/59/4 29/54/4 27/56/4 23/60/4
f 24/57/5 28/55/5 45/61/5 43/62/5
f 31/63/19 32/64/19 34/65/19 33/66/19
f 33/66/20 34/65/20 38/67/20 37/68/20
f 37/68/21 38/67/21 36/69/21 35/70/21
f 35/70/22 36/69/22 32/71/22 31/72/22
f 33/73/4 37/68/4 35/70/4 31/74/4
f 38/67/3 34/75/3 32/76/3 36/69/3
f 46/77/1 44/78/1 52/79/1 54/80/1
f 43/62/5 45/61/5 53/81/5 51/82/5
f 30/53/1 26/51/1 44/78/1 46/77/1
f 18/37/23 16/36/23 39/83/23 40/84/23
f 16/43/5 20/41/5 41/48/5 39/85/5
f 28/55/14 30/53/14 46/77/14 45/61/14
f 22/39/1 18/37/1 40/84/1 42/47/1
f 26/51/23 24/50/23 43/86/23 44/78/23
f 50/87/3 48/88/3 47/89/3 49/90/3
f 54/80/3 52/91/3 51/92/3 53/81/3
f 39/85/5 41/48/5 49/90/5 47/93/5
f 42/47/1 40/84/1 48/94/1 50/87/1
f 45/61/24 46/77/24 54/80/24 53/81/24
f 44/78/25 43/86/25 51/95/25 52/79/25
f 41/48/24 42/47/24 50/87/24 49/90/24
f 40/84/25 39/83/25 47/96/25 48/94/25
f 59/97/26 60/98/26 55/99/26 95/100/26
f 57/101/27 56/102/27 61/103/27 62/104/27
f 58/105/28 57/101/28 62/104/28 63/106/28
f 62/107/29 61/108/29 66/109/29 67/110/29
f 63/111/30 62/107/30 67/110/30 68/112/30
f 67/110/31 66/109/31 71/113/31 72/114/31
f 68/112/32 67/110/32 72/114/32 73/115/32
f 75/116/33 74/117/33 79/118/33 80/119/33
f 71/113/34 70/120/34 75/116/34 76/121/34
f 76/121/35 75/116/35 80/122/35 81/123/35
f 81/123/36 80/122/36 85/124/36 87/125/36
f 72/126/37 71/127/37 76/121/37 77/128/37
f 73/129/38 72/126/38 77/128/38 78/130/38
f 78/130/39 77/128/39 82/131/39 83/132/39
f 80/119/40 79/118/40 84/133/40 85/134/40
f 74/117/3 86/135/3 84/136/3 79/137/3
f 77/128/41 76/121/41 81/123/41 82/131/41
f 69/138/3 64/139/3 86/135/3 74/117/3
f 92/140/42 91/141/42 55/99/42 56/102/42
f 82/142/43 81/143/43 87/125/43 88/144/43
f 83/145/44 82/142/44 88/144/44 89/146/44
f 87/125/45 85/124/45 91/141/45 92/140/45
f 60/147/46 61/103/46 56/102/46 55/99/46
f 88/148/47 87/149/47 92/140/47 93/150/47
f 89/151/48 88/148/48 93/150/48 94/152/48
f 85/134/49 84/133/49 90/153/49 91/154/49
f 70/155/50 65/156/50 64/139/50 69/157/50
f 71/113/51 66/109/51 65/156/51 70/120/51
f 86/135/3 95/100/3 90/158/3 84/136/3
f 64/139/3 59/159/3 95/100/3 86/135/3
f 65/156/52 60/98/52 59/97/52 64/139/52
f 93/160/53 92/161/53 56/102/53 57/101/53
f 94/162/54 93/160/54 57/101/54 58/105/54
f 66/109/55 61/103/55 60/147/55 65/156/55
f 91/154/56 90/153/56 95/100/56 55/99/56
f 70/155/57 69/157/57 74/117/57 75/116/57
f 96/163/58 97/164/58 99/165/58 98/166/58
f 98/166/59 99/165/59 103/167/59 102/168/59
f 102/168/2 103/167/2 101/169/2 100/170/2
f 100/170/60 101/169/60 97/171/60 96/172/60
f 98/173/4 102/168/4 100/170/4 96/174/4
f 99/165/61 97/164/61 104/175/61 105/176/61
f 104/177/5 106/178/5 110/179/5 108/180/5
f 97/171/62 101/169/62 106/178/62 104/177/62
f 103/167/63 99/165/63 105/176/63 107/181/63
f 101/169/64 103/167/64 107/181/64 106/178/64
f 110/179/2 111/182/2 115/183/2 114/184/2
f 107/181/1 105/176/1 109/185/1 111/182/1
f 106/178/2 107/181/2 111/182/2 110/179/2
f 105/176/58 104/175/58 108/186/58 109/185/58
f 113/187/65 112/188/65 116/189/65 117/190/65
f 109/185/58 108/186/58 112/188/58 113/187/58
f 110/179/66 114/184/66 167/191/66 165/192/66
f 111/182/67 109/185/67 113/187/67 115/183/67
f 116/189/68 112/188/68 166/193/68 168/194/68
f 163/195/69 152/196/69 178/197/69 181/198/69
f 115/183/70 113/187/70 117/190/70 119/199/70
f 114/184/71 115/183/71 119/199/71 118/200/71
f 122/201/72 123/202/72 127/203/72 126/204/72
f 119/199/73 117/190/73 121/205/73 123/202/73
f 118/200/74 119/199/74 123/202/74 122/201/74
f 117/190/75 116/189/75 120/206/75 121/205/75
f 127/203/76 125/207/76 124/208/76 126/204/76
f 121/205/77 120/206/77 124/209/77 125/210/77
f 120/211/5 122/201/5 126/204/5 124/212/5
f 123/202/78 121/205/78 125/210/78 127/203/78
f 128/213/2 129/214/2 131/215/2 130/216/2
f 130/216/79 131/215/79 135/217/79 134/218/79
f 134/218/58 135/217/58 133/219/58 132/220/58
f 132/220/80 133/219/80 129/221/80 128/222/80
f 130/223/4 134/218/4 132/220/4 128/224/4
f 131/215/64 129/214/64 136/225/64 137/226/64
f 136/227/1 138/228/1 142/229/1 140/230/1
f 129/221/81 133/219/81 138/228/81 136/227/81
f 135/217/82 131/215/82 137/226/82 139/231/82
f 133/219/61 135/217/61 139/231/61 138/228/61
f 142/229/58 143/232/58 147/233/58 146/234/58
f 139/231/5 137/226/5 141/235/5 143/232/5
f 138/228/58 139/231/58 143/232/58 142/229/58
f 137/226/2 136/225/2 140/236/2 141/235/2
f 145/237/71 144/238/71 148/239/71 149/240/71
f 141/235/2 140/236/2 144/238/2 145/237/2
f 108/180/83 142/229/83 173/241/83 164/242/83
f 143/232/84 141/235/84 145/237/84 147/233/84
f 122/201/85 163/195/85 181/198/85 171/243/85
f 161/244/86 120/245/86 170/246/86 180/247/86
f 147/233/87 145/237/87 149/240/87 151/248/87
f 146/234/65 147/233/65 151/248/65 150/249/65
f 154/250/88 155/251/88 159/252/88 158/253/88
f 151/248/89 149/240/89 153/254/89 155/251/89
f 150/249/75 151/248/75 155/251/75 154/250/75
f 149/240/74 148/239/74 152/196/74 153/254/74
f 159/252/90 157/255/90 156/256/90 158/253/90
f 153/254/91 152/196/91 156/257/91 157/258/91
f 152/259/1 154/250/1 158/253/1 156/260/1
f 155/251/92 153/254/92 157/258/92 159/252/92
f 126/204/93 162/261/93 156/257/93 152/196/93 163/195/93 122/201/93
f 126/262/3 124/263/3 160/264/3 158/265/3 156/266/3 162/267/3
f 154/268/94 158/265/94 160/264/94 124/263/94 120/245/94 161/244/94
f 146/234/95 150/249/95 177/269/95 175/270/95
f 152/196/96 148/239/96 176/271/96 178/197/96
f 136/272/2 106/273/2 110/274/2 140/275/2
f 106/273/4 136/272/4 138/276/4 104/277/4
f 138/228/58 142/229/58 108/180/58 104/177/58
f 164/242/97 165/192/97 167/191/97 166/278/97
f 168/279/98 169/280/98 171/243/98 170/281/98
f 166/278/99 167/191/99 169/280/99 168/279/99
f 172/282/100 173/241/100 175/270/100 174/283/100
f 176/284/101 177/269/101 179/285/101 178/286/101
f 174/283/102 175/270/102 177/269/102 176/284/102
f 178/287/4 179/288/4 180/247/4 170/246/4 171/289/4 181/290/4
f 172/291/3 165/292/3 164/293/3 173/294/3
f 118/200/103 122/201/103 171/243/103 169/280/103
f 148/239/104 144/238/104 174/295/104 176/271/104
f 140/275/105 110/274/105 165/292/105 172/291/105
f 142/229/106 146/234/106 175/270/106 173/241/106
f 150/249/107 154/250/107 179/285/107 177/269/107
f 112/188/108 108/186/108 164/296/108 166/193/108
f 154/268/109 161/244/109 180/247/109 179/288/109
f 120/206/110 116/189/110 168/194/110 170/297/110
f 114/184/111 118/200/111 169/280/111 167/191/111
f 144/238/112 140/236/112 172/298/112 174/295/112
f 180/299/113 170/300/113 191/301/113 196/302/113
f 167/303/114 169/304/114 171/305/114 181/306/114 178/307/114 176/308/114 174/309/114 172/310/114 165/311/114
f 182/8/115 183/312/115 184/9/115
f 185/313/116 186/314/116 187/315/116
f 1/316/58 185/313/58 187/315/58 184/317/58 183/2/58 2/1/58
f 197/318/117 194/319/117 195/320/117
f 168/321/118 166/322/118 189/323/118 190/324/118
f 173/325/119 175/326/119 192/327/119 193/328/119
f 170/329/120 168/330/120 190/331/120 191/332/120
f 175/326/121 177/333/121 194/334/121 192/327/121
f 166/335/122 164/336/122 188/337/122 189/338/122
f 164/339/123 173/340/123 193/341/123 188/342/123
f 179/343/124 180/299/124 196/302/124 195/344/124
f 177/333/125 179/345/125 195/346/125 194/334/125
f 197/318/126 198/347/126 192/348/126 194/319/126
f 197/318/127 195/320/127 196/349/127
f 197/318/128 196/349/128 191/350/128
f 190/351/129 197/318/129 191/350/129
f 193/352/130 192/348/130 198/347/130
f 189/353/131 198/347/131 197/318/131 190/351/131
f 189/353/132 188/354/132 198/347/132
f 188/354/133 193/352/133 198/347/133
