# Blender v2.83.5 OBJ File: 'chest01.blend'
# www.blender.org
mtllib chest01.mtl
o Cube_Cube.001
v -0.353505 -0.003141 0.153404
v 0.265128 -0.003141 -0.204538
v 0.353505 -0.003141 -0.153404
v -0.265128 -0.003141 0.204538
v -0.353505 0.046307 -0.204538
v -0.265128 -0.003141 -0.204538
v 0.353505 0.046307 -0.204538
v 0.353505 0.046307 0.204538
v 0.265128 -0.003141 0.204538
v 0.315763 0.430779 0.159183
v 0.315763 0.430779 -0.159183
v -0.320328 0.342995 0.204538
v -0.320328 0.060564 0.204538
v 0.365033 0.342995 0.165439
v 0.365033 0.060564 -0.165439
v 0.322056 0.342995 -0.204538
v -0.317923 0.060564 -0.204538
v -0.365012 0.342995 -0.160189
v -0.365012 0.060564 -0.160189
v -0.353505 -0.003141 -0.153404
v -0.353505 0.046307 0.204538
v 0.353505 -0.003141 0.153404
v -0.311629 0.430779 -0.159183
v -0.311629 0.430779 0.159183
v 0.324461 0.060564 0.204538
v 0.324461 0.342995 0.204538
v -0.317923 0.342995 -0.204538
v -0.365012 0.060564 0.160189
v -0.365012 0.342995 0.160189
v -0.265128 -0.003141 0.153404
v -0.265128 -0.003141 -0.153404
v 0.265128 -0.003141 -0.153404
v 0.365033 0.060564 0.165439
v 0.365033 0.342995 -0.165439
v 0.322056 0.060564 -0.204538
v 0.265128 -0.003141 0.153404
v -0.381104 -0.005072 0.220507
v -0.381104 -0.005072 -0.220507
v 0.381104 -0.005072 0.220507
v 0.381104 -0.005072 -0.220507
v -0.381104 -0.005072 0.165380
v 0.285828 -0.005072 -0.220507
v 0.381104 -0.005072 -0.165380
v -0.285828 -0.005072 0.220507
v -0.285828 -0.005072 -0.220507
v 0.285828 -0.005072 0.220507
v 0.327875 0.048237 0.220507
v 0.381104 0.048237 -0.165380
v -0.323507 0.048237 -0.220507
v -0.381104 0.048237 0.165380
v -0.381104 -0.005072 -0.165380
v 0.381104 -0.005072 0.165380
v 0.381104 0.048237 0.165380
v -0.381104 0.048237 -0.165380
v -0.380921 0.347685 0.220375
v -0.380921 0.439297 0.220375
v -0.380921 0.439297 -0.220375
v 0.380829 0.439297 -0.220375
v 0.380829 0.439297 0.220375
v -0.323531 0.439297 0.165281
v 0.327893 0.439297 0.165281
v -0.323581 0.048237 0.220507
v 0.327916 0.048237 -0.220507
v -0.380921 0.347685 -0.220375
v 0.380829 0.347685 -0.220375
v 0.380829 0.347685 0.220375
v -0.323531 0.439297 -0.165281
v 0.327893 0.347685 0.220375
v 0.380829 0.347685 -0.165281
v 0.327893 0.347685 -0.220375
v -0.380921 0.347685 0.165281
v 0.327893 0.439297 -0.165281
v -0.323531 0.347685 -0.220375
v -0.323531 0.347685 0.220375
v 0.380829 0.347685 0.165281
v -0.380921 0.347685 -0.165281
v -0.368407 0.381944 -0.213139
v -0.368407 0.381944 0.213139
v -0.368407 0.366703 0.213139
v -0.380921 0.382203 0.220375
v -0.380921 0.382203 -0.220375
v 0.380829 0.382203 -0.220375
v 0.380829 0.382203 0.220375
v -0.380921 0.366445 -0.220375
v 0.380829 0.366445 -0.220375
v 0.380829 0.366445 0.220375
v -0.380921 0.366445 0.220375
v 0.368333 0.381944 -0.213139
v 0.368333 0.381944 0.213139
v -0.368407 0.366703 -0.213139
v 0.368333 0.366703 -0.213139
v 0.368333 0.366703 0.213139
v -0.027869 0.382203 -0.220375
v 0.027777 0.382203 -0.220375
v 0.380829 0.403655 -0.220375
v -0.380921 0.403655 -0.220375
v -0.027869 0.403655 -0.220375
v 0.027777 0.403655 -0.220375
v -0.027869 0.382203 -0.237386
v 0.027777 0.382203 -0.237386
v -0.027869 0.403655 -0.237386
v 0.027777 0.403655 -0.237386
v 0.027777 0.382203 -0.228602
v -0.027869 0.382203 -0.228602
v -0.027869 0.347966 -0.237386
v 0.027777 0.347966 -0.237386
v 0.027777 0.347966 -0.228602
v -0.027869 0.347966 -0.228602
v -0.005086 0.375769 -0.237386
v 0.004994 0.375769 -0.237386
v -0.005086 0.354401 -0.237386
v 0.004994 0.354401 -0.237386
v -0.005086 0.375769 -0.228367
v 0.004994 0.375769 -0.228367
v -0.005086 0.354401 -0.228367
v 0.004994 0.354401 -0.228367
v -0.374748 -0.005332 0.216830
v -0.374748 -0.035794 0.216830
v 0.347610 -0.033896 0.150845
v 0.347610 -0.003434 0.150845
v -0.347610 -0.033896 -0.150845
v -0.347610 -0.003434 -0.150845
v -0.260707 -0.003434 -0.201127
v -0.281061 -0.005332 -0.216830
v -0.374748 -0.005332 -0.162622
v -0.374748 -0.035794 -0.162622
v -0.347610 -0.003434 0.150845
v -0.374748 -0.005332 0.162622
v 0.374748 -0.005332 -0.162622
v 0.347610 -0.003434 -0.150845
v 0.281061 -0.005332 0.216830
v 0.260707 -0.003434 0.201127
v 0.374748 -0.035794 0.162622
v 0.374748 -0.005332 0.162622
v 0.374748 -0.005332 0.216830
v 0.374748 -0.035794 0.216830
v 0.260707 -0.033896 0.201127
v 0.260707 -0.003434 0.150845
v 0.260707 -0.033896 0.150845
v 0.374748 -0.035794 -0.216830
v 0.374748 -0.005332 -0.216830
v -0.260707 -0.003434 -0.150845
v 0.281061 -0.005332 -0.216830
v 0.260707 -0.003434 -0.201127
v -0.374748 -0.005332 -0.216830
v -0.281061 -0.005332 0.216830
v -0.260707 -0.003434 0.201127
v -0.374748 -0.035794 0.162622
v 0.374748 -0.035794 -0.162622
v -0.281061 -0.035794 0.216830
v 0.281061 -0.035794 -0.216830
v -0.347610 -0.033896 0.150845
v -0.260707 -0.003434 0.150845
v -0.347610 -0.033896 0.201127
v -0.260707 -0.033896 -0.201127
v -0.347610 -0.033896 -0.201127
v 0.347610 -0.033896 -0.150845
v 0.347610 -0.033896 -0.201127
v -0.281061 -0.035794 -0.216830
v 0.347610 -0.033896 0.201127
v 0.260707 -0.033896 -0.201127
v 0.281061 -0.035794 0.216830
v -0.260707 -0.033896 0.201127
v -0.260707 -0.033896 0.150845
v -0.260707 -0.033896 -0.150845
v 0.260707 -0.033896 -0.150845
v -0.374748 -0.035794 -0.216830
v 0.260707 -0.003434 -0.150845
vt 0.482758 0.781591
vt 0.482758 0.775687
vt 0.482758 0.781222
vt 0.482758 0.781591
vt 0.478330 0.769783
vt 0.478330 0.774211
vt 0.478330 0.774949
vt 0.478330 0.775687
vt 0.478330 0.775687
vt 0.478330 0.775318
vt 0.478330 0.770152
vt 0.478330 0.769783
vt 0.543491 0.772329
vt 0.543491 0.771428
vt 0.543491 0.771428
vt 0.543491 0.772329
vt 0.482758 0.769045
vt 0.482758 0.769045
vt 0.478330 0.769045
vt 0.478330 0.769045
vt 0.476116 0.781591
vt 0.476854 0.781591
vt 0.476854 0.781591
vt 0.476116 0.781591
vt 0.543491 0.770526
vt 0.543491 0.770526
vt 0.477592 0.780853
vt 0.477592 0.780115
vt 0.477592 0.780115
vt 0.477592 0.780853
vt 0.482758 0.769783
vt 0.482758 0.775318
vt 0.482758 0.775687
vt 0.473164 0.775687
vt 0.472426 0.775687
vt 0.472426 0.775687
vt 0.473164 0.775687
vt 0.471688 0.776425
vt 0.471688 0.777163
vt 0.471688 0.777163
vt 0.471688 0.776425
vt 0.488662 0.777163
vt 0.488662 0.776425
vt 0.488662 0.780115
vt 0.488662 0.780853
vt 0.478330 0.786757
vt 0.478330 0.787495
vt 0.478330 0.787495
vt 0.478330 0.787126
vt 0.478330 0.781960
vt 0.478330 0.781591
vt 0.478330 0.781591
vt 0.478330 0.782329
vt 0.543491 0.793074
vt 0.543491 0.792172
vt 0.543491 0.792172
vt 0.543491 0.793074
vt 0.478330 0.780115
vt 0.478330 0.780853
vt 0.478330 0.780853
vt 0.478330 0.776425
vt 0.482020 0.786757
vt 0.482758 0.787126
vt 0.482758 0.787495
vt 0.543491 0.764212
vt 0.543491 0.765114
vt 0.543491 0.765114
vt 0.543491 0.764212
vt 0.548001 0.772329
vt 0.548902 0.776839
vt 0.544393 0.777741
vt 0.543491 0.777741
vt 0.548001 0.765114
vt 0.548902 0.769624
vt 0.544393 0.770526
vt 0.543491 0.766016
vt 0.489400 0.776056
vt 0.489400 0.775687
vt 0.489400 0.775687
vt 0.489400 0.781591
vt 0.489400 0.776056
vt 0.489400 0.775687
vt 0.489400 0.775687
vt 0.489400 0.781591
vt 0.488662 0.775687
vt 0.486079 0.775687
vt 0.484787 0.775687
vt 0.483496 0.775687
vt 0.483496 0.775687
vt 0.482221 0.772153
vt 0.482056 0.772318
vt 0.481891 0.772318
vt 0.482056 0.769678
vt 0.556118 0.779545
vt 0.556118 0.784956
vt 0.550706 0.784956
vt 0.550706 0.779545
vt 0.543491 0.784956
vt 0.548902 0.784956
vt 0.548902 0.784956
vt 0.543491 0.784956
vt 0.476854 0.781591
vt 0.476854 0.781591
vt 0.477592 0.771259
vt 0.477592 0.775687
vt 0.477592 0.775687
vt 0.477592 0.771259
vt 0.535374 0.780447
vt 0.536276 0.784956
vt 0.536276 0.784956
vt 0.535374 0.780447
vt 0.473164 0.775687
vt 0.473164 0.775687
vt 0.477592 0.780115
vt 0.477592 0.780115
vt 0.478330 0.763879
vt 0.477592 0.764617
vt 0.477592 0.764617
vt 0.478330 0.763879
vt 0.477592 0.769045
vt 0.477592 0.769783
vt 0.477592 0.769783
vt 0.477592 0.769045
vt 0.541687 0.784956
vt 0.542589 0.784956
vt 0.542589 0.784956
vt 0.541687 0.784956
vt 0.471688 0.777163
vt 0.471688 0.777163
vt 0.471688 0.776425
vt 0.471688 0.776425
vt 0.477592 0.780853
vt 0.477592 0.780853
vt 0.477592 0.782329
vt 0.477592 0.782329
vt 0.478330 0.781591
vt 0.541687 0.785858
vt 0.541687 0.785858
vt 0.477592 0.770521
vt 0.477592 0.770521
vt 0.478330 0.769783
vt 0.536276 0.779545
vt 0.535374 0.779545
vt 0.535374 0.779545
vt 0.536276 0.779545
vt 0.472426 0.775687
vt 0.472426 0.775687
vt 0.476116 0.781591
vt 0.476116 0.781591
vt 0.536276 0.778643
vt 0.536276 0.778643
vt 0.542589 0.784054
vt 0.541687 0.779545
vt 0.541687 0.779545
vt 0.542589 0.784054
vt 0.477592 0.783067
vt 0.477592 0.787495
vt 0.477592 0.787495
vt 0.477592 0.783067
vt 0.536276 0.785858
vt 0.536276 0.785858
vt 0.477592 0.781591
vt 0.477592 0.781591
vt 0.541687 0.778643
vt 0.541687 0.778643
vt 0.482020 0.775687
vt 0.477592 0.776425
vt 0.477592 0.776425
vt 0.482020 0.775687
vt 0.482758 0.775318
vt 0.482758 0.770890
vt 0.482758 0.770521
vt 0.482758 0.769783
vt 0.482758 0.775318
vt 0.483961 0.774949
vt 0.483961 0.774949
vt 0.479533 0.774949
vt 0.479533 0.774949
vt 0.484234 0.780853
vt 0.487924 0.780853
vt 0.488662 0.780853
vt 0.484972 0.780853
vt 0.482221 0.774794
vt 0.482221 0.774959
vt 0.481891 0.774959
vt 0.482758 0.770521
vt 0.482758 0.774949
vt 0.482758 0.774949
vt 0.484603 0.781591
vt 0.484234 0.781591
vt 0.483496 0.781222
vt 0.483496 0.781591
vt 0.483496 0.781591
vt 0.482020 0.774949
vt 0.482758 0.775687
vt 0.478330 0.770521
vt 0.482020 0.770521
vt 0.482020 0.769045
vt 0.478330 0.774949
vt 0.548001 0.779545
vt 0.548902 0.779545
vt 0.544393 0.784956
vt 0.488662 0.781591
vt 0.488662 0.776425
vt 0.482020 0.769783
vt 0.482758 0.770152
vt 0.478330 0.770521
vt 0.478330 0.776425
vt 0.482020 0.776425
vt 0.482758 0.776425
vt 0.482758 0.776425
vt 0.482758 0.777163
vt 0.482758 0.780484
vt 0.482758 0.780853
vt 0.486171 0.775687
vt 0.485894 0.775687
vt 0.488293 0.775687
vt 0.488569 0.775687
vt 0.482758 0.781222
vt 0.482758 0.781222
vt 0.478330 0.780115
vt 0.482758 0.776056
vt 0.483496 0.781591
vt 0.484234 0.775687
vt 0.484234 0.776425
vt 0.484972 0.776425
vt 0.484234 0.776425
vt 0.482020 0.780853
vt 0.482758 0.781591
vt 0.483496 0.781222
vt 0.483496 0.778455
vt 0.484234 0.780115
vt 0.484234 0.780853
vt 0.484234 0.777163
vt 0.488662 0.775687
vt 0.484972 0.776425
vt 0.489031 0.781591
vt 0.482758 0.787495
vt 0.482758 0.782698
vt 0.482758 0.787126
vt 0.482758 0.787495
vt 0.548001 0.786760
vt 0.548902 0.791270
vt 0.544393 0.792172
vt 0.543491 0.787662
vt 0.489400 0.781591
vt 0.482758 0.763879
vt 0.482758 0.769414
vt 0.482758 0.769783
vt 0.482758 0.782329
vt 0.482758 0.786388
vt 0.482758 0.786757
vt 0.482758 0.786757
vt 0.482758 0.782329
vt 0.482758 0.787126
vt 0.482758 0.769414
vt 0.482758 0.764617
vt 0.482758 0.763879
vt 0.482758 0.769414
vt 0.482020 0.782329
vt 0.482758 0.764617
vt 0.478330 0.764617
vt 0.478330 0.764617
vt 0.482758 0.768676
vt 0.482020 0.781591
vt 0.482758 0.781960
vt 0.478330 0.782329
vt 0.478330 0.768307
vt 0.478330 0.786757
vt 0.482020 0.763879
vt 0.482758 0.764248
vt 0.479068 0.764617
vt 0.482221 0.769513
vt 0.482221 0.769678
vt 0.481891 0.769678
vt 0.482056 0.767038
vt 0.478330 0.786757
vt 0.482221 0.777434
vt 0.482221 0.777599
vt 0.481891 0.777599
vt 0.482056 0.774959
vt 0.484603 0.775687
vt 0.483496 0.775687
vt 0.486725 0.775687
vt 0.487001 0.775687
vt 0.486448 0.775687
vt 0.489123 0.775687
vt 0.480798 0.772210
vt 0.480521 0.772210
vt 0.482919 0.772210
vt 0.483473 0.772210
vt 0.480521 0.772210
vt 0.482919 0.772210
vt 0.482919 0.772210
vt 0.481074 0.772210
vt 0.481074 0.772210
vt 0.483473 0.772210
vt 0.480798 0.772210
vt 0.483473 0.772210
vt 0.479137 0.772210
vt 0.480429 0.772210
vt 0.480429 0.772210
vt 0.479137 0.772210
vt 0.479137 0.772210
vt 0.480429 0.772210
vt 0.480429 0.772210
vt 0.479137 0.772210
vt 0.482919 0.772210
vt 0.482919 0.772210
vt 0.483473 0.772210
vt 0.483473 0.772210
vt 0.482919 0.772210
vt 0.482919 0.772210
vt 0.482919 0.772210
vt 0.482919 0.772210
vt 0.483473 0.772210
vt 0.480429 0.772210
vt 0.479137 0.772210
vt 0.483473 0.772210
vt 0.556682 0.778643
vt 0.556005 0.778643
vt 0.556005 0.778643
vt 0.556682 0.778643
vt 0.483473 0.772210
vt 0.483473 0.772210
vt 0.480429 0.772210
vt 0.479137 0.772210
vt 0.479838 0.766165
vt 0.479838 0.766589
vt 0.479838 0.766589
vt 0.479838 0.766165
vt 0.479414 0.775910
vt 0.479838 0.775910
vt 0.479838 0.775910
vt 0.479414 0.775910
vt 0.479414 0.776334
vt 0.479414 0.776334
vt 0.479414 0.776334
vt 0.479414 0.776334
vt 0.476872 0.775910
vt 0.476872 0.776334
vt 0.476872 0.776334
vt 0.476872 0.775910
vt 0.479838 0.776334
vt 0.479838 0.776758
vt 0.479838 0.776758
vt 0.479838 0.776334
vt 0.479838 0.779300
vt 0.479838 0.779724
vt 0.479838 0.779724
vt 0.479838 0.779300
vt 0.479838 0.775910
vt 0.479838 0.775910
vt 0.476448 0.773368
vt 0.476448 0.773368
vt 0.476448 0.773368
vt 0.476448 0.773368
vt 0.479838 0.772944
vt 0.479838 0.773368
vt 0.479838 0.773368
vt 0.479838 0.772944
vt 0.476872 0.776334
vt 0.476872 0.776334
vt 0.479838 0.776334
vt 0.476448 0.775910
vt 0.476448 0.776334
vt 0.476448 0.772944
vt 0.476872 0.772944
vt 0.476872 0.773368
vt 0.479414 0.772944
vt 0.479838 0.772944
vt 0.479838 0.773368
vt 0.479414 0.773368
vt 0.476448 0.772944
vt 0.479414 0.772944
vt 0.476448 0.776334
vt 0.476448 0.775910
vt 0.476872 0.772944
vt 0.476872 0.772944
vt 0.476872 0.772944
vt 0.476872 0.773368
vt 0.479838 0.773368
vt 0.479838 0.769131
vt 0.479838 0.769555
vt 0.479838 0.769555
vt 0.479838 0.769131
vt 0.476448 0.775910
vt 0.479414 0.773368
vt 0.479414 0.772944
vt 0.479838 0.769979
vt 0.479838 0.769979
vt 0.479414 0.772944
vt 0.479838 0.772521
vt 0.479838 0.772521
vt 0.476448 0.775910
vn 0.0207 0.9998 0.0000
vn 0.0000 0.7718 -0.6359
vn 0.4141 -0.5711 0.7088
vn -0.3059 -0.0001 0.9521
vn 0.0000 -0.9928 -0.1200
vn -0.6404 0.5989 -0.4809
vn -0.0698 -0.9976 0.0000
vn 0.0000 0.9994 -0.0357
vn 0.0000 -0.9928 0.1200
vn 0.0698 -0.9976 0.0000
vn 0.5820 0.8132 0.0000
vn -0.0000 0.7707 0.6372
vn 0.4177 -0.5607 -0.7149
vn 0.6086 0.7935 0.0000
vn -0.0002 0.0004 1.0000
vn -0.6404 0.5989 0.4809
vn 0.0000 0.0000 -1.0000
vn -1.0000 0.0000 0.0000
vn -0.0207 -0.9998 0.0000
vn 0.0000 -0.9994 -0.0357
vn 0.0000 1.0000 0.0000
vn -0.0068 -0.0002 -1.0000
vn -0.6108 0.0000 0.7918
vn 0.0000 -0.9975 -0.0708
vn 0.0000 0.9935 -0.1138
vn -0.6108 0.0000 -0.7918
vn 0.3981 0.0000 0.9173
vn -0.0410 -0.9992 0.0000
vn -0.3981 0.0000 -0.9173
vn -0.3981 0.0000 0.9173
vn 0.3981 0.0000 -0.9173
vn 0.0000 -0.9975 0.0708
vn -0.0661 0.9978 0.0000
vn 0.0000 0.9935 0.1138
vn 0.6108 0.0000 -0.7918
vn 0.6108 0.0000 0.7918
vn 0.0661 0.9978 0.0000
vn 0.0410 -0.9992 0.0000
vn -0.9385 0.0000 -0.3452
vn 0.0000 0.5821 -0.8131
vn 1.0000 0.0000 0.0000
vn 0.0000 -0.9588 -0.2840
vn 0.0207 -0.9998 0.0000
vn 0.0002 0.0004 -1.0000
vn 0.9433 0.0001 -0.3320
vn -1.0000 0.0006 -0.0003
vn -0.0002 0.0004 -1.0000
vn -0.0068 -0.0002 1.0000
vn 0.2846 -0.9586 0.0000
vn 1.0000 0.0008 -0.0004
vn 0.0000 0.5821 0.8132
vn 1.0000 0.0008 0.0004
vn -0.5747 0.8184 0.0000
vn 0.0000 -0.9994 0.0357
vn 0.0000 0.9994 0.0357
vn 0.0000 0.0000 1.0000
vn -0.0207 0.9998 0.0000
vn 0.0000 -0.9588 0.2840
vn -0.9776 0.0001 0.2104
vn -0.3059 -0.0001 -0.9521
vn -0.2828 -0.9592 0.0000
vn -0.6081 0.7938 0.0000
vn 0.0002 0.0004 1.0000
vn 0.9800 -0.0000 0.1989
vn -1.0000 0.0006 0.0003
vn 0.0000 -1.0000 0.0000
vn 0.0103 0.0000 0.9999
vn 0.0000 -0.0365 0.9993
vn -0.0103 0.0000 0.9999
vn 0.0000 0.0365 0.9993
usemtl Material.002
s off
f 86/1/1 85/2/1 91/3/1 92/4/1
f 5/5/2 17/6/2 35/7/2 7/8/2 40/9/2 63/10/2 49/11/2 38/12/2
f 17/13/3 5/14/3 38/15/3 49/16/3
f 18/17/4 76/18/4 54/19/4 19/20/4
f 4/21/5 9/22/5 46/23/5 44/24/5
f 19/25/6 5/14/6 38/15/6 54/26/6
f 22/27/7 3/28/7 43/29/7 52/30/7
f 85/2/8 84/31/8 90/32/8 91/33/8
f 2/34/9 6/35/9 45/36/9 42/37/9
f 20/38/10 1/39/10 41/40/10 51/41/10
f 24/42/11 23/43/11 67/44/11 60/45/11
f 13/46/12 21/47/12 37/48/12 62/49/12 47/50/12 39/51/12 8/52/12 25/53/12
f 21/54/13 13/55/13 62/56/13 37/57/13
f 15/58/14 33/59/14 53/60/14 48/61/14
f 62/62/15 74/63/15 55/64/15 37/48/15
f 21/65/16 28/66/16 50/67/16 37/68/16
f 17/69/17 27/70/17 16/71/17 35/72/17
f 28/73/18 29/74/18 18/75/18 19/76/18
f 80/77/19 81/78/19 77/79/19 78/80/19
f 56/81/18 57/82/18 96/83/18 81/78/18 80/84/18
f 81/85/20 93/86/20 94/87/20 82/88/20 88/89/20 77/79/20
f 77/90/17 88/91/17 91/92/17 90/93/17
f 23/94/21 24/95/21 10/96/21 11/97/21
f 33/98/22 14/99/22 75/100/22 53/101/22
f 46/23/23 9/22/23 132/102/23 131/103/23
f 42/104/24 40/105/24 141/106/24 143/107/24
f 1/108/25 30/109/25 153/110/25 127/111/25
f 2/34/26 42/37/26 143/112/26 144/113/26
f 43/29/27 3/28/27 130/114/27 129/115/27
f 37/116/28 41/117/28 128/118/28 117/119/28
f 51/120/28 38/121/28 145/122/28 125/123/28
f 36/124/25 22/125/25 120/126/25 138/127/25
f 41/40/29 1/39/29 127/128/29 128/129/29
f 20/38/30 51/41/30 125/130/30 122/131/30
f 22/27/31 52/30/31 134/132/31 120/133/31
f 39/51/32 46/134/32 131/135/32 135/136/32
f 9/137/33 36/124/33 138/127/33 132/138/33
f 38/12/24 45/139/24 124/140/24 145/141/24
f 31/142/34 20/143/34 122/144/34 142/145/34
f 45/36/35 6/35/35 123/146/35 124/147/35
f 4/21/36 44/24/36 146/148/36 147/149/36
f 6/150/37 31/142/37 142/145/37 123/151/37
f 3/152/34 32/153/34 168/154/34 130/155/34
f 44/156/32 37/157/32 117/158/32 146/159/32
f 30/109/37 4/160/37 147/161/37 153/110/37
f 52/30/38 39/162/38 135/163/38 134/132/38
f 32/153/33 2/164/33 144/165/33 168/154/33
f 40/166/38 43/167/38 129/168/38 141/169/38
f 65/170/17 70/171/17 73/172/17 64/173/17 84/174/17 85/2/17
f 16/175/39 70/176/39 63/177/39 35/178/39
f 61/179/40 10/180/40 24/181/40 60/182/40
f 88/183/41 89/184/41 92/185/41 91/92/41
f 27/186/42 73/172/42 70/187/42 16/188/42
f 60/45/21 56/189/21 59/190/21 61/179/21
f 82/191/43 83/192/43 89/193/43 88/89/43
f 63/194/44 70/187/44 65/195/44 40/9/44
f 27/186/45 17/196/45 49/197/45 73/172/45
f 54/198/46 76/18/46 64/173/46 38/12/46
f 49/199/17 63/10/17 40/105/17 42/104/17 45/139/17 38/12/17
f 15/200/41 34/201/41 14/202/41 33/98/41
f 57/82/21 56/203/21 60/45/21 67/204/21
f 38/205/47 64/206/47 73/172/47 49/207/47
f 15/208/48 48/209/48 69/210/48 34/211/48
f 14/212/49 34/211/49 69/213/49 75/214/49
f 98/215/17 95/216/17 82/217/17 94/218/17
f 75/214/41 69/210/41 65/195/41 85/219/41 86/1/41 66/220/41
f 48/221/41 53/60/41 52/30/41 43/167/41
f 43/167/50 40/166/50 65/222/50 69/210/50 48/61/50
f 61/179/21 59/223/21 58/224/21 72/225/21
f 67/204/51 23/226/51 11/227/51 72/225/51
f 52/30/52 53/228/52 75/214/52 66/229/52 39/162/52
f 58/230/41 59/223/41 83/192/41 82/88/41 95/231/41
f 72/225/53 11/232/53 10/233/53 61/234/53
f 57/235/21 67/236/21 72/225/21 58/224/21
f 83/237/54 80/84/54 78/80/54 89/193/54
f 87/238/55 86/239/55 92/240/55 79/241/55
f 25/242/56 26/243/56 12/244/56 13/245/56
f 59/190/56 56/246/56 80/84/56 83/192/56
f 84/31/57 87/247/57 79/248/57 90/249/57
f 26/250/58 68/251/58 74/252/58 12/253/58
f 74/252/56 68/254/56 66/229/56 86/255/56 87/238/56 55/64/56
f 64/256/18 76/18/18 71/257/18 55/258/18 87/259/18 84/31/18
f 26/250/59 25/53/59 47/260/59 68/254/59
f 29/261/60 28/262/60 50/263/60 71/257/60
f 29/261/61 71/264/61 76/18/61 18/17/61
f 19/20/62 54/19/62 50/263/62 28/262/62
f 39/265/63 66/266/63 68/254/63 47/267/63
f 50/268/18 54/19/18 38/121/18 51/120/18 41/117/18 37/116/18
f 12/253/64 74/252/64 62/269/64 13/46/64
f 37/270/65 55/271/65 71/272/65 50/263/65
f 78/273/18 77/274/18 90/275/18 79/276/18
f 47/277/56 62/49/56 37/157/56 44/156/56 46/134/56 39/51/56
f 89/278/56 78/279/56 79/280/56 92/281/56
f 3/152/66 22/125/66 36/124/66 9/137/66 4/160/66 30/109/66 1/108/66 20/143/66 31/142/66 6/150/66 2/164/66 32/153/66
f 57/282/17 58/283/17 95/216/17 98/215/17 97/284/17 96/285/17
f 96/285/17 97/286/17 93/287/17 81/78/17
f 101/288/17 102/289/17 100/290/17 99/291/17
f 98/292/41 94/293/41 103/294/41 100/290/41 102/289/41
f 97/295/21 98/292/21 102/289/21 101/296/21
f 93/297/18 97/298/18 101/288/18 99/291/18 104/299/18
f 94/300/66 93/301/66 104/302/66 103/303/66
f 107/304/66 108/305/66 105/306/66 106/307/66
f 100/290/41 103/294/41 107/308/41 106/309/41
f 104/299/18 99/291/18 105/310/18 108/311/18
f 100/290/17 106/309/17 112/312/17 110/313/17
f 110/313/18 112/312/18 116/314/18 114/315/18
f 99/291/17 100/290/17 110/313/17 109/316/17
f 106/307/17 105/306/17 111/317/17 112/318/17
f 105/310/17 99/291/17 109/316/17 111/319/17
f 109/320/66 110/321/66 114/322/66 113/323/66
f 111/319/41 109/316/41 113/324/41 115/325/41
f 112/318/21 111/317/21 115/326/21 116/327/21
f 103/294/67 114/315/67 116/314/67 107/308/67
f 107/308/68 116/314/68 115/326/68 108/305/68
f 108/305/69 115/326/69 113/324/69 104/299/69
f 103/294/70 104/299/70 113/324/70 114/315/70
f 117/328/18 128/329/18 148/330/18 118/331/18
f 138/332/17 120/333/17 119/334/17 139/335/17
f 131/336/23 132/337/23 137/338/23 162/339/23
f 153/340/41 147/341/41 163/342/41 164/343/41
f 135/344/56 131/345/56 162/346/56 136/347/56
f 146/348/56 117/349/56 118/350/56 150/351/56
f 120/333/31 134/352/31 133/353/31 119/334/31
f 122/354/30 125/355/30 126/356/30 121/357/30
f 134/352/41 135/344/41 136/347/41 133/353/41
f 132/337/18 138/332/18 139/335/18 137/338/18
f 141/358/41 129/359/41 149/360/41 140/361/41
f 147/341/36 146/362/36 150/363/36 163/342/36
f 139/335/66 119/334/66 160/364/66 137/338/66
f 152/365/66 164/343/66 163/342/66 154/366/66
f 156/367/66 155/368/66 165/369/66 121/357/66
f 161/370/66 158/371/66 157/372/66 166/373/66
f 156/367/10 121/357/10 126/356/10 167/374/10
f 137/338/5 160/364/5 136/347/5 162/339/5
f 157/372/7 158/371/7 140/361/7 149/360/7
f 158/371/9 161/370/9 151/375/9 140/361/9
f 160/364/7 119/334/7 133/353/7 136/347/7
f 152/365/10 154/366/10 118/376/10 148/377/10
f 154/366/5 163/342/5 150/363/5 118/376/5
f 155/368/9 156/367/9 167/374/9 159/378/9
f 124/379/35 123/380/35 155/368/35 159/378/35
f 123/380/41 142/381/41 165/369/41 155/368/41
f 129/359/27 130/382/27 157/372/27 149/360/27
f 125/383/18 145/384/18 167/385/18 126/386/18
f 127/387/17 153/340/17 164/343/17 152/365/17
f 168/388/18 144/389/18 161/370/18 166/373/18
f 145/384/17 124/390/17 159/391/17 167/385/17
f 142/381/56 122/354/56 121/357/56 165/369/56
f 144/389/26 143/392/26 151/375/26 161/370/26
f 143/393/17 141/358/17 140/361/17 151/394/17
f 128/395/29 127/387/29 152/365/29 148/377/29
f 130/382/56 168/388/56 166/373/56 157/372/56
