# Blender v2.83.5 OBJ File: 'crate01.blend'
# www.blender.org
mtllib crate01.mtl
o Cube.005_Cube.006
v 0.051523 0.003069 0.249687
v 0.051523 0.023124 0.249687
v 0.079737 0.003069 -0.250313
v 0.079737 0.023124 -0.250313
v 0.149546 0.003069 0.249687
v 0.149546 0.023124 0.249687
v 0.149546 0.003069 -0.250313
v 0.149546 0.023124 -0.250313
v -0.151084 0.003069 0.249687
v -0.151084 0.023124 0.249687
v -0.151084 0.003069 -0.250313
v -0.151084 0.023124 -0.250313
v -0.067858 0.003069 0.249687
v -0.067858 0.023124 0.249687
v -0.076219 0.003069 -0.250313
v -0.076219 0.023124 -0.250313
v -0.066850 0.003069 0.249687
v -0.066850 0.023124 0.249687
v -0.075211 0.003069 -0.250313
v -0.075211 0.023124 -0.250313
v -0.011759 0.003069 0.249687
v -0.011759 0.023124 0.249687
v -0.016514 0.003069 -0.250313
v -0.016514 0.023124 -0.250313
v -0.009913 0.003069 0.249687
v -0.009913 0.023124 0.249687
v -0.014669 0.003069 -0.250313
v -0.014669 0.023124 -0.250313
v 0.050314 0.003069 0.249687
v 0.050314 0.023124 0.249687
v 0.078527 0.003069 -0.250313
v 0.078527 0.023124 -0.250313
v -0.150301 0.024978 0.236747
v -0.150301 0.073292 0.236747
v -0.150301 0.024978 -0.237372
v -0.150301 0.073292 -0.237372
v -0.138299 0.024978 0.236747
v -0.138299 0.073292 0.236747
v -0.139504 0.024978 -0.237372
v -0.139504 0.073292 -0.237372
v -0.150467 0.024638 0.248878
v -0.150467 0.193542 0.248878
v -0.150467 0.024638 0.238946
v -0.150467 0.193542 0.238946
v 0.150059 0.024638 0.248878
v 0.150059 0.193542 0.248878
v 0.150059 0.024638 0.238946
v 0.150059 0.193542 0.238946
v -0.150301 0.076611 0.236747
v -0.150301 0.131388 0.236747
v -0.150301 0.076611 -0.237372
v -0.150301 0.131388 -0.237372
v -0.138299 0.076611 0.236747
v -0.138299 0.131388 0.236747
v -0.139504 0.076611 -0.237372
v -0.139504 0.131388 -0.237372
v -0.150301 0.134320 0.236747
v -0.150301 0.191805 0.236747
v -0.150301 0.134320 -0.237372
v -0.150301 0.191805 -0.237372
v -0.138299 0.134320 0.236747
v -0.138299 0.191805 0.236747
v -0.139504 0.134320 -0.237372
v -0.139504 0.191805 -0.237372
v 0.137912 0.024978 0.236747
v 0.139542 0.073292 0.236747
v 0.137912 0.024978 -0.237372
v 0.137912 0.073292 -0.237372
v 0.149914 0.024978 0.236747
v 0.149914 0.073292 0.236747
v 0.148708 0.024978 -0.237372
v 0.148708 0.073292 -0.237372
v 0.137912 0.076611 0.236747
v 0.137912 0.131388 0.236747
v 0.137912 0.076611 -0.237372
v 0.137912 0.131388 -0.237372
v 0.149914 0.076611 0.236747
v 0.149914 0.131388 0.236747
v 0.148708 0.076611 -0.237372
v 0.148708 0.131388 -0.237372
v 0.137912 0.134320 0.236747
v 0.137912 0.191805 0.236747
v 0.137912 0.134320 -0.237372
v 0.137912 0.191805 -0.237372
v 0.149914 0.134320 0.236747
v 0.149914 0.191805 0.236747
v 0.148708 0.134320 -0.237372
v 0.148708 0.191805 -0.237372
v -0.150467 0.024638 0.243912
v -0.150467 0.109090 0.248878
v -0.150467 0.193542 0.243912
v -0.150467 0.109090 0.238946
v -0.000204 0.024638 0.238946
v -0.000204 0.193542 0.238946
v 0.150059 0.109090 0.238946
v 0.150059 0.024638 0.243912
v 0.150059 0.193542 0.243912
v 0.150059 0.109090 0.248878
v -0.000204 0.024638 0.248878
v -0.000204 0.193542 0.248878
v -0.150467 0.024638 0.246395
v -0.150467 0.151316 0.248878
v -0.150467 0.193542 0.241429
v -0.150467 0.066864 0.238946
v -0.075335 0.024638 0.238946
v 0.074928 0.193542 0.238946
v 0.150059 0.066864 0.238946
v 0.150059 0.024638 0.241429
v 0.150059 0.193542 0.246395
v 0.150059 0.066864 0.248878
v 0.074928 0.024638 0.248878
v -0.075335 0.193542 0.248878
v -0.150467 0.024638 0.241429
v -0.150467 0.066864 0.248878
v -0.150467 0.193542 0.246395
v -0.150467 0.151316 0.238946
v 0.074928 0.024638 0.238946
v -0.075335 0.193542 0.238946
v 0.150059 0.151316 0.238946
v 0.150059 0.024638 0.246395
v 0.150059 0.193542 0.241429
v 0.150059 0.151316 0.248878
v -0.075335 0.024638 0.248878
v 0.074928 0.193542 0.248878
v -0.000204 0.157217 0.248878
v -0.000204 0.157217 0.238946
v -0.037770 0.193542 0.238946
v 0.037362 0.193542 0.248878
v 0.037362 0.193542 0.238946
v -0.037770 0.193542 0.248878
v -0.000204 0.172429 0.248878
v -0.000204 0.172429 0.238946
v -0.037770 0.157217 0.238946
v 0.037362 0.157217 0.248878
v -0.037770 0.157217 0.248878
v 0.037362 0.157217 0.238946
v 0.037362 0.172429 0.238946
v -0.037770 0.172429 0.248878
v -0.037770 0.172429 0.238946
v 0.037362 0.172429 0.248878
v -0.150467 0.024638 -0.238563
v -0.150467 0.193542 -0.238563
v -0.150467 0.024638 -0.248496
v -0.150467 0.193542 -0.248496
v 0.150059 0.024638 -0.238563
v 0.150059 0.193542 -0.238563
v 0.150059 0.024638 -0.248496
v 0.150059 0.193542 -0.248496
v -0.150467 0.024638 -0.243529
v -0.150467 0.109090 -0.238563
v -0.150467 0.193542 -0.243529
v -0.150467 0.109090 -0.248496
v -0.000204 0.024638 -0.248496
v -0.000204 0.193542 -0.248496
v 0.150059 0.109090 -0.248496
v 0.150059 0.024638 -0.243529
v 0.150059 0.193542 -0.243529
v 0.150059 0.109090 -0.238563
v -0.000204 0.024638 -0.238563
v -0.000204 0.193542 -0.238563
v -0.150467 0.024638 -0.241046
v -0.150467 0.151316 -0.238563
v -0.150467 0.193542 -0.246013
v -0.150467 0.066864 -0.248496
v -0.075335 0.024638 -0.248496
v 0.074928 0.193542 -0.248496
v 0.150059 0.066864 -0.248496
v 0.150059 0.024638 -0.246013
v 0.150059 0.193542 -0.241046
v 0.150059 0.066864 -0.238563
v 0.074928 0.024638 -0.238563
v -0.075335 0.193542 -0.238563
v -0.150467 0.024638 -0.246013
v -0.150467 0.066864 -0.238563
v -0.150467 0.193542 -0.241046
v -0.150467 0.151316 -0.248496
v 0.074928 0.024638 -0.248496
v -0.075335 0.193542 -0.248496
v 0.150059 0.151316 -0.248496
v 0.150059 0.024638 -0.241046
v 0.150059 0.193542 -0.246013
v 0.150059 0.151316 -0.238563
v -0.075335 0.024638 -0.238563
v 0.074928 0.193542 -0.238563
v -0.000204 0.157217 -0.238563
v -0.000204 0.157217 -0.248496
v -0.037770 0.193542 -0.248496
v 0.037362 0.193542 -0.238563
v 0.037362 0.193542 -0.248496
v -0.037770 0.193542 -0.238563
v -0.000204 0.172429 -0.238563
v -0.000204 0.172429 -0.248496
v -0.037770 0.157217 -0.248496
v 0.037362 0.157217 -0.238563
v -0.037770 0.157217 -0.238563
v 0.037362 0.157217 -0.248496
v 0.037362 0.172429 -0.248496
v -0.037770 0.172429 -0.238563
v -0.037770 0.172429 -0.248496
v 0.037362 0.172429 -0.238563
vt 0.544071 0.757625
vt 0.553173 0.757625
vt 0.553173 0.766726
vt 0.544071 0.766726
vt 0.553173 0.775828
vt 0.544071 0.775828
vt 0.553173 0.784929
vt 0.544071 0.784929
vt 0.553173 0.794030
vt 0.544071 0.794030
vt 0.534970 0.775828
vt 0.534970 0.784929
vt 0.289664 0.902820
vt 0.298765 0.902820
vt 0.298765 0.911921
vt 0.289664 0.911921
vt 0.544071 0.757625
vt 0.553173 0.757625
vt 0.553173 0.766726
vt 0.544071 0.766726
vt 0.553173 0.775828
vt 0.544071 0.775828
vt 0.553173 0.784929
vt 0.544071 0.784929
vt 0.553173 0.794030
vt 0.544071 0.794030
vt 0.534970 0.775828
vt 0.534970 0.784929
vt 0.289664 0.902820
vt 0.298765 0.902820
vt 0.298765 0.911921
vt 0.289664 0.911921
vt 0.544071 0.757625
vt 0.553173 0.757625
vt 0.553173 0.766726
vt 0.544071 0.766726
vt 0.553173 0.775828
vt 0.544071 0.775828
vt 0.553173 0.784929
vt 0.544071 0.784929
vt 0.553173 0.794030
vt 0.544071 0.794030
vt 0.534970 0.775828
vt 0.534970 0.784929
vt 0.289664 0.902820
vt 0.298765 0.902820
vt 0.298765 0.911921
vt 0.289664 0.911921
vt 0.544071 0.757625
vt 0.553173 0.757625
vt 0.553173 0.766726
vt 0.544071 0.766726
vt 0.553173 0.775828
vt 0.544071 0.775828
vt 0.553173 0.784929
vt 0.544071 0.784929
vt 0.553173 0.794030
vt 0.544071 0.794030
vt 0.534970 0.775828
vt 0.534970 0.784929
vt 0.289664 0.902820
vt 0.298765 0.902820
vt 0.298765 0.911921
vt 0.289664 0.911921
vt 0.544071 0.757625
vt 0.553173 0.757625
vt 0.553173 0.766726
vt 0.544071 0.766726
vt 0.553173 0.775828
vt 0.544071 0.775828
vt 0.553173 0.784929
vt 0.544071 0.784929
vt 0.553173 0.794030
vt 0.544071 0.794030
vt 0.534970 0.775828
vt 0.534970 0.784929
vt 0.562274 0.775828
vt 0.562274 0.784929
vt 0.544071 0.757625
vt 0.553173 0.757625
vt 0.553173 0.766726
vt 0.544071 0.766726
vt 0.553173 0.775828
vt 0.544071 0.775828
vt 0.553173 0.784929
vt 0.544071 0.784929
vt 0.553173 0.794030
vt 0.544071 0.794030
vt 0.534970 0.775828
vt 0.534970 0.784929
vt 0.562274 0.775828
vt 0.562274 0.784929
vt 0.544071 0.757625
vt 0.553173 0.757625
vt 0.553173 0.766726
vt 0.544071 0.766726
vt 0.553173 0.775828
vt 0.544071 0.775828
vt 0.553173 0.784929
vt 0.544071 0.784929
vt 0.553173 0.794030
vt 0.544071 0.794030
vt 0.534970 0.775828
vt 0.534970 0.784929
vt 0.562274 0.775828
vt 0.562274 0.784929
vt 0.544071 0.757625
vt 0.553173 0.757625
vt 0.553173 0.766726
vt 0.544071 0.766726
vt 0.553173 0.775828
vt 0.544071 0.775828
vt 0.553173 0.784929
vt 0.544071 0.784929
vt 0.553173 0.794030
vt 0.544071 0.794030
vt 0.534970 0.775828
vt 0.534970 0.784929
vt 0.562274 0.775828
vt 0.562274 0.784929
vt 0.544071 0.757625
vt 0.553173 0.757625
vt 0.553173 0.766726
vt 0.544071 0.766726
vt 0.553173 0.775828
vt 0.544071 0.775828
vt 0.553173 0.784929
vt 0.544071 0.784929
vt 0.553173 0.794030
vt 0.544071 0.794030
vt 0.534970 0.775828
vt 0.534970 0.784929
vt 0.562274 0.775828
vt 0.562274 0.784929
vt 0.544071 0.757625
vt 0.553173 0.757625
vt 0.553173 0.766726
vt 0.544071 0.766726
vt 0.553173 0.775828
vt 0.544071 0.775828
vt 0.553173 0.784929
vt 0.544071 0.784929
vt 0.553173 0.794030
vt 0.544071 0.794030
vt 0.534970 0.775828
vt 0.534970 0.784929
vt 0.562274 0.775828
vt 0.562274 0.784929
vt 0.552035 0.770139
vt 0.553173 0.770139
vt 0.553173 0.771277
vt 0.553173 0.772415
vt 0.552035 0.772415
vt 0.552035 0.771277
vt 0.544071 0.782654
vt 0.544071 0.784929
vt 0.541796 0.784929
vt 0.539521 0.784929
vt 0.537245 0.784929
vt 0.534970 0.784929
vt 0.534970 0.782654
vt 0.534970 0.780378
vt 0.534970 0.778103
vt 0.534970 0.775828
vt 0.537245 0.775828
vt 0.539521 0.775828
vt 0.541796 0.775828
vt 0.544071 0.775828
vt 0.544071 0.778103
vt 0.544071 0.780378
vt 0.553173 0.782654
vt 0.553173 0.784929
vt 0.550897 0.784929
vt 0.548622 0.784929
vt 0.546347 0.784929
vt 0.546347 0.775828
vt 0.548622 0.775828
vt 0.550897 0.775828
vt 0.553173 0.775828
vt 0.553173 0.778103
vt 0.553173 0.780378
vt 0.552035 0.790617
vt 0.552035 0.788342
vt 0.552035 0.789480
vt 0.550897 0.790617
vt 0.550897 0.789480
vt 0.550897 0.788342
vt 0.550897 0.772415
vt 0.550897 0.771277
vt 0.550897 0.770139
vt 0.562274 0.782654
vt 0.562274 0.784929
vt 0.559999 0.784929
vt 0.558861 0.784929
vt 0.557723 0.784929
vt 0.556586 0.784929
vt 0.555448 0.784929
vt 0.555448 0.775828
vt 0.556586 0.775828
vt 0.557723 0.775828
vt 0.558861 0.775828
vt 0.559999 0.775828
vt 0.562274 0.775828
vt 0.562274 0.778103
vt 0.562274 0.780378
vt 0.553173 0.764451
vt 0.553173 0.766726
vt 0.550897 0.766726
vt 0.548622 0.766726
vt 0.546347 0.766726
vt 0.544071 0.766726
vt 0.544071 0.764451
vt 0.544071 0.762176
vt 0.544071 0.759901
vt 0.544071 0.757625
vt 0.546347 0.757625
vt 0.548622 0.757625
vt 0.550897 0.757625
vt 0.553173 0.757625
vt 0.553173 0.759901
vt 0.553173 0.762176
vt 0.553173 0.773552
vt 0.544071 0.773552
vt 0.544071 0.771277
vt 0.544071 0.769002
vt 0.553173 0.769002
vt 0.553173 0.791755
vt 0.553173 0.794030
vt 0.550897 0.794030
vt 0.548622 0.794030
vt 0.546347 0.794030
vt 0.544071 0.794030
vt 0.544071 0.791755
vt 0.544071 0.789480
vt 0.544071 0.787204
vt 0.553173 0.787204
vt 0.553173 0.788342
vt 0.553173 0.790617
vt 0.553173 0.789480
vt 0.552035 0.770139
vt 0.553173 0.770139
vt 0.553173 0.771277
vt 0.553173 0.772415
vt 0.552035 0.772415
vt 0.552035 0.771277
vt 0.544071 0.782654
vt 0.544071 0.784929
vt 0.541796 0.784929
vt 0.539521 0.784929
vt 0.537245 0.784929
vt 0.534970 0.784929
vt 0.534970 0.782654
vt 0.534970 0.780378
vt 0.534970 0.778103
vt 0.534970 0.775828
vt 0.537245 0.775828
vt 0.539521 0.775828
vt 0.541796 0.775828
vt 0.544071 0.775828
vt 0.544071 0.778103
vt 0.544071 0.780378
vt 0.553173 0.782654
vt 0.553173 0.784929
vt 0.550897 0.784929
vt 0.548622 0.784929
vt 0.546347 0.784929
vt 0.546347 0.775828
vt 0.548622 0.775828
vt 0.550897 0.775828
vt 0.553173 0.775828
vt 0.553173 0.778103
vt 0.553173 0.780378
vt 0.552035 0.790617
vt 0.552035 0.788342
vt 0.552035 0.789480
vt 0.550897 0.790617
vt 0.550897 0.789480
vt 0.550897 0.788342
vt 0.550897 0.772415
vt 0.550897 0.771277
vt 0.550897 0.770139
vt 0.562274 0.782654
vt 0.562274 0.784929
vt 0.559999 0.784929
vt 0.558861 0.784929
vt 0.557723 0.784929
vt 0.556586 0.784929
vt 0.555448 0.784929
vt 0.555448 0.775828
vt 0.556586 0.775828
vt 0.557723 0.775828
vt 0.558861 0.775828
vt 0.559999 0.775828
vt 0.562274 0.775828
vt 0.562274 0.778103
vt 0.562274 0.780378
vt 0.553173 0.764451
vt 0.553173 0.766726
vt 0.550897 0.766726
vt 0.548622 0.766726
vt 0.546347 0.766726
vt 0.544071 0.766726
vt 0.544071 0.764451
vt 0.544071 0.762176
vt 0.544071 0.759901
vt 0.544071 0.757625
vt 0.546347 0.757625
vt 0.548622 0.757625
vt 0.550897 0.757625
vt 0.553173 0.757625
vt 0.553173 0.759901
vt 0.553173 0.762176
vt 0.553173 0.773552
vt 0.544071 0.773552
vt 0.544071 0.771277
vt 0.544071 0.769002
vt 0.553173 0.769002
vt 0.553173 0.791755
vt 0.553173 0.794030
vt 0.550897 0.794030
vt 0.548622 0.794030
vt 0.546347 0.794030
vt 0.544071 0.794030
vt 0.544071 0.791755
vt 0.544071 0.789480
vt 0.544071 0.787204
vt 0.553173 0.787204
vt 0.553173 0.788342
vt 0.553173 0.790617
vt 0.553173 0.789480
vn -0.9984 0.0000 -0.0563
vn 0.0000 0.0000 -1.0000
vn 1.0000 0.0000 0.0000
vn 0.0000 0.0000 1.0000
vn 0.0000 -1.0000 0.0000
vn 0.0000 1.0000 0.0000
vn -1.0000 0.0000 0.0000
vn 0.9999 0.0000 -0.0167
vn -0.9999 0.0000 0.0167
vn 1.0000 0.0000 -0.0095
vn -1.0000 0.0000 0.0095
vn 0.9984 0.0000 0.0563
vn 1.0000 0.0000 -0.0025
vn -0.9999 0.0169 0.0017
usemtl Material.001
s off
f 1/1/1 2/2/1 4/3/1 3/4/1
f 3/4/2 4/3/2 8/5/2 7/6/2
f 7/6/3 8/5/3 6/7/3 5/8/3
f 5/8/4 6/7/4 2/9/4 1/10/4
f 3/11/5 7/6/5 5/8/5 1/12/5
f 8/13/6 4/14/6 2/15/6 6/16/6
f 9/17/7 10/18/7 12/19/7 11/20/7
f 11/20/2 12/19/2 16/21/2 15/22/2
f 15/22/8 16/21/8 14/23/8 13/24/8
f 13/24/4 14/23/4 10/25/4 9/26/4
f 11/27/5 15/22/5 13/24/5 9/28/5
f 16/29/6 12/30/6 10/31/6 14/32/6
f 17/33/9 18/34/9 20/35/9 19/36/9
f 19/36/2 20/35/2 24/37/2 23/38/2
f 23/38/10 24/37/10 22/39/10 21/40/10
f 21/40/4 22/39/4 18/41/4 17/42/4
f 19/43/5 23/38/5 21/40/5 17/44/5
f 24/45/6 20/46/6 18/47/6 22/48/6
f 25/49/11 26/50/11 28/51/11 27/52/11
f 27/52/2 28/51/2 32/53/2 31/54/2
f 31/54/12 32/53/12 30/55/12 29/56/12
f 29/56/4 30/55/4 26/57/4 25/58/4
f 27/59/5 31/54/5 29/56/5 25/60/5
f 32/61/6 28/62/6 26/63/6 30/64/6
f 33/65/7 34/66/7 36/67/7 35/68/7
f 35/68/2 36/67/2 40/69/2 39/70/2
f 39/70/13 40/69/13 38/71/13 37/72/13
f 37/72/4 38/71/4 34/73/4 33/74/4
f 35/75/5 39/70/5 37/72/5 33/76/5
f 40/69/6 36/77/6 34/78/6 38/71/6
f 49/79/7 50/80/7 52/81/7 51/82/7
f 51/82/2 52/81/2 56/83/2 55/84/2
f 55/84/13 56/83/13 54/85/13 53/86/13
f 53/86/4 54/85/4 50/87/4 49/88/4
f 51/89/5 55/84/5 53/86/5 49/90/5
f 56/83/6 52/91/6 50/92/6 54/85/6
f 57/93/7 58/94/7 60/95/7 59/96/7
f 59/96/2 60/95/2 64/97/2 63/98/2
f 63/98/13 64/97/13 62/99/13 61/100/13
f 61/100/4 62/99/4 58/101/4 57/102/4
f 59/103/5 63/98/5 61/100/5 57/104/5
f 64/97/6 60/105/6 58/106/6 62/99/6
f 65/107/14 66/108/14 68/109/14 67/110/14
f 67/110/2 68/109/2 72/111/2 71/112/2
f 71/112/13 72/111/13 70/113/13 69/114/13
f 69/114/4 70/113/4 66/115/4 65/116/4
f 67/117/5 71/112/5 69/114/5 65/118/5
f 72/111/6 68/119/6 66/120/6 70/113/6
f 73/121/7 74/122/7 76/123/7 75/124/7
f 75/124/2 76/123/2 80/125/2 79/126/2
f 79/126/13 80/125/13 78/127/13 77/128/13
f 77/128/4 78/127/4 74/129/4 73/130/4
f 75/131/5 79/126/5 77/128/5 73/132/5
f 80/125/6 76/133/6 74/134/6 78/127/6
f 81/135/7 82/136/7 84/137/7 83/138/7
f 83/138/2 84/137/2 88/139/2 87/140/2
f 87/140/13 88/139/13 86/141/13 85/142/13
f 85/142/4 86/141/4 82/143/4 81/144/4
f 83/145/5 87/140/5 85/142/5 81/146/5
f 88/139/6 84/147/6 82/148/6 86/141/6
f 139/149/2 127/150/2 94/151/2 129/152/2 137/153/2 132/154/2
f 120/155/5 45/156/5 111/157/5 99/158/5 123/159/5 41/160/5 101/161/5 89/162/5 113/163/5 43/164/5 105/165/5 93/166/5 117/167/5 47/168/5 108/169/5 96/170/5
f 109/171/3 46/172/3 122/173/3 98/174/3 110/175/3 45/156/3 120/155/3 96/170/3 108/169/3 47/168/3 107/176/3 95/177/3 119/178/3 48/179/3 121/180/3 97/181/3
f 138/182/5 139/149/5 132/154/5 137/153/5 140/183/5 131/184/5
f 135/185/6 125/186/6 134/187/6 136/188/6 126/189/6 133/190/6
f 115/191/6 42/192/6 112/193/6 130/194/6 100/195/6 128/196/6 124/197/6 46/172/6 109/171/6 97/181/6 121/180/6 48/179/6 106/198/6 129/199/6 94/200/6 127/201/6 118/202/6 44/203/6 103/204/6 91/205/6
f 133/190/3 139/149/3 138/182/3 135/185/3
f 136/188/7 134/187/7 140/183/7 137/153/7
f 103/206/7 44/207/7 116/208/7 92/209/7 104/210/7 43/211/7 113/212/7 89/213/7 101/214/7 41/215/7 114/216/7 90/217/7 102/218/7 42/219/7 115/220/7 91/221/7
f 106/222/2 48/179/2 119/178/2 95/177/2 107/176/2 47/168/2 117/223/2 93/224/2 105/225/2 43/211/2 104/210/2 92/209/2 116/208/2 44/207/2 118/226/2 127/150/2 139/149/2 133/190/2 126/189/2 136/188/2 137/153/2 129/152/2
f 112/227/4 42/228/4 102/229/4 90/230/4 114/231/4 41/232/4 123/233/4 99/234/4 111/235/4 45/156/4 110/175/4 98/174/4 122/173/4 46/172/4 124/236/4 128/237/4 140/183/4 134/187/4 125/186/4 135/185/4 138/182/4 130/238/4
f 140/183/4 128/237/4 100/239/4 130/238/4 138/182/4 131/184/4
f 199/240/2 187/241/2 154/242/2 189/243/2 197/244/2 192/245/2
f 180/246/5 145/247/5 171/248/5 159/249/5 183/250/5 141/251/5 161/252/5 149/253/5 173/254/5 143/255/5 165/256/5 153/257/5 177/258/5 147/259/5 168/260/5 156/261/5
f 169/262/3 146/263/3 182/264/3 158/265/3 170/266/3 145/247/3 180/246/3 156/261/3 168/260/3 147/259/3 167/267/3 155/268/3 179/269/3 148/270/3 181/271/3 157/272/3
f 198/273/5 199/240/5 192/245/5 197/244/5 200/274/5 191/275/5
f 195/276/6 185/277/6 194/278/6 196/279/6 186/280/6 193/281/6
f 175/282/6 142/283/6 172/284/6 190/285/6 160/286/6 188/287/6 184/288/6 146/263/6 169/262/6 157/272/6 181/271/6 148/270/6 166/289/6 189/290/6 154/291/6 187/292/6 178/293/6 144/294/6 163/295/6 151/296/6
f 193/281/3 199/240/3 198/273/3 195/276/3
f 196/279/7 194/278/7 200/274/7 197/244/7
f 163/297/7 144/298/7 176/299/7 152/300/7 164/301/7 143/302/7 173/303/7 149/304/7 161/305/7 141/306/7 174/307/7 150/308/7 162/309/7 142/310/7 175/311/7 151/312/7
f 166/313/2 148/270/2 179/269/2 155/268/2 167/267/2 147/259/2 177/314/2 153/315/2 165/316/2 143/302/2 164/301/2 152/300/2 176/299/2 144/298/2 178/317/2 187/241/2 199/240/2 193/281/2 186/280/2 196/279/2 197/244/2 189/243/2
f 172/318/4 142/319/4 162/320/4 150/321/4 174/322/4 141/323/4 183/324/4 159/325/4 171/326/4 145/247/4 170/266/4 158/265/4 182/264/4 146/263/4 184/327/4 188/328/4 200/274/4 194/278/4 185/277/4 195/276/4 198/273/4 190/329/4
f 200/274/4 188/328/4 160/330/4 190/329/4 198/273/4 191/275/4
