# Blender v2.83.5 OBJ File: 'drawer01.blend'
# www.blender.org
mtllib drawer01.mtl
o Cube
v -0.600000 0.044057 0.240000
v -0.600000 0.884057 0.240000
v -0.600000 0.044057 -0.240000
v -0.600000 0.884057 -0.240000
v 0.600000 0.044057 0.240000
v 0.600000 0.884057 0.240000
v 0.600000 0.044057 -0.240000
v 0.600000 0.884057 -0.240000
v -0.600000 0.044057 0.210000
v -0.562500 0.044057 -0.240000
v 0.600000 0.044057 -0.210000
v 0.562500 0.044057 0.240000
v -0.600000 0.044057 -0.210000
v 0.600000 0.044057 0.210000
v -0.600000 0.044057 0.225000
v 0.600000 0.044057 -0.225000
v -0.600000 0.044057 -0.225000
v 0.562500 0.044057 -0.240000
v 0.600000 0.044057 0.225000
v -0.562500 0.044057 0.240000
v 0.562500 0.044057 -0.210000
v -0.562500 0.044057 -0.210000
v -0.562500 0.044057 0.210000
v 0.562500 0.044057 0.210000
v -0.562500 0.044057 0.225000
v -0.562500 0.044057 -0.225000
v 0.562500 0.044057 -0.225000
v 0.562500 0.044057 0.225000
v -0.600000 -0.021140 0.240000
v -0.600000 -0.021140 -0.240000
v 0.600000 -0.021140 0.240000
v 0.600000 -0.021140 -0.240000
v -0.600000 -0.021140 0.210000
v 0.600000 -0.021140 -0.210000
v -0.600000 -0.021140 -0.210000
v 0.600000 -0.021140 0.210000
v -0.600000 -0.021140 0.225000
v -0.562500 -0.021140 -0.240000
v 0.600000 -0.021140 -0.225000
v 0.562500 -0.021140 0.240000
v -0.600000 -0.021140 -0.225000
v 0.562500 -0.021140 -0.240000
v 0.600000 -0.021140 0.225000
v -0.562500 -0.021140 0.240000
v 0.562500 -0.021140 -0.210000
v -0.562500 -0.021140 -0.210000
v -0.562500 -0.021140 0.210000
v 0.562500 -0.021140 0.210000
v -0.562500 -0.021140 0.225000
v -0.562500 -0.021140 -0.225000
v 0.562500 -0.021140 -0.225000
v 0.562500 -0.021140 0.225000
v -0.581749 0.085624 0.240000
v -0.581749 0.868983 0.240000
v 0.581749 0.085624 0.240000
v 0.581749 0.868983 0.240000
v 0.581749 0.601878 0.240000
v -0.581749 0.601878 0.240000
v -0.581749 0.851026 0.240000
v 0.581749 0.352729 0.240000
v 0.575230 0.613894 0.255796
v -0.581749 0.352729 0.240000
v 0.581749 0.103581 0.240000
v 0.581749 0.851026 0.240000
v -0.581749 0.103581 0.240000
v 0.575230 0.850670 0.255796
v -0.575230 0.850670 0.255796
v -0.575230 0.613894 0.255796
v -0.600000 0.909071 0.240000
v -0.600000 0.909071 -0.240000
v 0.600000 0.909071 0.240000
v 0.600000 0.909071 -0.240000
v -0.600000 0.884057 0.255977
v 0.600000 0.884057 0.255977
v -0.600000 0.909071 0.255977
v 0.600000 0.909071 0.255977
v 0.574458 0.600431 0.255441
v -0.574458 0.600431 0.255441
v 0.574458 0.365459 0.255441
v -0.574458 0.365459 0.255441
v 0.572940 0.351869 0.255903
v -0.572940 0.351869 0.255903
v 0.572940 0.122678 0.255903
v -0.572940 0.122678 0.255903
v -0.050868 0.715625 0.291291
v -0.050868 0.738728 0.291291
v -0.050868 0.715625 0.268710
v -0.050868 0.738728 0.268710
v 0.050868 0.715625 0.291291
v 0.050868 0.738728 0.291291
v 0.050868 0.715625 0.268710
v 0.050868 0.738728 0.268710
v -0.030299 0.738728 0.268710
v 0.030299 0.738728 0.268710
v -0.030299 0.715625 0.268710
v 0.030299 0.715625 0.268710
v -0.050868 0.738728 0.249636
v -0.050868 0.715625 0.249636
v 0.030299 0.738728 0.249636
v 0.050868 0.738728 0.249636
v 0.050868 0.715625 0.249636
v -0.030299 0.738728 0.249636
v -0.030299 0.715625 0.249636
v 0.030299 0.715625 0.249636
v -0.050868 0.465776 0.291291
v -0.050868 0.488878 0.291291
v -0.050868 0.465776 0.268710
v -0.050868 0.488878 0.268710
v 0.050868 0.465776 0.291291
v 0.050868 0.488878 0.291291
v 0.050868 0.465776 0.268710
v 0.050868 0.488878 0.268710
v -0.030299 0.488878 0.268710
v 0.030299 0.488878 0.268710
v -0.030299 0.465776 0.268710
v 0.030299 0.465776 0.268710
v -0.050868 0.488878 0.249636
v -0.050868 0.465776 0.249636
v 0.030299 0.488878 0.249636
v 0.050868 0.488878 0.249636
v 0.050868 0.465776 0.249636
v -0.030299 0.488878 0.249636
v -0.030299 0.465776 0.249636
v 0.030299 0.465776 0.249636
v -0.050868 0.231759 0.291291
v -0.050868 0.254862 0.291291
v -0.050868 0.231759 0.268710
v -0.050868 0.254862 0.268710
v 0.050868 0.231759 0.291291
v 0.050868 0.254862 0.291291
v 0.050868 0.231759 0.268710
v 0.050868 0.254862 0.268710
v -0.030299 0.254862 0.268710
v 0.030299 0.254862 0.268710
v -0.030299 0.231759 0.268710
v 0.030299 0.231759 0.268710
v -0.050868 0.254862 0.249636
v -0.050868 0.231759 0.249636
v 0.030299 0.254862 0.249636
v 0.050868 0.254862 0.249636
v 0.050868 0.231759 0.249636
v -0.030299 0.254862 0.249636
v -0.030299 0.231759 0.249636
v 0.030299 0.231759 0.249636
vt 0.599983 0.781089
vt 0.600219 0.781089
vt 0.600219 0.781089
vt 0.599983 0.781089
vt 0.607781 0.781562
vt 0.607781 0.774000
vt 0.607781 0.774000
vt 0.607781 0.781562
vt 0.600219 0.774000
vt 0.600219 0.774236
vt 0.600219 0.774236
vt 0.600219 0.774000
vt 0.600219 0.781326
vt 0.600219 0.781562
vt 0.600219 0.781562
vt 0.600219 0.781326
vt 0.599983 0.781326
vt 0.599983 0.781326
vt 0.600219 0.774473
vt 0.600219 0.774473
vt 0.592893 0.774473
vt 0.592657 0.774473
vt 0.592657 0.774473
vt 0.592893 0.774473
vt 0.600219 0.758875
vt 0.607781 0.758875
vt 0.607781 0.766438
vt 0.600219 0.766438
vt 0.600219 0.766201
vt 0.600219 0.765965
vt 0.600219 0.759348
vt 0.600219 0.759112
vt 0.600219 0.773764
vt 0.600219 0.773764
vt 0.599983 0.781562
vt 0.599983 0.781562
vt 0.599983 0.774236
vt 0.599983 0.774473
vt 0.592657 0.781326
vt 0.592893 0.781326
vt 0.592893 0.781562
vt 0.592657 0.781562
vt 0.592657 0.781089
vt 0.592893 0.781089
vt 0.592657 0.774236
vt 0.592893 0.774236
vt 0.592657 0.774000
vt 0.592893 0.774000
vt 0.599983 0.774000
vt 0.600219 0.759112
vt 0.600219 0.758875
vt 0.600219 0.788888
vt 0.600219 0.789124
vt 0.600219 0.789124
vt 0.600219 0.788888
vt 0.599983 0.774473
vt 0.599983 0.774236
vt 0.600219 0.766201
vt 0.600219 0.765965
vt 0.599983 0.774000
vt 0.592893 0.774236
vt 0.600219 0.781798
vt 0.600219 0.781798
vt 0.592893 0.774000
vt 0.592893 0.781326
vt 0.592893 0.781562
vt 0.600219 0.766674
vt 0.600219 0.766674
vt 0.600219 0.766438
vt 0.592657 0.781089
vt 0.592893 0.781089
vt 0.600219 0.759348
vt 0.600219 0.781798
vt 0.593129 0.781562
vt 0.592657 0.774709
vt 0.599746 0.774000
vt 0.600219 0.780853
vt 0.600219 0.758875
vt 0.601164 0.758875
vt 0.603055 0.758875
vt 0.604945 0.758875
vt 0.606836 0.758875
vt 0.607781 0.758875
vt 0.592922 0.781562
vt 0.592893 0.781562
vt 0.607781 0.781562
vt 0.606836 0.781562
vt 0.604000 0.781562
vt 0.602109 0.781562
vt 0.601164 0.781562
vt 0.600219 0.781562
vt 0.615343 0.781562
vt 0.608726 0.781562
vt 0.600219 0.789124
vt 0.600219 0.787972
vt 0.601164 0.787998
vt 0.601164 0.788918
vt 0.600219 0.788888
vt 0.604945 0.758875
vt 0.606836 0.758875
vt 0.607781 0.782507
vt 0.606836 0.782504
vt 0.606836 0.781562
vt 0.604000 0.781562
vt 0.606836 0.782504
vt 0.603055 0.788050
vt 0.602109 0.788947
vt 0.602109 0.788947
vt 0.603055 0.788050
vt 0.604000 0.789006
vt 0.604945 0.788102
vt 0.604945 0.788102
vt 0.604000 0.789006
vt 0.604000 0.781562
vt 0.602109 0.781562
vt 0.605891 0.789065
vt 0.604945 0.789036
vt 0.605891 0.781562
vt 0.615343 0.774000
vt 0.615343 0.781562
vt 0.607781 0.766438
vt 0.607781 0.758875
vt 0.607781 0.758875
vt 0.607781 0.758875
vt 0.615343 0.781562
vt 0.607781 0.781562
vt 0.607781 0.781562
vt 0.615343 0.781562
vt 0.604945 0.788102
vt 0.604000 0.789006
vt 0.603055 0.788977
vt 0.603055 0.781562
vt 0.603055 0.788050
vt 0.602109 0.788947
vt 0.603055 0.758875
vt 0.604945 0.758875
vt 0.601164 0.788918
vt 0.601164 0.781562
vt 0.601164 0.758875
vt 0.603055 0.758875
vt 0.601164 0.787998
vt 0.602109 0.781562
vt 0.227501 0.949197
vt 0.235063 0.949197
vt 0.235063 0.956759
vt 0.227501 0.956759
vt 0.235063 0.964321
vt 0.227501 0.964321
vt 0.227501 0.964321
vt 0.235063 0.964321
vt 0.235063 0.971883
vt 0.227501 0.971883
vt 0.235063 0.979446
vt 0.227501 0.979446
vt 0.219939 0.964321
vt 0.223720 0.964321
vt 0.225610 0.964321
vt 0.219939 0.971883
vt 0.236954 0.964321
vt 0.240735 0.964321
vt 0.242625 0.964321
vt 0.242625 0.971883
vt 0.227501 0.962431
vt 0.235063 0.962431
vt 0.235063 0.962431
vt 0.227501 0.962431
vt 0.227501 0.958649
vt 0.235063 0.960540
vt 0.227501 0.956759
vt 0.235063 0.956759
vt 0.235063 0.958649
vt 0.227501 0.958649
vt 0.225610 0.964321
vt 0.235063 0.960540
vt 0.240735 0.964321
vt 0.242625 0.964321
vt 0.219939 0.964321
vt 0.223720 0.964321
vt 0.236954 0.964321
vt 0.227501 0.949197
vt 0.235063 0.949197
vt 0.235063 0.956759
vt 0.227501 0.956759
vt 0.235063 0.964321
vt 0.227501 0.964321
vt 0.227501 0.964321
vt 0.235063 0.964321
vt 0.235063 0.971883
vt 0.227501 0.971883
vt 0.235063 0.979446
vt 0.227501 0.979446
vt 0.219939 0.964321
vt 0.223720 0.964321
vt 0.225610 0.964321
vt 0.219939 0.971883
vt 0.236954 0.964321
vt 0.240735 0.964321
vt 0.242625 0.964321
vt 0.242625 0.971883
vt 0.227501 0.962431
vt 0.235063 0.962431
vt 0.235063 0.962431
vt 0.227501 0.962431
vt 0.227501 0.958649
vt 0.235063 0.960540
vt 0.227501 0.956759
vt 0.235063 0.956759
vt 0.235063 0.958649
vt 0.227501 0.958649
vt 0.225610 0.964321
vt 0.235063 0.960540
vt 0.240735 0.964321
vt 0.242625 0.964321
vt 0.219939 0.964321
vt 0.223720 0.964321
vt 0.236954 0.964321
vt 0.227501 0.949197
vt 0.235063 0.949197
vt 0.235063 0.956759
vt 0.227501 0.956759
vt 0.235063 0.964321
vt 0.227501 0.964321
vt 0.227501 0.964321
vt 0.235063 0.964321
vt 0.235063 0.971883
vt 0.227501 0.971883
vt 0.235063 0.979446
vt 0.227501 0.979446
vt 0.219939 0.964321
vt 0.223720 0.964321
vt 0.225610 0.964321
vt 0.219939 0.971883
vt 0.236954 0.964321
vt 0.240735 0.964321
vt 0.242625 0.964321
vt 0.242625 0.971883
vt 0.227501 0.962431
vt 0.235063 0.962431
vt 0.235063 0.962431
vt 0.227501 0.962431
vt 0.227501 0.958649
vt 0.235063 0.960540
vt 0.227501 0.956759
vt 0.235063 0.956759
vt 0.235063 0.958649
vt 0.227501 0.958649
vt 0.225610 0.964321
vt 0.235063 0.960540
vt 0.240735 0.964321
vt 0.242625 0.964321
vt 0.219939 0.964321
vt 0.223720 0.964321
vt 0.236954 0.964321
vn 0.0000 0.0000 -1.0000
vn 1.0000 0.0000 0.0000
vn -1.0000 0.0000 0.0000
vn 0.0000 0.0000 1.0000
vn 0.0000 -1.0000 0.0000
vn -0.9244 0.0000 0.3815
vn 0.9244 0.0000 0.3815
vn 0.0000 0.9997 0.0226
vn 0.0000 0.9985 0.0540
vn 0.0000 -0.7959 0.6054
vn 0.9043 0.0000 0.4270
vn 0.0000 1.0000 0.0000
vn 0.0000 -0.7716 0.6361
vn 0.0000 0.9956 0.0933
vn -0.9043 0.0000 0.4270
vn -0.8748 0.0000 0.4846
vn 0.0000 -0.6399 0.7685
vn 0.8748 0.0000 0.4846
usemtl Material.002
s off
f 24/1/1 14/2/1 36/3/1 48/4/1
f 6/5/2 8/6/2 72/7/2 71/8/2
f 7/9/2 16/10/2 39/11/2 32/12/2
f 19/13/2 5/14/2 31/15/2 43/16/2
f 28/17/3 24/1/3 48/4/3 52/18/3
f 16/10/2 11/19/2 34/20/2 39/11/2
f 22/21/4 13/22/4 35/23/4 46/24/4
f 1/25/3 2/26/3 4/27/3 3/28/3 17/29/3 13/30/3 9/31/3 15/32/3
f 18/33/1 7/9/1 32/12/1 42/34/1
f 12/35/3 28/17/3 52/18/3 40/36/3
f 52/18/5 43/16/5 31/15/5 40/36/5
f 51/37/5 39/11/5 34/20/5 45/38/5
f 37/39/5 49/40/5 44/41/5 29/42/5
f 33/43/5 47/44/5 49/40/5 37/39/5
f 41/45/5 50/46/5 46/24/5 35/23/5
f 30/47/5 38/48/5 50/46/5 41/45/5
f 42/49/5 32/12/5 39/11/5 51/37/5
f 48/4/5 36/3/5 43/16/5 52/18/5
f 1/25/3 15/32/3 37/50/3 29/51/3
f 20/52/4 1/53/4 29/54/4 44/55/4
f 21/56/3 27/57/3 51/37/3 45/38/3
f 13/30/3 17/29/3 41/58/3 35/59/3
f 27/57/3 18/60/3 42/49/3 51/37/3
f 26/61/2 22/21/2 46/24/2 50/46/2
f 5/14/4 12/62/4 40/63/4 31/15/4
f 14/2/2 19/13/2 43/16/2 36/3/2
f 10/64/2 26/61/2 50/46/2 38/48/2
f 25/65/2 20/66/2 44/41/2 49/40/2
f 3/28/1 10/67/1 38/68/1 30/69/1
f 9/70/1 23/71/1 47/44/1 33/43/1
f 23/71/2 25/65/2 49/40/2 47/44/2
f 15/32/3 9/31/3 33/72/3 37/50/3
f 17/29/3 3/28/3 30/69/3 41/58/3
f 11/19/4 21/56/4 45/38/4 34/20/4
f 12/62/4 5/14/4 55/73/4
f 28/17/5 12/74/5 20/66/5 25/65/5 23/71/5 9/75/5 13/22/5 22/21/5 26/61/5 10/76/5 18/60/5 27/57/5 21/56/5 11/77/5 14/2/5 24/1/5
f 3/28/1 4/27/1 8/6/1 7/9/1 18/33/1 10/67/1
f 7/9/2 8/6/2 6/5/2 5/14/2 19/13/2 14/2/2 11/19/2 16/10/2
f 2/26/4 1/25/4 53/78/4 65/79/4 62/80/4 58/81/4 59/82/4 54/83/4
f 20/66/4 12/74/4 55/84/4 53/85/4
f 5/14/4 6/5/4 56/86/4 64/87/4 57/88/4 60/89/4 63/90/4 55/91/4
f 6/5/4 2/92/4 54/93/4 56/86/4
f 1/53/4 20/52/4 53/94/4
f 55/95/4 63/96/4 65/97/4 53/98/4
f 59/82/6 58/81/6 68/99/6 67/100/6
f 64/87/4 56/86/4 54/101/4 59/102/4
f 57/88/7 64/87/7 66/103/7 61/104/7
f 64/87/8 59/102/8 67/105/8 66/103/8
f 60/106/9 62/107/9 82/108/9 81/109/9
f 58/110/10 57/111/10 61/112/10 68/113/10
f 60/89/11 57/88/11 77/114/11 79/115/11
f 67/116/4 68/117/4 61/118/4 66/103/4
f 72/7/12 70/119/12 69/120/12 71/8/12
f 8/6/1 4/27/1 70/121/1 72/7/1
f 4/27/3 2/26/3 69/122/3 70/121/3
f 69/122/3 2/26/3 73/123/3 75/124/3
f 73/125/4 74/126/4 76/127/4 75/128/4
f 6/5/2 71/8/2 76/127/2 74/126/2
f 71/8/12 69/120/12 75/128/12 76/127/12
f 2/92/5 6/5/5 74/126/5 73/125/5
f 77/129/4 78/130/4 80/131/4 79/132/4
f 62/107/13 60/106/13 79/133/13 80/134/13
f 57/111/14 58/110/14 78/130/14 77/129/14
f 58/81/15 62/80/15 80/135/15 78/136/15
f 81/109/4 82/108/4 84/137/4 83/138/4
f 62/80/16 65/79/16 84/139/16 82/140/16
f 65/97/17 63/96/17 83/141/17 84/137/17
f 63/90/18 60/89/18 81/142/18 83/138/18
f 85/143/3 86/144/3 88/145/3 87/146/3
f 92/147/2 91/148/2 101/149/2 100/150/2
f 91/148/2 92/147/2 90/151/2 89/152/2
f 89/152/4 90/151/4 86/153/4 85/154/4
f 87/155/5 95/156/5 96/157/5 91/148/5 89/152/5 85/158/5
f 92/147/12 94/159/12 93/160/12 88/161/12 86/162/12 90/151/12
f 96/163/3 94/164/3 99/165/3 104/166/3
f 95/167/1 93/168/1 94/164/1 96/163/1
f 104/166/1 99/165/1 100/150/1 101/149/1
f 98/169/1 97/170/1 102/171/1 103/172/1
f 91/148/5 96/157/5 104/173/5 101/149/5
f 87/146/3 88/145/3 97/170/3 98/169/3
f 93/168/2 95/167/2 103/172/2 102/174/2
f 88/161/12 93/160/12 102/175/12 97/176/12
f 95/156/5 87/155/5 98/177/5 103/178/5
f 94/159/12 92/147/12 100/150/12 99/179/12
f 105/180/3 106/181/3 108/182/3 107/183/3
f 112/184/2 111/185/2 121/186/2 120/187/2
f 111/185/2 112/184/2 110/188/2 109/189/2
f 109/189/4 110/188/4 106/190/4 105/191/4
f 107/192/5 115/193/5 116/194/5 111/185/5 109/189/5 105/195/5
f 112/184/12 114/196/12 113/197/12 108/198/12 106/199/12 110/188/12
f 116/200/3 114/201/3 119/202/3 124/203/3
f 115/204/1 113/205/1 114/201/1 116/200/1
f 124/203/1 119/202/1 120/187/1 121/186/1
f 118/206/1 117/207/1 122/208/1 123/209/1
f 111/185/5 116/194/5 124/210/5 121/186/5
f 107/183/3 108/182/3 117/207/3 118/206/3
f 113/205/2 115/204/2 123/209/2 122/211/2
f 108/198/12 113/197/12 122/212/12 117/213/12
f 115/193/5 107/192/5 118/214/5 123/215/5
f 114/196/12 112/184/12 120/187/12 119/216/12
f 125/217/3 126/218/3 128/219/3 127/220/3
f 132/221/2 131/222/2 141/223/2 140/224/2
f 131/222/2 132/221/2 130/225/2 129/226/2
f 129/226/4 130/225/4 126/227/4 125/228/4
f 127/229/5 135/230/5 136/231/5 131/222/5 129/226/5 125/232/5
f 132/221/12 134/233/12 133/234/12 128/235/12 126/236/12 130/225/12
f 136/237/3 134/238/3 139/239/3 144/240/3
f 135/241/1 133/242/1 134/238/1 136/237/1
f 144/240/1 139/239/1 140/224/1 141/223/1
f 138/243/1 137/244/1 142/245/1 143/246/1
f 131/222/5 136/231/5 144/247/5 141/223/5
f 127/220/3 128/219/3 137/244/3 138/243/3
f 133/242/2 135/241/2 143/246/2 142/248/2
f 128/235/12 133/234/12 142/249/12 137/250/12
f 135/230/5 127/229/5 138/251/5 143/252/5
f 134/233/12 132/221/12 140/224/12 139/253/12
