# Blender v2.83.5 OBJ File: 'tableplank01.blend'
# www.blender.org
mtllib tableplank01.mtl
o Cube_Cube.001
v 1.000000 0.750000 -1.000000
v 0.900000 0.050000 -0.900000
v 0.900000 0.750000 -0.900000
v 0.900000 0.050000 -1.000000
v 0.900000 0.750000 -1.000000
v 0.974888 0.050000 -0.900000
v 1.000000 0.750000 -0.900000
v 1.000000 0.050000 -1.000000
v 3.908199 -0.712064 0.553409
v -1.000000 0.750000 -0.850214
v -1.000000 0.850000 -0.850214
v -1.000000 0.750000 -1.000000
v -0.999393 0.845089 -1.004771
v 1.000000 0.750000 -0.800000
v 1.000000 0.850000 -0.800000
v 1.000000 0.750000 -1.000000
v 1.000000 0.836163 -1.000000
v 1.000000 0.750000 0.900000
v 0.900000 0.050000 1.000000
v 0.900000 0.750000 1.000000
v 0.900000 0.050000 0.910634
v 0.900000 0.750000 0.900000
v 0.978902 0.050000 1.000000
v 1.000000 0.750000 1.000000
v 1.000000 0.050000 0.910634
v -0.900000 0.750000 0.900000
v -0.994896 0.050000 1.000000
v -1.000000 0.750000 1.000000
v -1.000000 0.050000 0.900000
v -1.000000 0.750000 0.900000
v -0.905104 0.050000 1.000000
v -0.900000 0.750000 1.000000
v -0.909758 0.050000 0.900000
v -0.900000 0.750000 -1.000000
v -1.000885 0.050000 -0.919572
v -1.000000 0.750000 -0.900000
v -1.000000 0.050000 -1.000000
v -1.000000 0.750000 -1.000000
v -0.921210 0.050000 -0.919572
v -0.900000 0.750000 -0.900000
v -0.900000 0.050000 -1.000000
v -0.970951 0.768362 -0.577056
v -0.982620 0.843825 -0.577056
v -0.970951 0.768362 -0.837832
v -0.975989 0.843825 -0.837832
v 1.000000 0.759541 -0.577056
v 1.000000 0.850000 -0.577056
v 1.000000 0.775349 -0.787453
v 1.000000 0.843564 -0.787453
v -0.960954 0.761416 -0.363906
v -0.948096 0.841560 -0.363906
v -0.960954 0.761416 -0.563906
v -0.960954 0.850000 -0.563906
v 1.014624 0.769641 -0.434538
v 1.014624 0.850000 -0.434538
v 1.014624 0.761416 -0.567431
v 1.014624 0.850000 -0.567431
v -0.985536 0.763538 0.048449
v -0.985536 0.832024 0.048449
v -0.970875 0.752682 -0.353196
v -0.971702 0.850000 -0.353196
v 1.000000 0.750000 -0.079287
v 1.000000 0.846531 -0.079287
v 1.000000 0.766912 -0.423876
v 1.000000 0.850000 -0.423876
v -0.978619 0.827724 -0.152374
v 1.000000 0.838198 -0.251582
v -0.977210 0.774685 0.130517
v -0.977210 0.850000 0.130517
v -0.977210 0.774685 0.056642
v -0.977210 0.850000 0.056642
v 1.000000 0.767615 0.130517
v 1.000000 0.850000 0.130517
v 1.018667 0.753863 -0.069483
v 1.018667 0.850077 -0.069483
v -1.000000 0.750000 0.354893
v -1.000000 0.850000 0.354893
v -1.000000 0.750000 0.138939
v -1.000000 0.842265 0.138939
v 0.990572 0.782295 0.408861
v 0.990572 0.847001 0.408861
v 1.000000 0.785293 0.139352
v 1.000000 0.842265 0.139352
v -1.009648 0.750000 0.619976
v -1.009648 0.835558 0.619976
v -1.009648 0.765771 0.365999
v -1.009648 0.850000 0.365999
v 1.000000 0.757224 0.468881
v 1.000000 0.844291 0.468881
v 1.000000 0.768854 0.419976
v 1.000000 0.844291 0.419976
v -0.991637 0.758365 0.828961
v -0.991637 0.825258 0.828961
v -1.000000 0.750000 0.628961
v -1.000000 0.825258 0.628961
v 1.000000 0.768073 0.602749
v 1.000000 0.850000 0.602749
v 1.000000 0.763879 0.480516
v 1.000000 0.850000 0.480516
v -1.000000 0.750000 1.014180
v -1.000000 0.814119 1.014180
v -1.000000 0.750000 0.893912
v -1.000000 0.837790 0.893912
v 1.012700 0.749995 1.004767
v 1.012601 0.834443 1.006066
v 1.023834 0.760447 0.750146
v 1.023735 0.836419 0.751444
v 1.012700 0.749995 0.902353
v 1.012601 0.830863 0.900821
v -1.006623 0.769000 0.881884
v -1.006623 0.840214 0.881884
v -1.006623 0.769000 0.835979
v -1.006623 0.840214 0.835979
v 1.000000 0.763862 0.736506
v 1.000000 0.850000 0.736506
v 1.000000 0.763862 0.614273
v 1.000000 0.850000 0.614273
v -1.000000 0.838865 0.246916
v 0.995286 0.837366 0.274106
v -0.970740 0.692604 0.923214
v -0.971032 0.768067 0.923214
v -0.970740 0.692604 -0.925667
v -0.970866 0.768067 -0.925667
v -0.921444 0.695352 0.923214
v -0.921444 0.766294 0.923214
v -0.921444 0.699591 -0.925917
v -0.921444 0.767806 -0.925917
v 0.921678 0.692604 0.923214
v 0.921386 0.768067 0.923214
v 0.921678 0.692604 -0.925667
v 0.921552 0.768067 -0.925667
v 0.970974 0.695352 0.923214
v 0.970974 0.766294 0.923214
v 0.970974 0.699591 -0.925917
v 0.970974 0.767806 -0.925917
vt 0.627872 0.786164
vt 0.627964 0.797047
vt 0.617081 0.797139
vt 0.616989 0.786256
vt 0.606197 0.797231
vt 0.606105 0.786348
vt 0.595314 0.797324
vt 0.595222 0.786441
vt 0.584429 0.797416
vt 0.584337 0.786533
vt 0.606012 0.775464
vt 0.595129 0.775556
vt 0.601368 0.760744
vt 0.611454 0.760744
vt 0.611454 0.770829
vt 0.601368 0.770829
vt 0.611454 0.780915
vt 0.601368 0.780915
vt 0.611454 0.791001
vt 0.601368 0.791001
vt 0.611454 0.801086
vt 0.601368 0.801086
vt 0.591283 0.780915
vt 0.591283 0.791001
vt 0.621540 0.780915
vt 0.621540 0.791001
vt 0.627872 0.786164
vt 0.627964 0.797047
vt 0.617081 0.797139
vt 0.616989 0.786256
vt 0.606197 0.797231
vt 0.606105 0.786348
vt 0.595314 0.797324
vt 0.595222 0.786441
vt 0.584429 0.797416
vt 0.584337 0.786533
vt 0.606012 0.775464
vt 0.595129 0.775556
vt 0.627872 0.786164
vt 0.627964 0.797047
vt 0.617081 0.797139
vt 0.616989 0.786256
vt 0.606197 0.797231
vt 0.606105 0.786348
vt 0.595314 0.797324
vt 0.595222 0.786441
vt 0.584429 0.797416
vt 0.584337 0.786533
vt 0.606012 0.775464
vt 0.595129 0.775556
vt 0.627872 0.786164
vt 0.627964 0.797047
vt 0.617081 0.797139
vt 0.616989 0.786256
vt 0.606197 0.797231
vt 0.606105 0.786348
vt 0.595314 0.797324
vt 0.595222 0.786441
vt 0.584429 0.797416
vt 0.584337 0.786533
vt 0.606012 0.775464
vt 0.595129 0.775556
vt 0.601368 0.760744
vt 0.611454 0.760744
vt 0.611454 0.770829
vt 0.601368 0.770829
vt 0.611454 0.780915
vt 0.601368 0.780915
vt 0.611454 0.791001
vt 0.601368 0.791001
vt 0.611454 0.801086
vt 0.601368 0.801086
vt 0.591283 0.780915
vt 0.591283 0.791001
vt 0.621540 0.780915
vt 0.621540 0.791001
vt 0.601368 0.760744
vt 0.611454 0.760744
vt 0.611454 0.770829
vt 0.601368 0.770829
vt 0.611454 0.780915
vt 0.601368 0.780915
vt 0.611454 0.791001
vt 0.601368 0.791001
vt 0.611454 0.801086
vt 0.601368 0.801086
vt 0.591283 0.780915
vt 0.591283 0.791001
vt 0.621540 0.780915
vt 0.621540 0.791001
vt 0.601368 0.760744
vt 0.611454 0.760744
vt 0.611454 0.765787
vt 0.611454 0.770829
vt 0.601368 0.770829
vt 0.610845 0.780611
vt 0.601368 0.780915
vt 0.610845 0.785653
vt 0.610845 0.790696
vt 0.601368 0.791001
vt 0.611454 0.801086
vt 0.601368 0.801086
vt 0.591283 0.780915
vt 0.591283 0.791001
vt 0.611198 0.782049
vt 0.621205 0.783303
vt 0.620578 0.788306
vt 0.610571 0.787053
vt 0.601368 0.760744
vt 0.611454 0.760744
vt 0.611454 0.770829
vt 0.601368 0.770829
vt 0.611454 0.780915
vt 0.601368 0.780915
vt 0.611454 0.791001
vt 0.601368 0.791001
vt 0.611454 0.801086
vt 0.601368 0.801086
vt 0.591283 0.780915
vt 0.591283 0.791001
vt 0.621540 0.780915
vt 0.621540 0.791001
vt 0.601368 0.760744
vt 0.611454 0.760744
vt 0.611454 0.765787
vt 0.611454 0.770829
vt 0.601368 0.770829
vt 0.611454 0.780915
vt 0.601368 0.780915
vt 0.611454 0.785958
vt 0.611454 0.791001
vt 0.601368 0.791001
vt 0.611454 0.801086
vt 0.601368 0.801086
vt 0.591283 0.780915
vt 0.591283 0.791001
vt 0.621540 0.785958
vt 0.621540 0.791001
vt 0.601368 0.760744
vt 0.611454 0.760744
vt 0.611454 0.770829
vt 0.601368 0.770829
vt 0.611454 0.780915
vt 0.601368 0.780915
vt 0.611454 0.791001
vt 0.601368 0.791001
vt 0.611454 0.801086
vt 0.601368 0.801086
vt 0.591283 0.780915
vt 0.591283 0.791001
vt 0.617352 0.780431
vt 0.619284 0.779506
vt 0.620208 0.781438
vt 0.618277 0.782363
vt 0.601368 0.760744
vt 0.611454 0.760744
vt 0.611454 0.770829
vt 0.601368 0.770829
vt 0.611454 0.780915
vt 0.601368 0.780915
vt 0.611454 0.791001
vt 0.601368 0.791001
vt 0.611454 0.801086
vt 0.601368 0.801086
vt 0.591283 0.780915
vt 0.591283 0.791001
vt 0.621540 0.780915
vt 0.621540 0.791001
vt 0.601368 0.760744
vt 0.611454 0.760744
vt 0.611454 0.770829
vt 0.601368 0.770829
vt 0.611454 0.780915
vt 0.601368 0.780915
vt 0.611454 0.785958
vt 0.611454 0.791001
vt 0.601368 0.791001
vt 0.601368 0.785958
vt 0.611454 0.801086
vt 0.601368 0.801086
vt 0.591283 0.780915
vt 0.591283 0.791001
vt 0.621540 0.780915
vt 0.621540 0.791001
vt 0.601368 0.760744
vt 0.611454 0.760744
vt 0.611454 0.770829
vt 0.601368 0.770829
vt 0.611454 0.780915
vt 0.601368 0.780915
vt 0.611454 0.791001
vt 0.601368 0.791001
vt 0.611454 0.801086
vt 0.601368 0.801086
vt 0.591283 0.780915
vt 0.591283 0.791001
vt 0.621540 0.780915
vt 0.621540 0.791001
vt 0.608422 0.788613
vt 0.607854 0.778544
vt 0.612889 0.778260
vt 0.613457 0.788329
vt 0.621540 0.780915
vt 0.601368 0.760744
vt 0.611454 0.760744
vt 0.611454 0.770829
vt 0.601368 0.770829
vt 0.611454 0.780915
vt 0.601368 0.780915
vt 0.611454 0.791001
vt 0.601368 0.791001
vt 0.611454 0.801086
vt 0.601368 0.801086
vt 0.591283 0.780915
vt 0.591283 0.791001
vt 0.621540 0.780915
vt 0.621540 0.791001
vt 0.601368 0.760744
vt 0.611454 0.760744
vt 0.611454 0.770829
vt 0.601368 0.770829
vt 0.611454 0.780915
vt 0.601368 0.780915
vt 0.611454 0.791001
vt 0.601368 0.791001
vt 0.611454 0.801086
vt 0.601368 0.801086
vt 0.591283 0.780915
vt 0.591283 0.791001
vt 0.621540 0.780915
vt 0.621540 0.791001
vn -1.0000 0.0000 0.0000
vn 0.0000 0.0000 -1.0000
vn 0.9921 -0.0178 0.1246
vn 0.0000 0.0000 1.0000
vn 0.0000 -1.0000 0.0000
vn -1.0000 0.0031 -0.0020
vn 0.0011 -0.0263 -0.9997
vn 1.0000 0.0000 0.0000
vn -0.0251 0.0000 0.9997
vn 0.0030 0.9986 -0.0528
vn 0.0000 -0.0152 -0.9999
vn 0.9938 -0.0141 0.1107
vn -0.9997 -0.0036 0.0255
vn 0.9997 -0.0106 -0.0233
vn -1.0000 0.0007 -0.0049
vn 0.9930 -0.0167 0.1167
vn 0.0000 -0.0279 0.9996
vn -0.9938 -0.1100 -0.0126
vn 0.0255 0.0009 -0.9997
vn -0.0000 -0.9994 -0.0335
vn -0.0013 0.9999 -0.0137
vn -0.9965 0.0759 0.0336
vn -0.0018 0.0000 -1.0000
vn 0.0359 -0.0029 0.9994
vn 0.0025 -0.9997 0.0247
vn -0.0017 0.9997 0.0254
vn -0.9994 -0.0054 -0.0356
vn -0.0358 -0.0002 -0.9994
vn 0.0642 0.0000 0.9979
vn -0.0002 -1.0000 -0.0081
vn -0.0082 0.9994 -0.0340
vn -0.0631 0.0000 -0.9980
vn 0.9957 0.0000 0.0929
vn -0.0054 -0.9987 0.0498
vn -0.0000 1.0000 0.0003
vn 0.0002 0.0000 -1.0000
vn 0.9994 0.0000 0.0350
vn -0.0271 0.0000 0.9996
vn 0.0170 -0.9998 -0.0058
vn 0.0029 0.9964 -0.0852
vn 0.0268 0.0000 -0.9996
vn 0.0750 0.0000 0.9972
vn 0.0004 -0.9959 -0.0901
vn 0.0004 0.9989 0.0476
vn -0.9991 0.0000 0.0418
vn -0.0740 0.0000 -0.9973
vn 0.1129 0.0000 0.9936
vn 0.0095 -0.9992 0.0387
vn -0.0124 0.9999 0.0003
vn -0.0706 0.0079 -0.9975
vn 0.9991 0.0013 0.0428
vn 0.0044 -0.0087 1.0000
vn 0.0001 -0.9996 -0.0279
vn -0.0007 0.9977 0.0683
vn -0.1098 0.0000 -0.9940
vn 0.0723 0.0000 0.9974
vn -0.0026 -1.0000 0.0000
vn -0.0049 1.0000 0.0000
vn 0.0013 0.9959 0.0910
vn 0.0001 0.9994 0.0342
vn -1.0000 -0.0028 -0.0000
vn -0.0051 -0.0000 -1.0000
vn 0.0983 -0.9952 -0.0011
vn 0.0205 0.9998 0.0004
usemtl Material.004
s off
f 2/1/1 3/2/1 5/3/1 4/4/1
f 4/4/2 5/3/2 1/5/2 8/6/2
f 8/6/3 1/5/3 7/7/3 6/8/3
f 6/8/4 7/7/4 3/9/4 2/10/4
f 4/11/5 8/6/5 6/8/5 2/12/5
f 10/13/6 11/14/6 13/15/6 12/16/6
f 12/16/7 13/15/7 17/17/7 16/18/7
f 16/18/8 17/17/8 15/19/8 14/20/8
f 14/20/9 15/19/9 11/21/9 10/22/9
f 12/23/5 16/18/5 14/20/5 10/24/5
f 17/17/10 13/25/10 11/26/10 15/19/10
f 19/27/1 20/28/1 22/29/1 21/30/1
f 21/30/11 22/29/11 18/31/11 25/32/11
f 25/32/12 18/31/12 24/33/12 23/34/12
f 23/34/4 24/33/4 20/35/4 19/36/4
f 21/37/5 25/32/5 23/34/5 19/38/5
f 27/39/13 28/40/13 30/41/13 29/42/13
f 29/42/2 30/41/2 26/43/2 33/44/2
f 33/44/14 26/43/14 32/45/14 31/46/14
f 31/46/4 32/45/4 28/47/4 27/48/4
f 29/49/5 33/44/5 31/46/5 27/50/5
f 35/51/15 36/52/15 38/53/15 37/54/15
f 37/54/2 38/53/2 34/55/2 41/56/2
f 41/56/16 34/55/16 40/57/16 39/58/16
f 39/58/17 40/57/17 36/59/17 35/60/17
f 37/61/5 41/56/5 39/58/5 35/62/5
f 42/63/18 43/64/18 45/65/18 44/66/18
f 44/66/19 45/65/19 49/67/19 48/68/19
f 48/68/8 49/67/8 47/69/8 46/70/8
f 46/70/4 47/69/4 43/71/4 42/72/4
f 44/73/20 48/68/20 46/70/20 42/74/20
f 49/67/21 45/75/21 43/76/21 47/69/21
f 50/77/22 51/78/22 53/79/22 52/80/22
f 52/80/23 53/79/23 57/81/23 56/82/23
f 56/82/8 57/81/8 55/83/8 54/84/8
f 54/84/24 55/83/24 51/85/24 50/86/24
f 52/87/25 56/82/25 54/84/25 50/88/25
f 57/81/26 53/89/26 51/90/26 55/83/26
f 58/91/27 59/92/27 66/93/27 61/94/27 60/95/27
f 60/95/28 61/94/28 65/96/28 64/97/28
f 64/97/8 65/96/8 67/98/8 63/99/8 62/100/8
f 62/100/29 63/99/29 59/101/29 58/102/29
f 60/103/30 64/97/30 62/100/30 58/104/30
f 67/105/31 66/106/31 59/107/31 63/108/31
f 68/109/1 69/110/1 71/111/1 70/112/1
f 70/112/32 71/111/32 75/113/32 74/114/32
f 74/114/33 75/113/33 73/115/33 72/116/33
f 72/116/4 73/115/4 69/117/4 68/118/4
f 70/119/34 74/114/34 72/116/34 68/120/34
f 75/113/35 71/121/35 69/122/35 73/115/35
f 76/123/1 77/124/1 118/125/1 79/126/1 78/127/1
f 78/127/36 79/126/36 83/128/36 82/129/36
f 82/129/37 83/128/37 119/130/37 81/131/37 80/132/37
f 80/132/38 81/131/38 77/133/38 76/134/38
f 78/135/39 82/129/39 80/132/39 76/136/39
f 119/130/40 118/137/40 77/138/40 81/131/40
f 84/139/1 85/140/1 87/141/1 86/142/1
f 86/142/41 87/141/41 91/143/41 90/144/41
f 90/144/8 91/143/8 89/145/8 88/146/8
f 88/146/42 89/145/42 85/147/42 84/148/42
f 86/149/43 90/144/43 88/146/43 84/150/43
f 91/151/44 87/152/44 85/153/44 89/154/44
f 92/155/45 93/156/45 95/157/45 94/158/45
f 94/158/46 95/157/46 99/159/46 98/160/46
f 98/160/8 99/159/8 97/161/8 96/162/8
f 96/162/47 97/161/47 93/163/47 92/164/47
f 94/165/48 98/160/48 96/162/48 92/166/48
f 99/159/49 95/167/49 93/168/49 97/161/49
f 100/169/1 101/170/1 103/171/1 102/172/1
f 102/172/50 103/171/50 107/173/50 106/174/50
f 106/174/51 107/173/51 109/175/51 105/176/51 104/177/51 108/178/51
f 104/177/52 105/176/52 101/179/52 100/180/52
f 102/181/53 106/174/53 108/178/53 104/177/53 100/182/53
f 107/173/54 103/183/54 101/184/54 105/176/54 109/175/54
f 110/185/1 111/186/1 113/187/1 112/188/1
f 112/188/55 113/187/55 117/189/55 116/190/55
f 116/190/8 117/189/8 115/191/8 114/192/8
f 114/192/56 115/191/56 111/193/56 110/194/56
f 112/195/57 116/190/57 114/192/57 110/196/57
f 117/189/58 113/197/58 111/198/58 115/191/58
f 65/199/59 61/200/59 66/201/59 67/202/59
f 83/128/60 79/203/60 118/137/60 119/130/60
f 120/204/61 121/205/61 123/206/61 122/207/61
f 122/207/62 123/206/62 127/208/62 126/209/62
f 126/209/8 127/208/8 125/210/8 124/211/8
f 124/211/4 125/210/4 121/212/4 120/213/4
f 122/214/63 126/209/63 124/211/63 120/215/63
f 127/208/64 123/216/64 121/217/64 125/210/64
f 128/218/61 129/219/61 131/220/61 130/221/61
f 130/221/62 131/220/62 135/222/62 134/223/62
f 134/223/8 135/222/8 133/224/8 132/225/8
f 132/225/4 133/224/4 129/226/4 128/227/4
f 130/228/63 134/223/63 132/225/63 128/229/63
f 135/222/64 131/230/64 129/231/64 133/224/64
