# Blender v2.83.5 OBJ File: 'tablemetalwood02.blend'
# www.blender.org
mtllib tablemetalwood02.mtl
o Cube_Cube.001
v -0.986348 -0.037554 -0.376513
v -0.986348 0.516032 -0.376513
v -0.986348 -0.037554 -0.423012
v -0.986348 0.516032 -0.423012
v -0.939850 -0.037554 -0.376513
v -0.939850 0.516032 -0.376513
v -0.939850 -0.037554 -0.423012
v -0.939850 0.516032 -0.423012
v -0.986491 0.570280 -0.360035
v -0.986491 0.559770 -0.424411
v -0.922115 0.570280 -0.360035
v -0.922115 0.570280 -0.424411
v -0.986491 0.625329 -0.324424
v -0.922115 0.625329 -0.324424
v -0.986491 0.679509 -0.260016
v -0.922115 0.679509 -0.260016
v -0.986491 0.730294 -0.138242
v -0.922115 0.730294 -0.138242
v -0.986491 0.730294 -0.262109
v -0.922115 0.730294 -0.262109
v -0.986491 0.689115 -0.322346
v -0.922115 0.689115 -0.322346
v -0.986491 0.648893 -0.360035
v -0.922115 0.648893 -0.360035
v -0.922115 0.648893 -0.424411
v -0.891576 0.626500 -0.360035
v -0.891576 0.626500 -0.424411
v -0.891576 0.690586 -0.360035
v -0.891576 0.690586 -0.424411
v -0.826786 0.678904 -0.360035
v -0.826786 0.678904 -0.424411
v -0.826786 0.724952 -0.360035
v -0.826786 0.724952 -0.424411
v -0.740537 0.743501 -0.360035
v -0.740537 0.743501 -0.424411
v -0.954396 0.616374 -0.424411
v -0.986491 0.616374 -0.392316
v -1.029273 0.721594 -0.217901
v -1.029273 0.776889 -0.212571
v -1.029273 0.730803 -0.452538
v -1.019222 0.790547 -0.462205
v 1.017772 0.718534 -0.262718
v 1.024839 0.778264 -0.262718
v 1.024839 0.726192 -0.445076
v 1.024839 0.781621 -0.433099
v -1.017727 0.701928 -0.012887
v -1.029395 0.777391 -0.012887
v -1.021466 0.713820 -0.201891
v -1.026503 0.770236 -0.195443
v 1.017569 0.714452 -0.005271
v 1.017569 0.778925 -0.005271
v 1.017772 0.729176 -0.250171
v 1.024839 0.781875 -0.250171
v -1.038528 0.706874 0.231439
v -1.025671 0.772537 0.231439
v -1.015260 0.706874 0.000263
v -1.026080 0.773044 0.000263
v 1.010260 0.718618 0.245045
v 1.010260 0.780772 0.245045
v 1.013307 0.700359 0.004355
v 1.013307 0.771767 0.004355
v -1.029273 0.695458 0.404918
v -1.029273 0.759577 0.404918
v -1.029273 0.712325 0.245752
v -1.029273 0.778439 0.245752
v 1.037539 0.695453 0.402969
v 1.037441 0.779901 0.404267
v 1.030580 0.719191 0.260598
v 1.030482 0.781621 0.261896
v 1.037539 0.705268 0.334195
v 1.037441 0.776321 0.363385
v -1.029273 0.718254 -0.288474
v -1.029273 0.705273 0.312431
v -0.746662 0.711140 0.262880
v 1.021306 0.729792 -0.336978
v 0.939850 -0.037554 -0.423012
v 0.939850 0.516032 -0.423012
v 0.986348 -0.037554 -0.423012
v 0.986348 0.516032 -0.423012
v 0.939850 -0.037554 -0.376513
v 0.939850 0.516032 -0.376513
v 0.986348 -0.037554 -0.376513
v 0.986348 0.516032 -0.376513
v 0.923371 0.570280 -0.423155
v 0.987748 0.559770 -0.423155
v 0.923371 0.570280 -0.358778
v 0.987748 0.570280 -0.358778
v 0.887760 0.625329 -0.423155
v 0.887760 0.625329 -0.358778
v 0.823352 0.679509 -0.423155
v 0.823352 0.679509 -0.358778
v 0.701579 0.730294 -0.423155
v 0.701579 0.730294 -0.358778
v 0.825445 0.730294 -0.423155
v 0.825445 0.730294 -0.358778
v 0.885683 0.689115 -0.423155
v 0.885683 0.689115 -0.358778
v 0.923371 0.648893 -0.423155
v 0.923371 0.648893 -0.358778
v 0.987748 0.648893 -0.358778
v 0.923371 0.626500 -0.328240
v 0.987748 0.626500 -0.328240
v 0.923371 0.690586 -0.328240
v 0.987748 0.690586 -0.328240
v 0.923371 0.678904 -0.263450
v 0.987748 0.678904 -0.263450
v 0.923371 0.724952 -0.263450
v 0.987748 0.724952 -0.263450
v 0.923371 0.743501 -0.177201
v 0.987748 0.743501 -0.177201
v 0.987748 0.616374 -0.391060
v 0.955653 0.616374 -0.423155
v -0.939850 -0.037554 0.389988
v -0.939850 0.516032 0.389988
v -0.986348 -0.037554 0.389988
v -0.986348 0.516032 0.389988
v -0.939850 -0.037554 0.343490
v -0.939850 0.516032 0.343490
v -0.986348 -0.037554 0.343490
v -0.986348 0.516032 0.343490
v -0.923371 0.570280 0.390131
v -0.987748 0.559770 0.390131
v -0.923371 0.570280 0.325755
v -0.987748 0.570280 0.325755
v -0.887760 0.625329 0.390131
v -0.887760 0.625329 0.325755
v -0.823352 0.679509 0.390131
v -0.823352 0.679509 0.325755
v -0.701579 0.730294 0.390131
v -0.701579 0.730294 0.325755
v -0.825445 0.730294 0.390131
v -0.825445 0.730294 0.325755
v -0.885683 0.689115 0.390131
v -0.885683 0.689115 0.325755
v -0.923371 0.648893 0.390131
v -0.923371 0.648893 0.325755
v -0.987748 0.648893 0.325755
v -0.923371 0.626500 0.295216
v -0.987748 0.626500 0.295216
v -0.923371 0.690586 0.295216
v -0.987748 0.690586 0.295216
v -0.923371 0.678904 0.230426
v -0.987748 0.678904 0.230426
v -0.923371 0.724952 0.230426
v -0.987748 0.724952 0.230426
v -0.923371 0.743501 0.144178
v -0.987748 0.743501 0.144178
v -0.987748 0.616374 0.358036
v -0.955653 0.616374 0.390131
v 0.986348 -0.037554 0.343490
v 0.986348 0.516032 0.343490
v 0.986348 -0.037554 0.389988
v 0.986348 0.516032 0.389988
v 0.939850 -0.037554 0.343490
v 0.939850 0.516032 0.343490
v 0.939850 -0.037554 0.389988
v 0.939850 0.516032 0.389988
v 0.986491 0.570280 0.327012
v 0.986491 0.559770 0.391388
v 0.922115 0.570280 0.327012
v 0.922115 0.570280 0.391388
v 0.986491 0.625329 0.291400
v 0.922115 0.625329 0.291400
v 0.986491 0.679509 0.226992
v 0.922115 0.679509 0.226992
v 0.986491 0.730294 0.105219
v 0.922115 0.730294 0.105219
v 0.986491 0.730294 0.229086
v 0.922115 0.730294 0.229086
v 0.986491 0.689115 0.289323
v 0.922115 0.689115 0.289323
v 0.986491 0.648893 0.327012
v 0.922115 0.648893 0.327012
v 0.922115 0.648893 0.391388
v 0.891576 0.626500 0.327012
v 0.891576 0.626500 0.391388
v 0.891576 0.690586 0.327012
v 0.891576 0.690586 0.391388
v 0.826786 0.678904 0.327012
v 0.826786 0.678904 0.391388
v 0.826786 0.724952 0.327012
v 0.826786 0.724952 0.391388
v 0.740537 0.743501 0.327012
v 0.740537 0.743501 0.391388
v 0.954396 0.616374 0.391388
v 0.986491 0.616374 0.359293
v -1.029273 0.769008 0.329744
vt 0.415478 0.951277
vt 0.425184 0.951277
vt 0.425184 0.960984
vt 0.415478 0.960984
vt 0.425184 0.970691
vt 0.415478 0.970691
vt 0.425184 0.980397
vt 0.415478 0.980397
vt 0.425184 0.990104
vt 0.415478 0.990104
vt 0.405771 0.970691
vt 0.405771 0.980397
vt 0.425184 0.951277
vt 0.425184 0.960984
vt 0.425184 0.951277
vt 0.425184 0.956145
vt 0.425184 0.980397
vt 0.425184 0.990104
vt 0.425184 0.970691
vt 0.434891 0.980397
vt 0.425184 0.980397
vt 0.434891 0.980397
vt 0.425184 0.980397
vt 0.434891 0.980397
vt 0.425184 0.980397
vt 0.434891 0.980397
vt 0.425184 0.980397
vt 0.434891 0.980397
vt 0.425184 0.980397
vt 0.434891 0.980397
vt 0.425184 0.980397
vt 0.434891 0.980397
vt 0.425184 0.965823
vt 0.425184 0.970691
vt 0.425184 0.980397
vt 0.425184 0.970691
vt 0.425184 0.990104
vt 0.400918 0.951277
vt 0.400918 0.951277
vt 0.400918 0.951277
vt 0.400918 0.951277
vt 0.399413 0.966178
vt 0.399413 0.966178
vt 0.399413 0.966178
vt 0.399413 0.966178
vt 0.425184 0.970691
vt 0.425184 0.970691
vt 0.425184 0.970691
vt 0.425184 0.980397
vt 0.425184 0.980397
vt 0.425184 0.970691
vt 0.425184 0.980397
vt 0.425184 0.980397
vt 0.430052 0.970691
vt 0.434891 0.970691
vt 0.434891 0.975530
vt 0.600698 0.753974
vt 0.610783 0.753974
vt 0.610783 0.764059
vt 0.600698 0.764059
vt 0.600698 0.759017
vt 0.610783 0.774145
vt 0.600698 0.774145
vt 0.610783 0.784230
vt 0.600698 0.784230
vt 0.600698 0.779188
vt 0.610783 0.794316
vt 0.600698 0.794316
vt 0.590612 0.779188
vt 0.590612 0.784230
vt 0.620869 0.774145
vt 0.620869 0.784230
vt 0.600698 0.753974
vt 0.610783 0.753974
vt 0.610783 0.764059
vt 0.600698 0.764059
vt 0.610783 0.774145
vt 0.600698 0.774145
vt 0.610783 0.784230
vt 0.600698 0.784230
vt 0.610783 0.794316
vt 0.600698 0.794316
vt 0.590612 0.774145
vt 0.590612 0.784230
vt 0.620869 0.774145
vt 0.620869 0.784230
vt 0.600698 0.753974
vt 0.610783 0.753974
vt 0.610783 0.764059
vt 0.600698 0.764059
vt 0.610783 0.774145
vt 0.600698 0.774145
vt 0.610783 0.784230
vt 0.600698 0.784230
vt 0.610783 0.794316
vt 0.600698 0.794316
vt 0.590612 0.774145
vt 0.590612 0.784230
vt 0.620869 0.774145
vt 0.620869 0.784230
vt 0.600698 0.753974
vt 0.610783 0.753974
vt 0.610783 0.759017
vt 0.610783 0.764059
vt 0.600698 0.764059
vt 0.600698 0.759017
vt 0.610783 0.774145
vt 0.600698 0.774145
vt 0.610783 0.779188
vt 0.610783 0.784230
vt 0.600698 0.784230
vt 0.600698 0.779188
vt 0.610783 0.794316
vt 0.600698 0.794316
vt 0.590612 0.779188
vt 0.590612 0.784230
vt 0.620869 0.779188
vt 0.620869 0.784230
vt 0.590612 0.774145
vt 0.590612 0.774145
vt 0.415478 0.951277
vt 0.425184 0.951277
vt 0.425184 0.960984
vt 0.415478 0.960984
vt 0.425184 0.970691
vt 0.415478 0.970691
vt 0.425184 0.980397
vt 0.415478 0.980397
vt 0.425184 0.990104
vt 0.415478 0.990104
vt 0.405771 0.970691
vt 0.405771 0.980397
vt 0.425184 0.951277
vt 0.425184 0.960984
vt 0.425184 0.951277
vt 0.425184 0.956145
vt 0.425184 0.980397
vt 0.425184 0.990104
vt 0.425184 0.970691
vt 0.434891 0.980397
vt 0.425184 0.980397
vt 0.434891 0.980397
vt 0.425184 0.980397
vt 0.434891 0.980397
vt 0.425184 0.980397
vt 0.434891 0.980397
vt 0.425184 0.980397
vt 0.434891 0.980397
vt 0.425184 0.980397
vt 0.434891 0.980397
vt 0.425184 0.980397
vt 0.434891 0.980397
vt 0.425184 0.965823
vt 0.425184 0.970691
vt 0.425184 0.980397
vt 0.425184 0.970691
vt 0.425184 0.990104
vt 0.400918 0.951277
vt 0.400918 0.951277
vt 0.400918 0.951277
vt 0.400918 0.951277
vt 0.399413 0.966178
vt 0.399413 0.966178
vt 0.399413 0.966178
vt 0.399413 0.966178
vt 0.425184 0.970691
vt 0.425184 0.970691
vt 0.425184 0.970691
vt 0.425184 0.980397
vt 0.425184 0.980397
vt 0.425184 0.970691
vt 0.425184 0.980397
vt 0.425184 0.980397
vt 0.430052 0.970691
vt 0.434891 0.970691
vt 0.434891 0.975530
vt 0.415478 0.951277
vt 0.425184 0.951277
vt 0.425184 0.960984
vt 0.415478 0.960984
vt 0.425184 0.970691
vt 0.415478 0.970691
vt 0.425184 0.980397
vt 0.415478 0.980397
vt 0.425184 0.990104
vt 0.415478 0.990104
vt 0.405771 0.970691
vt 0.405771 0.980397
vt 0.425184 0.951277
vt 0.425184 0.960984
vt 0.425184 0.951277
vt 0.425184 0.956145
vt 0.425184 0.980397
vt 0.425184 0.990104
vt 0.425184 0.970691
vt 0.434891 0.980397
vt 0.425184 0.980397
vt 0.434891 0.980397
vt 0.425184 0.980397
vt 0.434891 0.980397
vt 0.425184 0.980397
vt 0.434891 0.980397
vt 0.425184 0.980397
vt 0.434891 0.980397
vt 0.425184 0.980397
vt 0.434891 0.980397
vt 0.425184 0.980397
vt 0.434891 0.980397
vt 0.425184 0.965823
vt 0.425184 0.970691
vt 0.425184 0.980397
vt 0.425184 0.970691
vt 0.425184 0.990104
vt 0.400918 0.951277
vt 0.400918 0.951277
vt 0.400918 0.951277
vt 0.400918 0.951277
vt 0.399413 0.966178
vt 0.399413 0.966178
vt 0.399413 0.966178
vt 0.399413 0.966178
vt 0.425184 0.970691
vt 0.425184 0.970691
vt 0.425184 0.970691
vt 0.425184 0.980397
vt 0.425184 0.980397
vt 0.425184 0.970691
vt 0.425184 0.980397
vt 0.425184 0.980397
vt 0.430052 0.970691
vt 0.434891 0.970691
vt 0.434891 0.975530
vt 0.415478 0.951277
vt 0.425184 0.951277
vt 0.425184 0.960984
vt 0.415478 0.960984
vt 0.425184 0.970691
vt 0.415478 0.970691
vt 0.425184 0.980397
vt 0.415478 0.980397
vt 0.425184 0.990104
vt 0.415478 0.990104
vt 0.405771 0.970691
vt 0.405771 0.980397
vt 0.425184 0.951277
vt 0.425184 0.960984
vt 0.425184 0.951277
vt 0.425184 0.956145
vt 0.425184 0.980397
vt 0.425184 0.990104
vt 0.425184 0.970691
vt 0.434891 0.980397
vt 0.425184 0.980397
vt 0.434891 0.980397
vt 0.425184 0.980397
vt 0.434891 0.980397
vt 0.425184 0.980397
vt 0.434891 0.980397
vt 0.425184 0.980397
vt 0.434891 0.980397
vt 0.425184 0.980397
vt 0.434891 0.980397
vt 0.425184 0.980397
vt 0.434891 0.980397
vt 0.425184 0.965823
vt 0.425184 0.970691
vt 0.425184 0.980397
vt 0.425184 0.970691
vt 0.425184 0.990104
vt 0.400918 0.951277
vt 0.400918 0.951277
vt 0.400918 0.951277
vt 0.400918 0.951277
vt 0.399413 0.966178
vt 0.399413 0.966178
vt 0.399413 0.966178
vt 0.399413 0.966178
vt 0.425184 0.970691
vt 0.425184 0.970691
vt 0.425184 0.970691
vt 0.425184 0.980397
vt 0.425184 0.980397
vt 0.425184 0.970691
vt 0.425184 0.980397
vt 0.425184 0.980397
vt 0.430052 0.970691
vt 0.434891 0.970691
vt 0.434891 0.975530
vt 0.620869 0.774145
vn -1.0000 0.0000 0.0000
vn 0.0000 0.0000 -1.0000
vn 1.0000 0.0000 0.0000
vn 0.0000 0.0000 1.0000
vn 0.0000 -1.0000 0.0000
vn -1.0000 -0.0030 0.0003
vn 0.0000 -0.2906 0.9568
vn 0.0028 -0.0290 -0.9996
vn 0.9505 -0.3107 0.0000
vn 0.0000 -0.5432 0.8396
vn 0.0000 -0.7653 0.6437
vn 0.0000 -0.9230 0.3849
vn 0.0000 1.0000 0.0000
vn 0.0000 0.8255 -0.5643
vn 0.0000 0.6838 -0.7297
vn -0.8067 0.5909 0.0000
vn 0.8787 -0.4773 0.0000
vn 0.5995 -0.8004 0.0000
vn 0.6289 -0.7775 0.0000
vn -0.4686 0.8834 0.0000
vn -0.2103 0.9776 0.0000
vn -0.6563 0.3721 -0.6563
vn -0.3688 0.8532 -0.3688
vn -0.9965 0.0822 -0.0158
vn 0.0090 0.0193 -0.9998
vn 0.9980 -0.0618 0.0167
vn 0.0231 -0.0477 0.9986
vn 0.0008 -0.9985 -0.0546
vn 0.0020 0.9992 0.0405
vn -0.9921 -0.1257 0.0007
vn -0.0255 0.0594 -0.9979
vn 0.9981 -0.0602 0.0131
vn -0.0037 -0.0003 1.0000
vn 0.0062 -0.9981 -0.0613
vn -0.0033 0.9999 -0.0099
vn -0.9987 0.0154 -0.0494
vn 0.0020 0.0002 -1.0000
vn 0.9999 0.0000 0.0127
vn -0.0067 0.0007 1.0000
vn 0.0011 -0.9992 0.0387
vn -0.0016 0.9998 -0.0180
vn 0.0075 0.0101 -0.9999
vn 0.9989 0.0117 -0.0449
vn 0.0007 -0.0087 1.0000
vn 0.0006 -0.9927 -0.1208
vn -0.0071 0.9987 0.0504
vn 0.0030 -0.9890 -0.1480
vn 0.0014 -0.9995 -0.0328
vn -0.0003 -0.0030 -1.0000
vn -0.9568 -0.2906 0.0000
vn 0.9996 -0.0290 0.0028
vn 0.0000 -0.3107 0.9505
vn -0.8396 -0.5432 0.0000
vn -0.6437 -0.7653 0.0000
vn -0.3849 -0.9230 0.0000
vn 0.5643 0.8255 0.0000
vn 0.7297 0.6838 0.0000
vn 0.0000 0.5909 -0.8067
vn 0.0000 -0.4773 0.8787
vn 0.0000 -0.8004 0.5995
vn 0.0000 -0.7775 0.6289
vn 0.0000 0.8834 -0.4686
vn 0.0000 0.9776 -0.2103
vn 0.6563 0.3721 -0.6563
vn 0.3688 0.8532 -0.3688
vn 0.0003 -0.0030 1.0000
vn 0.9568 -0.2906 0.0000
vn -0.9996 -0.0290 -0.0028
vn 0.0000 -0.3107 -0.9505
vn 0.8396 -0.5432 0.0000
vn 0.6437 -0.7653 0.0000
vn 0.3849 -0.9230 0.0000
vn -0.5643 0.8255 0.0000
vn -0.7297 0.6838 0.0000
vn 0.0000 0.5909 0.8067
vn 0.0000 -0.4773 -0.8787
vn 0.0000 -0.8004 -0.5995
vn 0.0000 -0.7775 -0.6289
vn 0.0000 0.8834 0.4686
vn 0.0000 0.9776 0.2103
vn -0.6563 0.3721 0.6563
vn -0.3688 0.8532 0.3688
vn 1.0000 -0.0030 -0.0003
vn 0.0000 -0.2906 -0.9568
vn -0.0028 -0.0290 0.9996
vn -0.9505 -0.3107 0.0000
vn 0.0000 -0.5432 -0.8396
vn 0.0000 -0.7653 -0.6437
vn 0.0000 -0.9230 -0.3849
vn 0.0000 0.8255 0.5643
vn 0.0000 0.6838 0.7297
vn 0.8067 0.5909 0.0000
vn -0.8787 -0.4773 0.0000
vn -0.5995 -0.8004 0.0000
vn -0.6289 -0.7775 0.0000
vn 0.4686 0.8834 0.0000
vn 0.2103 0.9776 0.0000
vn 0.6563 0.3721 0.6563
vn 0.3688 0.8532 0.3688
vn -0.0035 0.9968 0.0793
usemtl Material.004
s off
f 1/1/1 2/2/1 4/3/1 3/4/1
f 3/4/2 4/3/2 8/5/2 7/6/2
f 7/6/3 8/5/3 6/7/3 5/8/3
f 5/8/4 6/7/4 2/9/4 1/10/4
f 3/11/5 7/6/5 5/8/5 1/12/5
f 4/3/6 2/2/6 9/13/6 10/14/6
f 10/14/1 9/13/1 23/15/1 37/16/1
f 2/9/7 6/7/7 11/17/7 9/18/7
f 8/5/8 4/3/8 10/14/8 12/19/8
f 6/7/9 8/5/9 12/19/9 11/17/9
f 9/20/10 11/17/10 14/21/10 13/22/10
f 13/22/11 14/21/11 16/23/11 15/24/11
f 15/24/12 16/23/12 18/25/12 17/26/12
f 17/26/13 18/25/13 20/27/13 19/28/13
f 19/28/14 20/27/14 22/29/14 21/30/14
f 21/30/15 22/29/15 24/31/15 23/32/15
f 12/19/2 10/14/2 36/33/2 25/34/2
f 25/34/16 24/31/16 28/35/16 29/36/16
f 9/18/4 11/17/4 24/31/4 23/37/4
f 11/38/3 24/39/3 22/40/3 14/41/3
f 14/41/3 22/40/3 20/27/3 16/23/3
f 18/25/3 16/23/3 20/27/3
f 17/26/1 19/28/1 15/24/1
f 15/24/1 19/28/1 21/30/1 13/22/1
f 13/42/1 21/43/1 23/44/1 9/45/1
f 27/46/2 29/36/2 33/47/2 31/48/2
f 11/17/17 12/19/17 27/46/17 26/49/17
f 12/19/2 25/34/2 29/36/2 27/46/2
f 24/31/4 11/17/4 26/49/4 28/35/4
f 30/50/18 31/48/18 35/51/18 34/52/18
f 26/49/19 27/46/19 31/48/19 30/50/19
f 29/36/20 28/35/20 32/53/20 33/47/20
f 28/35/4 26/49/4 30/50/4 32/53/4
f 33/47/21 32/53/21 34/52/21 35/51/21
f 32/53/4 30/50/4 34/52/4
f 31/48/2 33/47/2 35/51/2
f 36/54/22 10/55/22 37/56/22
f 25/34/23 36/54/23 37/56/23 23/32/23 24/31/23
f 38/57/24 39/58/24 41/59/24 40/60/24 72/61/24
f 40/60/25 41/59/25 45/62/25 44/63/25
f 44/63/26 45/62/26 43/64/26 42/65/26 75/66/26
f 42/65/27 43/64/27 39/67/27 38/68/27
f 72/69/28 75/66/28 42/65/28 38/70/28
f 45/62/29 41/71/29 39/72/29 43/64/29
f 46/73/30 47/74/30 49/75/30 48/76/30
f 48/76/31 49/75/31 53/77/31 52/78/31
f 52/78/32 53/77/32 51/79/32 50/80/32
f 50/80/33 51/79/33 47/81/33 46/82/33
f 48/83/34 52/78/34 50/80/34 46/84/34
f 53/77/35 49/85/35 47/86/35 51/79/35
f 54/87/36 55/88/36 57/89/36 56/90/36
f 56/90/37 57/89/37 61/91/37 60/92/37
f 60/92/38 61/91/38 59/93/38 58/94/38
f 58/94/39 59/93/39 55/95/39 54/96/39
f 56/97/40 60/92/40 58/94/40 54/98/40
f 61/91/41 57/99/41 55/100/41 59/93/41
f 62/101/1 63/102/1 187/103/1 65/104/1 64/105/1 73/106/1
f 64/105/42 65/104/42 69/107/42 68/108/42
f 68/108/43 69/107/43 71/109/43 67/110/43 66/111/43 70/112/43
f 66/111/44 67/110/44 63/113/44 62/114/44
f 73/115/45 70/112/45 66/111/45 62/116/45
f 71/109/46 187/117/46 63/118/46 67/110/46
f 64/119/47 68/108/47 70/112/47 73/115/47
f 40/120/48 44/63/48 75/66/48 72/69/48
f 76/121/2 77/122/2 79/123/2 78/124/2
f 78/124/3 79/123/3 83/125/3 82/126/3
f 82/126/4 83/125/4 81/127/4 80/128/4
f 80/128/1 81/127/1 77/129/1 76/130/1
f 78/131/5 82/126/5 80/128/5 76/132/5
f 79/123/49 77/122/49 84/133/49 85/134/49
f 85/134/2 84/133/2 98/135/2 112/136/2
f 77/129/50 81/127/50 86/137/50 84/138/50
f 83/125/51 79/123/51 85/134/51 87/139/51
f 81/127/52 83/125/52 87/139/52 86/137/52
f 84/140/53 86/137/53 89/141/53 88/142/53
f 88/142/54 89/141/54 91/143/54 90/144/54
f 90/144/55 91/143/55 93/145/55 92/146/55
f 92/146/13 93/145/13 95/147/13 94/148/13
f 94/148/56 95/147/56 97/149/56 96/150/56
f 96/150/57 97/149/57 99/151/57 98/152/57
f 87/139/3 85/134/3 111/153/3 100/154/3
f 100/154/58 99/151/58 103/155/58 104/156/58
f 84/138/1 86/137/1 99/151/1 98/157/1
f 86/158/4 99/159/4 97/160/4 89/161/4
f 89/161/4 97/160/4 95/147/4 91/143/4
f 93/145/4 91/143/4 95/147/4
f 92/146/2 94/148/2 90/144/2
f 90/144/2 94/148/2 96/150/2 88/142/2
f 88/162/2 96/163/2 98/164/2 84/165/2
f 102/166/3 104/156/3 108/167/3 106/168/3
f 86/137/59 87/139/59 102/166/59 101/169/59
f 87/139/3 100/154/3 104/156/3 102/166/3
f 99/151/1 86/137/1 101/169/1 103/155/1
f 105/170/60 106/168/60 110/171/60 109/172/60
f 101/169/61 102/166/61 106/168/61 105/170/61
f 104/156/62 103/155/62 107/173/62 108/167/62
f 103/155/1 101/169/1 105/170/1 107/173/1
f 108/167/63 107/173/63 109/172/63 110/171/63
f 107/173/1 105/170/1 109/172/1
f 106/168/3 108/167/3 110/171/3
f 111/174/64 85/175/64 112/176/64
f 100/154/65 111/174/65 112/176/65 98/152/65 99/151/65
f 113/177/4 114/178/4 116/179/4 115/180/4
f 115/180/1 116/179/1 120/181/1 119/182/1
f 119/182/2 120/181/2 118/183/2 117/184/2
f 117/184/3 118/183/3 114/185/3 113/186/3
f 115/187/5 119/182/5 117/184/5 113/188/5
f 116/179/66 114/178/66 121/189/66 122/190/66
f 122/190/4 121/189/4 135/191/4 149/192/4
f 114/185/67 118/183/67 123/193/67 121/194/67
f 120/181/68 116/179/68 122/190/68 124/195/68
f 118/183/69 120/181/69 124/195/69 123/193/69
f 121/196/70 123/193/70 126/197/70 125/198/70
f 125/198/71 126/197/71 128/199/71 127/200/71
f 127/200/72 128/199/72 130/201/72 129/202/72
f 129/202/13 130/201/13 132/203/13 131/204/13
f 131/204/73 132/203/73 134/205/73 133/206/73
f 133/206/74 134/205/74 136/207/74 135/208/74
f 124/195/1 122/190/1 148/209/1 137/210/1
f 137/210/75 136/207/75 140/211/75 141/212/75
f 121/194/3 123/193/3 136/207/3 135/213/3
f 123/214/2 136/215/2 134/216/2 126/217/2
f 126/217/2 134/216/2 132/203/2 128/199/2
f 130/201/2 128/199/2 132/203/2
f 129/202/4 131/204/4 127/200/4
f 127/200/4 131/204/4 133/206/4 125/198/4
f 125/218/4 133/219/4 135/220/4 121/221/4
f 139/222/1 141/212/1 145/223/1 143/224/1
f 123/193/76 124/195/76 139/222/76 138/225/76
f 124/195/1 137/210/1 141/212/1 139/222/1
f 136/207/3 123/193/3 138/225/3 140/211/3
f 142/226/77 143/224/77 147/227/77 146/228/77
f 138/225/78 139/222/78 143/224/78 142/226/78
f 141/212/79 140/211/79 144/229/79 145/223/79
f 140/211/3 138/225/3 142/226/3 144/229/3
f 145/223/80 144/229/80 146/228/80 147/227/80
f 144/229/3 142/226/3 146/228/3
f 143/224/1 145/223/1 147/227/1
f 148/230/81 122/231/81 149/232/81
f 137/210/82 148/230/82 149/232/82 135/208/82 136/207/82
f 150/233/3 151/234/3 153/235/3 152/236/3
f 152/236/4 153/235/4 157/237/4 156/238/4
f 156/238/1 157/237/1 155/239/1 154/240/1
f 154/240/2 155/239/2 151/241/2 150/242/2
f 152/243/5 156/238/5 154/240/5 150/244/5
f 153/235/83 151/234/83 158/245/83 159/246/83
f 159/246/3 158/245/3 172/247/3 186/248/3
f 151/241/84 155/239/84 160/249/84 158/250/84
f 157/237/85 153/235/85 159/246/85 161/251/85
f 155/239/86 157/237/86 161/251/86 160/249/86
f 158/252/87 160/249/87 163/253/87 162/254/87
f 162/254/88 163/253/88 165/255/88 164/256/88
f 164/256/89 165/255/89 167/257/89 166/258/89
f 166/258/13 167/257/13 169/259/13 168/260/13
f 168/260/90 169/259/90 171/261/90 170/262/90
f 170/262/91 171/261/91 173/263/91 172/264/91
f 161/251/4 159/246/4 185/265/4 174/266/4
f 174/266/92 173/263/92 177/267/92 178/268/92
f 158/250/2 160/249/2 173/263/2 172/269/2
f 160/270/1 173/271/1 171/272/1 163/273/1
f 163/273/1 171/272/1 169/259/1 165/255/1
f 167/257/1 165/255/1 169/259/1
f 166/258/3 168/260/3 164/256/3
f 164/256/3 168/260/3 170/262/3 162/254/3
f 162/274/3 170/275/3 172/276/3 158/277/3
f 176/278/4 178/268/4 182/279/4 180/280/4
f 160/249/93 161/251/93 176/278/93 175/281/93
f 161/251/4 174/266/4 178/268/4 176/278/4
f 173/263/2 160/249/2 175/281/2 177/267/2
f 179/282/94 180/280/94 184/283/94 183/284/94
f 175/281/95 176/278/95 180/280/95 179/282/95
f 178/268/96 177/267/96 181/285/96 182/279/96
f 177/267/2 175/281/2 179/282/2 181/285/2
f 182/279/97 181/285/97 183/284/97 184/283/97
f 181/285/2 179/282/2 183/284/2
f 180/280/4 182/279/4 184/283/4
f 185/286/98 159/287/98 186/288/98
f 174/266/99 185/286/99 186/288/99 172/264/99 173/263/99
f 69/107/100 65/289/100 187/117/100 71/109/100
