# Blender v2.83.5 OBJ File: 'tableplank03.blend'
# www.blender.org
mtllib tableplank03.mtl
o Cube_Cube.001
v 1.060023 0.642392 -0.471147
v 0.960023 -0.057608 -0.388722
v 0.960023 0.660711 -0.371147
v 0.960023 -0.057608 -0.453573
v 0.960023 0.642392 -0.471147
v 1.034911 -0.057608 -0.371147
v 1.060023 0.660711 -0.371147
v 1.060023 -0.057608 -0.442873
v -0.994089 0.654367 -0.213875
v -0.994089 0.742392 -0.213875
v -0.994089 0.642392 -0.471147
v -0.984038 0.737482 -0.480814
v 1.060023 0.665469 -0.254952
v 1.060023 0.742392 -0.254952
v 1.060023 0.642392 -0.471147
v 1.060023 0.728555 -0.471147
v 1.060023 0.642392 0.272130
v 0.990696 -0.057608 0.358746
v 0.960023 0.642392 0.372130
v 0.990696 -0.057608 0.296149
v 0.960023 0.642392 0.272130
v 1.038925 -0.057608 0.372130
v 1.060023 0.642392 0.372130
v 1.060023 -0.057608 0.282764
v -0.894089 0.642392 0.272130
v -0.974430 -0.057608 0.363292
v -0.994089 0.642392 0.372130
v -0.985251 -0.057608 0.289805
v -0.994089 0.642392 0.272130
v -0.922585 -0.057608 0.363292
v -0.894089 0.642392 0.372130
v -0.903847 -0.057608 0.291570
v -0.894089 0.642392 -0.471147
v -0.961098 -0.057608 -0.402002
v -0.994089 0.642392 -0.371147
v -0.960462 -0.057608 -0.459865
v -0.994089 0.642392 -0.471147
v -0.915298 -0.057608 -0.390720
v -0.894089 0.642392 -0.371147
v -0.894089 -0.057608 -0.471147
v -0.968765 0.660754 -0.048203
v -0.980434 0.736217 -0.048203
v -0.986282 0.660754 -0.197865
v -0.991319 0.736217 -0.197865
v 1.052753 0.645418 -0.062620
v 1.052753 0.735877 -0.062620
v 1.060023 0.667741 -0.242405
v 1.060023 0.735956 -0.242405
v -1.006445 0.653809 0.187021
v -0.993587 0.733952 0.187021
v -1.006445 0.653809 -0.035053
v -1.006445 0.731294 -0.035053
v 1.045444 0.665552 0.106722
v 1.045444 0.738752 0.106722
v 1.048491 0.647293 -0.052994
v 1.048491 0.735877 -0.052994
v -0.994089 0.642392 0.386310
v -0.994089 0.706511 0.386310
v -0.994089 0.642392 0.201334
v -0.994089 0.730182 0.201334
v 1.072724 0.642387 0.376897
v 1.072625 0.726836 0.378196
v 1.065765 0.666125 0.122276
v 1.065666 0.742096 0.123574
v 1.072724 0.642387 0.274483
v 1.072625 0.723256 0.272951
v -0.994089 0.642392 -0.307083
v 0.981719 0.581426 0.293523
v 0.981317 0.656889 0.293523
v 0.980306 0.581426 -0.406697
v 0.980129 0.656889 -0.406697
v 1.051325 0.566090 0.284758
v 1.051325 0.656548 0.284758
v 1.052210 0.588413 -0.387111
v 1.052210 0.656628 -0.387111
v -0.984170 0.581426 0.293523
v -0.984572 0.656889 0.293523
v -0.985583 0.581426 -0.406697
v -0.985760 0.656889 -0.406697
v -0.914564 0.566090 0.284758
v -0.914564 0.656548 0.284758
v -0.913679 0.588413 -0.387111
v -0.913679 0.656628 -0.387111
vt 0.617651 0.780211
vt 0.617705 0.786552
vt 0.611364 0.786605
vt 0.611311 0.780265
vt 0.605023 0.786659
vt 0.604969 0.780318
vt 0.598682 0.786713
vt 0.598628 0.780372
vt 0.592340 0.786767
vt 0.592286 0.780426
vt 0.604915 0.773977
vt 0.598574 0.774031
vt 0.602209 0.765400
vt 0.608086 0.765400
vt 0.608086 0.771276
vt 0.602209 0.771276
vt 0.602209 0.768338
vt 0.608086 0.777153
vt 0.602209 0.777153
vt 0.608086 0.783029
vt 0.602209 0.783029
vt 0.608086 0.788905
vt 0.602209 0.788905
vt 0.596333 0.777153
vt 0.596333 0.783029
vt 0.596333 0.780091
vt 0.613962 0.777153
vt 0.613962 0.783029
vt 0.617651 0.780211
vt 0.617705 0.786552
vt 0.611364 0.786605
vt 0.611311 0.780265
vt 0.605023 0.786659
vt 0.604969 0.780318
vt 0.598682 0.786713
vt 0.598628 0.780372
vt 0.592340 0.786767
vt 0.592286 0.780426
vt 0.604915 0.773977
vt 0.598574 0.774031
vt 0.617651 0.780211
vt 0.617705 0.786552
vt 0.611364 0.786605
vt 0.611311 0.780265
vt 0.605023 0.786659
vt 0.604969 0.780318
vt 0.598682 0.786713
vt 0.598628 0.780372
vt 0.592340 0.786767
vt 0.592286 0.780426
vt 0.604915 0.773977
vt 0.598574 0.774031
vt 0.617651 0.780211
vt 0.617705 0.786552
vt 0.611364 0.786605
vt 0.611311 0.780265
vt 0.605023 0.786659
vt 0.604969 0.780318
vt 0.598682 0.786713
vt 0.598628 0.780372
vt 0.592340 0.786767
vt 0.592286 0.780426
vt 0.604915 0.773977
vt 0.598574 0.774031
vt 0.602209 0.765400
vt 0.608086 0.765400
vt 0.608086 0.771276
vt 0.602209 0.771276
vt 0.608086 0.777153
vt 0.602209 0.777153
vt 0.608086 0.783029
vt 0.602209 0.783029
vt 0.608086 0.788905
vt 0.602209 0.788905
vt 0.596333 0.777153
vt 0.596333 0.783029
vt 0.613962 0.777153
vt 0.613962 0.783029
vt 0.602209 0.765400
vt 0.608086 0.765400
vt 0.608086 0.771276
vt 0.602209 0.771276
vt 0.608086 0.777153
vt 0.602209 0.777153
vt 0.608086 0.783029
vt 0.602209 0.783029
vt 0.608086 0.788905
vt 0.602209 0.788905
vt 0.596333 0.777153
vt 0.596333 0.783029
vt 0.613962 0.777153
vt 0.613962 0.783029
vt 0.602209 0.765400
vt 0.608086 0.765400
vt 0.608086 0.771276
vt 0.602209 0.771276
vt 0.608086 0.777153
vt 0.602209 0.777153
vt 0.608086 0.780091
vt 0.608086 0.783029
vt 0.602209 0.783029
vt 0.602209 0.780091
vt 0.608086 0.788905
vt 0.602209 0.788905
vt 0.596333 0.777153
vt 0.596333 0.783029
vt 0.613962 0.777153
vt 0.613962 0.783029
vt 0.602209 0.765400
vt 0.608086 0.765400
vt 0.608086 0.771276
vt 0.602209 0.771276
vt 0.608086 0.777153
vt 0.602209 0.777153
vt 0.608086 0.783029
vt 0.602209 0.783029
vt 0.608086 0.788905
vt 0.602209 0.788905
vt 0.596333 0.777153
vt 0.596333 0.783029
vt 0.613962 0.777153
vt 0.613962 0.783029
vt 0.602209 0.765400
vt 0.608086 0.765400
vt 0.608086 0.771276
vt 0.602209 0.771276
vt 0.608086 0.777153
vt 0.602209 0.777153
vt 0.608086 0.783029
vt 0.602209 0.783029
vt 0.608086 0.788905
vt 0.602209 0.788905
vt 0.596333 0.777153
vt 0.596333 0.783029
vt 0.613962 0.777153
vt 0.613962 0.783029
vn -1.0000 0.0000 0.0000
vn 0.0534 -0.0327 -0.9980
vn 0.9891 -0.0146 0.1462
vn -0.1000 -0.0104 0.9949
vn 0.0000 -1.0000 0.0000
vn -0.9985 0.0516 -0.0201
vn 0.0022 -0.0534 -0.9986
vn 1.0000 0.0000 0.0000
vn 0.0200 0.0000 0.9998
vn 0.0054 -0.9973 0.0738
vn 0.0019 0.9992 -0.0387
vn -0.9990 -0.0438 0.0000
vn -0.0788 -0.0264 -0.9965
vn 0.9938 -0.0141 0.1107
vn -0.0899 -0.0101 0.9959
vn -0.9979 -0.0199 0.0622
vn 0.0097 -0.0265 -0.9996
vn 0.9938 -0.0263 0.1084
vn 0.0000 -0.0126 0.9999
vn -0.9989 -0.0475 -0.0040
vn -0.0677 -0.0097 -0.9977
vn 0.9930 -0.0167 0.1167
vn -0.0771 -0.0365 0.9964
vn -0.9895 -0.1095 0.0939
vn -0.0217 -0.0008 -0.9998
vn 0.9992 0.0000 0.0404
vn 0.0071 0.0005 1.0000
vn -0.0030 -0.9977 -0.0675
vn 0.0002 1.0000 0.0002
vn -0.9963 0.0813 0.0284
vn -0.0087 0.0000 -1.0000
vn 0.9998 0.0000 0.0191
vn 0.0392 -0.0033 0.9992
vn 0.0024 -0.9989 0.0478
vn -0.0026 0.9999 -0.0144
vn -0.0381 0.0079 -0.9992
vn 0.9996 0.0012 -0.0266
vn 0.0043 -0.0087 1.0000
vn 0.0019 -0.9985 -0.0540
vn -0.0032 0.9961 0.0882
vn -1.0000 -0.0038 0.0019
vn 0.2625 0.0003 -0.9649
vn 1.0000 0.0000 0.0013
vn 0.1246 0.0003 0.9922
vn -0.0577 -0.9982 -0.0162
vn 0.0042 1.0000 0.0001
usemtl Material.004
s off
f 2/1/1 3/2/1 5/3/1 4/4/1
f 4/4/2 5/3/2 1/5/2 8/6/2
f 8/6/3 1/5/3 7/7/3 6/8/3
f 6/8/4 7/7/4 3/9/4 2/10/4
f 4/11/5 8/6/5 6/8/5 2/12/5
f 9/13/6 10/14/6 12/15/6 11/16/6 67/17/6
f 11/16/7 12/15/7 16/18/7 15/19/7
f 15/19/8 16/18/8 14/20/8 13/21/8
f 13/21/9 14/20/9 10/22/9 9/23/9
f 11/24/10 15/19/10 13/21/10 9/25/10 67/26/10
f 16/18/11 12/27/11 10/28/11 14/20/11
f 18/29/12 19/30/12 21/31/12 20/32/12
f 20/32/13 21/31/13 17/33/13 24/34/13
f 24/34/14 17/33/14 23/35/14 22/36/14
f 22/36/15 23/35/15 19/37/15 18/38/15
f 20/39/5 24/34/5 22/36/5 18/40/5
f 26/41/16 27/42/16 29/43/16 28/44/16
f 28/44/17 29/43/17 25/45/17 32/46/17
f 32/46/18 25/45/18 31/47/18 30/48/18
f 30/48/19 31/47/19 27/49/19 26/50/19
f 28/51/5 32/46/5 30/48/5 26/52/5
f 34/53/20 35/54/20 37/55/20 36/56/20
f 36/56/21 37/55/21 33/57/21 40/58/21
f 40/58/22 33/57/22 39/59/22 38/60/22
f 38/60/23 39/59/23 35/61/23 34/62/23
f 36/63/5 40/58/5 38/60/5 34/64/5
f 41/65/24 42/66/24 44/67/24 43/68/24
f 43/68/25 44/67/25 48/69/25 47/70/25
f 47/70/26 48/69/26 46/71/26 45/72/26
f 45/72/27 46/71/27 42/73/27 41/74/27
f 43/75/28 47/70/28 45/72/28 41/76/28
f 48/69/29 44/77/29 42/78/29 46/71/29
f 49/79/30 50/80/30 52/81/30 51/82/30
f 51/82/31 52/81/31 56/83/31 55/84/31
f 55/84/32 56/83/32 54/85/32 53/86/32
f 53/86/33 54/85/33 50/87/33 49/88/33
f 51/89/34 55/84/34 53/86/34 49/90/34
f 56/83/35 52/91/35 50/92/35 54/85/35
f 57/93/1 58/94/1 60/95/1 59/96/1
f 59/96/36 60/95/36 64/97/36 63/98/36
f 63/98/37 64/97/37 66/99/37 62/100/37 61/101/37 65/102/37
f 61/101/38 62/100/38 58/103/38 57/104/38
f 59/105/39 63/98/39 65/102/39 61/101/39 57/106/39
f 64/97/40 60/107/40 58/108/40 62/100/40 66/99/40
f 68/109/41 69/110/41 71/111/41 70/112/41
f 70/112/42 71/111/42 75/113/42 74/114/42
f 74/114/43 75/113/43 73/115/43 72/116/43
f 72/116/44 73/115/44 69/117/44 68/118/44
f 70/119/45 74/114/45 72/116/45 68/120/45
f 75/113/46 71/121/46 69/122/46 73/115/46
f 76/123/41 77/124/41 79/125/41 78/126/41
f 78/126/42 79/125/42 83/127/42 82/128/42
f 82/128/43 83/127/43 81/129/43 80/130/43
f 80/130/44 81/129/44 77/131/44 76/132/44
f 78/133/45 82/128/45 80/130/45 76/134/45
f 83/127/46 79/135/46 77/136/46 81/129/46
