# Blender v2.83.5 OBJ File: 'tableplain01.blend'
# www.blender.org
mtllib tableplain01.mtl
o Cube_Cube.001
v -1.000000 0.750000 1.000000
v -1.000000 0.850000 1.000000
v -1.000000 0.750000 -1.000000
v -1.000000 0.850000 -1.000000
v 1.000000 0.750000 1.000000
v 1.000000 0.850000 1.000000
v 1.000000 0.750000 -1.000000
v 1.000000 0.850000 -1.000000
v 0.900000 0.050000 -0.900000
v 0.900000 0.750000 -0.900000
v 0.900000 0.050000 -1.000000
v 0.900000 0.750000 -1.000000
v 1.000000 0.050000 -0.900000
v 1.000000 0.750000 -0.900000
v 1.000000 0.050000 -1.000000
v -1.000000 0.050000 -0.900000
v -1.000000 0.750000 -0.900000
v -1.000000 0.050000 -1.000000
v -0.900000 0.050000 -0.900000
v -0.900000 0.750000 -0.900000
v -0.900000 0.050000 -1.000000
v -0.900000 0.750000 -1.000000
v -1.000000 0.050000 1.000000
v -1.000000 0.050000 0.900000
v -1.000000 0.750000 0.900000
v -0.900000 0.050000 1.000000
v -0.900000 0.750000 1.000000
v -0.900000 0.050000 0.900000
v -0.900000 0.750000 0.900000
v 0.900000 0.050000 1.000000
v 0.900000 0.750000 1.000000
v 0.900000 0.050000 0.900000
v 0.900000 0.750000 0.900000
v 1.000000 0.050000 1.000000
v 1.000000 0.050000 0.900000
v 1.000000 0.750000 0.900000
vt 0.663939 0.757121
vt 0.673046 0.757121
vt 0.673046 0.766228
vt 0.663939 0.766228
vt 0.673046 0.775335
vt 0.663939 0.775335
vt 0.673046 0.784442
vt 0.663939 0.784442
vt 0.673046 0.793549
vt 0.663939 0.793549
vt 0.654832 0.775335
vt 0.654832 0.784442
vt 0.682153 0.775335
vt 0.682153 0.784442
vt 0.663939 0.757121
vt 0.673046 0.757121
vt 0.673046 0.766228
vt 0.663939 0.766228
vt 0.673046 0.775335
vt 0.663939 0.775335
vt 0.673046 0.784442
vt 0.663939 0.784442
vt 0.673046 0.793549
vt 0.663939 0.793549
vt 0.654832 0.775335
vt 0.654832 0.784442
vt 0.682153 0.775335
vt 0.682153 0.784442
vt 0.663939 0.757121
vt 0.673046 0.757121
vt 0.673046 0.766228
vt 0.663939 0.766228
vt 0.673046 0.775335
vt 0.663939 0.775335
vt 0.673046 0.784442
vt 0.663939 0.784442
vt 0.673046 0.793549
vt 0.663939 0.793549
vt 0.654832 0.775335
vt 0.654832 0.784442
vt 0.682153 0.775335
vt 0.682153 0.784442
vt 0.663939 0.757121
vt 0.673046 0.757121
vt 0.673046 0.766228
vt 0.663939 0.766228
vt 0.673046 0.775335
vt 0.663939 0.775335
vt 0.673046 0.784442
vt 0.663939 0.784442
vt 0.673046 0.793549
vt 0.663939 0.793549
vt 0.654832 0.775335
vt 0.654832 0.784442
vt 0.682153 0.775335
vt 0.682153 0.784442
vt 0.663939 0.757121
vt 0.673046 0.757121
vt 0.673046 0.766228
vt 0.663939 0.766228
vt 0.673046 0.775335
vt 0.663939 0.775335
vt 0.673046 0.784442
vt 0.663939 0.784442
vt 0.673046 0.793549
vt 0.663939 0.793549
vt 0.654832 0.775335
vt 0.654832 0.784442
vt 0.682153 0.775335
vt 0.682153 0.784442
vn -1.0000 0.0000 0.0000
vn 0.0000 0.0000 -1.0000
vn 1.0000 0.0000 0.0000
vn 0.0000 0.0000 1.0000
vn 0.0000 -1.0000 0.0000
vn 0.0000 1.0000 0.0000
usemtl Material.001
s off
f 1/1/1 2/2/1 4/3/1 3/4/1
f 3/4/2 4/3/2 8/5/2 7/6/2
f 7/6/3 8/5/3 6/7/3 5/8/3
f 5/8/4 6/7/4 2/9/4 1/10/4
f 3/11/5 7/6/5 5/8/5 1/12/5
f 8/5/6 4/13/6 2/14/6 6/7/6
f 9/15/1 10/16/1 12/17/1 11/18/1
f 11/18/2 12/17/2 7/19/2 15/20/2
f 15/20/3 7/19/3 14/21/3 13/22/3
f 13/22/4 14/21/4 10/23/4 9/24/4
f 11/25/5 15/20/5 13/22/5 9/26/5
f 7/19/6 12/27/6 10/28/6 14/21/6
f 16/29/1 17/30/1 3/31/1 18/32/1
f 18/32/2 3/31/2 22/33/2 21/34/2
f 21/34/3 22/33/3 20/35/3 19/36/3
f 19/36/4 20/35/4 17/37/4 16/38/4
f 18/39/5 21/34/5 19/36/5 16/40/5
f 22/33/6 3/41/6 17/42/6 20/35/6
f 23/43/1 1/44/1 25/45/1 24/46/1
f 24/46/2 25/45/2 29/47/2 28/48/2
f 28/48/3 29/47/3 27/49/3 26/50/3
f 26/50/4 27/49/4 1/51/4 23/52/4
f 24/53/5 28/48/5 26/50/5 23/54/5
f 29/47/6 25/55/6 1/56/6 27/49/6
f 30/57/1 31/58/1 33/59/1 32/60/1
f 32/60/2 33/59/2 36/61/2 35/62/2
f 35/62/3 36/61/3 5/63/3 34/64/3
f 34/64/4 5/63/4 31/65/4 30/66/4
f 32/67/5 35/62/5 34/64/5 30/68/5
f 36/61/6 33/69/6 31/70/6 5/63/6
