# Blender v2.83.5 OBJ File: 'tablecorner02.blend'
# www.blender.org
mtllib tablecorner02.mtl
o Cylinder_Cylinder.006
v 0.000000 0.579882 -0.334388
v 0.000000 0.602185 -0.334388
v 0.127965 0.579882 -0.308934
v 0.127965 0.602185 -0.308934
v 0.236448 0.579882 -0.236448
v 0.236448 0.602185 -0.236448
v 0.308934 0.579882 -0.127965
v 0.308934 0.602185 -0.127965
v 0.334388 0.579882 0.000000
v 0.334388 0.602185 0.000000
v 0.308934 0.579882 0.127965
v 0.308934 0.602185 0.127965
v 0.236448 0.579882 0.236448
v 0.236448 0.602185 0.236448
v 0.127965 0.579882 0.308934
v 0.127965 0.602185 0.308934
v 0.000000 0.579882 0.334388
v 0.000000 0.602185 0.334388
v -0.127965 0.579882 0.308934
v -0.127965 0.602185 0.308934
v -0.236448 0.579882 0.236448
v -0.236448 0.602185 0.236448
v -0.308934 0.579882 0.127965
v -0.308934 0.602185 0.127965
v -0.334388 0.579882 -0.000000
v -0.334388 0.602185 -0.000000
v -0.308934 0.579882 -0.127965
v -0.308934 0.602185 -0.127965
v -0.236448 0.579882 -0.236448
v -0.236448 0.602185 -0.236448
v -0.127964 0.579882 -0.308934
v -0.127964 0.602185 -0.308934
v 0.000000 0.618272 -0.334388
v 0.127965 0.618272 -0.308934
v 0.236448 0.618272 -0.236448
v 0.308934 0.618272 -0.127965
v 0.334388 0.618272 0.000000
v 0.308934 0.618272 0.127965
v 0.236448 0.618272 0.236448
v 0.127965 0.618272 0.308934
v 0.000000 0.618272 0.334388
v -0.127965 0.618272 0.308934
v -0.236448 0.618272 0.236448
v -0.308934 0.618272 0.127965
v -0.334388 0.618272 -0.000000
v -0.308934 0.618272 -0.127965
v -0.236448 0.618272 -0.236448
v -0.127964 0.618272 -0.308934
v 0.000000 0.618272 -0.314837
v 0.120483 0.618272 -0.290872
v 0.222624 0.618272 -0.222624
v 0.290872 0.618272 -0.120483
v 0.314837 0.618272 0.000000
v 0.290872 0.618272 0.120483
v 0.222624 0.618272 0.222624
v 0.120483 0.618272 0.290872
v 0.000000 0.618272 0.314837
v -0.120483 0.618272 0.290872
v -0.222624 0.618272 0.222624
v -0.290872 0.618272 0.120483
v -0.314837 0.618272 -0.000000
v -0.290872 0.618272 -0.120483
v -0.222624 0.618272 -0.222624
v -0.120483 0.618272 -0.290872
v 0.000000 0.601221 -0.314837
v 0.120483 0.601221 -0.290872
v 0.222624 0.601221 -0.222624
v 0.290872 0.601221 -0.120483
v 0.314837 0.601221 0.000000
v 0.290872 0.601221 0.120483
v 0.222624 0.601221 0.222624
v 0.120483 0.601221 0.290872
v 0.000000 0.601221 0.314837
v -0.120483 0.601221 0.290872
v -0.222624 0.601221 0.222624
v -0.290872 0.601221 0.120483
v -0.314837 0.601221 -0.000000
v -0.290872 0.601221 -0.120483
v -0.222624 0.601221 -0.222624
v -0.120483 0.601221 -0.290872
v 0.000000 0.133089 0.332936
v 0.000000 0.116450 0.332936
v -0.127409 0.133089 0.307593
v -0.127409 0.116450 0.307593
v -0.235421 0.133089 0.235421
v -0.235421 0.116450 0.235421
v -0.307593 0.133089 0.127409
v -0.307593 0.116450 0.127409
v -0.332936 0.133089 -0.000000
v -0.332936 0.116450 -0.000000
v -0.307593 0.133089 -0.127409
v -0.307593 0.116450 -0.127409
v -0.235421 0.133089 -0.235421
v -0.235421 0.116450 -0.235421
v -0.127409 0.133089 -0.307593
v -0.127409 0.116450 -0.307593
v -0.000000 0.133089 -0.332936
v -0.000000 0.116450 -0.332936
v 0.127409 0.133089 -0.307593
v 0.127409 0.116450 -0.307593
v 0.235421 0.133089 -0.235421
v 0.235421 0.116450 -0.235421
v 0.307593 0.133089 -0.127409
v 0.307593 0.116450 -0.127409
v 0.332936 0.133089 0.000000
v 0.332936 0.116450 0.000000
v 0.307593 0.133089 0.127409
v 0.307593 0.116450 0.127409
v 0.235421 0.133089 0.235421
v 0.235421 0.116450 0.235421
v 0.127409 0.133089 0.307593
v 0.127409 0.116450 0.307593
v 0.300000 -0.003446 -0.025000
v 0.300000 0.590084 -0.025000
v 0.317678 -0.003446 -0.017678
v 0.317678 0.590084 -0.017678
v 0.325000 -0.003446 -0.000000
v 0.325000 0.590084 -0.000000
v 0.317678 -0.003446 0.017678
v 0.317678 0.590084 0.017678
v 0.300000 -0.003446 0.025000
v 0.300000 0.590084 0.025000
v 0.282322 -0.003446 0.017678
v 0.282322 0.590084 0.017678
v 0.275000 -0.003446 -0.000000
v 0.275000 0.590084 -0.000000
v 0.282322 -0.003446 -0.017678
v 0.282322 0.590084 -0.017678
v -0.300000 -0.003446 -0.025000
v -0.300000 0.590084 -0.025000
v -0.282322 -0.003446 -0.017678
v -0.282322 0.590084 -0.017678
v -0.275000 -0.003446 -0.000000
v -0.275000 0.590084 -0.000000
v -0.282322 -0.003446 0.017678
v -0.282322 0.590084 0.017678
v -0.300000 -0.003446 0.025000
v -0.300000 0.590084 0.025000
v -0.317678 -0.003446 0.017678
v -0.317678 0.590084 0.017678
v -0.325000 -0.003446 -0.000000
v -0.325000 0.590084 -0.000000
v -0.317678 -0.003446 -0.017678
v -0.317678 0.590084 -0.017678
v 0.000000 -0.003446 -0.325000
v 0.000000 0.590084 -0.325000
v 0.017678 -0.003446 -0.317678
v 0.017678 0.590084 -0.317678
v 0.025000 -0.003446 -0.300000
v 0.025000 0.590084 -0.300000
v 0.017678 -0.003446 -0.282322
v 0.017678 0.590084 -0.282322
v 0.000000 -0.003446 -0.275000
v 0.000000 0.590084 -0.275000
v -0.017678 -0.003446 -0.282322
v -0.017678 0.590084 -0.282322
v -0.025000 -0.003446 -0.300000
v -0.025000 0.590084 -0.300000
v -0.017678 -0.003446 -0.317678
v -0.017678 0.590084 -0.317678
v 0.000000 -0.003446 0.275000
v 0.000000 0.590084 0.275000
v 0.017678 -0.003446 0.282322
v 0.017678 0.590084 0.282322
v 0.025000 -0.003446 0.300000
v 0.025000 0.590084 0.300000
v 0.017678 -0.003446 0.317678
v 0.017678 0.590084 0.317678
v 0.000000 -0.003446 0.325000
v 0.000000 0.590084 0.325000
v -0.017678 -0.003446 0.317678
v -0.017678 0.590084 0.317678
v -0.025000 -0.003446 0.300000
v -0.025000 0.590084 0.300000
v -0.017678 -0.003446 0.282322
v -0.017678 0.590084 0.282322
vt 0.631797 0.774414
vt 0.631797 0.795338
vt 0.629182 0.795338
vt 0.629182 0.774414
vt 0.626566 0.795338
vt 0.626566 0.774414
vt 0.623951 0.795338
vt 0.623951 0.774414
vt 0.621335 0.795338
vt 0.621335 0.774414
vt 0.618720 0.795338
vt 0.618720 0.774414
vt 0.616104 0.795338
vt 0.616104 0.774414
vt 0.613489 0.795338
vt 0.613489 0.774414
vt 0.610873 0.795338
vt 0.610873 0.774414
vt 0.608258 0.795338
vt 0.608258 0.774414
vt 0.605642 0.795338
vt 0.605642 0.774414
vt 0.603027 0.795338
vt 0.603027 0.774414
vt 0.600411 0.795338
vt 0.600411 0.774414
vt 0.597795 0.795338
vt 0.597795 0.774414
vt 0.595180 0.795338
vt 0.595180 0.774414
vt 0.631797 0.795338
vt 0.629182 0.795338
vt 0.592564 0.795338
vt 0.592564 0.774414
vt 0.589949 0.795338
vt 0.589949 0.774414
vt 0.621335 0.773995
vt 0.625179 0.773231
vt 0.628437 0.771054
vt 0.630614 0.767795
vt 0.631379 0.763952
vt 0.630614 0.760108
vt 0.628437 0.756850
vt 0.625179 0.754673
vt 0.621335 0.753908
vt 0.617492 0.754673
vt 0.614233 0.756850
vt 0.612056 0.760108
vt 0.611292 0.763952
vt 0.612056 0.767795
vt 0.614233 0.771054
vt 0.617492 0.773231
vt 0.616104 0.795338
vt 0.618720 0.795338
vt 0.618720 0.795338
vt 0.616104 0.795338
vt 0.600411 0.795338
vt 0.597795 0.795338
vt 0.605642 0.795338
vt 0.603027 0.795338
vt 0.592564 0.795338
vt 0.589949 0.795338
vt 0.623951 0.795338
vt 0.621335 0.795338
vt 0.610873 0.795338
vt 0.608258 0.795338
vt 0.595180 0.795338
vt 0.626566 0.795338
vt 0.613489 0.795338
vt 0.603027 0.795338
vt 0.605642 0.795338
vt 0.605642 0.795338
vt 0.603027 0.795338
vt 0.597795 0.795338
vt 0.595180 0.795338
vt 0.613489 0.795338
vt 0.592564 0.795338
vt 0.610873 0.795338
vt 0.631797 0.795338
vt 0.629182 0.795338
vt 0.589949 0.795338
vt 0.608258 0.795338
vt 0.626566 0.795338
vt 0.623951 0.795338
vt 0.621335 0.795338
vt 0.600411 0.795338
vt 0.604254 0.773231
vt 0.600411 0.773995
vt 0.596568 0.773231
vt 0.593309 0.771054
vt 0.591132 0.767795
vt 0.590367 0.763952
vt 0.591132 0.760108
vt 0.593309 0.756850
vt 0.596568 0.754673
vt 0.600411 0.753908
vt 0.604254 0.754673
vt 0.607513 0.756850
vt 0.609690 0.760108
vt 0.610455 0.763952
vt 0.609690 0.767795
vt 0.607513 0.771054
vt 0.623951 0.795338
vt 0.621335 0.795338
vt 0.600411 0.795338
vt 0.618720 0.795338
vt 0.597795 0.795338
vt 0.616104 0.795338
vt 0.595180 0.795338
vt 0.613489 0.795338
vt 0.592564 0.795338
vt 0.610873 0.795338
vt 0.631797 0.795338
vt 0.629182 0.795338
vt 0.589949 0.795338
vt 0.608258 0.795338
vt 0.626566 0.795338
vt 0.631797 0.774414
vt 0.629182 0.774414
vt 0.629182 0.795338
vt 0.631797 0.795338
vt 0.626566 0.774414
vt 0.626566 0.795338
vt 0.623951 0.774414
vt 0.623951 0.795338
vt 0.621335 0.774414
vt 0.621335 0.795338
vt 0.618720 0.774414
vt 0.618720 0.795338
vt 0.616104 0.774414
vt 0.616104 0.795338
vt 0.613489 0.774414
vt 0.613489 0.795338
vt 0.610873 0.774414
vt 0.610873 0.795338
vt 0.608258 0.774414
vt 0.608258 0.795338
vt 0.605642 0.774414
vt 0.605642 0.795338
vt 0.603027 0.774414
vt 0.603027 0.795338
vt 0.600411 0.774414
vt 0.600411 0.795338
vt 0.597795 0.774414
vt 0.597795 0.795338
vt 0.595180 0.774414
vt 0.595180 0.795338
vt 0.604254 0.773231
vt 0.607513 0.771054
vt 0.609690 0.767795
vt 0.610455 0.763952
vt 0.609690 0.760108
vt 0.607513 0.756850
vt 0.604254 0.754673
vt 0.600411 0.753908
vt 0.596568 0.754673
vt 0.593309 0.756850
vt 0.591132 0.760108
vt 0.590367 0.763952
vt 0.591132 0.767795
vt 0.593309 0.771054
vt 0.596568 0.773231
vt 0.600411 0.773995
vt 0.592564 0.774414
vt 0.592564 0.795338
vt 0.589949 0.774414
vt 0.589949 0.795338
vt 0.621335 0.773995
vt 0.617492 0.773231
vt 0.614233 0.771054
vt 0.612056 0.767795
vt 0.611292 0.763952
vt 0.612056 0.760108
vt 0.614233 0.756850
vt 0.617492 0.754673
vt 0.621335 0.753908
vt 0.625179 0.754673
vt 0.628437 0.756850
vt 0.630614 0.760108
vt 0.631379 0.763952
vt 0.630614 0.767795
vt 0.628437 0.771054
vt 0.625179 0.773231
vt 0.631797 0.774414
vt 0.631797 0.795338
vt 0.626566 0.795338
vt 0.626566 0.774414
vt 0.621335 0.795338
vt 0.621335 0.774414
vt 0.616104 0.795338
vt 0.616104 0.774414
vt 0.610873 0.795338
vt 0.610873 0.774414
vt 0.605642 0.795338
vt 0.605642 0.774414
vt 0.600411 0.795338
vt 0.600411 0.774414
vt 0.607513 0.771054
vt 0.600411 0.773995
vt 0.593309 0.771054
vt 0.590367 0.763952
vt 0.593309 0.756850
vt 0.600411 0.753908
vt 0.607513 0.756850
vt 0.610455 0.763952
vt 0.595180 0.795338
vt 0.595180 0.774414
vt 0.589949 0.795338
vt 0.589949 0.774414
vt 0.621335 0.773995
vt 0.628437 0.771054
vt 0.631379 0.763952
vt 0.628437 0.756850
vt 0.621335 0.753908
vt 0.614233 0.756850
vt 0.611291 0.763952
vt 0.614233 0.771054
vt 0.631797 0.774414
vt 0.631797 0.795338
vt 0.626566 0.795338
vt 0.626566 0.774414
vt 0.621335 0.795338
vt 0.621335 0.774414
vt 0.616104 0.795338
vt 0.616104 0.774414
vt 0.610873 0.795338
vt 0.610873 0.774414
vt 0.605642 0.795338
vt 0.605642 0.774414
vt 0.600411 0.795338
vt 0.600411 0.774414
vt 0.607513 0.771054
vt 0.600411 0.773995
vt 0.593309 0.771054
vt 0.590367 0.763952
vt 0.593309 0.756850
vt 0.600411 0.753908
vt 0.607513 0.756850
vt 0.610455 0.763952
vt 0.595180 0.795338
vt 0.595180 0.774414
vt 0.589949 0.795338
vt 0.589949 0.774414
vt 0.621335 0.773995
vt 0.628437 0.771054
vt 0.631379 0.763952
vt 0.628437 0.756850
vt 0.621335 0.753908
vt 0.614233 0.756850
vt 0.611291 0.763952
vt 0.614233 0.771054
vt 0.631797 0.774414
vt 0.631797 0.795338
vt 0.626566 0.795338
vt 0.626566 0.774414
vt 0.621335 0.795338
vt 0.621335 0.774414
vt 0.616104 0.795338
vt 0.616104 0.774414
vt 0.610873 0.795338
vt 0.610873 0.774414
vt 0.605642 0.795338
vt 0.605642 0.774414
vt 0.600411 0.795338
vt 0.600411 0.774414
vt 0.607513 0.771054
vt 0.600411 0.773995
vt 0.593309 0.771054
vt 0.590367 0.763952
vt 0.593309 0.756850
vt 0.600411 0.753908
vt 0.607513 0.756850
vt 0.610455 0.763952
vt 0.595180 0.795338
vt 0.595180 0.774414
vt 0.589949 0.795338
vt 0.589949 0.774414
vt 0.621335 0.773995
vt 0.628437 0.771054
vt 0.631379 0.763952
vt 0.628437 0.756850
vt 0.621335 0.753908
vt 0.614233 0.756850
vt 0.611291 0.763952
vt 0.614233 0.771054
vt 0.631797 0.774414
vt 0.631797 0.795338
vt 0.626566 0.795338
vt 0.626566 0.774414
vt 0.621335 0.795338
vt 0.621335 0.774414
vt 0.616104 0.795338
vt 0.616104 0.774414
vt 0.610873 0.795338
vt 0.610873 0.774414
vt 0.605642 0.795338
vt 0.605642 0.774414
vt 0.600411 0.795338
vt 0.600411 0.774414
vt 0.607513 0.771054
vt 0.600411 0.773995
vt 0.593309 0.771054
vt 0.590367 0.763952
vt 0.593309 0.756850
vt 0.600411 0.753908
vt 0.607513 0.756850
vt 0.610455 0.763952
vt 0.595180 0.795338
vt 0.595180 0.774414
vt 0.589949 0.795338
vt 0.589949 0.774414
vt 0.621335 0.773995
vt 0.628437 0.771054
vt 0.631379 0.763952
vt 0.628437 0.756850
vt 0.621335 0.753908
vt 0.614233 0.756850
vt 0.611291 0.763952
vt 0.614233 0.771054
vn 0.1951 0.0000 -0.9808
vn 0.5556 0.0000 -0.8315
vn 0.8315 0.0000 -0.5556
vn 0.9808 0.0000 -0.1951
vn 0.9808 0.0000 0.1951
vn 0.8315 0.0000 0.5556
vn 0.5556 0.0000 0.8315
vn 0.1951 0.0000 0.9808
vn -0.1951 0.0000 0.9808
vn -0.5556 0.0000 0.8315
vn -0.8315 0.0000 0.5556
vn -0.9808 0.0000 0.1951
vn -0.9808 0.0000 -0.1951
vn -0.8315 0.0000 -0.5556
vn -0.5556 0.0000 -0.8315
vn -0.1951 0.0000 -0.9808
vn 0.0000 -1.0000 -0.0000
vn 0.0000 1.0000 0.0000
vn 0.3827 0.0000 -0.9239
vn 0.9239 0.0000 -0.3827
vn 0.9239 0.0000 0.3827
vn 0.3827 0.0000 0.9239
vn -0.3827 0.0000 0.9239
vn -0.9239 0.0000 0.3827
vn -0.9239 0.0000 -0.3827
vn -0.3827 0.0000 -0.9239
usemtl Material.002
s off
f 1/1/1 2/2/1 4/3/1 3/4/1
f 3/4/2 4/3/2 6/5/2 5/6/2
f 5/6/3 6/5/3 8/7/3 7/8/3
f 7/8/4 8/7/4 10/9/4 9/10/4
f 9/10/5 10/9/5 12/11/5 11/12/5
f 11/12/6 12/11/6 14/13/6 13/14/6
f 13/14/7 14/13/7 16/15/7 15/16/7
f 15/16/8 16/15/8 18/17/8 17/18/8
f 17/18/9 18/17/9 20/19/9 19/20/9
f 19/20/10 20/19/10 22/21/10 21/22/10
f 21/22/11 22/21/11 24/23/11 23/24/11
f 23/24/12 24/23/12 26/25/12 25/26/12
f 25/26/13 26/25/13 28/27/13 27/28/13
f 27/28/14 28/27/14 30/29/14 29/30/14
f 4/3/1 2/2/1 33/31/1 34/32/1
f 29/30/15 30/29/15 32/33/15 31/34/15
f 31/34/16 32/33/16 2/35/16 1/36/16
f 1/37/17 3/38/17 5/39/17 7/40/17 9/41/17 11/42/17 13/43/17 15/44/17 17/45/17 19/46/17 21/47/17 23/48/17 25/49/17 27/50/17 29/51/17 31/52/17
f 39/53/18 38/54/18 54/55/18 55/56/18
f 28/27/13 26/25/13 45/57/13 46/58/13
f 14/13/6 12/11/6 38/54/6 39/53/6
f 24/23/11 22/21/11 43/59/11 44/60/11
f 2/35/16 32/33/16 48/61/16 33/62/16
f 10/9/4 8/7/4 36/63/4 37/64/4
f 20/19/9 18/17/9 41/65/9 42/66/9
f 30/29/14 28/27/14 46/58/14 47/67/14
f 6/5/2 4/3/2 34/32/2 35/68/2
f 16/15/7 14/13/7 39/53/7 40/69/7
f 26/25/12 24/23/12 44/60/12 45/57/12
f 12/11/5 10/9/5 37/64/5 38/54/5
f 22/21/10 20/19/10 42/66/10 43/59/10
f 32/33/15 30/29/15 47/67/15 48/61/15
f 8/7/3 6/5/3 35/68/3 36/63/3
f 18/17/8 16/15/8 40/69/8 41/65/8
f 60/70/3 59/71/3 75/72/3 76/73/3
f 47/67/18 46/58/18 62/74/18 63/75/18
f 40/69/18 39/53/18 55/56/18 56/76/18
f 48/61/18 47/67/18 63/75/18 64/77/18
f 41/65/18 40/69/18 56/76/18 57/78/18
f 34/32/18 33/31/18 49/79/18 50/80/18
f 33/62/18 48/61/18 64/77/18 49/81/18
f 42/66/18 41/65/18 57/78/18 58/82/18
f 35/68/18 34/32/18 50/80/18 51/83/18
f 43/59/18 42/66/18 58/82/18 59/71/18
f 36/63/18 35/68/18 51/83/18 52/84/18
f 44/60/18 43/59/18 59/71/18 60/70/18
f 37/64/18 36/63/18 52/84/18 53/85/18
f 45/57/18 44/60/18 60/70/18 61/86/18
f 38/54/18 37/64/18 53/85/18 54/55/18
f 46/58/18 45/57/18 61/86/18 62/74/18
f 66/87/18 65/88/18 80/89/18 79/90/18 78/91/18 77/92/18 76/93/18 75/94/18 74/95/18 73/96/18 72/97/18 71/98/18 70/99/18 69/100/18 68/101/18 67/102/18
f 53/85/12 52/84/12 68/103/12 69/104/12
f 61/86/4 60/70/4 76/73/4 77/105/4
f 54/55/13 53/85/13 69/104/13 70/106/13
f 62/74/5 61/86/5 77/105/5 78/107/5
f 55/56/14 54/55/14 70/106/14 71/108/14
f 63/75/6 62/74/6 78/107/6 79/109/6
f 56/76/15 55/56/15 71/108/15 72/110/15
f 64/77/7 63/75/7 79/109/7 80/111/7
f 57/78/16 56/76/16 72/110/16 73/112/16
f 50/80/9 49/79/9 65/113/9 66/114/9
f 49/81/8 64/77/8 80/111/8 65/115/8
f 58/82/1 57/78/1 73/112/1 74/116/1
f 51/83/10 50/80/10 66/114/10 67/117/10
f 59/71/2 58/82/2 74/116/2 75/72/2
f 52/84/11 51/83/11 67/117/11 68/103/11
f 81/118/9 83/119/9 84/120/9 82/121/9
f 83/119/10 85/122/10 86/123/10 84/120/10
f 85/122/11 87/124/11 88/125/11 86/123/11
f 87/124/12 89/126/12 90/127/12 88/125/12
f 89/126/13 91/128/13 92/129/13 90/127/13
f 91/128/14 93/130/14 94/131/14 92/129/14
f 93/130/15 95/132/15 96/133/15 94/131/15
f 95/132/16 97/134/16 98/135/16 96/133/16
f 97/134/1 99/136/1 100/137/1 98/135/1
f 99/136/2 101/138/2 102/139/2 100/137/2
f 101/138/3 103/140/3 104/141/3 102/139/3
f 103/140/4 105/142/4 106/143/4 104/141/4
f 105/142/5 107/144/5 108/145/5 106/143/5
f 107/144/6 109/146/6 110/147/6 108/145/6
f 84/148/17 86/149/17 88/150/17 90/151/17 92/152/17 94/153/17 96/154/17 98/155/17 100/156/17 102/157/17 104/158/17 106/159/17 108/160/17 110/161/17 112/162/17 82/163/17
f 109/146/7 111/164/7 112/165/7 110/147/7
f 111/164/8 81/166/8 82/167/8 112/165/8
f 81/168/18 111/169/18 109/170/18 107/171/18 105/172/18 103/173/18 101/174/18 99/175/18 97/176/18 95/177/18 93/178/18 91/179/18 89/180/18 87/181/18 85/182/18 83/183/18
f 113/184/19 114/185/19 116/186/19 115/187/19
f 115/187/20 116/186/20 118/188/20 117/189/20
f 117/189/21 118/188/21 120/190/21 119/191/21
f 119/191/22 120/190/22 122/192/22 121/193/22
f 121/193/23 122/192/23 124/194/23 123/195/23
f 123/195/24 124/194/24 126/196/24 125/197/24
f 116/198/18 114/199/18 128/200/18 126/201/18 124/202/18 122/203/18 120/204/18 118/205/18
f 125/197/25 126/196/25 128/206/25 127/207/25
f 127/207/26 128/206/26 114/208/26 113/209/26
f 113/210/17 115/211/17 117/212/17 119/213/17 121/214/17 123/215/17 125/216/17 127/217/17
f 129/218/19 130/219/19 132/220/19 131/221/19
f 131/221/20 132/220/20 134/222/20 133/223/20
f 133/223/21 134/222/21 136/224/21 135/225/21
f 135/225/22 136/224/22 138/226/22 137/227/22
f 137/227/23 138/226/23 140/228/23 139/229/23
f 139/229/24 140/228/24 142/230/24 141/231/24
f 132/232/18 130/233/18 144/234/18 142/235/18 140/236/18 138/237/18 136/238/18 134/239/18
f 141/231/25 142/230/25 144/240/25 143/241/25
f 143/241/26 144/240/26 130/242/26 129/243/26
f 129/244/17 131/245/17 133/246/17 135/247/17 137/248/17 139/249/17 141/250/17 143/251/17
f 145/252/19 146/253/19 148/254/19 147/255/19
f 147/255/20 148/254/20 150/256/20 149/257/20
f 149/257/21 150/256/21 152/258/21 151/259/21
f 151/259/22 152/258/22 154/260/22 153/261/22
f 153/261/23 154/260/23 156/262/23 155/263/23
f 155/263/24 156/262/24 158/264/24 157/265/24
f 148/266/18 146/267/18 160/268/18 158/269/18 156/270/18 154/271/18 152/272/18 150/273/18
f 157/265/25 158/264/25 160/274/25 159/275/25
f 159/275/26 160/274/26 146/276/26 145/277/26
f 145/278/17 147/279/17 149/280/17 151/281/17 153/282/17 155/283/17 157/284/17 159/285/17
f 161/286/19 162/287/19 164/288/19 163/289/19
f 163/289/20 164/288/20 166/290/20 165/291/20
f 165/291/21 166/290/21 168/292/21 167/293/21
f 167/293/22 168/292/22 170/294/22 169/295/22
f 169/295/23 170/294/23 172/296/23 171/297/23
f 171/297/24 172/296/24 174/298/24 173/299/24
f 164/300/18 162/301/18 176/302/18 174/303/18 172/304/18 170/305/18 168/306/18 166/307/18
f 173/299/25 174/298/25 176/308/25 175/309/25
f 175/309/26 176/308/26 162/310/26 161/311/26
f 161/312/17 163/313/17 165/314/17 167/315/17 169/316/17 171/317/17 173/318/17 175/319/17
