# Blender v2.83.5 OBJ File: 'tableenddrawer01.blend'
# www.blender.org
mtllib tableenddrawer01.mtl
o Cube.001_Cube.004
v -0.230354 0.702606 0.231989
v -0.230354 0.535812 0.231989
v -0.230354 0.702606 -0.228395
v -0.230354 0.535812 -0.228395
v 0.230031 0.702606 0.231989
v 0.230031 0.535812 0.231989
v 0.230031 0.702606 -0.228395
v 0.230031 0.535812 -0.228395
v 0.280060 0.706665 0.282018
v -0.280383 0.706665 -0.278424
v -0.280383 0.706665 0.282018
v 0.280060 0.706665 -0.278424
v -0.280383 0.725932 0.282018
v -0.280383 0.725932 -0.278424
v 0.280060 0.725932 0.282018
v 0.280060 0.725932 -0.278424
v -0.230354 0.535812 -0.170847
v 0.172483 0.535812 -0.228395
v 0.230031 0.535812 0.174441
v -0.172806 0.535812 0.231989
v -0.230354 0.535812 0.174441
v -0.172806 0.535812 -0.228395
v 0.230031 0.535812 -0.170847
v 0.172483 0.535812 0.231989
v 0.172483 0.535812 0.174441
v 0.172483 0.535812 -0.170847
v -0.172806 0.535812 -0.170847
v -0.172806 0.535812 0.174441
v -0.218388 -0.000000 -0.182813
v -0.218388 -0.000000 -0.216430
v 0.183889 -0.000000 -0.216989
v 0.218624 -0.000000 -0.216989
v 0.218423 -0.000000 0.186049
v 0.218423 -0.000000 0.220381
v -0.184679 -0.000000 0.220116
v -0.218481 -0.000000 0.220116
v -0.218481 -0.000000 0.186314
v -0.184771 -0.000000 -0.216430
v 0.218624 -0.000000 -0.182254
v 0.184091 -0.000000 0.220381
v 0.184091 -0.000000 0.186049
v 0.183889 -0.000000 -0.182254
v -0.184771 -0.000000 -0.182813
v -0.184679 -0.000000 0.186314
v -0.176590 0.673207 0.231989
v -0.176590 0.548797 0.231989
v 0.176267 0.548797 0.231989
v 0.176267 0.673207 0.231989
v 0.132160 0.548797 0.231989
v -0.132483 0.548797 0.231989
v -0.176590 0.676635 0.245860
v -0.176590 0.548797 0.245860
v 0.176267 0.548797 0.245860
v 0.176267 0.676635 0.245860
v 0.132160 0.548797 0.245860
v -0.132483 0.548797 0.245860
v -0.000000 0.634663 0.256423
v -0.000000 0.638165 0.251609
v -0.000000 0.634663 0.246794
v 0.006610 0.631480 0.256423
v 0.009348 0.633663 0.251609
v 0.006610 0.631480 0.246794
v 0.008242 0.624327 0.256423
v 0.011656 0.623548 0.251609
v 0.008242 0.624327 0.246794
v 0.003668 0.618592 0.256423
v 0.005188 0.615437 0.251609
v 0.003668 0.618592 0.246794
v -0.003668 0.618592 0.256423
v -0.005188 0.615437 0.251609
v -0.003668 0.618592 0.246794
v -0.000000 0.626209 0.258417
v -0.008242 0.624327 0.256423
v -0.011656 0.623548 0.251609
v -0.008242 0.624327 0.246794
v -0.006610 0.631480 0.256423
v -0.009348 0.633663 0.251609
v -0.006610 0.631480 0.246794
v -0.000000 0.626209 0.244800
vt 0.604995 0.784851
vt 0.604541 0.784851
vt 0.604541 0.785305
vt 0.604995 0.787573
vt 0.604995 0.788027
vt 0.605448 0.788027
vt 0.607717 0.787573
vt 0.608171 0.787573
vt 0.608171 0.787119
vt 0.607717 0.784851
vt 0.607717 0.784397
vt 0.607263 0.784397
vt 0.608171 0.784851
vt 0.608171 0.784851
vt 0.607717 0.784851
vt 0.597281 0.784397
vt 0.597281 0.788027
vt 0.600911 0.788027
vt 0.600911 0.784397
vt 0.600911 0.780767
vt 0.600911 0.780767
vt 0.600911 0.784397
vt 0.600911 0.784397
vt 0.600911 0.788027
vt 0.600911 0.788027
vt 0.600911 0.791657
vt 0.600911 0.791657
vt 0.600911 0.777138
vt 0.600911 0.777138
vt 0.600911 0.780767
vt 0.600911 0.777138
vt 0.600911 0.791657
vt 0.604541 0.788481
vt 0.604541 0.788481
vt 0.604541 0.788027
vt 0.604541 0.788027
vt 0.604541 0.784397
vt 0.604541 0.783943
vt 0.604541 0.781221
vt 0.604541 0.780767
vt 0.604541 0.784397
vt 0.604541 0.783943
vt 0.604541 0.780314
vt 0.604541 0.777591
vt 0.604541 0.777138
vt 0.607717 0.788027
vt 0.607717 0.788027
vt 0.607717 0.787573
vt 0.600911 0.791657
vt 0.600911 0.788027
vt 0.604541 0.787573
vt 0.608171 0.788027
vt 0.608171 0.787573
vt 0.604541 0.787573
vt 0.604995 0.788027
vt 0.604995 0.787573
vt 0.604541 0.784851
vt 0.604995 0.784851
vt 0.604995 0.784397
vt 0.607717 0.784397
vt 0.608171 0.784397
vt 0.604541 0.780767
vt 0.604541 0.780314
vt 0.604541 0.777591
vt 0.604541 0.777138
vt 0.604541 0.781221
vt 0.604995 0.784397
vt 0.604541 0.791657
vt 0.604541 0.791657
vt 0.604541 0.791203
vt 0.604541 0.791203
vt 0.604541 0.788027
vt 0.604541 0.788027
vt 0.604541 0.788481
vt 0.604541 0.788481
vt 0.604541 0.777138
vt 0.600911 0.777138
vt 0.604995 0.788027
vt 0.605448 0.788027
vt 0.604541 0.791203
vt 0.604541 0.791657
vt 0.600911 0.788027
vt 0.600911 0.791657
vt 0.604541 0.791657
vt 0.604541 0.791203
vt 0.604995 0.788027
vt 0.605448 0.788027
vt 0.604541 0.777138
vt 0.600911 0.777138
vt 0.552333 0.772830
vt 0.552333 0.776460
vt 0.550259 0.776460
vt 0.550259 0.772830
vt 0.552333 0.780090
vt 0.551296 0.783720
vt 0.550259 0.780090
vt 0.551296 0.769201
vt 0.549222 0.769201
vt 0.548185 0.772830
vt 0.548185 0.780090
vt 0.548185 0.776460
vt 0.549222 0.783720
vt 0.547148 0.783720
vt 0.546111 0.780090
vt 0.547148 0.769201
vt 0.546111 0.772830
vt 0.546111 0.776460
vt 0.544037 0.776460
vt 0.544037 0.772830
vt 0.545074 0.783720
vt 0.544037 0.780090
vt 0.545074 0.769201
vt 0.541963 0.776460
vt 0.541963 0.772830
vt 0.543000 0.783720
vt 0.541963 0.780090
vt 0.543000 0.769201
vt 0.556482 0.772830
vt 0.556482 0.776460
vt 0.554408 0.776460
vt 0.554408 0.772830
vt 0.556482 0.780090
vt 0.555445 0.783720
vt 0.554408 0.780090
vt 0.555445 0.769201
vt 0.553370 0.783720
vt 0.553370 0.769201
vn 0.0000 -1.0000 0.0000
vn 0.0000 -0.0223 0.9998
vn 0.0000 1.0000 0.0000
vn 0.0000 -0.9967 -0.0809
vn 0.0000 -0.9967 0.0809
vn -0.0809 -0.9967 0.0000
vn 0.0809 -0.9967 0.0000
vn 0.0000 0.0000 -1.0000
vn -1.0000 0.0000 0.0000
vn 1.0000 0.0000 0.0000
vn 0.0000 0.0000 1.0000
vn 0.0000 -0.0217 0.9998
vn 0.0000 -0.0213 -0.9998
vn 0.9998 -0.0222 0.0000
vn 0.0000 -0.0222 -0.9998
vn 0.9998 -0.0217 0.0000
vn -0.9998 -0.0217 0.0000
vn -0.9998 -0.0223 0.0000
vn -0.9998 -0.0222 0.0000
vn 0.0000 -0.0223 -0.9998
vn -0.9998 -0.0213 0.0000
vn 0.0000 -0.0222 0.9998
vn 0.0000 -0.0217 -0.9998
vn 0.9998 -0.0223 0.0000
vn 0.9998 -0.0213 0.0000
vn 0.0000 -0.0213 0.9998
vn 0.0000 0.9708 -0.2400
vn 0.3629 0.7536 -0.5481
vn 0.1099 0.2282 0.9674
vn 0.1099 0.2282 -0.9674
vn 0.3629 0.7536 0.5481
vn 0.2469 0.0564 -0.9674
vn 0.8154 0.1861 0.5481
vn 0.8154 0.1861 -0.5481
vn 0.2469 0.0564 0.9674
vn 0.1980 -0.1579 0.9674
vn 0.1980 -0.1579 -0.9674
vn 0.6539 -0.5215 0.5481
vn 0.6539 -0.5215 -0.5481
vn 0.0000 -0.8364 -0.5481
vn 0.0000 -0.2533 0.9674
vn 0.0000 -0.2533 -0.9674
vn 0.0000 -0.8364 0.5481
vn -0.6539 -0.5215 -0.5481
vn -0.1980 -0.1579 0.9674
vn -0.1980 -0.1579 -0.9674
vn -0.6539 -0.5215 0.5481
vn -0.8154 0.1861 -0.5481
vn -0.2469 0.0564 0.9674
vn -0.2469 0.0564 -0.9674
vn -0.8154 0.1861 0.5481
vn -0.3629 0.7536 -0.5481
vn -0.1099 0.2282 0.9674
vn -0.1099 0.2282 -0.9674
vn -0.3629 0.7536 0.5481
usemtl Material.003
s off
f 26/1/1 23/2/1 19/3/1 25/4/1 24/5/1 20/6/1 28/7/1 21/8/1 17/9/1 27/10/1 22/11/1 18/12/1
f 17/13/2 29/14/2 43/15/2 27/10/2
f 14/16/3 13/17/3 15/18/3 16/19/3
f 3/20/4 10/21/4 12/22/4 7/23/4
f 5/24/5 9/25/5 11/26/5 1/27/5
f 1/28/6 11/29/6 10/21/6 3/20/6
f 7/23/7 12/22/7 9/25/7 5/24/7
f 10/21/8 14/30/8 16/19/8 12/22/8
f 11/29/9 13/31/9 14/30/9 10/21/9
f 12/22/10 16/19/10 15/18/10 9/25/10
f 9/25/11 15/18/11 13/32/11 11/26/11
f 24/33/12 40/34/12 34/35/12 6/36/12
f 3/20/8 7/23/8 8/37/8 18/38/8 22/39/8 4/40/8
f 8/37/13 32/41/13 31/42/13 18/38/13
f 1/28/9 3/20/9 4/40/9 17/43/9 21/44/9 2/45/9
f 20/46/14 35/47/14 44/48/14 28/7/14
f 1/27/11 45/49/11 48/50/11 5/24/11
f 7/23/10 5/24/10 6/36/10 19/51/10 23/2/10 8/37/10
f 44/48/1 35/47/1 36/52/1 37/53/1
f 33/54/1 34/35/1 40/55/1 41/56/1
f 32/41/1 39/57/1 42/58/1 31/59/1
f 38/60/1 43/15/1 29/14/1 30/61/1
f 28/7/15 44/48/15 37/53/15 21/8/15
f 6/36/16 34/35/16 33/54/16 19/51/16
f 25/4/17 41/56/17 40/55/17 24/5/17
f 4/40/18 30/62/18 29/63/18 17/43/18
f 21/44/19 37/64/19 36/65/19 2/45/19
f 22/39/20 38/66/20 30/62/20 4/40/20
f 18/67/21 31/59/21 42/58/21 26/1/21
f 2/68/22 36/69/22 35/70/22 20/71/22
f 19/51/23 33/54/23 41/56/23 25/4/23
f 27/10/24 43/15/24 38/60/24 22/11/24
f 23/2/25 39/57/25 32/41/25 8/37/25
f 26/1/26 42/58/26 39/57/26 23/2/26
f 47/72/1 53/73/1 55/74/1 49/75/1
f 2/45/11 46/76/11 45/77/11 1/28/11
f 24/5/11 49/78/11 50/79/11 20/6/11
f 20/71/11 50/80/11 46/81/11 2/68/11
f 6/36/11 47/72/11 49/75/11 24/33/11
f 5/24/11 48/50/11 47/72/11 6/36/11
f 54/82/11 51/83/11 52/84/11 56/85/11 55/74/11 53/73/11
f 48/50/10 54/82/10 53/73/10 47/72/10
f 49/78/1 55/86/1 56/87/1 50/79/1
f 45/49/27 51/83/27 54/82/27 48/50/27
f 46/76/9 52/88/9 51/89/9 45/77/9
f 50/80/1 56/85/1 52/84/1 46/81/1
f 59/90/28 58/91/28 61/92/28 62/93/28
f 57/94/29 72/95/29 60/96/29
f 79/97/30 59/90/30 62/93/30
f 58/91/31 57/94/31 60/96/31 61/92/31
f 79/98/32 62/93/32 65/99/32
f 61/92/33 60/96/33 63/100/33 64/101/33
f 62/93/34 61/92/34 64/101/34 65/99/34
f 60/96/35 72/102/35 63/100/35
f 63/100/36 72/103/36 66/104/36
f 79/105/37 65/99/37 68/106/37
f 64/101/38 63/100/38 66/104/38 67/107/38
f 65/99/39 64/101/39 67/107/39 68/106/39
f 68/106/40 67/107/40 70/108/40 71/109/40
f 66/104/41 72/110/41 69/111/41
f 79/112/42 68/106/42 71/109/42
f 67/107/43 66/104/43 69/111/43 70/108/43
f 71/109/44 70/108/44 74/113/44 75/114/44
f 69/111/45 72/115/45 73/116/45
f 79/117/46 71/109/46 75/114/46
f 70/108/47 69/111/47 73/116/47 74/113/47
f 75/118/48 74/119/48 77/120/48 78/121/48
f 73/122/49 72/123/49 76/124/49
f 79/125/50 75/118/50 78/121/50
f 74/119/51 73/122/51 76/124/51 77/120/51
f 78/121/52 77/120/52 58/91/52 59/90/52
f 76/124/53 72/126/53 57/94/53
f 79/127/54 78/121/54 59/90/54
f 77/120/55 76/124/55 57/94/55 58/91/55
