{
    "asset" : {
        "generator" : "Khronos glTF Blender I/O v1.2.75",
        "version" : "2.0"
    },
    "scene" : 0,
    "scenes" : [
        {
            "name" : "Scene",
            "nodes" : [
                0
            ]
        }
    ],
    "nodes" : [
        {
            "mesh" : 0,
            "name" : "Cube"
        }
    ],
    "materials" : [
        {
            "doubleSided" : true,
            "emissiveFactor" : [
                0,
                0,
                0
            ],
            "name" : "Material.001",
            "pbrMetallicRoughness" : {
                "baseColorTexture" : {
                    "index" : 0,
                    "texCoord" : 0
                },
                "metallicFactor" : 0,
                "roughnessFactor" : 0.5
            }
        }
    ],
    "meshes" : [
        {
            "name" : "Cube.001",
            "primitives" : [
                {
                    "attributes" : {
                        "POSITION" : 0,
                        "NORMAL" : 1,
                        "TEXCOORD_0" : 2
                    },
                    "indices" : 3,
                    "material" : 0
                }
            ]
        }
    ],
    "textures" : [
        {
            "source" : 0
        }
    ],
    "images" : [
        {
            "bufferView" : 4,
            "mimeType" : "image/png",
            "name" : "castletexture"
        }
    ],
    "accessors" : [
        {
            "bufferView" : 0,
            "componentType" : 5126,
            "count" : 621,
            "max" : [
                0.004000000189989805,
                0.007837251760065556,
                0.004000000189989805
            ],
            "min" : [
                -0.004000000189989805,
                -0.00016274861991405487,
                -0.004000000189989805
            ],
            "type" : "VEC3"
        },
        {
            "bufferView" : 1,
            "componentType" : 5126,
            "count" : 621,
            "type" : "VEC3"
        },
        {
            "bufferView" : 2,
            "componentType" : 5126,
            "count" : 621,
            "type" : "VEC2"
        },
        {
            "bufferView" : 3,
            "componentType" : 5123,
            "count" : 1674,
            "type" : "SCALAR"
        }
    ],
    "bufferViews" : [
        {
            "buffer" : 0,
            "byteLength" : 7452,
            "byteOffset" : 0
        },
        {
            "buffer" : 0,
            "byteLength" : 7452,
            "byteOffset" : 7452
        },
        {
            "buffer" : 0,
            "byteLength" : 4968,
            "byteOffset" : 14904
        },
        {
            "buffer" : 0,
            "byteLength" : 3348,
            "byteOffset" : 19872
        },
        {
            "buffer" : 0,
            "byteLength" : 4651,
            "byteOffset" : 23220
        }
    ],
    "buffers" : [
        {
            "byteLength" : 27872,
            "uri" : "data:application/octet-stream;base64,"
        }
    ]
}
