{
    "asset" : {
        "generator" : "Khronos glTF Blender I/O v1.2.75",
        "version" : "2.0"
    },
    "scene" : 0,
    "scenes" : [
        {
            "name" : "Scene",
            "nodes" : [
                0
            ]
        }
    ],
    "nodes" : [
        {
            "mesh" : 0,
            "name" : "Cube"
        }
    ],
    "materials" : [
        {
            "emissiveFactor" : [
                0,
                0,
                0
            ],
            "name" : "Material.002",
            "pbrMetallicRoughness" : {
                "baseColorTexture" : {
                    "index" : 0,
                    "texCoord" : 0
                },
                "metallicFactor" : 0,
                "roughnessFactor" : 0.5
            }
        }
    ],
    "meshes" : [
        {
            "name" : "Cube.001",
            "primitives" : [
                {
                    "attributes" : {
                        "POSITION" : 0,
                        "NORMAL" : 1,
                        "TEXCOORD_0" : 2
                    },
                    "indices" : 3,
                    "material" : 0
                }
            ]
        }
    ],
    "textures" : [
        {
            "source" : 0
        }
    ],
    "images" : [
        {
            "bufferView" : 4,
            "mimeType" : "image/png",
            "name" : "castletexture"
        }
    ],
    "accessors" : [
        {
            "bufferView" : 0,
            "componentType" : 5126,
            "count" : 74,
            "max" : [
                0.06322252750396729,
                0.010990859940648079,
                0.08020644634962082
            ],
            "min" : [
                -0.06322252750396729,
                -0.0009926361963152885,
                -0.039946701377630234
            ],
            "type" : "VEC3"
        },
        {
            "bufferView" : 1,
            "componentType" : 5126,
            "count" : 74,
            "type" : "VEC3"
        },
        {
            "bufferView" : 2,
            "componentType" : 5126,
            "count" : 74,
            "type" : "VEC2"
        },
        {
            "bufferView" : 3,
            "componentType" : 5123,
            "count" : 120,
            "type" : "SCALAR"
        }
    ],
    "bufferViews" : [
        {
            "buffer" : 0,
            "byteLength" : 888,
            "byteOffset" : 0
        },
        {
            "buffer" : 0,
            "byteLength" : 888,
            "byteOffset" : 888
        },
        {
            "buffer" : 0,
            "byteLength" : 592,
            "byteOffset" : 1776
        },
        {
            "buffer" : 0,
            "byteLength" : 240,
            "byteOffset" : 2368
        },
        {
            "buffer" : 0,
            "byteLength" : 4651,
            "byteOffset" : 2608
        }
    ],
    "buffers" : [
        {
            "byteLength" : 7260,
            "uri" : "data:application/octet-stream;base64,"
        }
    ]
}
