{
    "asset" : {
        "generator" : "Khronos glTF Blender I/O v1.2.75",
        "version" : "2.0"
    },
    "scene" : 0,
    "scenes" : [
        {
            "name" : "Scene",
            "nodes" : [
                0
            ]
        }
    ],
    "nodes" : [
        {
            "mesh" : 0,
            "name" : "Cylinder"
        }
    ],
    "materials" : [
        {
            "emissiveFactor" : [
                0,
                0,
                0
            ],
            "name" : "Material.001",
            "pbrMetallicRoughness" : {
                "baseColorTexture" : {
                    "index" : 0,
                    "texCoord" : 0
                },
                "metallicFactor" : 0,
                "roughnessFactor" : 0.5
            }
        }
    ],
    "meshes" : [
        {
            "name" : "Cylinder",
            "primitives" : [
                {
                    "attributes" : {
                        "POSITION" : 0,
                        "NORMAL" : 1,
                        "TEXCOORD_0" : 2
                    },
                    "indices" : 3,
                    "material" : 0
                }
            ]
        }
    ],
    "textures" : [
        {
            "source" : 0
        }
    ],
    "images" : [
        {
            "bufferView" : 4,
            "mimeType" : "image/png",
            "name" : "castletexture"
        }
    ],
    "accessors" : [
        {
            "bufferView" : 0,
            "componentType" : 5126,
            "count" : 304,
            "max" : [
                0.07730211317539215,
                0.029774317517876625,
                0.013330940157175064
            ],
            "min" : [
                -0.12661691009998322,
                0.0031124234665185213,
                -0.013330955058336258
            ],
            "type" : "VEC3"
        },
        {
            "bufferView" : 1,
            "componentType" : 5126,
            "count" : 304,
            "type" : "VEC3"
        },
        {
            "bufferView" : 2,
            "componentType" : 5126,
            "count" : 304,
            "type" : "VEC2"
        },
        {
            "bufferView" : 3,
            "componentType" : 5123,
            "count" : 468,
            "type" : "SCALAR"
        }
    ],
    "bufferViews" : [
        {
            "buffer" : 0,
            "byteLength" : 3648,
            "byteOffset" : 0
        },
        {
            "buffer" : 0,
            "byteLength" : 3648,
            "byteOffset" : 3648
        },
        {
            "buffer" : 0,
            "byteLength" : 2432,
            "byteOffset" : 7296
        },
        {
            "buffer" : 0,
            "byteLength" : 936,
            "byteOffset" : 9728
        },
        {
            "buffer" : 0,
            "byteLength" : 4651,
            "byteOffset" : 10664
        }
    ],
    "buffers" : [
        {
            "byteLength" : 15316,
            "uri" : "data:application/octet-stream;base64,"
        }
    ]
}
