{
    "asset" : {
        "generator" : "Khronos glTF Blender I/O v1.2.75",
        "version" : "2.0"
    },
    "scene" : 0,
    "scenes" : [
        {
            "name" : "Scene",
            "nodes" : [
                0
            ]
        }
    ],
    "nodes" : [
        {
            "mesh" : 0,
            "name" : "Cylinder.001"
        }
    ],
    "materials" : [
        {
            "emissiveFactor" : [
                0,
                0,
                0
            ],
            "name" : "Material.003",
            "pbrMetallicRoughness" : {
                "baseColorTexture" : {
                    "index" : 0,
                    "texCoord" : 0
                },
                "metallicFactor" : 0,
                "roughnessFactor" : 0.5
            }
        }
    ],
    "meshes" : [
        {
            "name" : "Cylinder.001",
            "primitives" : [
                {
                    "attributes" : {
                        "POSITION" : 0,
                        "NORMAL" : 1,
                        "TEXCOORD_0" : 2
                    },
                    "indices" : 3,
                    "material" : 0
                }
            ]
        }
    ],
    "textures" : [
        {
            "source" : 0
        }
    ],
    "images" : [
        {
            "bufferView" : 4,
            "mimeType" : "image/png",
            "name" : "castletexture"
        }
    ],
    "accessors" : [
        {
            "bufferView" : 0,
            "componentType" : 5126,
            "count" : 568,
            "max" : [
                0.014249291270971298,
                0.0764068216085434,
                0.014249290339648724
            ],
            "min" : [
                -0.014249291270971298,
                -0.0026396755129098892,
                -0.014249290339648724
            ],
            "type" : "VEC3"
        },
        {
            "bufferView" : 1,
            "componentType" : 5126,
            "count" : 568,
            "type" : "VEC3"
        },
        {
            "bufferView" : 2,
            "componentType" : 5126,
            "count" : 568,
            "type" : "VEC2"
        },
        {
            "bufferView" : 3,
            "componentType" : 5123,
            "count" : 900,
            "type" : "SCALAR"
        }
    ],
    "bufferViews" : [
        {
            "buffer" : 0,
            "byteLength" : 6816,
            "byteOffset" : 0
        },
        {
            "buffer" : 0,
            "byteLength" : 6816,
            "byteOffset" : 6816
        },
        {
            "buffer" : 0,
            "byteLength" : 4544,
            "byteOffset" : 13632
        },
        {
            "buffer" : 0,
            "byteLength" : 1800,
            "byteOffset" : 18176
        },
        {
            "buffer" : 0,
            "byteLength" : 4651,
            "byteOffset" : 19976
        }
    ],
    "buffers" : [
        {
            "byteLength" : 24628,
            "uri" : "data:application/octet-stream;base64,"
        }
    ]
}
