{
    "asset" : {
        "generator" : "Khronos glTF Blender I/O v1.2.75",
        "version" : "2.0"
    },
    "scene" : 0,
    "scenes" : [
        {
            "name" : "Scene",
            "nodes" : [
                0
            ]
        }
    ],
    "nodes" : [
        {
            "mesh" : 0,
            "name" : "Cube"
        }
    ],
    "materials" : [
        {
            "doubleSided" : true,
            "emissiveFactor" : [
                0,
                0,
                0
            ],
            "name" : "Material.002",
            "pbrMetallicRoughness" : {
                "baseColorTexture" : {
                    "index" : 0,
                    "texCoord" : 0
                },
                "metallicFactor" : 0,
                "roughnessFactor" : 0.5
            }
        }
    ],
    "meshes" : [
        {
            "name" : "Cube.002",
            "primitives" : [
                {
                    "attributes" : {
                        "POSITION" : 0,
                        "NORMAL" : 1,
                        "TEXCOORD_0" : 2
                    },
                    "indices" : 3,
                    "material" : 0
                }
            ]
        }
    ],
    "textures" : [
        {
            "source" : 0
        }
    ],
    "images" : [
        {
            "bufferView" : 4,
            "mimeType" : "image/png",
            "name" : "castletexture"
        }
    ],
    "accessors" : [
        {
            "bufferView" : 0,
            "componentType" : 5126,
            "count" : 108,
            "max" : [
                0.026237620040774345,
                0.0032107539009302855,
                0.0028526135720312595
            ],
            "min" : [
                -0.026149455457925797,
                -0.0028526135720312595,
                -0.004964705090969801
            ],
            "type" : "VEC3"
        },
        {
            "bufferView" : 1,
            "componentType" : 5126,
            "count" : 108,
            "type" : "VEC3"
        },
        {
            "bufferView" : 2,
            "componentType" : 5126,
            "count" : 108,
            "type" : "VEC2"
        },
        {
            "bufferView" : 3,
            "componentType" : 5123,
            "count" : 168,
            "type" : "SCALAR"
        }
    ],
    "bufferViews" : [
        {
            "buffer" : 0,
            "byteLength" : 1296,
            "byteOffset" : 0
        },
        {
            "buffer" : 0,
            "byteLength" : 1296,
            "byteOffset" : 1296
        },
        {
            "buffer" : 0,
            "byteLength" : 864,
            "byteOffset" : 2592
        },
        {
            "buffer" : 0,
            "byteLength" : 336,
            "byteOffset" : 3456
        },
        {
            "buffer" : 0,
            "byteLength" : 4651,
            "byteOffset" : 3792
        }
    ],
    "buffers" : [
        {
            "byteLength" : 8444,
            "uri" : "data:application/octet-stream;base64,"
        }
    ]
}
