{
    "asset" : {
        "generator" : "Khronos glTF Blender I/O v1.2.75",
        "version" : "2.0"
    },
    "scene" : 0,
    "scenes" : [
        {
            "name" : "Scene",
            "nodes" : [
                0
            ]
        }
    ],
    "nodes" : [
        {
            "mesh" : 0,
            "name" : "Cube"
        }
    ],
    "materials" : [
        {
            "emissiveFactor" : [
                0,
                0,
                0
            ],
            "name" : "Material.004",
            "pbrMetallicRoughness" : {
                "baseColorTexture" : {
                    "index" : 0,
                    "texCoord" : 0
                },
                "metallicFactor" : 0,
                "roughnessFactor" : 0.5
            }
        }
    ],
    "meshes" : [
        {
            "name" : "Cube",
            "primitives" : [
                {
                    "attributes" : {
                        "POSITION" : 0,
                        "NORMAL" : 1,
                        "TEXCOORD_0" : 2
                    },
                    "indices" : 3,
                    "material" : 0
                }
            ]
        }
    ],
    "textures" : [
        {
            "source" : 0
        }
    ],
    "images" : [
        {
            "bufferView" : 4,
            "mimeType" : "image/png",
            "name" : "castletexture"
        }
    ],
    "accessors" : [
        {
            "bufferView" : 0,
            "componentType" : 5126,
            "count" : 653,
            "max" : [
                0.027174798771739006,
                0.035912707448005676,
                0.01717754639685154
            ],
            "min" : [
                -0.026688456535339355,
                -0.00023447588318958879,
                -0.016431115567684174
            ],
            "type" : "VEC3"
        },
        {
            "bufferView" : 1,
            "componentType" : 5126,
            "count" : 653,
            "type" : "VEC3"
        },
        {
            "bufferView" : 2,
            "componentType" : 5126,
            "count" : 653,
            "type" : "VEC2"
        },
        {
            "bufferView" : 3,
            "componentType" : 5123,
            "count" : 906,
            "type" : "SCALAR"
        }
    ],
    "bufferViews" : [
        {
            "buffer" : 0,
            "byteLength" : 7836,
            "byteOffset" : 0
        },
        {
            "buffer" : 0,
            "byteLength" : 7836,
            "byteOffset" : 7836
        },
        {
            "buffer" : 0,
            "byteLength" : 5224,
            "byteOffset" : 15672
        },
        {
            "buffer" : 0,
            "byteLength" : 1812,
            "byteOffset" : 20896
        },
        {
            "buffer" : 0,
            "byteLength" : 4651,
            "byteOffset" : 22708
        }
    ],
    "buffers" : [
        {
            "byteLength" : 27360,
            "uri" : "data:application/octet-stream;base64,"
        }
    ]
}
