{
    "asset" : {
        "generator" : "Khronos glTF Blender I/O v1.2.75",
        "version" : "2.0"
    },
    "scene" : 0,
    "scenes" : [
        {
            "name" : "Scene",
            "nodes" : [
                0
            ]
        }
    ],
    "nodes" : [
        {
            "mesh" : 0,
            "name" : "Cube"
        }
    ],
    "materials" : [
        {
            "emissiveFactor" : [
                0,
                0,
                0
            ],
            "name" : "Material.002",
            "pbrMetallicRoughness" : {
                "baseColorTexture" : {
                    "index" : 0,
                    "texCoord" : 0
                },
                "metallicFactor" : 0,
                "roughnessFactor" : 0.5
            }
        }
    ],
    "meshes" : [
        {
            "name" : "Cube.001",
            "primitives" : [
                {
                    "attributes" : {
                        "POSITION" : 0,
                        "NORMAL" : 1,
                        "TEXCOORD_0" : 2
                    },
                    "indices" : 3,
                    "material" : 0
                }
            ]
        }
    ],
    "textures" : [
        {
            "source" : 0
        }
    ],
    "images" : [
        {
            "bufferView" : 4,
            "mimeType" : "image/png",
            "name" : "castletexture"
        }
    ],
    "accessors" : [
        {
            "bufferView" : 0,
            "componentType" : 5126,
            "count" : 430,
            "max" : [
                0.026970606297254562,
                0.029170021414756775,
                0.12237966805696487
            ],
            "min" : [
                -0.014100729487836361,
                -0.006901660934090614,
                -0.1275397688150406
            ],
            "type" : "VEC3"
        },
        {
            "bufferView" : 1,
            "componentType" : 5126,
            "count" : 430,
            "type" : "VEC3"
        },
        {
            "bufferView" : 2,
            "componentType" : 5126,
            "count" : 430,
            "type" : "VEC2"
        },
        {
            "bufferView" : 3,
            "componentType" : 5123,
            "count" : 738,
            "type" : "SCALAR"
        }
    ],
    "bufferViews" : [
        {
            "buffer" : 0,
            "byteLength" : 5160,
            "byteOffset" : 0
        },
        {
            "buffer" : 0,
            "byteLength" : 5160,
            "byteOffset" : 5160
        },
        {
            "buffer" : 0,
            "byteLength" : 3440,
            "byteOffset" : 10320
        },
        {
            "buffer" : 0,
            "byteLength" : 1476,
            "byteOffset" : 13760
        },
        {
            "buffer" : 0,
            "byteLength" : 4651,
            "byteOffset" : 15236
        }
    ],
    "buffers" : [
        {
            "byteLength" : 19888,
            "uri" : "data:application/octet-stream;base64,"
        }
    ]
}
