# Blender v2.83.5 OBJ File: 'chessboard01.blend'
# www.blender.org
mtllib chessboard01.mtl
o Cube
v 0.150050 -0.004037 -0.150050
v 0.150050 0.007389 -0.150050
v 0.150050 -0.004037 0.150050
v 0.150050 0.007389 0.150050
v -0.150050 -0.004037 -0.150050
v -0.150050 0.007389 -0.150050
v -0.150050 -0.004037 0.150050
v -0.150050 0.007389 0.150050
v 0.142247 0.010106 -0.142247
v 0.142247 0.010106 0.142247
v -0.142247 0.010106 -0.142247
v -0.142247 0.010106 0.142247
v -0.142247 0.010106 0.000000
v 0.000000 0.010106 -0.142247
v 0.000000 0.010106 0.142247
v 0.142247 0.010106 0.000000
v 0.000000 0.010106 0.000000
v -0.142247 0.010106 0.071124
v -0.071124 0.010106 -0.142247
v 0.071124 0.010106 0.142247
v 0.142247 0.010106 -0.071124
v -0.142247 0.010106 -0.071124
v 0.071124 0.010106 -0.142247
v -0.071124 0.010106 0.142247
v 0.142247 0.010106 0.071124
v 0.000000 0.010106 0.071124
v 0.000000 0.010106 -0.071124
v -0.071124 0.010106 0.000000
v 0.071124 0.010106 0.000000
v 0.071124 0.010106 -0.071124
v -0.071124 0.010106 -0.071124
v -0.071124 0.010106 0.071124
v 0.071124 0.010106 0.071124
v -0.142247 0.010106 0.106686
v -0.106686 0.010106 -0.142247
v 0.106686 0.010106 0.142247
v 0.142247 0.010106 -0.106686
v -0.142247 0.010106 -0.035562
v 0.035562 0.010106 -0.142247
v -0.035562 0.010106 0.142247
v 0.142247 0.010106 0.035562
v 0.000000 0.010106 0.106686
v 0.000000 0.010106 -0.035562
v -0.106686 0.010106 0.000000
v 0.035562 0.010106 0.000000
v -0.142247 0.010106 0.035562
v -0.035562 0.010106 -0.142247
v 0.035562 0.010106 0.142247
v 0.142247 0.010106 -0.035562
v -0.142247 0.010106 -0.106686
v 0.106686 0.010106 -0.142247
v -0.106686 0.010106 0.142247
v 0.142247 0.010106 0.106686
v 0.000000 0.010106 0.035562
v 0.000000 0.010106 -0.106686
v -0.035562 0.010106 0.000000
v 0.106686 0.010106 0.000000
v 0.071124 0.010106 -0.035562
v 0.071124 0.010106 -0.106686
v 0.035562 0.010106 -0.071124
v 0.106686 0.010106 -0.071124
v -0.071124 0.010106 -0.035562
v -0.071124 0.010106 -0.106686
v -0.106686 0.010106 -0.071124
v -0.035562 0.010106 -0.071124
v -0.071124 0.010106 0.106686
v -0.071124 0.010106 0.035562
v -0.106686 0.010106 0.071124
v -0.035562 0.010106 0.071124
v 0.071124 0.010106 0.106686
v 0.071124 0.010106 0.035562
v 0.035562 0.010106 0.071124
v 0.106686 0.010106 0.071124
v 0.106686 0.010106 0.035562
v 0.035562 0.010106 0.035562
v 0.035562 0.010106 0.106686
v -0.035562 0.010106 0.035562
v -0.106686 0.010106 0.035562
v -0.106686 0.010106 0.106686
v -0.035562 0.010106 -0.106686
v -0.106686 0.010106 -0.106686
v -0.106686 0.010106 -0.035562
v 0.106686 0.010106 -0.106686
v 0.035562 0.010106 -0.106686
v 0.035562 0.010106 -0.035562
v 0.106686 0.010106 -0.035562
v -0.035562 0.010106 -0.035562
v -0.035562 0.010106 0.106686
v 0.106686 0.010106 0.106686
vt 0.677609 0.783805
vt 0.677609 0.789473
vt 0.683277 0.789473
vt 0.683277 0.783805
vt 0.671941 0.789473
vt 0.671941 0.795141
vt 0.677609 0.795141
vt 0.671941 0.772470
vt 0.671941 0.778138
vt 0.677609 0.778138
vt 0.677609 0.772470
vt 0.671941 0.778138
vt 0.671941 0.778846
vt 0.671941 0.779555
vt 0.671941 0.780263
vt 0.671941 0.780972
vt 0.671941 0.781680
vt 0.671941 0.782389
vt 0.671941 0.783097
vt 0.671941 0.783805
vt 0.671941 0.783805
vt 0.812605 0.985750
vt 0.812605 0.990606
vt 0.817462 0.990606
vt 0.817462 0.985750
vt 0.671941 0.789473
vt 0.671941 0.790182
vt 0.671941 0.790890
vt 0.671941 0.791599
vt 0.671941 0.792307
vt 0.671941 0.793016
vt 0.671941 0.793724
vt 0.671941 0.794432
vt 0.671941 0.795141
vt 0.671941 0.772470
vt 0.671941 0.773179
vt 0.671941 0.773887
vt 0.671941 0.774595
vt 0.671941 0.775304
vt 0.671941 0.776012
vt 0.671941 0.776721
vt 0.671941 0.777429
vt 0.671941 0.784514
vt 0.671941 0.785222
vt 0.671941 0.785931
vt 0.671941 0.786639
vt 0.671941 0.787348
vt 0.671941 0.788056
vt 0.671941 0.788765
vt 0.793177 0.985750
vt 0.793177 0.990606
vt 0.798034 0.990606
vt 0.798034 0.985750
vt 0.793177 0.966322
vt 0.793177 0.971179
vt 0.798034 0.971179
vt 0.798034 0.966322
vt 0.812605 0.966322
vt 0.812605 0.971179
vt 0.817462 0.971179
vt 0.817462 0.966322
vt 0.802891 0.966322
vt 0.802891 0.971179
vt 0.807748 0.971179
vt 0.807748 0.966322
vt 0.802891 0.956608
vt 0.802891 0.961465
vt 0.807748 0.961465
vt 0.807748 0.956608
vt 0.812605 0.956608
vt 0.812605 0.961465
vt 0.817462 0.961465
vt 0.817462 0.956608
vt 0.783463 0.966322
vt 0.783463 0.971179
vt 0.788320 0.971179
vt 0.788320 0.966322
vt 0.783463 0.956608
vt 0.783463 0.961465
vt 0.788320 0.961465
vt 0.788320 0.956608
vt 0.793177 0.956608
vt 0.793177 0.961465
vt 0.798034 0.961465
vt 0.798034 0.956608
vt 0.783463 0.985750
vt 0.783463 0.990606
vt 0.788320 0.990606
vt 0.788320 0.985750
vt 0.783463 0.976036
vt 0.783463 0.980893
vt 0.788320 0.980893
vt 0.788320 0.976036
vt 0.793177 0.976036
vt 0.793177 0.980893
vt 0.798034 0.980893
vt 0.798034 0.976036
vt 0.802891 0.985750
vt 0.802891 0.990606
vt 0.807748 0.990606
vt 0.807748 0.985750
vt 0.802891 0.976036
vt 0.802891 0.980893
vt 0.807748 0.980893
vt 0.807748 0.976036
vt 0.812605 0.976036
vt 0.812605 0.980893
vt 0.817462 0.980893
vt 0.817462 0.976036
vt 0.041748 0.970036
vt 0.041748 0.974893
vt 0.046605 0.974893
vt 0.046605 0.970036
vt 0.046605 0.965179
vt 0.051462 0.970036
vt 0.051462 0.965179
vt 0.032034 0.970036
vt 0.032034 0.974893
vt 0.036891 0.974893
vt 0.036891 0.970036
vt 0.036891 0.965179
vt 0.041748 0.965179
vt 0.032034 0.979750
vt 0.032034 0.984607
vt 0.036891 0.984607
vt 0.036891 0.979750
vt 0.041748 0.979750
vt 0.022320 0.970036
vt 0.022320 0.974893
vt 0.027177 0.974893
vt 0.027177 0.970036
vt 0.027177 0.965179
vt 0.032034 0.965179
vt 0.012606 0.970036
vt 0.012606 0.974893
vt 0.017463 0.974893
vt 0.017463 0.970036
vt 0.778606 0.971179
vt 0.778606 0.976036
vt 0.017463 0.965179
vt 0.022320 0.965179
vt 0.012606 0.979750
vt 0.012606 0.984607
vt 0.017463 0.984607
vt 0.017463 0.979750
vt 0.778606 0.980893
vt 0.778606 0.985750
vt 0.022320 0.979750
vt 0.022320 0.950608
vt 0.022320 0.955465
vt 0.027177 0.955465
vt 0.027177 0.950608
vt 0.788320 0.951751
vt 0.793177 0.951751
vt 0.027177 0.945751
vt 0.032034 0.950608
vt 0.032034 0.945751
vt 0.012606 0.950608
vt 0.012606 0.955465
vt 0.017463 0.955465
vt 0.017463 0.950608
vt 0.778606 0.951751
vt 0.778606 0.956608
vt 0.783463 0.951751
vt 0.017463 0.945751
vt 0.022320 0.945751
vt 0.012606 0.960322
vt 0.012606 0.965179
vt 0.017463 0.960322
vt 0.778606 0.961465
vt 0.778606 0.966322
vt 0.022320 0.960322
vt 0.041748 0.950608
vt 0.041748 0.955465
vt 0.046605 0.955465
vt 0.046605 0.950608
vt 0.807748 0.951751
vt 0.812605 0.951751
vt 0.046605 0.945751
vt 0.051462 0.950608
vt 0.051462 0.945751
vt 0.032034 0.955465
vt 0.036891 0.955465
vt 0.036891 0.950608
vt 0.798034 0.951751
vt 0.802891 0.951751
vt 0.036891 0.945751
vt 0.041748 0.945751
vt 0.032034 0.960322
vt 0.036891 0.960322
vt 0.041748 0.960322
vt 0.046605 0.960322
vt 0.051462 0.960322
vt 0.051462 0.955465
vt 0.027177 0.960322
vt 0.022320 0.984607
vt 0.027177 0.984607
vt 0.027177 0.979750
vt 0.041748 0.984607
vt 0.046605 0.984607
vt 0.046605 0.979750
vt 0.051462 0.979750
vt 0.051462 0.974893
vn 0.0000 -1.0000 0.0000
vn 0.0000 0.0000 1.0000
vn -1.0000 0.0000 0.0000
vn 0.0000 0.9444 -0.3289
vn 1.0000 0.0000 0.0000
vn 0.0000 0.0000 -1.0000
vn 0.0000 1.0000 0.0000
vn 0.0000 0.9444 0.3289
vn -0.3289 0.9444 0.0000
vn 0.3289 0.9444 0.0000
usemtl Material
s off
f 1/1/1 3/2/1 7/3/1 5/4/1
f 4/5/2 8/6/2 7/7/2 3/2/2
f 8/8/3 6/9/3 5/10/3 7/11/3
f 6/9/4 11/12/4 35/13/4 19/14/4 47/15/4 14/16/4 39/17/4 23/18/4 51/19/4 9/20/4 2/21/4
f 2/21/5 4/5/5 3/2/5 1/1/5
f 6/9/6 2/21/6 1/1/6 5/10/6
f 89/22/7 36/23/7 10/24/7 53/25/7
f 4/5/8 10/26/8 36/27/8 20/28/8 48/29/8 15/30/8 40/31/8 24/32/8 52/33/8 12/34/8 8/6/8
f 8/8/9 12/35/9 34/36/9 18/37/9 46/38/9 13/39/9 38/40/9 22/41/9 50/42/9 11/12/9 6/9/9
f 2/21/10 9/20/10 37/43/10 21/44/10 49/45/10 16/46/10 41/47/10 25/48/10 53/49/10 10/26/10 4/5/10
f 88/50/7 40/51/7 15/52/7 42/53/7
f 87/54/7 56/55/7 17/56/7 43/57/7
f 86/58/7 57/59/7 16/60/7 49/61/7
f 85/62/7 45/63/7 29/64/7 58/65/7
f 84/66/7 60/67/7 30/68/7 59/69/7
f 83/70/7 61/71/7 21/72/7 37/73/7
f 82/74/7 44/75/7 28/76/7 62/77/7
f 81/78/7 64/79/7 31/80/7 63/81/7
f 80/82/7 65/83/7 27/84/7 55/85/7
f 79/86/7 52/87/7 24/88/7 66/89/7
f 78/90/7 68/91/7 32/92/7 67/93/7
f 77/94/7 69/95/7 26/96/7 54/97/7
f 76/98/7 48/99/7 20/100/7 70/101/7
f 75/102/7 72/103/7 33/104/7 71/105/7
f 74/106/7 73/107/7 25/108/7 41/109/7
f 71/110/7 33/111/7 73/112/7 74/113/7
f 29/64/7 71/105/7 74/106/7 57/59/7
f 57/114/7 74/113/7 41/115/7 16/116/7
f 54/117/7 26/118/7 72/119/7 75/120/7
f 17/56/7 54/97/7 75/102/7 45/63/7
f 45/121/7 75/120/7 71/110/7 29/122/7
f 42/123/7 15/124/7 48/125/7 76/126/7
f 26/96/7 42/53/7 76/98/7 72/103/7
f 72/119/7 76/126/7 70/127/7 33/111/7
f 67/128/7 32/129/7 69/130/7 77/131/7
f 28/76/7 67/93/7 77/94/7 56/55/7
f 56/132/7 77/131/7 54/117/7 17/133/7
f 46/134/7 18/135/7 68/136/7 78/137/7
f 13/138/7 46/139/7 78/90/7 44/75/7
f 44/140/7 78/137/7 67/128/7 28/141/7
f 34/142/7 12/143/7 52/144/7 79/145/7
f 18/146/7 34/147/7 79/86/7 68/91/7
f 68/136/7 79/145/7 66/148/7 32/129/7
f 63/149/7 31/150/7 65/151/7 80/152/7
f 19/153/7 63/81/7 80/82/7 47/154/7
f 47/155/7 80/152/7 55/156/7 14/157/7
f 50/158/7 22/159/7 64/160/7 81/161/7
f 11/162/7 50/163/7 81/78/7 35/164/7
f 35/165/7 81/161/7 63/149/7 19/166/7
f 38/167/7 13/168/7 44/140/7 82/169/7
f 22/170/7 38/171/7 82/74/7 64/79/7
f 64/160/7 82/169/7 62/172/7 31/150/7
f 59/173/7 30/174/7 61/175/7 83/176/7
f 23/177/7 59/69/7 83/70/7 51/178/7
f 51/179/7 83/176/7 37/180/7 9/181/7
f 55/156/7 27/182/7 60/183/7 84/184/7
f 14/185/7 55/85/7 84/66/7 39/186/7
f 39/187/7 84/184/7 59/173/7 23/188/7
f 43/189/7 17/133/7 45/121/7 85/190/7
f 27/84/7 43/57/7 85/62/7 60/67/7
f 60/183/7 85/190/7 58/191/7 30/174/7
f 58/191/7 29/122/7 57/114/7 86/192/7
f 30/68/7 58/65/7 86/58/7 61/71/7
f 61/175/7 86/192/7 49/193/7 21/194/7
f 62/172/7 28/141/7 56/132/7 87/195/7
f 31/80/7 62/77/7 87/54/7 65/83/7
f 65/151/7 87/195/7 43/189/7 27/182/7
f 66/148/7 24/196/7 40/197/7 88/198/7
f 32/92/7 66/89/7 88/50/7 69/95/7
f 69/130/7 88/198/7 42/123/7 26/118/7
f 70/127/7 20/199/7 36/200/7 89/201/7
f 33/104/7 70/101/7 89/22/7 73/107/7
f 73/112/7 89/201/7 53/202/7 25/203/7
