# Blender v2.83.5 OBJ File: 'coin02.blend'
# www.blender.org
mtllib coin02.mtl
o Cylinder_Cylinder.002
v 0.000000 -0.002255 -0.020000
v 0.000000 0.002255 -0.020000
v 0.007654 -0.002255 -0.018478
v 0.007654 0.002255 -0.018478
v 0.014142 -0.002255 -0.014142
v 0.014142 0.002255 -0.014142
v 0.018478 -0.002255 -0.007654
v 0.018478 0.002255 -0.007654
v 0.020000 -0.002255 0.000000
v 0.020000 0.002255 0.000000
v 0.018478 -0.002255 0.007654
v 0.018478 0.002255 0.007654
v 0.014142 -0.002255 0.014142
v 0.014142 0.002255 0.014142
v 0.007654 -0.002255 0.018478
v 0.007654 0.002255 0.018478
v 0.000000 -0.002255 0.020000
v 0.000000 0.002255 0.020000
v -0.007654 -0.002255 0.018478
v -0.007654 0.002255 0.018478
v -0.014142 -0.002255 0.014142
v -0.014142 0.002255 0.014142
v -0.018477 -0.002255 0.007654
v -0.018477 0.002255 0.007654
v -0.020000 -0.002255 0.000000
v -0.020000 0.002255 0.000000
v -0.018477 -0.002255 -0.007654
v -0.018477 0.002255 -0.007654
v -0.014142 -0.002255 -0.014142
v -0.014142 0.002255 -0.014142
v -0.007654 -0.002255 -0.018478
v -0.007654 0.002255 -0.018478
v 0.000000 0.002255 -0.015765
v 0.006033 0.002255 -0.014565
v 0.011148 0.002255 -0.011148
v 0.014565 0.002255 -0.006033
v 0.015765 0.002255 0.000000
v 0.014565 0.002255 0.006033
v 0.011148 0.002255 0.011148
v 0.006033 0.002255 0.014565
v 0.000000 0.002255 0.015765
v -0.006033 0.002255 0.014565
v -0.011147 0.002255 0.011148
v -0.014565 0.002255 0.006033
v -0.015765 0.002255 0.000000
v -0.014565 0.002255 -0.006033
v -0.011147 0.002255 -0.011148
v -0.006033 0.002255 -0.014565
v 0.000000 0.000503 -0.015765
v 0.006033 0.000503 -0.014565
v 0.011148 0.000503 -0.011148
v 0.014565 0.000503 -0.006033
v 0.015765 0.000503 0.000000
v 0.014565 0.000503 0.006033
v 0.011148 0.000503 0.011148
v 0.006033 0.000503 0.014565
v 0.000000 0.000503 0.015765
v -0.006033 0.000503 0.014565
v -0.011147 0.000503 0.011148
v -0.014565 0.000503 0.006033
v -0.015765 0.000503 0.000000
v -0.014565 0.000503 -0.006033
v -0.011147 0.000503 -0.011148
v -0.006033 0.000503 -0.014565
v 0.000000 -0.002255 -0.015697
v 0.006007 -0.002255 -0.014502
v 0.011100 -0.002255 -0.011100
v 0.014503 -0.002255 -0.006007
v 0.015697 -0.002255 0.000000
v 0.014503 -0.002255 0.006007
v 0.011100 -0.002255 0.011100
v 0.006007 -0.002255 0.014502
v 0.000000 -0.002255 0.015697
v -0.006007 -0.002255 0.014502
v -0.011100 -0.002255 0.011100
v -0.014502 -0.002255 0.006007
v -0.015697 -0.002255 0.000000
v -0.014502 -0.002255 -0.006007
v -0.011100 -0.002255 -0.011100
v -0.006007 -0.002255 -0.014502
v 0.000000 -0.000717 -0.015697
v 0.006007 -0.000717 -0.014502
v 0.011100 -0.000717 -0.011100
v 0.014503 -0.000717 -0.006007
v 0.015697 -0.000717 0.000000
v 0.014503 -0.000717 0.006007
v 0.011100 -0.000717 0.011100
v 0.006007 -0.000717 0.014502
v 0.000000 -0.000717 0.015697
v -0.006007 -0.000717 0.014502
v -0.011100 -0.000717 0.011100
v -0.014502 -0.000717 0.006007
v -0.015697 -0.000717 0.000000
v -0.014502 -0.000717 -0.006007
v -0.011100 -0.000717 -0.011100
v -0.006007 -0.000717 -0.014502
vt 0.484066 0.772981
vt 0.484066 0.784946
vt 0.482570 0.784946
vt 0.482570 0.772981
vt 0.481075 0.784946
vt 0.481075 0.772981
vt 0.479579 0.784946
vt 0.479579 0.772981
vt 0.478083 0.784946
vt 0.478083 0.772981
vt 0.476588 0.784946
vt 0.476588 0.772981
vt 0.475092 0.784946
vt 0.475092 0.772981
vt 0.473596 0.784946
vt 0.473596 0.772981
vt 0.472101 0.784946
vt 0.472101 0.772981
vt 0.470605 0.784946
vt 0.470605 0.772981
vt 0.469109 0.784946
vt 0.469109 0.772981
vt 0.467614 0.784946
vt 0.467614 0.772981
vt 0.466118 0.784946
vt 0.466118 0.772981
vt 0.464622 0.784946
vt 0.464622 0.772981
vt 0.463127 0.784946
vt 0.463127 0.772981
vt 0.481075 0.784946
vt 0.479579 0.784946
vt 0.461631 0.784946
vt 0.461631 0.772981
vt 0.460135 0.784946
vt 0.460135 0.772981
vt 0.475092 0.772981
vt 0.476588 0.772981
vt 0.464622 0.784946
vt 0.466118 0.784946
vt 0.466118 0.784946
vt 0.464622 0.784946
vt 0.473596 0.784946
vt 0.472101 0.784946
vt 0.484066 0.784946
vt 0.482570 0.784946
vt 0.476588 0.784946
vt 0.475092 0.784946
vt 0.469109 0.784946
vt 0.467614 0.784946
vt 0.461631 0.784946
vt 0.460135 0.784946
vt 0.478083 0.784946
vt 0.470605 0.784946
vt 0.463127 0.784946
vt 0.468316 0.772305
vt 0.466118 0.772742
vt 0.463920 0.772305
vt 0.462057 0.771060
vt 0.460812 0.769196
vt 0.460375 0.766998
vt 0.460812 0.764800
vt 0.462057 0.762937
vt 0.463920 0.761692
vt 0.466118 0.761255
vt 0.468316 0.761692
vt 0.470179 0.762937
vt 0.471424 0.764800
vt 0.471861 0.766998
vt 0.471424 0.769196
vt 0.470179 0.771060
vt 0.476588 0.784946
vt 0.475092 0.784946
vt 0.463127 0.784946
vt 0.473596 0.784946
vt 0.461631 0.784946
vt 0.472101 0.784946
vt 0.484066 0.784946
vt 0.482570 0.784946
vt 0.460135 0.784946
vt 0.470605 0.784946
vt 0.481075 0.784946
vt 0.469109 0.784946
vt 0.479579 0.784946
vt 0.467614 0.784946
vt 0.478083 0.784946
vt 0.473596 0.772981
vt 0.472101 0.772981
vt 0.472101 0.772981
vt 0.473596 0.772981
vt 0.467614 0.772981
vt 0.469109 0.772981
vt 0.460135 0.772981
vt 0.461631 0.772981
vt 0.478083 0.772981
vt 0.479579 0.772981
vt 0.470605 0.772981
vt 0.463127 0.772981
vt 0.464622 0.772981
vt 0.481075 0.772981
vt 0.482570 0.772981
vt 0.466118 0.772981
vt 0.484066 0.772981
vt 0.478083 0.772742
vt 0.480281 0.772305
vt 0.482145 0.771060
vt 0.483390 0.769196
vt 0.483827 0.766998
vt 0.483390 0.764800
vt 0.482145 0.762937
vt 0.480281 0.761692
vt 0.478083 0.761255
vt 0.475886 0.761692
vt 0.474022 0.762937
vt 0.472777 0.764800
vt 0.472340 0.766998
vt 0.472777 0.769196
vt 0.474022 0.771060
vt 0.475886 0.772305
vt 0.482570 0.772981
vt 0.484066 0.772981
vt 0.460135 0.772981
vt 0.461631 0.772981
vt 0.470605 0.772981
vt 0.481075 0.772981
vt 0.469109 0.772981
vt 0.479579 0.772981
vt 0.467614 0.772981
vt 0.478083 0.772981
vt 0.466118 0.772981
vt 0.476588 0.772981
vt 0.464622 0.772981
vt 0.475092 0.772981
vt 0.463127 0.772981
vn 0.1951 0.0000 -0.9808
vn 0.5556 0.0000 -0.8315
vn 0.8315 0.0000 -0.5556
vn 0.9808 0.0000 -0.1951
vn 0.9808 0.0000 0.1951
vn 0.8315 0.0000 0.5556
vn 0.5556 0.0000 0.8315
vn 0.1951 0.0000 0.9808
vn -0.1951 0.0000 0.9808
vn -0.5556 0.0000 0.8315
vn -0.8315 0.0000 0.5556
vn -0.9808 0.0000 0.1951
vn -0.9808 0.0000 -0.1951
vn -0.8315 0.0000 -0.5556
vn 0.0000 1.0000 0.0000
vn -0.5556 0.0000 -0.8315
vn -0.1951 0.0000 -0.9808
vn 0.0000 -1.0000 0.0000
usemtl Material.003
s off
f 1/1/1 2/2/1 4/3/1 3/4/1
f 3/4/2 4/3/2 6/5/2 5/6/2
f 5/6/3 6/5/3 8/7/3 7/8/3
f 7/8/4 8/7/4 10/9/4 9/10/4
f 9/10/5 10/9/5 12/11/5 11/12/5
f 11/12/6 12/11/6 14/13/6 13/14/6
f 13/14/7 14/13/7 16/15/7 15/16/7
f 15/16/8 16/15/8 18/17/8 17/18/8
f 17/18/9 18/17/9 20/19/9 19/20/9
f 19/20/10 20/19/10 22/21/10 21/22/10
f 21/22/11 22/21/11 24/23/11 23/24/11
f 23/24/12 24/23/12 26/25/12 25/26/12
f 25/26/13 26/25/13 28/27/13 27/28/13
f 27/28/14 28/27/14 30/29/14 29/30/14
f 8/7/15 6/5/15 35/31/15 36/32/15
f 29/30/16 30/29/16 32/33/16 31/34/16
f 31/34/17 32/33/17 2/35/17 1/36/17
f 11/12/18 13/14/18 71/37/18 70/38/18
f 46/39/5 45/40/5 61/41/5 62/42/5
f 18/17/15 16/15/15 40/43/15 41/44/15
f 4/3/15 2/2/15 33/45/15 34/46/15
f 28/27/15 26/25/15 45/40/15 46/39/15
f 14/13/15 12/11/15 38/47/15 39/48/15
f 24/23/15 22/21/15 43/49/15 44/50/15
f 2/35/15 32/33/15 48/51/15 33/52/15
f 10/9/15 8/7/15 36/32/15 37/53/15
f 20/19/15 18/17/15 41/44/15 42/54/15
f 30/29/15 28/27/15 46/39/15 47/55/15
f 6/5/15 4/3/15 34/46/15 35/31/15
f 16/15/15 14/13/15 39/48/15 40/43/15
f 26/25/15 24/23/15 44/50/15 45/40/15
f 12/11/15 10/9/15 37/53/15 38/47/15
f 22/21/15 20/19/15 42/54/15 43/49/15
f 32/33/15 30/29/15 47/55/15 48/51/15
f 50/56/15 49/57/15 64/58/15 63/59/15 62/60/15 61/61/15 60/62/15 59/63/15 58/64/15 57/65/15 56/66/15 55/67/15 54/68/15 53/69/15 52/70/15 51/71/15
f 39/48/14 38/47/14 54/72/14 55/73/14
f 47/55/6 46/39/6 62/42/6 63/74/6
f 40/43/16 39/48/16 55/73/16 56/75/16
f 48/51/7 47/55/7 63/74/7 64/76/7
f 41/44/17 40/43/17 56/75/17 57/77/17
f 34/46/9 33/45/9 49/78/9 50/79/9
f 33/52/8 48/51/8 64/76/8 49/80/8
f 42/54/1 41/44/1 57/77/1 58/81/1
f 35/31/10 34/46/10 50/79/10 51/82/10
f 43/49/2 42/54/2 58/81/2 59/83/2
f 36/32/11 35/31/11 51/82/11 52/84/11
f 44/50/3 43/49/3 59/83/3 60/85/3
f 37/53/12 36/32/12 52/84/12 53/86/12
f 45/40/4 44/50/4 60/85/4 61/41/4
f 38/47/13 37/53/13 53/86/13 54/72/13
f 72/87/17 73/88/17 89/89/17 88/90/17
f 21/22/18 23/24/18 76/91/18 75/92/18
f 31/34/18 1/36/18 65/93/18 80/94/18
f 7/8/18 9/10/18 69/95/18 68/96/18
f 17/18/18 19/20/18 74/97/18 73/88/18
f 27/28/18 29/30/18 79/98/18 78/99/18
f 3/4/18 5/6/18 67/100/18 66/101/18
f 13/14/18 15/16/18 72/87/18 71/37/18
f 23/24/18 25/26/18 77/102/18 76/91/18
f 9/10/18 11/12/18 70/38/18 69/95/18
f 19/20/18 21/22/18 75/92/18 74/97/18
f 29/30/18 31/34/18 80/94/18 79/98/18
f 5/6/18 7/8/18 68/96/18 67/100/18
f 15/16/18 17/18/18 73/88/18 72/87/18
f 25/26/18 27/28/18 78/99/18 77/102/18
f 1/1/18 3/4/18 66/101/18 65/103/18
f 81/104/18 82/105/18 83/106/18 84/107/18 85/108/18 86/109/18 87/110/18 88/111/18 89/112/18 90/113/18 91/114/18 92/115/18 93/116/18 94/117/18 95/118/18 96/119/18
f 65/103/9 66/101/9 82/120/9 81/121/9
f 80/94/8 65/93/8 81/122/8 96/123/8
f 73/88/1 74/97/1 90/124/1 89/89/1
f 66/101/10 67/100/10 83/125/10 82/120/10
f 74/97/2 75/92/2 91/126/2 90/124/2
f 67/100/11 68/96/11 84/127/11 83/125/11
f 75/92/3 76/91/3 92/128/3 91/126/3
f 68/96/12 69/95/12 85/129/12 84/127/12
f 76/91/4 77/102/4 93/130/4 92/128/4
f 69/95/13 70/38/13 86/131/13 85/129/13
f 77/102/5 78/99/5 94/132/5 93/130/5
f 70/38/14 71/37/14 87/133/14 86/131/14
f 78/99/6 79/98/6 95/134/6 94/132/6
f 71/37/16 72/87/16 88/90/16 87/133/16
f 79/98/7 80/94/7 96/123/7 95/134/7
