# Blender v2.83.5 OBJ File: 'inkcontainer.blend'
# www.blender.org
mtllib inkcontainer.mtl
o Cylinder
v 0.000000 0.031038 0.015730
v 0.000000 -0.000421 0.015730
v -0.009246 0.031038 0.012725
v -0.009246 -0.000421 0.012725
v -0.014960 0.031038 0.004861
v -0.014960 -0.000421 0.004861
v -0.014960 0.031038 -0.004861
v -0.014960 -0.000421 -0.004861
v -0.009246 0.031038 -0.012725
v -0.009246 -0.000421 -0.012725
v 0.000000 0.031038 -0.015730
v 0.000000 -0.000421 -0.015730
v 0.009246 0.031038 -0.012725
v 0.009246 -0.000421 -0.012725
v 0.014960 0.031038 -0.004861
v 0.014960 -0.000421 -0.004861
v 0.014960 0.031038 0.004861
v 0.014960 -0.000421 0.004861
v 0.009246 0.031038 0.012725
v 0.009246 -0.000421 0.012725
v -0.000000 0.032140 0.012805
v -0.007527 0.032140 0.010360
v -0.012179 0.032140 0.003957
v -0.012179 0.032140 -0.003957
v -0.007527 0.032140 -0.010360
v 0.000000 0.032140 -0.012805
v 0.007527 0.032140 -0.010360
v 0.012179 0.032140 -0.003957
v 0.012179 0.032140 0.003957
v 0.007527 0.032140 0.010360
v -0.000000 0.034323 0.012805
v -0.007527 0.034323 0.010360
v -0.012179 0.034323 0.003957
v -0.012179 0.034323 -0.003957
v -0.007527 0.034323 -0.010360
v 0.000000 0.034323 -0.012805
v 0.007527 0.034323 -0.010360
v 0.012179 0.034323 -0.003957
v 0.012179 0.034323 0.003957
v 0.007527 0.034323 0.010360
v 0.000000 0.034323 0.014841
v -0.008723 0.034323 0.012006
v -0.014114 0.034323 0.004586
v -0.014114 0.034323 -0.004586
v -0.008723 0.034323 -0.012006
v 0.000000 0.034323 -0.014841
v 0.008723 0.034323 -0.012006
v 0.014114 0.034323 -0.004586
v 0.014114 0.034323 0.004586
v 0.008723 0.034323 0.012006
v 0.000000 0.036514 0.014841
v -0.008723 0.036514 0.012006
v -0.014114 0.036514 0.004586
v -0.014114 0.036514 -0.004586
v -0.008723 0.036514 -0.012006
v 0.000000 0.036514 -0.014841
v 0.008723 0.036514 -0.012006
v 0.014114 0.036514 -0.004586
v 0.014114 0.036514 0.004586
v 0.008723 0.036514 0.012006
v -0.000000 0.036514 0.011670
v -0.006860 0.036514 0.009441
v -0.011099 0.036514 0.003606
v -0.011099 0.036514 -0.003606
v -0.006860 0.036514 -0.009441
v 0.000000 0.036514 -0.011670
v 0.006860 0.036514 -0.009441
v 0.011099 0.036514 -0.003606
v 0.011099 0.036514 0.003606
v 0.006860 0.036514 0.009441
v -0.000000 0.044909 0.012430
v -0.007306 0.044909 0.010056
v -0.011821 0.044909 0.003841
v -0.011821 0.044909 -0.003841
v -0.007306 0.044909 -0.010056
v 0.000000 0.044909 -0.012430
v 0.007306 0.044909 -0.010056
v 0.011821 0.044909 -0.003841
v 0.011821 0.044909 0.003841
v 0.007306 0.044909 0.010056
vt 0.174899 0.971045
vt 0.172387 0.971045
vt 0.172387 0.983602
vt 0.174899 0.983602
vt 0.169876 0.971045
vt 0.169876 0.983602
vt 0.167364 0.971045
vt 0.167364 0.983602
vt 0.164853 0.971045
vt 0.164853 0.983602
vt 0.162341 0.971045
vt 0.162341 0.983602
vt 0.159830 0.971045
vt 0.159830 0.983602
vt 0.157318 0.971045
vt 0.157318 0.983602
vt 0.154807 0.971045
vt 0.154807 0.983602
vt 0.159605 0.969643
vt 0.161795 0.966629
vt 0.161795 0.962904
vt 0.159605 0.959890
vt 0.156063 0.958739
vt 0.152520 0.959890
vt 0.150330 0.962904
vt 0.150330 0.966629
vt 0.152520 0.969643
vt 0.156063 0.970794
vt 0.152295 0.971045
vt 0.152295 0.983602
vt 0.149784 0.971045
vt 0.149784 0.983602
vt 0.162341 0.971045
vt 0.159830 0.971045
vt 0.167364 0.971045
vt 0.167364 0.971045
vt 0.164853 0.971045
vt 0.164853 0.971045
vt 0.174899 0.971045
vt 0.172387 0.971045
vt 0.169876 0.971045
vt 0.152295 0.971045
vt 0.149784 0.971045
vt 0.154807 0.971045
vt 0.157318 0.971045
vt 0.174899 0.971045
vt 0.174899 0.971045
vt 0.172387 0.971045
vt 0.172387 0.971045
vt 0.157318 0.971045
vt 0.154807 0.971045
vt 0.162341 0.971045
vt 0.169876 0.971045
vt 0.152295 0.971045
vt 0.159830 0.971045
vt 0.149784 0.971045
vt 0.157318 0.971045
vt 0.157318 0.971045
vt 0.154807 0.971045
vt 0.154807 0.971045
vt 0.164853 0.971045
vt 0.162341 0.971045
vt 0.169876 0.971045
vt 0.152295 0.971045
vt 0.159830 0.971045
vt 0.167364 0.971045
vt 0.149784 0.971045
vt 0.164853 0.971045
vt 0.164853 0.971045
vt 0.162341 0.971045
vt 0.162341 0.971045
vt 0.172387 0.971045
vt 0.169876 0.971045
vt 0.152295 0.971045
vt 0.159830 0.971045
vt 0.167364 0.971045
vt 0.149784 0.971045
vt 0.174899 0.971045
vt 0.356336 0.915609
vt 0.356336 0.915609
vt 0.353824 0.915609
vt 0.353824 0.915609
vt 0.172387 0.971045
vt 0.169876 0.971045
vt 0.154807 0.971045
vt 0.152295 0.971045
vt 0.159830 0.971045
vt 0.167364 0.971045
vt 0.149784 0.971045
vt 0.157318 0.971045
vt 0.174899 0.971045
vt 0.352568 0.915357
vt 0.349025 0.914206
vt 0.346836 0.911193
vt 0.346836 0.907467
vt 0.349025 0.904454
vt 0.352568 0.903302
vt 0.356111 0.904454
vt 0.358301 0.907467
vt 0.358301 0.911193
vt 0.356111 0.914206
vt 0.338755 0.915609
vt 0.338755 0.915609
vt 0.336244 0.915609
vt 0.336244 0.915609
vt 0.346290 0.915609
vt 0.346290 0.915609
vt 0.343778 0.915609
vt 0.343778 0.915609
vt 0.351313 0.915609
vt 0.351313 0.915609
vt 0.333732 0.915609
vt 0.333732 0.915609
vt 0.341267 0.915609
vt 0.341267 0.915609
vt 0.348801 0.915609
vt 0.348801 0.915609
vt 0.358847 0.915609
vt 0.358847 0.915609
vn -0.3090 0.0000 0.9511
vn -0.8090 0.0000 0.5878
vn -1.0000 0.0000 -0.0000
vn -0.8090 0.0000 -0.5878
vn -0.3090 0.0000 -0.9511
vn 0.3090 0.0000 -0.9511
vn 0.8090 0.0000 -0.5878
vn 1.0000 0.0000 0.0000
vn 0.0000 -1.0000 0.0000
vn 0.8090 0.0000 0.5878
vn 0.3090 0.0000 0.9511
vn 0.1138 0.9297 -0.3503
vn -0.1138 0.9297 -0.3503
vn -0.2980 0.9297 -0.2165
vn -0.1138 0.9297 0.3503
vn -0.3684 0.9297 0.0000
vn -0.2980 0.9297 0.2165
vn 0.1138 0.9297 0.3503
vn 0.2980 0.9297 0.2165
vn 0.3684 0.9297 0.0000
vn 0.2980 0.9297 -0.2165
vn 0.0000 1.0000 0.0000
vn -0.8060 -0.0857 0.5856
vn 0.8060 -0.0857 0.5856
vn 0.3079 -0.0857 -0.9476
vn -0.9963 -0.0857 -0.0000
vn 0.3079 -0.0857 0.9476
vn 0.8060 -0.0857 -0.5856
vn -0.8060 -0.0857 -0.5856
vn -0.3079 -0.0857 0.9476
vn 0.9963 -0.0857 0.0000
vn -0.3079 -0.0857 -0.9476
usemtl Material.002
s off
f 1/1/1 3/2/1 4/3/1 2/4/1
f 3/2/2 5/5/2 6/6/2 4/3/2
f 5/5/3 7/7/3 8/8/3 6/6/3
f 7/7/4 9/9/4 10/10/4 8/8/4
f 9/9/5 11/11/5 12/12/5 10/10/5
f 11/11/6 13/13/6 14/14/6 12/12/6
f 13/13/7 15/15/7 16/16/7 14/14/7
f 15/15/8 17/17/8 18/18/8 16/16/8
f 4/19/9 6/20/9 8/21/9 10/22/9 12/23/9 14/24/9 16/25/9 18/26/9 20/27/9 2/28/9
f 17/17/10 19/29/10 20/30/10 18/18/10
f 19/29/11 1/31/11 2/32/11 20/30/11
f 11/11/12 26/33/12 27/34/12 13/13/12
f 24/35/4 34/36/4 35/37/4 25/38/4
f 9/9/13 25/38/13 26/33/13 11/11/13
f 7/7/14 24/35/14 25/38/14 9/9/14
f 1/1/15 21/39/15 22/40/15 3/2/15
f 5/5/16 23/41/16 24/35/16 7/7/16
f 3/2/17 22/40/17 23/41/17 5/5/17
f 19/29/18 30/42/18 21/43/18 1/31/18
f 17/17/19 29/44/19 30/42/19 19/29/19
f 15/15/20 28/45/20 29/44/20 17/17/20
f 13/13/21 27/34/21 28/45/21 15/15/21
f 31/46/9 41/47/9 42/48/9 32/49/9
f 21/39/1 31/46/1 32/49/1 22/40/1
f 28/45/8 38/50/8 39/51/8 29/44/8
f 25/38/5 35/37/5 36/52/5 26/33/5
f 22/40/2 32/49/2 33/53/2 23/41/2
f 29/44/10 39/51/10 40/54/10 30/42/10
f 26/33/6 36/52/6 37/55/6 27/34/6
f 23/41/3 33/53/3 34/36/3 24/35/3
f 30/42/11 40/54/11 31/56/11 21/43/11
f 27/34/7 37/55/7 38/50/7 28/45/7
f 48/57/8 58/58/8 59/59/8 49/60/8
f 38/50/9 48/57/9 49/60/9 39/51/9
f 35/37/9 45/61/9 46/62/9 36/52/9
f 32/49/9 42/48/9 43/63/9 33/53/9
f 39/51/9 49/60/9 50/64/9 40/54/9
f 36/52/9 46/62/9 47/65/9 37/55/9
f 33/53/9 43/63/9 44/66/9 34/36/9
f 40/54/9 50/64/9 41/67/9 31/56/9
f 37/55/9 47/65/9 48/57/9 38/50/9
f 34/36/9 44/66/9 45/61/9 35/37/9
f 55/68/22 65/69/22 66/70/22 56/71/22
f 45/61/5 55/68/5 56/71/5 46/62/5
f 42/48/2 52/72/2 53/73/2 43/63/2
f 49/60/10 59/59/10 60/74/10 50/64/10
f 46/62/6 56/71/6 57/75/6 47/65/6
f 43/63/3 53/73/3 54/76/3 44/66/3
f 50/64/11 60/74/11 51/77/11 41/67/11
f 47/65/7 57/75/7 58/58/7 48/57/7
f 44/66/4 54/76/4 55/68/4 45/61/4
f 41/47/1 51/78/1 52/72/1 42/48/1
f 62/79/23 72/80/23 73/81/23 63/82/23
f 52/72/22 62/83/22 63/84/22 53/73/22
f 59/59/22 69/85/22 70/86/22 60/74/22
f 56/71/22 66/70/22 67/87/22 57/75/22
f 53/73/22 63/84/22 64/88/22 54/76/22
f 60/74/22 70/86/22 61/89/22 51/77/22
f 57/75/22 67/87/22 68/90/22 58/58/22
f 54/76/22 64/88/22 65/69/22 55/68/22
f 51/78/22 61/91/22 62/83/22 52/72/22
f 58/58/22 68/90/22 69/85/22 59/59/22
f 71/92/22 80/93/22 79/94/22 78/95/22 77/96/22 76/97/22 75/98/22 74/99/22 73/100/22 72/101/22
f 69/102/24 79/103/24 80/104/24 70/105/24
f 66/106/25 76/107/25 77/108/25 67/109/25
f 63/82/26 73/81/26 74/110/26 64/111/26
f 70/105/27 80/104/27 71/112/27 61/113/27
f 67/109/28 77/108/28 78/114/28 68/115/28
f 64/111/29 74/110/29 75/116/29 65/117/29
f 61/118/30 71/119/30 72/80/30 62/79/30
f 68/115/31 78/114/31 79/103/31 69/102/31
f 65/117/32 75/116/32 76/107/32 66/106/32
