# Blender v2.83.5 OBJ File: 'key02.blend'
# www.blender.org
mtllib key02.mtl
o Cylinder
v -0.016288 0.000442 -0.021607
v -0.016288 0.008661 -0.021607
v -0.006389 0.000442 -0.008471
v -0.006389 0.008661 -0.008471
v -0.006102 0.000442 0.007974
v -0.006102 0.008661 0.007974
v -0.015537 0.000442 0.021447
v -0.015537 0.008661 0.021447
v -0.031089 0.000442 0.026802
v -0.031089 0.008661 0.026802
v -0.046818 0.000442 0.021993
v -0.046818 0.008661 0.021993
v -0.056716 0.000442 0.008857
v -0.056716 0.008661 0.008857
v -0.057004 0.000442 -0.007588
v -0.057004 0.008661 -0.007588
v -0.047569 0.000442 -0.021061
v -0.047569 0.008661 -0.021061
v -0.032017 0.000442 -0.026416
v -0.032017 0.008661 -0.026416
v -0.021444 0.008661 -0.014245
v -0.014888 0.008661 -0.005545
v -0.014698 0.008661 0.005346
v -0.020946 0.008661 0.014269
v -0.031245 0.008661 0.017815
v -0.041662 0.008661 0.014631
v -0.048218 0.008661 0.005931
v -0.048408 0.008661 -0.004960
v -0.042160 0.008661 -0.013883
v -0.031861 0.008661 -0.017430
v -0.021444 0.000462 -0.014245
v -0.014888 0.000462 -0.005545
v -0.014698 0.000462 0.005346
v -0.020946 0.000462 0.014269
v -0.031245 0.000462 0.017815
v -0.041662 0.000462 0.014631
v -0.048218 0.000462 0.005931
v -0.048408 0.000462 -0.004960
v -0.042160 0.000462 -0.013883
v -0.031861 0.000462 -0.017430
v 0.065504 0.000442 -0.009726
v 0.065504 0.008661 -0.009726
v 0.065791 0.000442 0.006719
v 0.065791 0.008661 0.006719
v 0.029557 0.008661 -0.009099
v 0.011584 0.008661 -0.008785
v 0.047530 0.008661 -0.009413
v 0.002597 0.008661 -0.008628
v 0.038544 0.008661 -0.009256
v 0.020570 0.008661 -0.008942
v 0.056517 0.008661 -0.009570
v 0.029557 0.000442 -0.009099
v 0.011584 0.000442 -0.008785
v 0.047530 0.000442 -0.009413
v 0.002597 0.000442 -0.008628
v 0.038544 0.000442 -0.009256
v 0.020570 0.000442 -0.008942
v 0.056517 0.000442 -0.009570
v 0.065204 0.000442 -0.016978
v 0.065204 0.008661 -0.016978
v 0.056218 0.008661 -0.016821
v 0.056218 0.000442 -0.016821
v 0.020415 0.000442 -0.017844
v 0.029402 0.000442 -0.018001
v 0.020415 0.008661 -0.017844
v 0.029402 0.008661 -0.018001
v 0.029327 0.008661 -0.026090
v 0.038313 0.008661 -0.026247
v 0.029327 0.000442 -0.026090
v 0.038313 0.000442 -0.026247
v 0.047148 0.008661 -0.031301
v 0.056135 0.008661 -0.031458
v 0.047148 0.000442 -0.031301
v 0.056135 0.000442 -0.031458
vt 0.499422 0.766289
vt 0.499422 0.785711
vt 0.495538 0.785711
vt 0.495538 0.766289
vt 0.491653 0.785711
vt 0.491653 0.785711
vt 0.495538 0.785711
vt 0.495538 0.785711
vt 0.495538 0.785711
vt 0.495538 0.785711
vt 0.495538 0.785711
vt 0.495538 0.785711
vt 0.495538 0.785711
vt 0.495538 0.785711
vt 0.491653 0.766289
vt 0.487769 0.785711
vt 0.487769 0.766289
vt 0.483884 0.785711
vt 0.483884 0.766289
vt 0.480000 0.785711
vt 0.480000 0.766289
vt 0.476116 0.785711
vt 0.476116 0.766289
vt 0.472231 0.785711
vt 0.472231 0.766289
vt 0.468347 0.785711
vt 0.468347 0.766289
vt 0.472231 0.785711
vt 0.468347 0.785711
vt 0.464462 0.785711
vt 0.464462 0.766289
vt 0.460578 0.785711
vt 0.460578 0.766289
vt 0.480000 0.785711
vt 0.483884 0.785711
vt 0.483884 0.785711
vt 0.487769 0.785711
vt 0.487769 0.785711
vt 0.476116 0.785711
vt 0.480000 0.785711
vt 0.499422 0.785711
vt 0.495538 0.785711
vt 0.491653 0.785711
vt 0.464462 0.785711
vt 0.460578 0.785711
vt 0.499422 0.785711
vt 0.495538 0.785711
vt 0.472231 0.785711
vt 0.468347 0.785711
vt 0.491653 0.785711
vt 0.464462 0.785711
vt 0.476116 0.785711
vt 0.460578 0.785711
vt 0.495538 0.766289
vt 0.491653 0.766289
vt 0.495538 0.766289
vt 0.495538 0.785711
vt 0.495538 0.766289
vt 0.495538 0.766289
vt 0.495538 0.766289
vt 0.495538 0.766289
vt 0.495538 0.766289
vt 0.495538 0.766289
vt 0.495538 0.766289
vt 0.495538 0.766289
vt 0.495538 0.785711
vt 0.495538 0.766289
vt 0.495538 0.766289
vt 0.495538 0.785711
vt 0.495538 0.766289
vt 0.495538 0.766289
vt 0.495538 0.785711
vt 0.495538 0.766289
vt 0.495538 0.785711
vt 0.495538 0.785711
vt 0.495538 0.785711
vt 0.495538 0.785711
vt 0.495538 0.766289
vn 0.7986 0.0000 -0.6018
vn 0.0000 1.0000 -0.0000
vn 0.8192 0.0000 0.5736
vn 0.3256 0.0000 0.9455
vn -0.2924 0.0000 0.9563
vn -0.7986 0.0000 0.6018
vn -0.9998 0.0000 0.0175
vn -0.8192 0.0000 -0.5736
vn -0.3256 0.0000 -0.9455
vn 0.2924 0.0000 -0.9563
vn 0.0007 -1.0000 -0.0022
vn -0.0007 -1.0000 -0.0022
vn 0.9998 0.0000 -0.0175
vn 0.0018 -1.0000 -0.0014
vn 0.0023 -1.0000 -0.0000
vn 0.0019 -1.0000 0.0013
vn 0.0007 -1.0000 0.0022
vn -0.0007 -1.0000 0.0022
vn -0.0018 -1.0000 0.0014
vn -0.0023 -1.0000 0.0000
vn -0.0019 -1.0000 -0.0013
vn 0.9991 0.0000 -0.0412
vn 0.0175 0.0000 0.9998
vn 0.0000 -1.0000 0.0000
vn -0.0175 0.0000 -0.9998
vn -0.9991 0.0000 0.0412
vn 0.9999 0.0000 -0.0136
vn -0.9999 0.0000 0.0136
usemtl Material.001
s off
f 1/1/1 2/2/1 4/3/1 3/4/1
f 4/3/2 6/5/2 44/6/2 42/7/2 51/8/2 47/9/2 49/10/2 45/11/2 50/12/2 46/13/2 48/14/2
f 5/15/3 6/5/3 8/16/3 7/17/3
f 7/17/4 8/16/4 10/18/4 9/19/4
f 9/19/5 10/18/5 12/20/5 11/21/5
f 11/21/6 12/20/6 14/22/6 13/23/6
f 13/23/7 14/22/7 16/24/7 15/25/7
f 15/25/8 16/24/8 18/26/8 17/27/8
f 18/26/2 16/24/2 28/28/2 29/29/2
f 17/27/9 18/26/9 20/30/9 19/31/9
f 19/31/10 20/30/10 2/32/10 1/33/10
f 9/19/11 11/21/11 36/34/11 35/35/11
f 25/36/9 24/37/9 34/38/9 35/35/9
f 16/24/2 14/22/2 27/39/2 28/28/2
f 14/22/2 12/20/2 26/40/2 27/39/2
f 12/20/2 10/18/2 25/36/2 26/40/2
f 10/18/2 8/16/2 24/37/2 25/36/2
f 4/3/2 2/2/2 21/41/2 22/42/2
f 8/16/2 6/5/2 23/43/2 24/37/2
f 6/5/2 4/3/2 22/42/2 23/43/2
f 2/32/2 20/30/2 30/44/2 21/45/2
f 20/30/2 18/26/2 29/29/2 30/44/2
f 7/17/12 9/19/12 35/35/12 34/38/12
f 22/42/6 21/41/6 31/46/6 32/47/6
f 29/29/3 28/28/3 38/48/3 39/49/3
f 26/40/10 25/36/10 35/35/10 36/34/10
f 23/43/7 22/42/7 32/47/7 33/50/7
f 30/44/4 29/29/4 39/49/4 40/51/4
f 27/39/1 26/40/1 36/34/1 37/52/1
f 24/37/8 23/43/8 33/50/8 34/38/8
f 21/45/5 30/44/5 40/51/5 31/53/5
f 28/28/13 27/39/13 37/52/13 38/48/13
f 11/21/14 13/23/14 37/52/14 36/34/14
f 13/23/15 15/25/15 38/48/15 37/52/15
f 15/25/16 17/27/16 39/49/16 38/48/16
f 17/27/17 19/31/17 40/51/17 39/49/17
f 19/31/18 1/33/18 31/53/18 40/51/18
f 1/33/19 3/4/19 32/47/19 31/53/19
f 3/4/20 5/15/20 33/50/20 32/47/20
f 5/15/21 7/17/21 34/38/21 33/50/21
f 41/54/13 42/7/13 44/6/13 43/55/13
f 42/7/22 41/54/22 59/56/22 60/57/22
f 6/5/23 5/15/23 43/55/23 44/6/23
f 5/15/24 3/4/24 55/58/24 53/59/24 57/60/24 52/61/24 56/62/24 54/63/24 58/64/24 41/54/24 43/55/24
f 51/8/13 58/64/13 74/65/13 72/66/13
f 56/62/25 49/10/25 47/9/25 54/63/25
f 56/62/24 52/61/24 69/67/24 70/68/24
f 57/60/7 50/12/7 65/69/7 63/70/7
f 53/59/25 46/13/25 50/12/25 57/60/25
f 55/58/25 48/14/25 46/13/25 53/59/25
f 3/4/25 4/3/25 48/14/25 55/58/25
f 62/71/25 61/72/25 60/57/25 59/56/25
f 58/64/26 51/8/26 61/72/26 62/71/26
f 51/8/2 42/7/2 60/57/2 61/72/2
f 41/54/24 58/64/24 62/71/24 59/56/24
f 52/61/24 57/60/24 63/70/24 64/73/24
f 63/70/25 65/69/25 66/74/25 64/73/25
f 50/12/2 45/11/2 66/74/2 65/69/2
f 45/11/13 52/61/13 64/73/13 66/74/13
f 69/67/25 67/75/25 68/76/25 70/68/25
f 49/10/27 56/62/27 70/68/27 68/76/27
f 52/61/28 45/11/28 67/75/28 69/67/28
f 45/11/2 49/10/2 68/76/2 67/75/2
f 71/77/25 72/66/25 74/65/25 73/78/25
f 54/63/7 47/9/7 71/77/7 73/78/7
f 47/9/2 51/8/2 72/66/2 71/77/2
f 58/64/24 54/63/24 73/78/24 74/65/24
