# Blender v2.83.5 OBJ File: 'key03.blend'
# www.blender.org
mtllib key03.mtl
o Cylinder
v -0.016288 0.000442 -0.021552
v -0.016288 0.008661 -0.021552
v -0.006389 0.000442 -0.008416
v -0.006389 0.008661 -0.008416
v -0.006102 0.000442 0.008029
v -0.006102 0.008661 0.008029
v -0.015537 0.000442 0.021503
v -0.015537 0.008661 0.021503
v -0.031089 0.000442 0.026858
v -0.031089 0.008661 0.026858
v -0.046818 0.000442 0.022049
v -0.046818 0.008661 0.022049
v -0.056716 0.000442 0.008913
v -0.056716 0.008661 0.008913
v -0.057004 0.000442 -0.007533
v -0.057004 0.008661 -0.007533
v -0.047569 0.000442 -0.021006
v -0.047569 0.008661 -0.021006
v -0.032017 0.000442 -0.026361
v -0.032017 0.008661 -0.026361
v -0.021444 0.008661 -0.014189
v -0.014888 0.008661 -0.005490
v -0.014698 0.008661 0.005402
v -0.020946 0.008661 0.014325
v -0.031245 0.008661 0.017871
v -0.041662 0.008661 0.014686
v -0.048218 0.008661 0.005987
v -0.048408 0.008661 -0.004905
v -0.042160 0.008661 -0.013828
v -0.031861 0.008661 -0.017374
v -0.021444 0.000462 -0.014189
v -0.014888 0.000462 -0.005490
v -0.014698 0.000462 0.005402
v -0.020946 0.000462 0.014325
v -0.031245 0.000462 0.017871
v -0.041662 0.000462 0.014686
v -0.048218 0.000462 0.005987
v -0.048408 0.000462 -0.004905
v -0.042160 0.000462 -0.013828
v -0.031861 0.000462 -0.017374
v 0.065504 0.000442 -0.009671
v 0.065504 0.008661 -0.009671
v 0.065791 0.000442 0.006775
v 0.065791 0.008661 0.006775
v 0.029557 0.008661 -0.009044
v 0.011584 0.008661 -0.008730
v 0.047530 0.008661 -0.009357
v 0.002597 0.008661 -0.008573
v 0.038544 0.008661 -0.009200
v 0.020570 0.008661 -0.008887
v 0.056517 0.008661 -0.009514
v 0.029557 0.000442 -0.009044
v 0.011584 0.000442 -0.008730
v 0.047530 0.000442 -0.009357
v 0.002597 0.000442 -0.008573
v 0.038544 0.000442 -0.009200
v 0.020570 0.000442 -0.008887
v 0.056517 0.000442 -0.009514
v 0.038255 0.000442 -0.025721
v 0.029269 0.000442 -0.025564
v 0.038255 0.008661 -0.025721
v 0.029269 0.008661 -0.025564
v 0.056412 0.000442 -0.015551
v 0.047425 0.000442 -0.015394
v 0.056412 0.008661 -0.015551
v 0.047425 0.008661 -0.015394
vt 0.430127 0.768809
vt 0.430127 0.788231
vt 0.426242 0.788231
vt 0.426242 0.768809
vt 0.422358 0.788231
vt 0.422358 0.788231
vt 0.426242 0.788231
vt 0.426242 0.788231
vt 0.426242 0.788231
vt 0.426242 0.788231
vt 0.426242 0.788231
vt 0.426242 0.788231
vt 0.426242 0.788231
vt 0.426242 0.788231
vt 0.422358 0.768809
vt 0.418473 0.788231
vt 0.418473 0.768809
vt 0.414589 0.788231
vt 0.414589 0.768809
vt 0.410704 0.788231
vt 0.410704 0.768809
vt 0.406820 0.788231
vt 0.406820 0.768809
vt 0.402935 0.788231
vt 0.402935 0.768809
vt 0.399051 0.788231
vt 0.399051 0.768809
vt 0.402935 0.788231
vt 0.399051 0.788231
vt 0.395166 0.788231
vt 0.395166 0.768809
vt 0.391282 0.788231
vt 0.391282 0.768809
vt 0.410704 0.788231
vt 0.414589 0.788231
vt 0.414589 0.788231
vt 0.418473 0.788231
vt 0.418473 0.788231
vt 0.406820 0.788231
vt 0.410704 0.788231
vt 0.430127 0.788231
vt 0.426242 0.788231
vt 0.422358 0.788231
vt 0.395166 0.788231
vt 0.391282 0.788231
vt 0.430127 0.788231
vt 0.426242 0.788231
vt 0.402935 0.788231
vt 0.399051 0.788231
vt 0.422358 0.788231
vt 0.395166 0.788231
vt 0.406820 0.788231
vt 0.391282 0.788231
vt 0.426242 0.768809
vt 0.422358 0.768809
vt 0.426242 0.768809
vt 0.426242 0.768809
vt 0.426242 0.768809
vt 0.426242 0.768809
vt 0.426242 0.768809
vt 0.426242 0.768809
vt 0.426242 0.768809
vt 0.426242 0.768809
vt 0.426242 0.768809
vt 0.426242 0.768809
vt 0.426242 0.788231
vt 0.426242 0.788231
vt 0.426242 0.788231
vt 0.426242 0.788231
vt 0.426242 0.768809
vn 0.7986 0.0000 -0.6018
vn 0.0000 1.0000 -0.0000
vn 0.8192 0.0000 0.5736
vn 0.3256 0.0000 0.9455
vn -0.2924 0.0000 0.9563
vn -0.7986 0.0000 0.6018
vn -0.9998 0.0000 0.0175
vn -0.8192 0.0000 -0.5736
vn -0.3256 0.0000 -0.9455
vn 0.2924 0.0000 -0.9563
vn 0.0007 -1.0000 -0.0022
vn -0.0007 -1.0000 -0.0022
vn 0.9998 0.0000 -0.0175
vn 0.0018 -1.0000 -0.0014
vn 0.0023 -1.0000 -0.0000
vn 0.0019 -1.0000 0.0013
vn 0.0007 -1.0000 0.0022
vn -0.0007 -1.0000 0.0022
vn -0.0018 -1.0000 0.0014
vn -0.0023 -1.0000 0.0000
vn -0.0019 -1.0000 -0.0013
vn 0.0175 0.0000 0.9998
vn 0.0000 -1.0000 0.0000
vn -0.0175 0.0000 -0.9998
usemtl Material.001
s off
f 1/1/1 2/2/1 4/3/1 3/4/1
f 4/3/2 6/5/2 44/6/2 42/7/2 51/8/2 47/9/2 49/10/2 45/11/2 50/12/2 46/13/2 48/14/2
f 5/15/3 6/5/3 8/16/3 7/17/3
f 7/17/4 8/16/4 10/18/4 9/19/4
f 9/19/5 10/18/5 12/20/5 11/21/5
f 11/21/6 12/20/6 14/22/6 13/23/6
f 13/23/7 14/22/7 16/24/7 15/25/7
f 15/25/8 16/24/8 18/26/8 17/27/8
f 18/26/2 16/24/2 28/28/2 29/29/2
f 17/27/9 18/26/9 20/30/9 19/31/9
f 19/31/10 20/30/10 2/32/10 1/33/10
f 9/19/11 11/21/11 36/34/11 35/35/11
f 25/36/9 24/37/9 34/38/9 35/35/9
f 16/24/2 14/22/2 27/39/2 28/28/2
f 14/22/2 12/20/2 26/40/2 27/39/2
f 12/20/2 10/18/2 25/36/2 26/40/2
f 10/18/2 8/16/2 24/37/2 25/36/2
f 4/3/2 2/2/2 21/41/2 22/42/2
f 8/16/2 6/5/2 23/43/2 24/37/2
f 6/5/2 4/3/2 22/42/2 23/43/2
f 2/32/2 20/30/2 30/44/2 21/45/2
f 20/30/2 18/26/2 29/29/2 30/44/2
f 7/17/12 9/19/12 35/35/12 34/38/12
f 22/42/6 21/41/6 31/46/6 32/47/6
f 29/29/3 28/28/3 38/48/3 39/49/3
f 26/40/10 25/36/10 35/35/10 36/34/10
f 23/43/7 22/42/7 32/47/7 33/50/7
f 30/44/4 29/29/4 39/49/4 40/51/4
f 27/39/1 26/40/1 36/34/1 37/52/1
f 24/37/8 23/43/8 33/50/8 34/38/8
f 21/45/5 30/44/5 40/51/5 31/53/5
f 28/28/13 27/39/13 37/52/13 38/48/13
f 11/21/14 13/23/14 37/52/14 36/34/14
f 13/23/15 15/25/15 38/48/15 37/52/15
f 15/25/16 17/27/16 39/49/16 38/48/16
f 17/27/17 19/31/17 40/51/17 39/49/17
f 19/31/18 1/33/18 31/53/18 40/51/18
f 1/33/19 3/4/19 32/47/19 31/53/19
f 3/4/20 5/15/20 33/50/20 32/47/20
f 5/15/21 7/17/21 34/38/21 33/50/21
f 41/54/13 42/7/13 44/6/13 43/55/13
f 6/5/22 5/15/22 43/55/22 44/6/22
f 5/15/23 3/4/23 55/56/23 53/57/23 57/58/23 52/59/23 56/60/23 54/61/23 58/62/23 41/54/23 43/55/23
f 56/60/23 52/59/23 60/63/23 59/64/23
f 56/60/24 49/10/24 47/9/24 54/61/24
f 51/8/13 58/62/13 63/65/13 65/66/13
f 53/57/24 46/13/24 50/12/24 57/58/24
f 55/56/24 48/14/24 46/13/24 53/57/24
f 3/4/24 4/3/24 48/14/24 55/56/24
f 52/59/7 45/11/7 62/67/7 60/63/7
f 45/11/2 49/10/2 61/68/2 62/67/2
f 62/67/24 61/68/24 59/64/24 60/63/24
f 54/61/7 47/9/7 66/69/7 64/70/7
f 47/9/2 51/8/2 65/66/2 66/69/2
f 49/10/13 56/60/13 59/64/13 61/68/13
f 41/54/24 58/62/24 51/8/24 42/7/24
f 58/62/23 54/61/23 64/70/23 63/65/23
f 66/69/24 65/66/24 63/65/24 64/70/24
f 50/12/24 45/11/24 52/59/24 57/58/24
