# Blender v2.83.5 OBJ File: 'letteropener01.blend'
# www.blender.org
mtllib letteropener01.mtl
o Cylinder
v 0.075897 0.006833 0.003776
v 0.062588 0.003112 0.005237
v 0.075897 0.006978 -0.004126
v 0.062588 0.003314 -0.005723
v 0.075897 0.012668 -0.009611
v 0.062588 0.011206 -0.013331
v 0.075897 0.020569 -0.009466
v 0.062588 0.022166 -0.013130
v 0.075897 0.026054 -0.003776
v 0.062588 0.029774 -0.005237
v 0.075897 0.025909 0.004126
v 0.062588 0.029573 0.005723
v 0.075897 0.020219 0.009611
v 0.062588 0.021681 0.013331
v 0.075897 0.012317 0.009465
v 0.062588 0.010720 0.013130
v 0.077302 0.011425 0.001972
v 0.077302 0.011500 -0.002155
v 0.077302 0.014472 -0.005019
v 0.077302 0.018598 -0.004943
v 0.077302 0.021462 -0.001972
v 0.077302 0.021386 0.002155
v 0.077302 0.018415 0.005019
v 0.077302 0.014289 0.004943
v 0.047829 0.006007 0.004100
v 0.047829 0.006164 -0.004481
v 0.047829 0.012343 -0.010437
v 0.047829 0.020924 -0.010279
v 0.047829 0.026880 -0.004100
v 0.047829 0.026722 0.004481
v 0.047829 0.020544 0.010437
v 0.047829 0.011963 0.010279
v 0.024991 0.008923 0.002955
v 0.024991 0.009036 -0.003229
v 0.024991 0.013489 -0.007521
v 0.024991 0.019672 -0.007407
v 0.024991 0.023964 -0.002955
v 0.024991 0.023850 0.003229
v 0.024991 0.019398 0.007521
v 0.024991 0.013215 0.007407
v -0.009274 0.009903 0.002570
v -0.009274 0.010002 -0.002808
v -0.009274 0.013874 -0.006540
v -0.009274 0.019251 -0.006442
v -0.009274 0.022984 -0.002570
v -0.009274 0.022885 0.002808
v -0.009274 0.019013 0.006540
v -0.009274 0.013635 0.006442
v -0.014597 0.012252 0.003364
v -0.014597 0.012315 -0.003676
v -0.014597 0.014797 -0.008563
v -0.014597 0.018243 -0.008434
v -0.014597 0.020635 -0.003364
v -0.014597 0.020571 0.003676
v -0.014597 0.018090 0.008563
v -0.014597 0.014644 0.008434
v -0.020241 0.014509 0.001553
v -0.020241 0.014538 -0.001697
v -0.020241 0.014797 -0.008563
v -0.020241 0.018243 -0.008434
v -0.020241 0.017722 -0.001553
v -0.020241 0.017693 0.001697
v -0.020241 0.018090 0.008563
v -0.020241 0.014644 0.008434
v -0.117878 0.015637 0.000647
v -0.117878 0.015650 -0.000707
v -0.117878 0.015757 -0.003567
v -0.117878 0.017193 -0.003513
v -0.117878 0.016593 -0.000647
v -0.117878 0.016581 0.000707
v -0.117878 0.017129 0.003567
v -0.117878 0.015694 0.003513
v -0.126617 0.016128 0.000253
v -0.126617 0.016132 -0.000277
v -0.126617 0.016175 -0.001397
v -0.126617 0.016737 -0.001376
v -0.126617 0.016372 -0.000253
v -0.126617 0.016368 0.000277
v -0.126617 0.016712 0.001397
v -0.126617 0.016150 0.001376
vt 0.558997 0.774814
vt 0.558997 0.788190
vt 0.555654 0.788190
vt 0.555654 0.774814
vt 0.552310 0.788190
vt 0.552310 0.774814
vt 0.548966 0.788190
vt 0.548966 0.774814
vt 0.545622 0.788190
vt 0.545622 0.774814
vt 0.542278 0.788190
vt 0.542278 0.774814
vt 0.538934 0.788190
vt 0.538934 0.774814
vt 0.545622 0.788190
vt 0.542278 0.788190
vt 0.535591 0.788190
vt 0.535591 0.774814
vt 0.532247 0.788190
vt 0.532247 0.774814
vt 0.545622 0.774814
vt 0.548966 0.774814
vt 0.552310 0.774547
vt 0.556849 0.772667
vt 0.558730 0.768127
vt 0.556849 0.763587
vt 0.552310 0.761707
vt 0.547770 0.763587
vt 0.545890 0.768127
vt 0.547770 0.772667
vt 0.535591 0.774814
vt 0.538934 0.774814
vt 0.552310 0.774814
vt 0.555654 0.774814
vt 0.542278 0.774814
vt 0.532247 0.774814
vt 0.558997 0.774814
vt 0.532247 0.788190
vt 0.535591 0.788190
vt 0.535591 0.788190
vt 0.532247 0.788190
vt 0.558997 0.788190
vt 0.555654 0.788190
vt 0.552310 0.788190
vt 0.548966 0.788190
vt 0.538934 0.788190
vt 0.548966 0.788190
vt 0.552310 0.788190
vt 0.552310 0.788190
vt 0.548966 0.788190
vt 0.542278 0.788190
vt 0.538934 0.788190
vt 0.545622 0.788190
vt 0.555654 0.788190
vt 0.558997 0.788190
vt 0.467872 0.781252
vt 0.470681 0.781252
vt 0.470681 0.781252
vt 0.467872 0.781252
vt 0.558997 0.788190
vt 0.555654 0.788190
vt 0.535591 0.788190
vt 0.532247 0.788190
vt 0.542278 0.788190
vt 0.538934 0.788190
vt 0.545622 0.788190
vt 0.476299 0.781252
vt 0.479108 0.781252
vt 0.479108 0.781252
vt 0.476299 0.781252
vt 0.473490 0.781252
vt 0.476299 0.781252
vt 0.473490 0.781252
vt 0.479108 0.781252
vt 0.481917 0.781252
vt 0.481917 0.781252
vt 0.484726 0.781252
vt 0.487535 0.781252
vt 0.487535 0.781252
vt 0.484726 0.781252
vt 0.465063 0.781252
vt 0.465063 0.781252
vt 0.465063 0.781252
vt 0.467872 0.781252
vt 0.467872 0.781252
vt 0.465063 0.781252
vt 0.484726 0.781252
vt 0.481917 0.781252
vt 0.470681 0.781252
vt 0.473490 0.781252
vt 0.487535 0.781252
vt 0.473490 0.781252
vt 0.476299 0.781252
vt 0.476299 0.781252
vt 0.473490 0.781252
vt 0.470681 0.781252
vt 0.479108 0.781252
vt 0.484726 0.781252
vt 0.481917 0.781252
vt 0.487535 0.781252
vt 0.474495 0.768212
vt 0.470681 0.769791
vt 0.466868 0.768212
vt 0.465288 0.764398
vt 0.466868 0.760585
vt 0.470681 0.759005
vt 0.474495 0.760585
vt 0.476074 0.764398
vt 0.481917 0.781252
vt 0.479108 0.781252
vt 0.487535 0.781252
vt 0.484726 0.781252
vt 0.467872 0.781252
vt 0.465063 0.781252
vt 0.470681 0.781252
vn 0.2674 -0.9634 -0.0177
vn 0.2674 -0.6687 -0.6938
vn 0.2674 0.0177 -0.9634
vn 0.2674 0.6938 -0.6687
vn 0.2674 0.9634 0.0177
vn 0.2674 0.6687 0.6938
vn -0.1911 0.9814 0.0180
vn 0.2674 -0.0177 0.9634
vn 0.2674 -0.6938 0.6687
vn 0.9556 0.2121 -0.2044
vn 1.0000 -0.0000 0.0000
vn 0.9556 -0.0054 0.2945
vn 0.9556 -0.2044 -0.2121
vn 0.9556 0.2945 0.0054
vn 0.9556 -0.2121 0.2044
vn 0.9556 -0.2945 -0.0054
vn 0.9556 0.0054 -0.2945
vn 0.9556 0.2044 0.2121
vn -0.1257 -0.7143 0.6885
vn -0.1911 -0.7067 0.6812
vn -0.1911 -0.9814 -0.0180
vn -0.1911 0.0180 -0.9814
vn -0.1911 0.6812 0.7067
vn -0.1911 0.7067 -0.6812
vn -0.1911 -0.0180 0.9814
vn -0.1911 -0.6812 -0.7067
vn -0.0284 0.0184 -0.9994
vn -0.1257 0.6885 0.7143
vn -0.1257 0.7143 -0.6885
vn -0.1257 -0.6885 -0.7143
vn -0.1257 -0.0182 0.9919
vn -0.1257 0.9919 0.0182
vn -0.1257 0.0182 -0.9919
vn -0.1257 -0.9919 -0.0182
vn 0.3526 -0.0242 0.9355
vn -0.0284 -0.9994 -0.0184
vn -0.0284 -0.7197 0.6937
vn -0.0284 0.6937 0.7197
vn -0.0284 0.7197 -0.6937
vn -0.0284 -0.6937 -0.7197
vn -0.0284 -0.0184 0.9994
vn -0.0284 0.9994 0.0184
vn -0.2694 0.9514 -0.1490
vn -0.4011 0.9159 0.0119
vn 0.3526 0.0242 -0.9355
vn -0.4011 -0.9159 -0.0119
vn -0.1116 -0.8199 0.5616
vn -0.0833 0.8021 0.5913
vn -0.1116 0.8199 -0.5616
vn -0.0833 -0.8021 -0.5913
vn -0.0117 -0.9997 0.0197
vn -0.2256 -0.9488 -0.2212
vn 0.0000 -0.0375 0.9993
vn -0.4565 0.8897 0.0080
vn 0.0000 0.0375 -0.9993
vn -0.3689 -0.9294 -0.0084
vn -0.2230 -0.9537 0.2017
vn -0.2711 0.9478 0.1681
vn -0.0248 0.9997 0.0090
vn -0.0076 0.9953 -0.0968
vn -0.0077 0.9934 0.1143
vn -0.0118 -0.9992 -0.0377
vn -0.0507 -0.0374 0.9980
vn -0.0115 0.9999 0.0090
vn -0.0507 0.0374 -0.9980
vn -0.0115 -0.9999 -0.0090
vn -1.0000 0.0000 0.0000
vn -0.2392 0.0364 -0.9703
vn -0.0556 -0.9984 -0.0090
vn -0.0569 -0.9982 0.0197
vn -0.0026 0.9757 -0.2189
vn -0.0036 0.9720 0.2350
vn -0.0570 -0.9977 -0.0376
vn -0.2392 -0.0364 0.9703
usemtl Material.001
s off
f 1/1/1 2/2/1 4/3/1 3/4/1
f 3/4/2 4/3/2 6/5/2 5/6/2
f 5/6/3 6/5/3 8/7/3 7/8/3
f 7/8/4 8/7/4 10/9/4 9/10/4
f 9/10/5 10/9/5 12/11/5 11/12/5
f 11/12/6 12/11/6 14/13/6 13/14/6
f 12/11/7 10/9/7 29/15/7 30/16/7
f 13/14/8 14/13/8 16/17/8 15/18/8
f 15/18/9 16/17/9 2/19/9 1/20/9
f 7/8/10 9/10/10 21/21/10 20/22/10
f 17/23/11 18/24/11 19/25/11 20/26/11 21/27/11 22/28/11 23/29/11 24/30/11
f 13/14/12 15/18/12 24/31/12 23/32/12
f 3/4/13 5/6/13 19/33/13 18/34/13
f 9/10/14 11/12/14 22/35/14 21/21/14
f 15/18/15 1/20/15 17/36/15 24/31/15
f 1/1/16 3/4/16 18/34/16 17/37/16
f 5/6/17 7/8/17 20/22/17 19/33/17
f 11/12/18 13/14/18 23/32/18 22/35/18
f 25/38/19 32/39/19 40/40/19 33/41/19
f 2/19/20 16/17/20 32/39/20 25/38/20
f 4/3/21 2/2/21 25/42/21 26/43/21
f 8/7/22 6/5/22 27/44/22 28/45/22
f 14/13/23 12/11/23 30/16/23 31/46/23
f 10/9/24 8/7/24 28/45/24 29/15/24
f 16/17/25 14/13/25 31/46/25 32/39/25
f 6/5/26 4/3/26 26/43/26 27/44/26
f 36/47/27 35/48/27 43/49/27 44/50/27
f 31/46/28 30/16/28 38/51/28 39/52/28
f 29/15/29 28/45/29 36/47/29 37/53/29
f 27/44/30 26/43/30 34/54/30 35/48/30
f 32/39/31 31/46/31 39/52/31 40/40/31
f 30/16/32 29/15/32 37/53/32 38/51/32
f 28/45/33 27/44/33 35/48/33 36/47/33
f 26/43/34 25/42/34 33/55/34 34/54/34
f 48/56/35 47/57/35 55/58/35 56/59/35
f 34/54/36 33/55/36 41/60/36 42/61/36
f 33/41/37 40/40/37 48/62/37 41/63/37
f 39/52/38 38/51/38 46/64/38 47/65/38
f 37/53/39 36/47/39 44/50/39 45/66/39
f 35/48/40 34/54/40 42/61/40 43/49/40
f 40/40/41 39/52/41 47/65/41 48/62/41
f 38/51/42 37/53/42 45/66/42 46/64/42
f 53/67/43 52/68/43 60/69/43 61/70/43
f 46/71/44 45/72/44 53/67/44 54/73/44
f 44/74/45 43/75/45 51/76/45 52/68/45
f 42/77/46 41/78/46 49/79/46 50/80/46
f 41/81/47 48/56/47 56/59/47 49/82/47
f 47/57/48 46/71/48 54/73/48 55/58/48
f 45/72/49 44/74/49 52/68/49 53/67/49
f 43/75/50 42/77/50 50/80/50 51/76/50
f 57/83/51 64/84/51 72/85/51 65/86/51
f 51/76/52 50/80/52 58/87/52 59/88/52
f 56/59/53 55/58/53 63/89/53 64/84/53
f 54/73/54 53/67/54 61/70/54 62/90/54
f 52/68/55 51/76/55 59/88/55 60/69/55
f 50/80/56 49/79/56 57/91/56 58/87/56
f 49/82/57 56/59/57 64/84/57 57/83/57
f 55/58/58 54/73/58 62/90/58 63/89/58
f 70/92/59 69/93/59 77/94/59 78/95/59
f 63/89/60 62/90/60 70/92/60 71/96/60
f 61/70/61 60/69/61 68/97/61 69/93/61
f 59/88/62 58/87/62 66/98/62 67/99/62
f 64/84/63 63/89/63 71/96/63 72/85/63
f 62/90/64 61/70/64 69/93/64 70/92/64
f 60/69/65 59/88/65 67/99/65 68/97/65
f 58/87/66 57/91/66 65/100/66 66/98/66
f 74/101/67 73/102/67 80/103/67 79/104/67 78/105/67 77/106/67 76/107/67 75/108/67
f 68/97/68 67/99/68 75/109/68 76/110/68
f 66/98/69 65/100/69 73/111/69 74/112/69
f 65/86/70 72/85/70 80/113/70 73/114/70
f 71/96/71 70/92/71 78/95/71 79/115/71
f 69/93/72 68/97/72 76/110/72 77/94/72
f 67/99/73 66/98/73 74/112/73 75/109/73
f 72/85/74 71/96/74 79/115/74 80/113/74
