# Blender v2.83.5 OBJ File: 'letter02.blend'
# www.blender.org
mtllib letter02.mtl
o Cube_Cube.001
v -0.063223 0.001351 0.036372
v -0.063223 -0.000027 0.036372
v -0.063223 0.001351 -0.039947
v -0.063223 -0.000027 -0.039947
v 0.063223 0.001351 0.036372
v 0.063223 -0.000027 0.036372
v 0.063223 0.001351 -0.039947
v 0.063223 -0.000027 -0.039947
v -0.062403 0.003628 0.035451
v -0.062403 0.003628 -0.039026
v 0.062403 0.003628 0.035451
v 0.062403 0.003628 -0.039026
v -0.055473 -0.000993 0.030888
v -0.055473 -0.000993 -0.034462
v 0.055473 -0.000993 0.030888
v 0.055473 -0.000993 -0.034462
v -0.006635 0.010991 0.080206
v 0.006635 0.010991 0.080206
v -0.022064 0.006560 0.016566
v 0.022064 0.006560 0.016566
v -0.061694 0.003628 0.035451
v 0.061694 0.003628 0.035451
vt 0.800095 0.945779
vt 0.800095 0.957070
vt 0.811386 0.957070
vt 0.811386 0.945779
vt 0.800095 0.968361
vt 0.811386 0.968361
vt 0.800095 0.979651
vt 0.811386 0.979651
vt 0.800095 0.990942
vt 0.811386 0.990942
vt 0.739774 0.970127
vt 0.739774 0.970127
vt 0.739774 0.972950
vt 0.739774 0.978595
vt 0.739774 0.981418
vt 0.739774 0.981418
vt 0.811386 0.979651
vt 0.811386 0.968361
vt 0.595142 0.966773
vt 0.595142 0.978064
vt 0.600787 0.978064
vt 0.603610 0.978064
vt 0.606433 0.978064
vt 0.606433 0.966773
vt 0.666754 0.961832
vt 0.666754 0.961832
vt 0.666754 0.973123
vt 0.666754 0.973123
vt 0.666754 0.950541
vt 0.666754 0.950541
vt 0.666754 0.984414
vt 0.666754 0.984414
vt 0.822677 0.979651
vt 0.822677 0.968361
vt 0.811386 0.957070
vt 0.811386 0.945779
vt 0.811386 0.990942
vt 0.739774 0.981418
vt 0.739774 0.970127
vt 0.655463 0.973123
vt 0.655463 0.973123
vt 0.666754 0.973123
vn -1.0000 0.0000 0.0000
vn 0.0000 0.0000 -1.0000
vn 1.0000 0.0000 0.0000
vn 0.0000 0.0000 1.0000
vn 0.0000 0.3748 0.9271
vn 0.1236 -0.9923 0.0000
vn 0.0000 1.0000 -0.0000
vn 0.0000 0.3748 -0.9271
vn -0.9409 0.3387 0.0000
vn 0.9409 0.3387 0.0000
vn 0.0000 -1.0000 0.0000
vn -0.1236 -0.9923 0.0000
vn 0.0000 -0.9848 0.1734
vn 0.0000 -0.9848 -0.1734
vn 0.0000 0.9867 -0.1623
vn 0.0000 0.9986 -0.0527
vn 0.0000 -0.9867 0.1623
usemtl Material.002
s off
f 1/1/1 3/2/1 4/3/1 2/4/1
f 3/2/2 7/5/2 8/6/2 4/3/2
f 7/5/3 5/7/3 6/8/3 8/6/3
f 5/7/4 1/9/4 2/10/4 6/8/4
f 5/11/5 11/12/5 22/13/5 21/14/5 9/15/5 1/16/5
f 6/8/6 15/17/6 16/18/6 8/6/6
f 10/19/7 9/20/7 21/21/7 22/22/7 11/23/7 12/24/7
f 3/25/8 10/26/8 12/27/8 7/28/8
f 1/29/9 9/30/9 10/26/9 3/25/9
f 7/28/10 12/27/10 11/31/10 5/32/10
f 16/18/11 15/17/11 13/33/11 14/34/11
f 4/3/12 14/35/12 13/36/12 2/4/12
f 2/10/13 13/37/13 15/17/13 6/8/13
f 8/6/14 16/18/14 14/35/14 4/3/14
f 9/15/15 17/38/15 18/39/15 11/12/15 22/13/15 21/14/15
f 10/40/16 19/41/16 20/42/16 12/27/16
f 21/14/17 22/13/17 18/39/17 17/38/17
