# Blender v2.83.5 OBJ File: 'matchbox02.blend'
# www.blender.org
mtllib matchbox02.mtl
o Cube
v 0.011850 0.010849 -0.020000
v 0.011850 -0.010849 -0.020000
v 0.011850 0.010849 0.020000
v 0.011850 -0.010849 0.020000
v -0.058150 0.010849 -0.020000
v -0.058150 -0.010849 -0.020000
v -0.058150 0.010849 0.020000
v -0.058150 -0.010849 0.020000
v 0.008723 0.010849 -0.018213
v 0.008723 0.010849 0.018213
v -0.055023 0.010849 -0.018213
v -0.055023 0.010849 0.018213
v 0.011850 0.010079 -0.019386
v 0.011850 -0.009891 -0.019386
v 0.011850 0.010079 0.019386
v 0.011850 -0.009891 0.019386
v 0.043606 0.010079 -0.019386
v 0.043606 -0.009891 -0.019386
v 0.043606 0.010079 0.019386
v 0.043606 -0.009891 0.019386
v 0.011693 0.010079 -0.017639
v 0.011693 0.010079 0.017639
v 0.041879 0.010079 -0.017639
v 0.041879 0.010079 0.017639
v 0.011693 -0.008702 -0.017639
v 0.011693 -0.008702 0.017639
v 0.041879 -0.008702 -0.017639
v 0.041879 -0.008702 0.017639
v -0.020415 0.010079 -0.017639
v -0.020415 0.010079 0.017639
v -0.020415 -0.008702 -0.017639
v -0.020415 -0.008702 0.017639
v -0.056946 -0.006256 0.020000
v -0.056946 0.006256 0.020000
v 0.010646 0.006256 0.020000
v 0.010646 -0.006256 0.020000
vt 0.550132 0.784000
vt 0.550132 0.775736
vt 0.550132 0.775736
vt 0.550132 0.784000
vt 0.550132 0.767472
vt 0.541868 0.767472
vt 0.541868 0.767472
vt 0.550132 0.767472
vt 0.541868 0.775736
vt 0.533604 0.784000
vt 0.541868 0.784000
vt 0.541868 0.792264
vt 0.533604 0.792264
vt 0.550132 0.792264
vt 0.541868 0.792264
vt 0.550132 0.792264
vt 0.354132 0.892000
vt 0.362396 0.892000
vt 0.362396 0.900264
vt 0.354132 0.900264
vt 0.550132 0.800529
vt 0.550132 0.792264
vt 0.550132 0.800529
vt 0.550132 0.767472
vt 0.357868 0.978264
vt 0.357868 0.970000
vt 0.357868 0.970000
vt 0.357868 0.978264
vt 0.550132 0.784000
vt 0.541868 0.784000
vt 0.349868 0.958000
vt 0.358132 0.958000
vt 0.358132 0.966264
vt 0.349868 0.966264
vt 0.366132 0.978264
vt 0.366132 0.978264
vt 0.366132 0.978264
vt 0.366132 0.978264
vt 0.366132 0.970000
vt 0.366132 0.970000
vt 0.550132 0.784000
vt 0.550132 0.792264
vt 0.550132 0.792264
vt 0.550132 0.784000
vt 0.358132 0.958000
vt 0.358132 0.966264
vt 0.366132 0.970000
vt 0.366132 0.970000
vt 0.366132 0.970000
vt 0.366132 0.978264
vt 0.366132 0.978264
vt 0.366132 0.970000
vt 0.358132 0.958000
vt 0.358132 0.966264
vt 0.362132 0.964000
vt 0.362132 0.972264
vt 0.362132 0.972264
vt 0.362132 0.964000
vt 0.366132 0.978264
vt 0.366132 0.978264
vt 0.366132 0.970000
vt 0.366132 0.970000
vt 0.165868 0.970264
vt 0.174132 0.970264
vt 0.174132 0.978528
vt 0.165868 0.978528
vt 0.541868 0.792264
vt 0.533604 0.792264
vt 0.550132 0.800529
vt 0.550132 0.792264
vn 0.0000 1.0000 0.0000
vn 0.0000 0.0000 1.0000
vn -1.0000 0.0000 0.0000
vn 0.0000 -1.0000 0.0000
vn 1.0000 0.0000 0.0000
vn 0.0000 0.0000 -1.0000
usemtl Material
s off
f 1/1/1 5/2/1 11/3/1 9/4/1
f 7/5/2 8/6/2 33/7/2 34/8/2
f 8/6/3 7/5/3 5/2/3 6/9/3
f 6/10/4 2/11/4 4/12/4 8/13/4
f 3/14/5 4/12/5 16/15/5 15/16/5
f 6/9/6 5/2/6 1/1/6 2/11/6
f 9/17/1 11/18/1 12/19/1 10/20/1
f 7/21/1 3/14/1 10/22/1 12/23/1
f 5/2/1 7/5/1 12/24/1 11/3/1
f 3/14/1 1/1/1 9/4/1 10/22/1
f 16/25/4 14/26/4 18/27/4 20/28/4
f 2/11/5 1/1/5 13/29/5 14/30/5
f 4/12/5 2/11/5 14/30/5 16/15/5
f 1/1/5 3/14/5 15/16/5 13/29/5
f 18/31/5 17/32/5 19/33/5 20/34/5
f 15/35/2 16/25/2 20/28/2 19/36/2
f 15/35/1 19/36/1 24/37/1 22/38/1
f 14/26/6 13/39/6 17/40/6 18/27/6
f 21/41/4 22/42/4 30/43/4 29/44/4
f 19/33/1 17/32/1 23/45/1 24/46/1
f 17/40/1 13/39/1 21/47/1 23/48/1
f 13/29/4 15/16/4 22/42/4 21/41/4
f 25/49/1 26/50/1 28/51/1 27/52/1
f 23/48/2 21/47/2 25/49/2 27/52/2
f 24/46/3 23/45/3 27/53/3 28/54/3
f 22/38/6 24/37/6 28/51/6 26/50/6
f 29/55/5 30/56/5 32/57/5 31/58/5
f 22/38/6 26/50/6 32/59/6 30/60/6
f 26/50/1 25/49/1 31/61/1 32/59/1
f 25/49/2 21/47/2 29/62/2 31/61/2
f 36/63/2 35/64/2 34/65/2 33/66/2
f 8/13/2 4/12/2 36/67/2 33/68/2
f 3/14/2 7/21/2 34/69/2 35/70/2
f 4/12/2 3/14/2 35/70/2 36/67/2
