# Blender v2.83.5 OBJ File: 'match02.blend'
# www.blender.org
mtllib match02.mtl
o Cube_Cube.002
v -0.026149 -0.002853 0.002853
v -0.026149 0.002853 0.002853
v -0.026149 -0.002853 -0.002853
v -0.026149 0.002853 -0.002853
v -0.015128 -0.001424 0.000338
v -0.015128 0.002819 0.000338
v -0.015128 -0.001424 -0.003905
v -0.015128 0.002819 -0.003905
v 0.000416 0.001786 -0.002277
v 0.000416 -0.001981 -0.002277
v 0.000416 -0.001981 0.001490
v 0.000416 0.001786 0.001490
v 0.012762 0.003211 -0.004965
v 0.012762 -0.000134 -0.004965
v 0.012762 -0.000134 -0.001620
v 0.012762 0.003211 -0.001620
v 0.019324 0.001477 -0.001827
v 0.019324 -0.001868 -0.001827
v 0.019324 -0.001868 0.001518
v 0.019324 0.001477 0.001518
v 0.019324 0.001477 -0.001827
v 0.019324 -0.001868 -0.001827
v 0.019324 -0.001868 0.001518
v 0.019324 0.001477 0.001518
v 0.020237 0.001811 -0.002114
v 0.020237 -0.002444 -0.002114
v 0.020237 -0.002444 0.002140
v 0.020237 0.001811 0.002140
v 0.026238 0.000991 -0.001294
v 0.026238 -0.001624 -0.001294
v 0.026238 -0.001624 0.001320
v 0.026238 0.000991 0.001320
vt 0.090795 0.889132
vt 0.097816 0.889132
vt 0.097816 0.896153
vt 0.090795 0.896153
vt 0.097816 0.903175
vt 0.090795 0.903175
vt 0.044954 0.959093
vt 0.044954 0.991423
vt 0.044954 0.991423
vt 0.044954 0.959093
vt 0.090795 0.910196
vt 0.097816 0.910196
vt 0.097816 0.917217
vt 0.090795 0.917217
vt 0.083773 0.903175
vt 0.083773 0.910196
vt 0.104838 0.903175
vt 0.104838 0.910196
vt 0.044954 0.991423
vt 0.044954 0.959093
vt 0.012625 0.959093
vt 0.012625 0.959093
vt 0.012625 0.991423
vt 0.012625 0.991423
vt 0.012625 0.991423
vt 0.012625 0.991423
vt 0.044954 0.991423
vt 0.012625 0.959093
vt 0.044954 0.959093
vt 0.044954 0.991423
vt 0.044954 0.959093
vt 0.012625 0.959093
vt 0.012625 0.959093
vt 0.044954 0.959093
vt 0.012625 0.959093
vt 0.012625 0.991423
vt 0.044954 0.991423
vt 0.012625 0.991423
vt 0.012625 0.991423
vt 0.044954 0.991423
vt 0.012625 0.959093
vt 0.044954 0.959093
vn -1.0000 0.0000 0.0000
vn -0.0951 0.0000 -0.9955
vn 0.0663 0.9978 0.0000
vn 0.2225 0.0000 0.9749
vn 0.1285 -0.9917 0.0000
vn 0.0031 1.0000 0.0000
vn -0.1146 0.9934 0.0000
vn 0.1042 0.0000 -0.9946
vn -0.0739 0.0000 0.9973
vn -0.0358 -0.9994 0.0000
vn -0.4315 0.0000 0.9021
vn -0.2127 0.0000 -0.9771
vn 0.2442 0.0000 0.9697
vn 0.1479 -0.9890 0.0000
vn 0.0000 0.0000 1.0000
vn -0.2555 -0.9668 0.0000
vn 0.2555 0.9668 0.0000
vn 0.4315 0.0000 -0.9021
vn -0.3003 0.0000 -0.9538
vn 0.1354 0.0000 0.9908
vn -0.5631 0.0000 0.8264
vn -0.5332 -0.8460 0.0000
vn -0.3437 0.9391 0.0000
vn 1.0000 0.0000 0.0000
vn 0.1354 -0.9908 0.0000
vn 0.1354 0.9908 0.0000
vn 0.1354 0.0000 -0.9908
usemtl Material.002
s off
f 1/1/1 2/2/1 4/3/1 3/4/1
f 3/4/2 4/3/2 8/5/2 7/6/2
f 8/7/3 6/8/3 12/9/3 9/10/3
f 5/11/4 6/12/4 2/13/4 1/14/4
f 3/15/5 7/6/5 5/11/5 1/16/5
f 8/5/6 4/17/6 2/18/6 6/12/6
f 9/10/7 12/9/7 16/19/7 13/20/7
f 7/21/8 8/7/8 9/10/8 10/22/8
f 6/8/9 5/23/9 11/24/9 12/9/9
f 5/23/10 7/21/10 10/22/10 11/24/10
f 16/19/11 15/25/11 19/26/11 20/27/11
f 10/22/12 9/10/12 13/20/12 14/28/12
f 12/9/13 11/24/13 15/25/13 16/19/13
f 11/24/14 10/22/14 14/28/14 15/25/14
f 17/29/15 20/27/15 24/30/15 21/31/15
f 15/25/16 14/28/16 18/32/16 19/26/16
f 13/20/17 16/19/17 20/27/17 17/29/17
f 14/28/18 13/20/18 17/29/18 18/32/18
f 22/33/19 21/31/19 25/34/19 26/35/19
f 18/32/15 17/29/15 21/31/15 22/33/15
f 20/27/15 19/26/15 23/36/15 24/30/15
f 19/26/15 18/32/15 22/33/15 23/36/15
f 28/37/20 27/38/20 31/39/20 32/40/20
f 24/30/21 23/36/21 27/38/21 28/37/21
f 23/36/22 22/33/22 26/35/22 27/38/22
f 21/31/23 24/30/23 28/37/23 25/34/23
f 30/41/24 29/42/24 32/40/24 31/39/24
f 27/38/25 26/35/25 30/41/25 31/39/25
f 25/34/26 28/37/26 32/40/26 29/42/26
f 26/35/27 25/34/27 29/42/27 30/41/27
