# Blender v2.83.5 OBJ File: 'matchbox01.blend'
# www.blender.org
mtllib matchbox01.mtl
o Cube
v 0.035000 0.010849 -0.020000
v 0.035000 -0.010849 -0.020000
v 0.035000 0.010849 0.020000
v 0.035000 -0.010849 0.020000
v -0.035000 0.010849 -0.020000
v -0.035000 -0.010849 -0.020000
v -0.035000 0.010849 0.020000
v -0.035000 -0.010849 0.020000
v 0.031873 0.010849 -0.018213
v 0.031873 0.010849 0.018213
v -0.031873 0.010849 -0.018213
v -0.031873 0.010849 0.018213
v 0.035000 0.010079 -0.019386
v 0.035000 -0.009891 -0.019386
v 0.035000 0.010079 0.019386
v 0.035000 -0.009891 0.019386
v 0.033837 0.006711 0.020000
v 0.033837 -0.006711 0.020000
v -0.033837 0.006711 0.020000
v -0.033837 -0.006711 0.020000
vt 0.550132 0.784000
vt 0.550132 0.775736
vt 0.550132 0.775736
vt 0.550132 0.784000
vt 0.550132 0.767472
vt 0.541868 0.767472
vt 0.541868 0.767472
vt 0.550132 0.767472
vt 0.541868 0.775736
vt 0.533604 0.784000
vt 0.541868 0.784000
vt 0.541868 0.792264
vt 0.533604 0.792264
vt 0.550132 0.792264
vt 0.541868 0.792264
vt 0.550132 0.792264
vt 0.354132 0.892000
vt 0.362396 0.892000
vt 0.362396 0.900264
vt 0.354132 0.900264
vt 0.550132 0.800529
vt 0.550132 0.792264
vt 0.550132 0.800529
vt 0.550132 0.767472
vt 0.349868 0.958000
vt 0.358132 0.958000
vt 0.358132 0.966264
vt 0.349868 0.966264
vt 0.550132 0.784000
vt 0.541868 0.784000
vt 0.156028 0.971375
vt 0.164293 0.971375
vt 0.164293 0.979639
vt 0.156028 0.979639
vt 0.541868 0.792264
vt 0.533604 0.792264
vt 0.550132 0.800529
vt 0.550132 0.792264
vn 0.0000 1.0000 0.0000
vn 0.0000 0.0000 1.0000
vn -1.0000 0.0000 0.0000
vn 0.0000 -1.0000 0.0000
vn 1.0000 0.0000 0.0000
vn 0.0000 0.0000 -1.0000
usemtl Material
s off
f 1/1/1 5/2/1 11/3/1 9/4/1
f 7/5/2 8/6/2 20/7/2 19/8/2
f 8/6/3 7/5/3 5/2/3 6/9/3
f 6/10/4 2/11/4 4/12/4 8/13/4
f 3/14/5 4/12/5 16/15/5 15/16/5
f 6/9/6 5/2/6 1/1/6 2/11/6
f 9/17/1 11/18/1 12/19/1 10/20/1
f 7/21/1 3/14/1 10/22/1 12/23/1
f 5/2/1 7/5/1 12/24/1 11/3/1
f 3/14/1 1/1/1 9/4/1 10/22/1
f 14/25/5 13/26/5 15/27/5 16/28/5
f 2/11/5 1/1/5 13/29/5 14/30/5
f 4/12/5 2/11/5 14/30/5 16/15/5
f 1/1/5 3/14/5 15/16/5 13/29/5
f 18/31/2 17/32/2 19/33/2 20/34/2
f 8/13/2 4/12/2 18/35/2 20/36/2
f 3/14/2 7/21/2 19/37/2 17/38/2
f 4/12/2 3/14/2 17/38/2 18/35/2
