# Blender v2.83.5 OBJ File: 'nail03.blend'
# www.blender.org
mtllib nail03.mtl
o Cube_Cube.001
v -0.000114 0.057469 -0.005386
v -0.000114 0.058822 -0.005386
v 0.004929 0.057469 -0.001722
v 0.004929 0.058822 -0.001722
v 0.002361 0.057339 0.003920
v 0.002361 0.058692 0.003920
v -0.003230 0.057469 0.004206
v -0.003230 0.058822 0.004206
v -0.004580 0.057548 -0.001706
v -0.004580 0.058665 -0.001706
v -0.000186 0.057476 -0.002426
v 0.002022 0.057476 -0.000821
v 0.000302 0.057478 0.001626
v -0.001551 0.057476 0.001775
v -0.002125 0.057525 -0.000841
v -0.000000 -0.001270 -0.001130
v 0.001074 -0.001270 -0.000349
v 0.000664 -0.001270 0.000914
v -0.000664 -0.001270 0.000914
v -0.001074 -0.001270 -0.000349
vt 0.115386 0.964531
vt 0.115386 0.981410
vt 0.108635 0.981410
vt 0.108635 0.964531
vt 0.101883 0.981410
vt 0.101883 0.964531
vt 0.095131 0.981410
vt 0.095131 0.964531
vt 0.097773 0.958596
vt 0.090068 0.964194
vt 0.082362 0.958596
vt 0.085305 0.949537
vt 0.094830 0.949537
vt 0.088380 0.981410
vt 0.088380 0.964531
vt 0.081628 0.981410
vt 0.081628 0.964531
vt 0.101883 0.964531
vt 0.108635 0.964531
vt 0.088380 0.964531
vt 0.081628 0.964531
vt 0.081628 0.964531
vt 0.088380 0.964531
vt 0.115386 0.964531
vt 0.095131 0.964531
vt 0.106947 0.964194
vt 0.114652 0.958596
vt 0.111709 0.949537
vt 0.102184 0.949537
vt 0.099241 0.958596
vt 0.095131 0.964531
vt 0.101883 0.964531
vt 0.108635 0.964531
vt 0.115386 0.964531
vn 0.5878 0.0000 -0.8090
vn 0.9102 0.0000 0.4142
vn 0.0511 0.0000 0.9987
vn -0.0060 1.0000 0.0047
vn -0.9749 0.0000 0.2226
vn -0.6358 0.0000 -0.7718
vn -0.0215 -0.9994 -0.0271
vn -0.6175 -0.0185 -0.7863
vn -0.0156 -0.9999 0.0053
vn -0.0015 -1.0000 0.0020
vn -0.0188 -0.9994 -0.0291
vn -0.0090 -0.9999 -0.0129
vn 0.0000 -1.0000 -0.0000
vn 0.0467 -0.0129 0.9988
vn 0.5877 -0.0160 -0.8089
vn -0.9692 -0.0167 0.2458
vn 0.8671 -0.0053 0.4980
usemtl Material.001
s off
f 1/1/1 2/2/1 4/3/1 3/4/1
f 3/4/2 4/3/2 6/5/2 5/6/2
f 5/6/3 6/5/3 8/7/3 7/8/3
f 4/9/4 2/10/4 10/11/4 8/12/4 6/13/4
f 7/8/5 8/7/5 10/14/5 9/15/5
f 9/15/6 10/14/6 2/16/6 1/17/6
f 3/4/7 5/6/7 13/18/7 12/19/7
f 15/20/8 11/21/8 16/22/8 20/23/8
f 9/15/9 1/17/9 11/21/9 15/20/9
f 1/1/10 3/4/10 12/19/10 11/24/10
f 5/6/11 7/8/11 14/25/11 13/18/11
f 7/8/12 9/15/12 15/20/12 14/25/12
f 16/26/13 17/27/13 18/28/13 19/29/13 20/30/13
f 13/18/14 14/25/14 19/31/14 18/32/14
f 11/24/15 12/19/15 17/33/15 16/34/15
f 14/25/16 15/20/16 20/23/16 19/31/16
f 12/19/17 13/18/17 18/32/17 17/33/17
