# Blender v2.83.5 OBJ File: 'nail02.blend'
# www.blender.org
mtllib nail02.mtl
o Cube_Cube.001
v -0.000000 0.056797 -0.013522
v -0.000000 0.060246 -0.013522
v 0.012860 0.056797 -0.004178
v 0.012860 0.060246 -0.004178
v 0.006312 0.056466 0.010210
v 0.006312 0.059915 0.010210
v -0.007948 0.056797 0.010939
v -0.007948 0.060246 0.010939
v -0.011391 0.056997 -0.004138
v -0.011391 0.059847 -0.004138
v -0.000184 0.056813 -0.005973
v 0.005448 0.056813 -0.001881
v 0.001059 0.056819 0.004361
v -0.003665 0.056813 0.004740
v -0.005129 0.056938 -0.001932
v -0.000000 -0.001270 -0.001668
v 0.001587 -0.001270 -0.000516
v 0.000981 -0.001270 0.001350
v -0.000981 -0.001270 0.001350
v -0.001587 -0.001270 -0.000516
vt 0.108952 0.965036
vt 0.108952 0.978195
vt 0.103688 0.978195
vt 0.103688 0.965036
vt 0.098425 0.978195
vt 0.098425 0.965036
vt 0.093161 0.978195
vt 0.093161 0.965036
vt 0.095221 0.960408
vt 0.089213 0.964772
vt 0.083206 0.960408
vt 0.085501 0.953346
vt 0.092926 0.953346
vt 0.087897 0.978195
vt 0.087897 0.965036
vt 0.082634 0.978195
vt 0.082634 0.965036
vt 0.098425 0.965036
vt 0.103688 0.965036
vt 0.087897 0.965036
vt 0.082634 0.965036
vt 0.082634 0.965036
vt 0.087897 0.965036
vt 0.108952 0.965036
vt 0.093161 0.965036
vt 0.102372 0.964772
vt 0.108380 0.960408
vt 0.106085 0.953346
vt 0.098660 0.953346
vt 0.096365 0.960408
vt 0.093161 0.965036
vt 0.098425 0.965036
vt 0.103688 0.965036
vt 0.108952 0.965036
vn 0.5878 0.0000 -0.8090
vn 0.9102 0.0000 0.4142
vn 0.0511 0.0000 0.9987
vn -0.0060 1.0000 0.0047
vn -0.9749 0.0000 0.2226
vn -0.6358 0.0000 -0.7718
vn -0.0215 -0.9994 -0.0271
vn -0.6221 -0.0583 -0.7808
vn -0.0156 -0.9999 0.0053
vn -0.0015 -1.0000 0.0020
vn -0.0188 -0.9994 -0.0291
vn -0.0090 -0.9999 -0.0129
vn 0.0000 -1.0000 0.0000
vn 0.0566 -0.0537 0.9970
vn 0.5868 -0.0580 -0.8077
vn -0.9705 -0.0559 0.2345
vn 0.8508 -0.0363 0.5242
usemtl Material.001
s off
f 1/1/1 2/2/1 4/3/1 3/4/1
f 3/4/2 4/3/2 6/5/2 5/6/2
f 5/6/3 6/5/3 8/7/3 7/8/3
f 4/9/4 2/10/4 10/11/4 8/12/4 6/13/4
f 7/8/5 8/7/5 10/14/5 9/15/5
f 9/15/6 10/14/6 2/16/6 1/17/6
f 3/4/7 5/6/7 13/18/7 12/19/7
f 15/20/8 11/21/8 16/22/8 20/23/8
f 9/15/9 1/17/9 11/21/9 15/20/9
f 1/1/10 3/4/10 12/19/10 11/24/10
f 5/6/11 7/8/11 14/25/11 13/18/11
f 7/8/12 9/15/12 15/20/12 14/25/12
f 16/26/13 17/27/13 18/28/13 19/29/13 20/30/13
f 13/18/14 14/25/14 19/31/14 18/32/14
f 11/24/15 12/19/15 17/33/15 16/34/15
f 14/25/16 15/20/16 20/23/16 19/31/16
f 12/19/17 13/18/17 18/32/17 17/33/17
