# Blender v2.83.5 OBJ File: 'neddle02.blend'
# www.blender.org
mtllib neddle02.mtl
o Cube_Cube.002
v 0.000226 0.000320 -0.000377
v 0.000226 -0.000096 -0.000377
v 0.000226 0.000320 0.000567
v 0.000226 -0.000096 0.000567
v -0.000399 0.000320 -0.000377
v -0.000399 -0.000096 -0.000377
v -0.000718 0.000320 0.000567
v -0.000718 -0.000096 0.000567
v -0.000409 0.000228 -0.000614
v -0.000409 -0.000027 -0.000614
v -0.001080 0.000228 -0.000278
v -0.001080 -0.000027 -0.000278
v -0.000392 0.000228 -0.000939
v -0.000392 -0.000027 -0.000939
v -0.001170 0.000228 -0.000955
v -0.001170 -0.000027 -0.000955
v -0.000434 0.000228 -0.001312
v -0.000434 -0.000027 -0.001312
v -0.001099 0.000228 -0.001656
v -0.001099 -0.000027 -0.001656
v -0.000389 0.000229 -0.001367
v -0.000389 -0.000029 -0.001367
v -0.000614 0.000229 -0.001952
v -0.000614 -0.000029 -0.001952
v 0.004818 0.000197 -0.000582
v 0.004818 0.000004 -0.000582
v 0.004798 0.000197 -0.001018
v 0.004798 0.000004 -0.001018
v 0.007021 0.000157 -0.000104
v 0.007021 0.000044 -0.000104
v 0.007009 0.000157 -0.000359
v 0.007009 0.000044 -0.000359
v 0.006041 0.000320 0.001379
v 0.006041 -0.000096 0.001379
v 0.006041 0.000320 0.002323
v 0.006041 -0.000096 0.002323
v 0.015634 0.000320 0.000528
v 0.015634 -0.000096 0.000528
v 0.015634 0.000320 0.001472
v 0.015634 -0.000096 0.001472
v 0.035656 0.000320 0.000528
v 0.035656 -0.000096 0.000528
v 0.035656 0.000320 0.001472
v 0.035656 -0.000096 0.001472
v 0.064043 0.000224 0.003012
v 0.064043 0.000001 0.003012
v 0.064043 0.000224 0.003518
v 0.064043 0.000001 0.003518
v -0.000375 0.000763 -0.001241
v 0.000205 0.000763 -0.001241
v -0.000375 0.000101 -0.001244
v 0.000205 0.000101 -0.001244
v -0.000375 -0.000368 -0.000422
v 0.000205 -0.000368 -0.000422
v -0.000375 -0.000370 0.000745
v 0.000205 -0.000370 0.000745
v -0.000375 0.000097 0.001572
v 0.000205 0.000097 0.001572
v -0.000375 0.000758 0.001576
v 0.000205 0.000758 0.001576
v -0.000375 0.001227 0.000753
v 0.000205 0.001227 0.000753
v -0.000375 0.001229 -0.000414
v 0.000205 0.001229 -0.000414
v -0.000279 0.000653 -0.000775
v 0.000109 0.000653 -0.000775
v -0.000279 0.000210 -0.000778
v 0.000109 0.000210 -0.000778
v -0.000279 -0.000104 -0.000227
v 0.000109 -0.000104 -0.000227
v -0.000279 -0.000105 0.000553
v 0.000109 -0.000105 0.000553
v -0.000279 0.000207 0.001107
v 0.000109 0.000207 0.001107
v -0.000279 0.000649 0.001109
v 0.000109 0.000649 0.001109
v -0.000279 0.000963 0.000559
v 0.000109 0.000963 0.000559
v -0.000279 0.000965 -0.000222
v 0.000109 0.000965 -0.000222
v -0.000195 0.000267 0.025024
v 0.000025 0.000267 0.025024
v -0.000195 0.000400 0.025024
v 0.000025 0.000400 0.025024
vt 0.820200 0.974133
vt 0.820200 0.974133
vt 0.820200 0.966000
vt 0.820200 0.966000
vt 0.803933 0.957867
vt 0.803933 0.966000
vt 0.812067 0.966000
vt 0.812067 0.957867
vt 0.812067 0.974133
vt 0.812067 0.974133
vt 0.803933 0.974133
vt 0.803933 0.974133
vt 0.803933 0.982267
vt 0.812067 0.982267
vt 0.795800 0.966000
vt 0.795800 0.974133
vt 0.803933 0.974133
vt 0.803933 0.966000
vt 0.803933 0.966000
vt 0.812067 0.966000
vt 0.812067 0.966000
vt 0.812067 0.966000
vt 0.812067 0.974133
vt 0.812067 0.974133
vt 0.812067 0.974133
vt 0.803933 0.974133
vt 0.803933 0.974133
vt 0.803933 0.966000
vt 0.812067 0.966000
vt 0.812067 0.966000
vt 0.812067 0.974133
vt 0.803933 0.966000
vt 0.812067 0.966000
vt 0.812067 0.974133
vt 0.803933 0.966000
vt 0.803933 0.974133
vt 0.803933 0.966000
vt 0.803933 0.974133
vt 0.820200 0.974133
vt 0.820200 0.966000
vt 0.795800 0.966000
vt 0.795800 0.974133
vt 0.812067 0.957867
vt 0.803933 0.957867
vt 0.803933 0.982267
vt 0.812067 0.982267
vt 0.795800 0.966000
vt 0.795800 0.966000
vt 0.795800 0.974133
vt 0.795800 0.974133
vt 0.812067 0.957867
vt 0.803933 0.957867
vt 0.803933 0.982267
vt 0.812067 0.982267
vt 0.820200 0.974133
vt 0.820200 0.974133
vt 0.820200 0.966000
vt 0.820200 0.966000
vt 0.812067 0.957867
vt 0.803933 0.957867
vt 0.803933 0.982267
vt 0.812067 0.982267
vt 0.803933 0.949733
vt 0.803933 0.957867
vt 0.812067 0.957867
vt 0.812067 0.949733
vt 0.795800 0.966000
vt 0.795800 0.974133
vt 0.803933 0.982267
vt 0.812067 0.982267
vt 0.455594 0.785703
vt 0.455594 0.766297
vt 0.460445 0.766297
vt 0.460445 0.785703
vt 0.465297 0.766297
vt 0.465297 0.785703
vt 0.470148 0.766297
vt 0.470148 0.785703
vt 0.475000 0.766297
vt 0.475000 0.785703
vt 0.479852 0.766297
vt 0.479852 0.785703
vt 0.479852 0.785703
vt 0.479852 0.766297
vt 0.484703 0.766297
vt 0.484703 0.785703
vt 0.479852 0.785703
vt 0.475000 0.785703
vt 0.489555 0.766297
vt 0.489555 0.785703
vt 0.494406 0.766297
vt 0.494406 0.785703
vt 0.484703 0.785703
vt 0.455594 0.785703
vt 0.460445 0.785703
vt 0.460445 0.766297
vt 0.455594 0.766297
vt 0.465297 0.785703
vt 0.465297 0.766297
vt 0.470148 0.785703
vt 0.470148 0.766297
vt 0.475000 0.766297
vt 0.479852 0.766297
vt 0.484703 0.766297
vt 0.489555 0.785703
vt 0.489555 0.766297
vt 0.494406 0.785703
vt 0.494406 0.766297
vt 0.475000 0.785703
vt 0.475000 0.766297
vn 0.0000 -1.0000 0.0000
vn 0.0000 0.0000 1.0000
vn 0.9991 0.0000 -0.0431
vn 0.0000 0.0000 -1.0000
vn 0.0000 1.0000 -0.0000
vn -0.1492 0.9820 -0.1156
vn -0.1118 -0.9899 -0.0866
vn -0.9192 0.0000 0.3937
vn -0.9913 0.0000 0.1319
vn 0.9987 0.0000 0.0515
vn 0.7788 0.0000 0.6273
vn -0.9948 0.0000 -0.1014
vn 0.9938 0.0000 -0.1108
vn 0.0064 -1.0000 -0.0015
vn -0.0030 1.0000 0.0028
vn -0.0030 -1.0000 0.0028
vn -0.5214 0.0000 -0.8533
vn 0.0183 -0.9998 -0.0008
vn 0.1701 0.0000 -0.9854
vn -0.1491 0.0000 0.9888
vn 0.0064 1.0000 -0.0015
vn 0.9990 0.0000 -0.0451
vn 0.2856 0.0000 -0.9584
vn -0.2120 0.0000 0.9773
vn 0.0183 0.9998 -0.0008
vn -0.2891 0.0000 0.9573
vn 0.2891 0.0000 -0.9573
vn 0.0884 0.0000 0.9961
vn -0.0884 0.0000 -0.9961
vn 0.0034 -1.0000 0.0000
vn 1.0000 0.0000 0.0000
vn 0.0034 1.0000 0.0000
vn -0.0719 0.0000 0.9974
vn 0.0872 0.0000 -0.9962
vn -0.0000 0.0052 -1.0000
vn -0.0000 -0.8687 -0.4954
vn 0.0000 -1.0000 -0.0017
vn -0.0000 -0.8712 0.4910
vn 0.0000 0.9999 0.0153
vn 0.0000 0.8687 0.4954
vn -0.9795 0.0010 -0.2015
vn 0.0000 1.0000 0.0017
vn 0.0000 0.8712 -0.4910
vn -0.9593 -0.2454 -0.1399
vn -0.0000 -0.0052 1.0000
vn -0.9400 -0.3411 -0.0006
vn -0.9590 -0.2468 0.1391
vn -0.9590 0.2468 -0.1391
vn -0.9400 0.3411 0.0006
vn -0.9593 0.2454 0.1399
vn -0.9795 -0.0010 0.2015
vn 0.9590 -0.2468 0.1391
vn 0.9400 -0.3411 -0.0006
vn 0.9593 -0.2454 -0.1399
vn 0.9795 0.0010 -0.2015
vn 0.9590 0.2468 -0.1391
vn 0.9400 0.3411 0.0006
vn 0.9593 0.2454 0.1399
vn 0.9795 -0.0010 0.2015
vn -1.0000 -0.0000 0.0077
vn 1.0000 -0.0000 0.0077
vn -0.0000 -1.0000 0.0072
usemtl Material.005
s off
f 2/1/1 34/2/1 36/3/1 4/4/1
f 3/5/2 7/6/2 8/7/2 4/8/2
f 6/9/3 10/10/3 9/11/3 5/12/3
f 5/12/4 1/13/4 2/14/4 6/9/4
f 3/15/5 1/16/5 5/12/5 7/6/5
f 8/7/1 6/9/1 2/1/1 4/4/1
f 9/11/5 13/17/5 15/18/5 11/19/5
f 5/12/6 9/11/6 11/19/6 7/6/6
f 8/7/7 12/20/7 10/10/7 6/9/7
f 7/6/8 11/19/8 12/20/8 8/7/8
f 16/21/1 20/22/1 18/23/1 14/24/1
f 12/20/1 16/21/1 14/24/1 10/10/1
f 11/19/9 15/18/9 16/21/9 12/20/9
f 10/10/10 14/24/10 13/17/10 9/11/10
f 18/23/11 22/25/11 21/26/11 17/27/11
f 15/18/12 19/28/12 20/22/12 16/21/12
f 14/24/13 18/23/13 17/27/13 13/17/13
f 13/17/5 17/27/5 19/28/5 15/18/5
f 24/29/14 28/30/14 26/31/14 22/25/14
f 17/27/15 21/26/15 23/32/15 19/28/15
f 20/22/16 24/29/16 22/25/16 18/23/16
f 19/28/17 23/32/17 24/29/17 20/22/17
f 28/30/18 32/33/18 30/34/18 26/31/18
f 23/32/19 27/35/19 28/30/19 24/29/19
f 22/25/20 26/31/20 25/36/20 21/26/20
f 21/26/21 25/36/21 27/35/21 23/32/21
f 31/37/22 29/38/22 30/34/22 32/33/22
f 27/35/23 31/37/23 32/33/23 28/30/23
f 26/31/24 30/34/24 29/38/24 25/36/24
f 25/36/25 29/38/25 31/37/25 27/35/25
f 34/2/1 38/39/1 40/40/1 36/3/1
f 3/15/5 35/41/5 33/42/5 1/16/5
f 4/8/26 36/43/26 35/44/26 3/5/26
f 1/13/27 33/45/27 34/46/27 2/14/27
f 39/47/5 43/48/5 41/49/5 37/50/5
f 35/41/5 39/47/5 37/50/5 33/42/5
f 36/43/28 40/51/28 39/52/28 35/44/28
f 33/45/29 37/53/29 38/54/29 34/46/29
f 42/55/30 46/56/30 48/57/30 44/58/30
f 40/51/2 44/59/2 43/60/2 39/52/2
f 37/53/4 41/61/4 42/62/4 38/54/4
f 38/39/1 42/55/1 44/58/1 40/40/1
f 45/63/31 47/64/31 48/65/31 46/66/31
f 43/48/32 47/67/32 45/68/32 41/49/32
f 44/59/33 48/65/33 47/64/33 43/60/33
f 41/61/34 45/69/34 46/70/34 42/62/34
f 49/71/35 50/72/35 52/73/35 51/74/35
f 51/74/36 52/73/36 54/75/36 53/76/36
f 53/76/37 54/75/37 56/77/37 55/78/37
f 55/78/38 56/77/38 58/79/38 57/80/38
f 60/81/39 59/82/39 83/83/39 84/84/39
f 59/82/40 60/81/40 62/85/40 61/86/40
f 59/82/41 75/87/41 73/88/41 57/80/41
f 61/86/42 62/85/42 64/89/42 63/90/42
f 63/90/43 64/89/43 50/91/43 49/92/43
f 61/86/44 77/93/44 75/87/44 59/82/44
f 65/94/45 67/95/45 68/96/45 66/97/45
f 67/95/40 69/98/40 70/99/40 68/96/40
f 69/98/42 71/100/42 72/101/42 70/99/42
f 71/100/43 73/88/43 74/102/43 72/101/43
f 73/88/35 75/87/35 76/103/35 74/102/35
f 75/87/36 77/93/36 78/104/36 76/103/36
f 63/90/46 79/105/46 77/93/46 61/86/46
f 77/93/37 79/105/37 80/106/37 78/104/37
f 79/105/38 65/107/38 66/108/38 80/106/38
f 49/92/47 65/107/47 79/105/47 63/90/47
f 57/80/48 73/88/48 71/100/48 55/78/48
f 55/78/49 71/100/49 69/98/49 53/76/49
f 53/76/50 69/98/50 67/95/50 51/74/50
f 51/74/51 67/95/51 65/94/51 49/92/51
f 64/89/52 80/106/52 66/108/52 50/91/52
f 62/85/53 78/104/53 80/106/53 64/89/53
f 60/81/54 76/103/54 78/104/54 62/85/54
f 58/79/55 74/102/55 76/103/55 60/81/55
f 56/77/56 72/101/56 74/102/56 58/79/56
f 54/75/57 70/99/57 72/101/57 56/77/57
f 52/73/58 68/96/58 70/99/58 54/75/58
f 50/91/59 66/108/59 68/96/59 52/73/59
f 81/109/45 82/110/45 84/84/45 83/83/45
f 59/82/60 57/80/60 81/109/60 83/83/60
f 58/79/61 60/81/61 84/84/61 82/110/61
f 57/80/62 58/79/62 82/110/62 81/109/62
