# Blender v2.83.5 OBJ File: 'paper01.blend'
# www.blender.org
mtllib paper01.mtl
o Cube
v -0.075821 0.001899 0.124247
v -0.075821 0.005286 0.124247
v -0.075821 0.001899 -0.123156
v -0.075821 0.005286 -0.123156
v 0.074990 0.007079 0.120881
v 0.073843 0.010174 0.119181
v 0.077928 0.001899 -0.117198
v 0.077928 0.005286 -0.117198
v -0.075821 0.001899 -0.055143
v -0.075821 0.003592 0.124247
v -0.075821 0.005286 -0.055143
v -0.075821 0.003592 -0.123156
v -0.053211 0.001899 -0.119251
v -0.053211 0.005286 -0.119251
v 0.077928 0.003592 -0.117198
v 0.077928 0.001899 0.000000
v 0.077928 0.005286 0.000000
v 0.074417 0.008627 0.120031
v 0.001053 0.001899 0.124247
v 0.001053 0.005286 0.124247
v 0.001053 0.003592 0.124247
v -0.053211 0.003592 -0.119251
v -0.075821 0.003592 -0.055143
v 0.077928 0.005286 0.062123
v -0.037384 0.005286 0.124247
v -0.075821 0.005286 0.062123
v 0.039491 0.005286 0.124247
v 0.001053 0.005286 0.062123
v -0.037384 0.005286 0.000000
v -0.037384 0.006910 0.062123
v 0.077928 0.005286 0.093185
v -0.056603 0.005286 0.124247
v -0.075821 0.006626 0.031062
v 0.020272 0.005286 0.124247
v 0.001053 0.005286 0.093185
v 0.077928 0.005286 0.031062
v -0.018165 0.006626 0.124247
v -0.075821 0.005286 0.093185
v 0.058709 0.005286 0.124247
v -0.056603 0.005286 0.000000
v -0.037384 0.006240 0.093185
v -0.037384 0.006626 0.031062
v -0.018165 0.006626 0.062123
v -0.056603 0.006538 0.062123
v -0.056603 0.006626 0.031062
v -0.018165 0.005286 0.031062
v -0.018165 0.006626 0.093185
v 0.058709 0.005286 0.093185
v -0.056603 0.005286 0.093185
v -0.075821 0.001899 0.062123
v 0.039491 0.001899 0.124247
v 0.077928 0.001899 0.062123
v -0.037384 0.001899 0.124247
v -0.075821 0.001899 0.093185
v 0.058709 0.001899 0.124247
v 0.077928 0.001899 0.031062
v -0.018165 0.003240 0.124247
v -0.075821 0.003143 0.031062
v 0.020272 0.001899 0.124247
v 0.077928 0.001899 0.093185
v -0.056603 0.001899 0.124247
v 0.058709 0.001899 0.093185
v 0.077928 0.003592 0.093185
v 0.058709 0.003592 0.124247
vt 0.731761 0.950263
vt 0.736180 0.950263
vt 0.736180 0.954682
vt 0.731761 0.954682
vt 0.731761 0.959102
vt 0.736180 0.959102
vt 0.736180 0.963521
vt 0.731761 0.963521
vt 0.731761 0.971255
vt 0.736180 0.971255
vt 0.736180 0.972360
vt 0.731761 0.972360
vt 0.731761 0.976779
vt 0.736180 0.976779
vt 0.736180 0.977884
vt 0.736180 0.978989
vt 0.736180 0.980094
vt 0.736180 0.981199
vt 0.731761 0.981199
vt 0.726236 0.971255
vt 0.727341 0.971255
vt 0.727341 0.972360
vt 0.726236 0.972360
vt 0.743914 0.971255
vt 0.745019 0.971255
vt 0.745019 0.972360
vt 0.743914 0.972360
vt 0.727341 0.976779
vt 0.727341 0.981199
vt 0.727341 0.980094
vt 0.727341 0.978989
vt 0.727341 0.977884
vt 0.727341 0.973465
vt 0.731761 0.973465
vt 0.727341 0.975674
vt 0.727341 0.974570
vt 0.736180 0.973465
vt 0.736180 0.974570
vt 0.736180 0.975674
vt 0.727341 0.959102
vt 0.727341 0.963521
vt 0.727341 0.954682
vt 0.727341 0.950263
vt 0.727341 0.945844
vt 0.731761 0.945844
vt 0.727341 0.949158
vt 0.727341 0.948053
vt 0.727341 0.946949
vt 0.736180 0.945844
vt 0.736180 0.946949
vt 0.736180 0.948053
vt 0.736180 0.949158
vt 0.737285 0.971255
vt 0.738390 0.972360
vt 0.737285 0.972360
vt 0.741704 0.971255
vt 0.742809 0.971255
vt 0.742809 0.972360
vt 0.741704 0.972360
vt 0.741704 0.969045
vt 0.742809 0.969045
vt 0.742809 0.970150
vt 0.741704 0.970150
vt 0.743914 0.969045
vt 0.745019 0.969045
vt 0.745019 0.970150
vt 0.743914 0.970150
vt 0.742809 0.967941
vt 0.743914 0.967941
vt 0.745019 0.967941
vt 0.740599 0.963521
vt 0.745019 0.963521
vt 0.740599 0.970150
vt 0.740599 0.971255
vt 0.740599 0.972360
vt 0.739494 0.972360
vt 0.736180 0.970150
vt 0.736180 0.969045
vt 0.736180 0.967941
vt 0.718502 0.969045
vt 0.727341 0.969045
vt 0.727341 0.970150
vt 0.725131 0.972360
vt 0.724027 0.972360
vt 0.722922 0.972360
vt 0.721817 0.972360
vt 0.720712 0.972360
vt 0.719607 0.972360
vt 0.718502 0.972360
vt 0.718502 0.971255
vt 0.718502 0.970150
vt 0.727341 0.967941
vt 0.718502 0.967941
vt 0.718502 0.963521
vt 0.722922 0.963521
vn -1.0000 0.0000 0.0000
vn 0.0157 0.0000 -0.9999
vn 0.9745 0.1994 0.1026
vn 0.0000 0.0000 1.0000
vn 0.1525 -0.9838 0.0944
vn 0.0000 1.0000 0.0000
vn 0.9778 0.1938 0.0793
vn 0.1702 0.0000 -0.9854
vn -0.0449 0.9989 0.0153
vn 0.0422 0.9988 -0.0261
vn -0.0326 0.9992 0.0230
vn -0.0097 0.9999 -0.0031
vn 0.0000 0.9991 -0.0431
vn 0.0328 0.9992 -0.0228
vn 0.0015 1.0000 -0.0009
vn 0.0696 0.9976 0.0000
vn -0.0027 0.9999 0.0108
vn -0.1540 0.9835 -0.0953
vn -0.0248 0.9996 0.0154
vn -0.0345 0.9989 0.0309
vn -0.0326 0.9993 0.0201
vn -0.0014 -1.0000 -0.0051
vn 1.0000 0.0000 0.0000
vn 0.1381 0.2740 0.9518
vn 0.1927 0.2806 0.9403
vn -0.0023 -1.0000 0.0042
usemtl Material
s off
f 23/1/1 11/2/1 4/3/1 12/4/1
f 22/5/2 14/6/2 8/7/2 15/8/2
f 63/9/3 31/10/3 6/11/3 18/12/3
f 21/13/4 20/14/4 37/15/4 25/16/4 32/17/4 2/18/4 10/19/4
f 62/20/5 60/21/5 5/22/5 55/23/5
f 49/24/6 38/25/6 2/26/6 32/27/6
f 19/28/4 21/13/4 10/19/4 1/29/4 61/30/4 53/31/4 57/32/4
f 55/33/4 64/34/4 21/13/4 19/28/4 59/35/4 51/36/4
f 64/34/4 39/37/4 27/38/4 34/39/4 20/14/4 21/13/4
f 60/21/7 63/9/7 18/12/7 5/22/7
f 13/40/2 22/5/2 15/8/2 7/41/2
f 3/42/8 12/4/8 22/5/8 13/40/8
f 12/4/8 4/3/8 14/6/8 22/5/8
f 9/43/1 23/1/1 12/4/1 3/42/1
f 1/44/1 10/45/1 23/1/1 9/43/1 58/46/1 50/47/1 54/48/1
f 10/45/1 2/49/1 38/50/1 26/51/1 33/52/1 11/2/1 23/1/1
f 48/53/6 27/54/6 39/55/6
f 47/56/9 41/57/9 25/58/9 37/59/9
f 46/60/10 42/61/10 30/62/10 43/63/10
f 45/64/11 33/65/11 26/66/11 44/67/11
f 42/61/12 45/64/12 44/67/12 30/62/12
f 29/68/13 40/69/13 45/64/13 42/61/13
f 40/69/14 11/70/14 33/65/14 45/64/14
f 14/71/15 4/72/15 11/70/15 40/69/15 29/68/15 42/61/15 46/60/15 43/63/15 28/73/15 35/74/15 20/75/15 34/76/15 27/54/15 48/53/15 24/77/15 36/78/15 17/79/15 8/7/15
f 35/74/16 47/56/16 37/59/16 20/75/16
f 28/73/16 43/63/16 47/56/16 35/74/16
f 43/63/17 30/62/17 41/57/17 47/56/17
f 31/10/18 48/53/18 39/55/18 6/11/18
f 24/77/6 48/53/6 31/10/6
f 41/57/19 49/24/19 32/27/19 25/58/19
f 30/62/20 44/67/20 49/24/20 41/57/20
f 44/67/21 26/66/21 38/25/21 49/24/21
f 58/80/22 56/81/22 52/82/22 60/21/22 62/20/22 55/23/22 51/83/22 59/84/22 19/85/22 57/86/22 53/87/22 61/88/22 1/89/22 54/90/22 50/91/22
f 15/8/23 8/7/23 17/79/23 36/78/23 24/77/23 31/10/23 63/9/23 60/21/23 52/82/23 56/81/23 16/92/23 7/41/23
f 5/22/24 18/12/24 64/34/24 55/33/24
f 18/12/25 6/11/25 39/37/25 64/34/25
f 9/93/26 3/94/26 13/95/26 7/41/26 16/92/26 56/81/26 58/80/26
