# Blender v2.83.5 OBJ File: 'pencil01.blend'
# www.blender.org
mtllib pencil01.mtl
o Cylinder
v -0.002465 0.008872 -0.059789
v -0.002465 0.008872 0.055131
v 0.002465 0.008872 -0.059789
v 0.002465 0.008872 0.055131
v 0.004930 0.004602 -0.059789
v 0.004930 0.004602 0.055131
v 0.002465 0.000332 -0.059789
v 0.002465 0.000332 0.055131
v -0.002465 0.000332 -0.059789
v -0.002465 0.000332 0.055131
v -0.004930 0.004602 -0.059789
v -0.004930 0.004602 0.055131
v -0.000924 0.006203 -0.072125
v 0.000924 0.006203 -0.072125
v 0.001849 0.004602 -0.072125
v 0.000924 0.003001 -0.072125
v -0.000924 0.003001 -0.072125
v -0.001849 0.004602 -0.072125
v 0.000000 0.004602 -0.078088
vt 0.551349 0.782072
vt 0.551349 0.793104
vt 0.547672 0.793104
vt 0.547672 0.782072
vt 0.543995 0.793104
vt 0.543995 0.782072
vt 0.540317 0.793104
vt 0.540317 0.782072
vt 0.536640 0.793104
vt 0.536640 0.782072
vt 0.539387 0.779204
vt 0.534801 0.781852
vt 0.530216 0.779204
vt 0.530216 0.773909
vt 0.534801 0.771261
vt 0.539387 0.773909
vt 0.532963 0.793104
vt 0.532963 0.782072
vt 0.529286 0.793104
vt 0.529286 0.782072
vt 0.421680 0.960981
vt 0.418003 0.960981
vt 0.418003 0.960981
vt 0.421680 0.960981
vt 0.093148 0.971060
vt 0.089471 0.971060
vt 0.093148 0.971060
vt 0.410648 0.960981
vt 0.406971 0.960981
vt 0.406971 0.960981
vt 0.410648 0.960981
vt 0.425357 0.960981
vt 0.425357 0.960981
vt 0.414325 0.960981
vt 0.414325 0.960981
vt 0.403294 0.960981
vt 0.403294 0.960981
vt 0.100503 0.971060
vt 0.096825 0.971060
vt 0.100503 0.971060
vt 0.107857 0.971060
vt 0.104180 0.971060
vt 0.107857 0.971060
vt 0.085793 0.971060
vt 0.089471 0.971060
vt 0.096825 0.971060
vt 0.104180 0.971060
vn 0.0000 1.0000 0.0000
vn 0.8660 0.5000 0.0000
vn 0.8660 -0.5000 -0.0000
vn -0.0000 -1.0000 -0.0000
vn -0.0000 0.0000 1.0000
vn -0.8660 -0.5000 0.0000
vn -0.8660 0.5000 0.0000
vn 0.8464 0.4887 -0.2114
vn -0.8364 -0.4829 -0.2593
vn -0.8464 -0.4887 -0.2114
vn 0.0000 0.9774 -0.2114
vn 0.8464 -0.4887 -0.2114
vn -0.8464 0.4887 -0.2114
vn -0.0000 -0.9774 -0.2114
vn 0.8364 -0.4829 -0.2593
vn 0.0000 0.9658 -0.2593
vn -0.8364 0.4829 -0.2593
vn 0.0000 -0.9658 -0.2593
vn 0.8364 0.4829 -0.2593
usemtl Material.001
s off
f 1/1/1 2/2/1 4/3/1 3/4/1
f 3/4/2 4/3/2 6/5/2 5/6/2
f 5/6/3 6/5/3 8/7/3 7/8/3
f 7/8/4 8/7/4 10/9/4 9/10/4
f 4/11/5 2/12/5 12/13/5 10/14/5 8/15/5 6/16/5
f 9/10/6 10/9/6 12/17/6 11/18/6
f 11/18/7 12/17/7 2/19/7 1/20/7
f 3/21/8 5/22/8 15/23/8 14/24/8
f 17/25/9 18/26/9 19/27/9
f 9/28/10 11/29/10 18/30/10 17/31/10
f 1/32/11 3/21/11 14/24/11 13/33/11
f 5/22/12 7/34/12 16/35/12 15/23/12
f 11/29/13 1/36/13 13/37/13 18/30/13
f 7/34/14 9/28/14 17/31/14 16/35/14
f 15/38/15 16/39/15 19/40/15
f 13/41/16 14/42/16 19/43/16
f 18/26/17 13/44/17 19/45/17
f 16/39/18 17/25/18 19/46/18
f 14/42/19 15/38/19 19/47/19
