# Blender v2.83.5 OBJ File: 'thimble01.blend'
# www.blender.org
mtllib thimble01.mtl
o Cylinder
v -0.000000 0.000177 -0.011450
v -0.000000 0.021264 -0.011450
v 0.008096 0.000177 -0.008096
v 0.008096 0.021264 -0.008096
v 0.011450 0.000177 -0.000000
v 0.011450 0.021264 -0.000000
v 0.008096 0.000177 0.008096
v 0.008096 0.021264 0.008096
v -0.000000 0.000177 0.011450
v -0.000000 0.021264 0.011450
v -0.008096 0.000177 0.008096
v -0.008096 0.021264 0.008096
v -0.011450 0.000177 -0.000000
v -0.011450 0.021264 -0.000000
v -0.008096 0.000177 -0.008096
v -0.008096 0.021264 -0.008096
v -0.000000 0.024532 -0.007027
v 0.004969 0.024532 -0.004969
v 0.007027 0.024532 -0.000000
v 0.004969 0.024532 0.004969
v -0.000000 0.024532 0.007027
v -0.004969 0.024532 0.004969
v -0.007027 0.024532 -0.000000
v -0.004969 0.024532 -0.004969
v -0.000000 0.021404 -0.010431
v 0.007375 0.021404 -0.007375
v 0.010430 0.021404 -0.000000
v 0.007375 0.021404 0.007375
v -0.000000 0.021404 0.010430
v -0.007376 0.021404 0.007375
v -0.010431 0.021404 -0.000000
v -0.007376 0.021404 -0.007375
v -0.000000 0.023498 -0.007327
v 0.005181 0.023498 -0.005181
v 0.007327 0.023498 -0.000000
v 0.005181 0.023498 0.005181
v -0.000000 0.023498 0.007327
v -0.005181 0.023498 0.005181
v -0.007327 0.023498 -0.000000
v -0.005181 0.023498 -0.005181
vt 0.426026 0.776067
vt 0.426026 0.790142
vt 0.422508 0.790142
vt 0.422508 0.776067
vt 0.418989 0.790142
vt 0.418989 0.776067
vt 0.415470 0.790142
vt 0.415470 0.776067
vt 0.411951 0.790142
vt 0.411951 0.776067
vt 0.408432 0.790142
vt 0.408432 0.776067
vt 0.404914 0.790142
vt 0.404914 0.776067
vt 0.422508 0.790142
vt 0.418989 0.790142
vt 0.401395 0.790142
vt 0.401395 0.776067
vt 0.397876 0.790142
vt 0.397876 0.776067
vt 0.404914 0.776067
vt 0.408432 0.776067
vt 0.409691 0.773807
vt 0.404914 0.775786
vt 0.400136 0.773807
vt 0.398157 0.769029
vt 0.400136 0.764252
vt 0.404914 0.762273
vt 0.409691 0.764252
vt 0.411670 0.769029
vt 0.411951 0.790142
vt 0.408432 0.790142
vt 0.401395 0.790142
vt 0.397876 0.790142
vt 0.426026 0.790142
vt 0.415470 0.790142
vt 0.404914 0.790142
vt 0.401395 0.776067
vt 0.397876 0.776067
vt 0.397876 0.776067
vt 0.401395 0.776067
vt 0.411951 0.776067
vt 0.415470 0.776067
vt 0.418989 0.776067
vt 0.422508 0.776067
vt 0.426026 0.776067
vt 0.418989 0.775786
vt 0.423766 0.773807
vt 0.425745 0.769029
vt 0.423766 0.764252
vt 0.418989 0.762273
vt 0.414212 0.764252
vt 0.412233 0.769029
vt 0.414212 0.773807
vt 0.404914 0.776067
vt 0.408432 0.776067
vt 0.411951 0.776067
vt 0.415470 0.776067
vt 0.418989 0.776067
vt 0.422508 0.776067
vt 0.426026 0.776067
vn 0.3827 0.0000 -0.9239
vn 0.9239 0.0000 -0.3827
vn 0.9239 0.0000 0.3827
vn 0.3827 0.0000 0.9239
vn -0.3827 0.0000 0.9239
vn -0.9239 0.0000 0.3827
vn 0.5771 0.7809 -0.2391
vn -0.9239 0.0000 -0.3827
vn -0.3827 0.0000 -0.9239
vn 0.9230 -0.0443 -0.3823
vn 0.0000 1.0000 0.0000
vn -0.2391 0.7809 0.5771
vn -0.2391 0.7809 -0.5771
vn 0.2391 0.7809 -0.5771
vn 0.5771 0.7809 0.2391
vn -0.5771 0.7809 0.2391
vn 0.2391 0.7809 0.5771
vn -0.5771 0.7809 -0.2391
vn 0.2257 -0.8076 0.5449
vn -0.3823 -0.0443 -0.9230
vn 0.9230 -0.0443 0.3823
vn -0.9230 -0.0443 0.3823
vn 0.3823 -0.0443 -0.9230
vn 0.3823 -0.0443 0.9230
vn -0.3823 -0.0443 0.9230
vn -0.9230 -0.0443 -0.3823
vn 0.0000 -1.0000 0.0000
vn 0.5449 -0.8076 -0.2257
vn -0.2257 -0.8076 -0.5449
vn -0.5449 -0.8076 0.2257
vn 0.5449 -0.8076 0.2257
vn 0.2257 -0.8076 -0.5449
vn -0.5449 -0.8076 -0.2257
vn -0.2257 -0.8076 0.5449
usemtl Material.003
s off
f 1/1/1 2/2/1 4/3/1 3/4/1
f 3/4/2 4/3/2 6/5/2 5/6/2
f 5/6/3 6/5/3 8/7/3 7/8/3
f 7/8/4 8/7/4 10/9/4 9/10/4
f 9/10/5 10/9/5 12/11/5 11/12/5
f 11/12/6 12/11/6 14/13/6 13/14/6
f 6/5/7 4/3/7 18/15/7 19/16/7
f 13/14/8 14/13/8 16/17/8 15/18/8
f 15/18/9 16/17/9 2/19/9 1/20/9
f 11/12/10 13/14/10 31/21/10 30/22/10
f 18/23/11 17/24/11 24/25/11 23/26/11 22/27/11 21/28/11 20/29/11 19/30/11
f 12/11/12 10/9/12 21/31/12 22/32/12
f 2/19/13 16/17/13 24/33/13 17/34/13
f 4/3/14 2/2/14 17/35/14 18/15/14
f 8/7/15 6/5/15 19/16/15 20/36/15
f 14/13/16 12/11/16 22/32/16 23/37/16
f 10/9/17 8/7/17 20/36/17 21/31/17
f 16/17/18 14/13/18 23/37/18 24/33/18
f 32/38/19 25/39/19 33/40/19 40/41/19
f 7/8/20 9/10/20 29/42/20 28/43/20
f 13/14/21 15/18/21 32/38/21 31/21/21
f 3/4/22 5/6/22 27/44/22 26/45/22
f 9/10/23 11/12/23 30/22/23 29/42/23
f 15/18/24 1/20/24 25/39/24 32/38/24
f 1/1/25 3/4/25 26/45/25 25/46/25
f 5/6/26 7/8/26 28/43/26 27/44/26
f 33/47/27 34/48/27 35/49/27 36/50/27 37/51/27 38/52/27 39/53/27 40/54/27
f 30/22/28 31/21/28 39/55/28 38/56/28
f 28/43/29 29/42/29 37/57/29 36/58/29
f 26/45/30 27/44/30 35/59/30 34/60/30
f 31/21/31 32/38/31 40/41/31 39/55/31
f 29/42/32 30/22/32 38/56/32 37/57/32
f 27/44/33 28/43/33 36/58/33 35/59/33
f 25/46/34 26/45/34 34/60/34 33/61/34
